<svg width="49" height="48" viewBox="0 0 49 48" fill="none" xmlns="http://www.w3.org/2000/svg">
<path d="M14.5002 21H9.5C8.39544 21 7.5 21.8954 7.5 23V33C7.5 34.1046 8.39544 35 9.5 35H15.5M42.3968 23.3812L38.0634 35.1292C37.4384 36.8236 35.7612 37.8894 33.9626 37.7256C30.031 37.3678 23.0898 36.724 18.0241 36.1896C16.0108 35.977 14.5002 34.2736 14.5002 32.2492V22.1046C14.5002 21.0138 14.9457 19.9702 15.7334 19.2158L25.8054 9.56912C25.9446 9.4358 26.0712 9.28984 26.2018 9.14816C27.2774 7.98194 29.0432 7.65736 30.4926 8.39098C32.0312 9.169 32.7696 10.9126 32.2398 12.5176L29.688 17.8668C29.3714 18.5305 29.8554 19.2974 30.5906 19.2974H39.1252C40.1658 19.2974 41.1476 19.7633 41.788 20.5612C42.4268 21.3592 42.653 22.4002 42.3968 23.3812Z" stroke="#555A65" stroke-width="3" stroke-linecap="round"/>
<path d="M14.5002 21H9.5C8.39544 21 7.5 21.8954 7.5 23V33C7.5 34.1046 8.39544 35 9.5 35H15.5M42.3968 23.3812L38.0634 35.1292C37.4384 36.8236 35.7612 37.8894 33.9626 37.7256C30.031 37.3678 23.0898 36.724 18.0241 36.1896C16.0108 35.977 14.5002 34.2736 14.5002 32.2492V22.1046C14.5002 21.0138 14.9457 19.9702 15.7334 19.2157L25.8054 9.5691C25.9446 9.43578 26.0712 9.28981 26.2018 9.14813C27.2774 7.98191 29.0432 7.65733 30.4926 8.39095C32.0312 9.16897 32.7696 10.9125 32.2398 12.5176L29.688 17.8668C29.3714 18.5305 29.8554 19.2974 30.5906 19.2974H39.1252C40.1658 19.2974 41.1476 19.7632 41.788 20.5612C42.4268 21.3592 42.653 22.4002 42.3968 23.3812Z" stroke="#555A65" stroke-width="3" stroke-linecap="round"/>
</svg>
