<svg width="49" height="48" viewBox="0 0 49 48" fill="none" xmlns="http://www.w3.org/2000/svg">
<path d="M25.1481 18.7637L11.3241 11.7819M25.1481 18.7637L38.9721 11.7819M25.1481 18.7637C22.8441 26.9092 14.7801 33.891 10.1721 36.2182M11.3241 11.7819L25.1481 4.80005L38.9721 11.7819M11.3241 11.7819C13.6281 16.4365 13.6281 29.2364 10.1721 36.2182M38.9721 11.7819C38.9721 15.4107 38.3497 20.9256 35.9727 26.856M10.1721 36.2182L23.9961 43.2M35.9727 26.856C35.9763 30.3482 37.8201 36.2182 37.8201 36.2182L23.9961 43.2M35.9727 26.856C33.7763 32.3358 30.0819 38.1706 23.9961 43.2M35.9727 26.856V26.8458" stroke="#407BFF" stroke-width="3" stroke-linecap="round"/>
</svg>
