<svg width="49" height="48" viewBox="0 0 49 48" fill="none" xmlns="http://www.w3.org/2000/svg">
<path d="M32.499 33H39.499C41.7082 33 43.5966 31.1024 42.5554 29.154C40.8434 25.9506 36.9848 24 32.499 24C30.304 24 28.2652 24.445 26.5554 25.2728M6.4427 34.154C8.15466 30.9506 12.0133 29 16.499 29C20.9848 29 24.8434 30.9506 26.5554 34.154C27.5966 36.1024 25.7082 38 23.499 38H9.49904C7.2899 38 5.40148 36.1024 6.4427 34.154ZM21.499 18C21.499 20.7614 19.2605 23 16.499 23C13.7376 23 11.499 20.7614 11.499 18C11.499 15.2386 13.7376 13 16.499 13C19.2605 13 21.499 15.2386 21.499 18ZM37.499 13C37.499 15.7614 35.2604 18 32.499 18C29.7376 18 27.499 15.7614 27.499 13C27.499 10.2386 29.7376 8 32.499 8C35.2604 8 37.499 10.2386 37.499 13Z" stroke="#555A65" stroke-width="3" stroke-linecap="round"/>
</svg>
