<svg width="398" height="352" viewBox="0 0 398 352" fill="none" xmlns="http://www.w3.org/2000/svg">
<path d="M33.58 322.49H0.459961V322.74H33.58V322.49Z" fill="#EBEBEB"/>
<path d="M127.83 325.21H83.3301V325.46H127.83V325.21Z" fill="#EBEBEB"/>
<path d="M105 313.21H34.5801V313.46H105V313.21Z" fill="#EBEBEB"/>
<path d="M397.9 314.89H385.21V315.14H397.9V314.89Z" fill="#EBEBEB"/>
<path d="M376.3 314.89H339.47V315.14H376.3V314.89Z" fill="#EBEBEB"/>
<path d="M256.33 319.11H225.21V319.36H256.33V319.11Z" fill="#EBEBEB"/>
<path d="M53.7799 129.8L345.67 129.8V13.2L53.7799 13.2V129.8Z" fill="#EBEBEB"/>
<path d="M53.7701 13.2H50.3301V129.8H53.7701V13.2Z" fill="#E0E0E0"/>
<path d="M64.2802 119.29L335.16 119.29V23.7L64.2802 23.7V119.29Z" fill="white"/>
<path d="M245.79 119.29H261.02L304.83 23.71H289.61L245.79 119.29Z" fill="#F5F5F5"/>
<path d="M224.24 119.29H239.46L283.28 23.71H268.05L224.24 119.29Z" fill="#F5F5F5"/>
<path d="M83.1104 119.29H98.3403L142.16 23.71H126.93L83.1104 119.29Z" fill="#F5F5F5"/>
<path d="M374.37 306.4H292.27L284.99 170.66H367.08L374.37 306.4Z" fill="#E0E0E0"/>
<path d="M376.88 306.4H294.78L287.5 170.66H369.59L376.88 306.4Z" fill="#F0F0F0"/>
<path d="M331.88 292.4H328.88C328.591 292.4 328.305 292.342 328.038 292.229C327.772 292.116 327.531 291.95 327.331 291.742C327.13 291.534 326.973 291.288 326.87 291.017C326.767 290.747 326.719 290.459 326.73 290.17L330.36 186.75C330.381 186.191 330.617 185.662 331.02 185.274C331.423 184.886 331.961 184.67 332.52 184.67H335.52C335.81 184.67 336.096 184.728 336.363 184.841C336.63 184.954 336.871 185.119 337.073 185.327C337.274 185.535 337.432 185.782 337.536 186.052C337.64 186.322 337.689 186.611 337.68 186.9L334 290.32C333.982 290.873 333.752 291.398 333.357 291.785C332.962 292.172 332.433 292.393 331.88 292.4Z" fill="#FAFAFA"/>
<path d="M351.27 292.4H348.27C347.981 292.399 347.696 292.34 347.43 292.226C347.165 292.113 346.925 291.947 346.724 291.739C346.524 291.531 346.367 291.285 346.263 291.016C346.16 290.746 346.111 290.459 346.12 290.17L349.75 186.75C349.773 186.192 350.011 185.664 350.413 185.277C350.816 184.889 351.352 184.672 351.91 184.67H354.91C355.2 184.67 355.487 184.728 355.753 184.841C356.02 184.954 356.261 185.119 356.463 185.327C356.664 185.535 356.822 185.782 356.926 186.052C357.031 186.322 357.08 186.611 357.07 186.9L353.43 290.32C353.412 290.88 353.176 291.41 352.773 291.799C352.369 292.187 351.83 292.403 351.27 292.4Z" fill="#FAFAFA"/>
<path d="M312.48 292.4H309.48C309.191 292.399 308.905 292.34 308.639 292.226C308.373 292.113 308.132 291.948 307.931 291.74C307.729 291.532 307.572 291.286 307.467 291.017C307.362 290.747 307.312 290.459 307.32 290.17L311 186.75C311.018 186.192 311.253 185.663 311.654 185.275C312.055 184.887 312.592 184.67 313.15 184.67H316.15C316.439 184.67 316.726 184.728 316.992 184.841C317.258 184.954 317.499 185.12 317.699 185.328C317.9 185.536 318.057 185.783 318.16 186.053C318.263 186.323 318.311 186.611 318.3 186.9L314.67 290.32C314.649 290.884 314.408 291.418 313.999 291.806C313.59 292.195 313.045 292.408 312.48 292.4Z" fill="#FAFAFA"/>
<path d="M37.5598 194.56H19.0498V300.78H37.5598V194.56Z" fill="#F0F0F0"/>
<path d="M226.51 300.79H22.5996V306.4H226.51V300.79Z" fill="#F0F0F0"/>
<path d="M37.5596 300.79H230.06V194.57L37.5596 194.57V300.79Z" fill="#F5F5F5"/>
<path d="M35.6397 189.67H16.7197V194.57H35.6397V189.67Z" fill="#F0F0F0"/>
<path d="M35.6396 194.56L232.39 194.56V189.66L35.6396 189.66V194.56Z" fill="#FAFAFA"/>
<path d="M223.41 235.15H44.21V204.85H223.41V235.15ZM45.41 233.9H222.11V206.09H45.46L45.41 233.9Z" fill="#E0E0E0"/>
<path d="M223.41 290.5H44.21V242.57H223.41V290.5ZM45.41 289.26H222.11V243.82H45.46L45.41 289.26Z" fill="#E0E0E0"/>
<path d="M197.62 218H69.9896C69.0839 218 68.3496 218.734 68.3496 219.64V220.34C68.3496 221.246 69.0839 221.98 69.9896 221.98H197.62C198.525 221.98 199.26 221.246 199.26 220.34V219.64C199.26 218.734 198.525 218 197.62 218Z" fill="#E0E0E0"/>
<path d="M197.62 255.73H69.9896C69.0839 255.73 68.3496 256.464 68.3496 257.37V258.07C68.3496 258.976 69.0839 259.71 69.9896 259.71H197.62C198.525 259.71 199.26 258.976 199.26 258.07V257.37C199.26 256.464 198.525 255.73 197.62 255.73Z" fill="#E0E0E0"/>
<path d="M44.8301 174.92C44.8301 183.06 54.1601 189.67 65.6601 189.67C77.1601 189.67 86.5001 183.06 86.5001 174.92H44.8301Z" fill="#EBEBEB"/>
<path d="M123.85 184.67C123.85 187.43 133.17 189.67 144.68 189.67C156.19 189.67 165.51 187.43 165.51 184.67H123.85Z" fill="#F5F5F5"/>
<path d="M123.85 181C123.85 183.76 133.17 186 144.68 186C156.19 186 165.51 183.76 165.51 181H123.85Z" fill="#F5F5F5"/>
<path d="M171.74 184.67C171.74 187.43 181.06 189.67 192.57 189.67C204.08 189.67 213.4 187.43 213.4 184.67H171.74Z" fill="#F5F5F5"/>
<path d="M171.74 181C171.74 183.76 181.06 186 192.57 186C204.08 186 213.4 183.76 213.4 181H171.74Z" fill="#F5F5F5"/>
<path d="M198 351.56C305.083 351.56 391.89 346.492 391.89 340.24C391.89 333.988 305.083 328.92 198 328.92C90.9179 328.92 4.11035 333.988 4.11035 340.24C4.11035 346.492 90.9179 351.56 198 351.56Z" fill="#F5F5F5"/>
<path d="M137.45 331.78H145.27L146.87 313.67H139.05L137.45 331.78Z" fill="#FFB573"/>
<path d="M146.54 330.87H137C136.843 330.873 136.69 330.928 136.565 331.025C136.441 331.122 136.352 331.257 136.31 331.41L134.52 338.36C134.475 338.526 134.469 338.699 134.503 338.868C134.537 339.036 134.61 339.194 134.716 339.329C134.822 339.464 134.958 339.573 135.113 339.646C135.269 339.719 135.439 339.754 135.61 339.75C138.68 339.7 140.93 339.52 144.79 339.52C147.17 339.52 154.32 339.76 157.61 339.76C160.9 339.76 161.43 336.52 160.1 336.22C154.1 334.91 149.65 333.09 147.78 331.35C147.442 331.039 147 330.868 146.54 330.87Z" fill="#263238"/>
<path opacity="0.2" d="M139.051 313.68H146.871L146.041 323.01H138.221L139.051 313.68Z" fill="black"/>
<path d="M153.68 151.71C153.68 151.71 158.68 212.4 157.28 235.31C155.7 260.39 149.7 321.2 149.7 321.2H135.38C135.38 321.2 136.63 264.57 135.9 240.2C135.08 212.39 126.69 152.09 126.69 152.09L153.68 151.71Z" fill="#263238"/>
<path d="M150.94 321.51H134.07L134.25 316.47L152.14 316.14L150.94 321.51Z" fill="#407BFF"/>
<path d="M149.08 332.24C149.617 332.279 150.152 332.138 150.6 331.84C150.748 331.722 150.863 331.568 150.935 331.393C151.007 331.218 151.033 331.028 151.01 330.84C151.018 330.734 150.995 330.629 150.943 330.536C150.892 330.444 150.814 330.369 150.72 330.32C149.86 329.87 147.29 331.42 147 331.6C146.968 331.619 146.943 331.648 146.926 331.681C146.91 331.715 146.905 331.753 146.91 331.79C146.915 331.825 146.93 331.858 146.953 331.885C146.976 331.911 147.006 331.93 147.04 331.94C147.707 332.117 148.391 332.217 149.08 332.24ZM150.3 330.62C150.383 330.62 150.464 330.637 150.54 330.67C150.54 330.67 150.64 330.74 150.64 330.89C150.652 331.015 150.633 331.141 150.586 331.258C150.539 331.374 150.465 331.478 150.37 331.56C149.495 331.96 148.501 332.01 147.59 331.7C148.417 331.172 149.337 330.806 150.3 330.62Z" fill="#407BFF"/>
<path d="M147.08 332C147.109 332.009 147.141 332.009 147.17 332C148 331.56 149.62 329.85 149.49 329C149.469 328.864 149.4 328.74 149.295 328.65C149.191 328.56 149.058 328.511 148.92 328.51C148.777 328.495 148.633 328.508 148.496 328.55C148.359 328.591 148.231 328.659 148.12 328.75C147.19 329.49 146.92 331.75 146.91 331.84C146.904 331.872 146.908 331.905 146.92 331.935C146.932 331.965 146.953 331.991 146.98 332.01C147.014 332.016 147.048 332.012 147.08 332ZM148.78 328.83H148.86C149.1 328.83 149.12 328.97 149.12 329.02C149.2 329.53 148.12 330.83 147.33 331.44C147.418 330.543 147.765 329.692 148.33 328.99C148.451 328.871 148.611 328.8 148.78 328.79V328.83Z" fill="#407BFF"/>
<path d="M78.7109 318.05L86.0209 320.56L94.2809 304.04L86.9709 301.53L78.7109 318.05Z" fill="#FFB573"/>
<path d="M87.2505 320.87L79.6405 315.4C79.5132 315.312 79.3595 315.269 79.2049 315.28C79.0503 315.291 78.9041 315.355 78.7905 315.46L73.3605 320.26C73.2291 320.373 73.1249 320.514 73.0557 320.673C72.9865 320.831 72.9541 321.004 72.9608 321.177C72.9676 321.35 73.0133 321.519 73.0946 321.672C73.1759 321.825 73.2907 321.958 73.4305 322.06C75.9105 323.77 77.8105 324.91 80.8905 327.13C82.7905 328.49 88.3605 332.81 90.9805 334.69C93.6005 336.57 95.9105 334.17 94.9805 333.15C90.9805 328.62 88.4405 324.52 87.9805 322C87.8933 321.543 87.6315 321.137 87.2505 320.87Z" fill="#263238"/>
<path d="M142.921 85.89L144.821 85.47L146.821 85C148.151 84.67 149.481 84.31 150.821 83.93C153.461 83.16 156.061 82.31 158.571 81.34C161.035 80.4054 163.434 79.3063 165.751 78.05C167.896 76.8989 169.891 75.4883 171.691 73.85L172.291 73.27C172.451 73.08 172.611 72.92 172.781 72.72C173.121 72.3 173.481 71.84 173.831 71.32C174.551 70.32 175.271 69.18 175.951 68C177.301 65.63 178.641 63.13 179.951 60.57C182.491 55.47 184.951 50.17 187.391 44.94L192.981 46.74C191.735 52.587 190.129 58.3513 188.171 64C187.171 66.84 186.171 69.69 184.831 72.54C184.181 73.96 183.481 75.39 182.641 76.86C182.221 77.59 181.751 78.33 181.221 79.09C180.961 79.47 180.631 79.87 180.341 80.25L179.451 81.25C178.271 82.5417 176.997 83.745 175.641 84.85C174.326 85.8878 172.957 86.8558 171.541 87.75C168.809 89.4559 165.943 90.9375 162.971 92.18C160.093 93.4058 157.145 94.4577 154.141 95.33C152.654 95.77 151.154 96.17 149.641 96.53C148.891 96.72 148.131 96.9 147.361 97.06C146.591 97.22 145.871 97.35 144.961 97.51L142.921 85.89Z" fill="#FFB573"/>
<path d="M139 99.38C145 103.61 166.83 96.6799 166.83 96.6799L163.83 77.39C163.83 77.39 154.9 79.5 145.53 82.25C139.16 84.09 132.41 94.78 139 99.38Z" fill="#407BFF"/>
<path d="M186.421 48.0699L187.901 39.8199L195.421 44.6299C195.126 45.7909 194.596 46.8793 193.865 47.8284C193.135 48.7776 192.218 49.5676 191.171 50.1499L186.421 48.0699Z" fill="#FFB573"/>
<path d="M190.02 35.13L195.84 33.05L195.43 44.63L187.9 39.82L190.02 35.13Z" fill="#FFB573"/>
<path opacity="0.2" d="M86.9702 301.53L94.2802 304.05L90.0202 312.56L82.7002 310.05L86.9702 301.53Z" fill="black"/>
<path d="M111 84.28C112.506 92.8699 113.362 101.561 113.56 110.28C113.73 116.38 113.64 122.17 113.42 127.43C112.93 139.73 111.79 149.07 111.86 152.27L153.69 151.75C163.49 107.67 154.82 84.17 154.82 84.17C151.581 83.3607 148.295 82.7562 144.98 82.36C144.28 82.28 143.57 82.21 142.84 82.15C136.911 81.8821 130.971 81.9555 125.05 82.37C123.93 82.44 122.79 82.54 121.68 82.65C116 83.2 111 84.28 111 84.28Z" fill="#407BFF"/>
<path d="M125.001 82.33C130.922 81.9155 136.862 81.8421 142.791 82.11C143.511 82.17 144.231 82.24 144.931 82.32H145.181C146.181 85 146.311 90.78 140.441 91.25C132.441 91.89 125.001 86.66 121.631 82.59C122.771 82.5 123.921 82.4 125.001 82.33Z" fill="white"/>
<path opacity="0.2" d="M120.441 96.12C119.899 102.566 117.529 108.723 113.611 113.87C113.611 112.68 113.611 111.47 113.551 110.25C113.421 105.67 113.141 100.92 112.641 96.11L120.441 96.12Z" fill="black"/>
<path d="M127.28 62.29C128.28 68 129.14 78.47 125.04 82.29C126.779 84.1133 128.898 85.5316 131.247 86.4441C133.595 87.3566 136.116 87.741 138.63 87.57C143.56 87.41 143.88 83.96 142.83 82.07C136.48 80.63 136.76 75.89 137.98 71.43L127.28 62.29Z" fill="#FFB573"/>
<path opacity="0.2" d="M131.64 66L137.97 71.43C137.673 72.4636 137.466 73.5208 137.35 74.59C134.92 74.27 131.63 71.64 131.43 69.09C131.312 68.0558 131.384 67.0088 131.64 66Z" fill="black"/>
<path d="M148.94 46.28C153.72 43.89 151.53 36.56 151.53 36.56C151.53 36.56 149 36.5 146.24 39.56C147.49 35.78 145.39 29.62 144.69 27.23C135.1 31.39 134.46 35.41 134.46 35.41C134.46 35.41 132.46 32.41 130.58 32.24C129.094 33.1542 127.942 34.5242 127.297 36.1459C126.652 37.7676 126.548 39.5544 127 41.24C125.419 40.3215 123.653 39.768 121.83 39.62C121.104 41.8946 121.222 44.3546 122.16 46.55C121.057 47.1212 120.164 48.0282 119.61 49.14C120.485 49.6955 121.417 50.1548 122.39 50.51C122.24 53.51 122.88 57.65 125.04 59.99L147.04 49.71C150.76 51.32 152.42 50.16 152.42 50.16C152.42 50.16 151.56 47 148.94 46.28Z" fill="#263238"/>
<path d="M126.801 53.69C127.091 61.43 126.871 65.99 130.691 69.92C136.441 75.82 146.081 72.16 148.111 64.4C149.941 57.4 149.111 45.94 141.641 42.95C134.171 39.96 126.501 46 126.801 53.69Z" fill="#FFB573"/>
<path d="M133.941 45C134.441 49.06 128.941 52.06 130.221 58.06C129.268 59.472 128.112 60.7357 126.791 61.81L124.561 55.7L125.671 44.5L133.111 43.87L133.941 45Z" fill="#263238"/>
<path d="M128.78 44.5C134.61 48.28 144.39 47.61 147.11 46.67C145.75 41.78 140.28 40.39 140.28 40.39C140.28 40.39 131.11 39.56 128.78 44.5Z" fill="#263238"/>
<path d="M140.8 64.3699C139.898 64.4078 139.001 64.2222 138.188 63.8296C137.375 63.4371 136.671 62.8498 136.14 62.1199C136.116 62.0727 136.11 62.0183 136.123 61.9669C136.136 61.9154 136.167 61.8703 136.21 61.8399C136.232 61.8254 136.256 61.8154 136.281 61.8105C136.307 61.8056 136.333 61.806 136.358 61.8117C136.383 61.8173 136.407 61.828 136.428 61.8432C136.449 61.8584 136.467 61.8777 136.48 61.8999C136.983 62.5668 137.639 63.103 138.393 63.4632C139.146 63.8235 139.975 63.9973 140.81 63.9699C140.836 63.9699 140.861 63.9751 140.885 63.9853C140.909 63.9955 140.93 64.0104 140.948 64.0291C140.966 64.0478 140.98 64.07 140.989 64.0942C140.998 64.1184 141.001 64.1442 141 64.1699C141 64.223 140.979 64.2739 140.942 64.3114C140.904 64.3489 140.853 64.3699 140.8 64.3699Z" fill="#263238"/>
<path d="M123.101 62.27C123.597 63.0828 124.253 63.7858 125.031 64.336C125.808 64.8862 126.689 65.2721 127.621 65.47C130.131 66 131.311 63.69 130.541 61.39C129.841 59.32 127.701 56.56 125.211 57.07C124.669 57.1856 124.164 57.432 123.74 57.7877C123.316 58.1434 122.985 58.5977 122.777 59.1106C122.569 59.6236 122.49 60.1798 122.546 60.7305C122.602 61.2813 122.793 61.8098 123.101 62.27Z" fill="#FFB573"/>
<path opacity="0.2" d="M133.42 170.66L130 177.39C131.57 190.11 133.37 205.71 134.57 219.5C137.3 205.63 139.07 179 133.42 170.66Z" fill="black"/>
<path d="M140.37 151.88C140.37 151.88 130.65 207.34 126.31 229.98C121.55 254.77 94.0004 312 94.0004 312L80.6104 307.4C80.6104 307.4 102.74 250.4 105.14 225.94C107.87 198.13 111.81 152.22 111.81 152.22L140.37 151.88Z" fill="#263238"/>
<path d="M95.1003 312.71L79.3203 307.29L81.1103 302.51L97.9503 307.95L95.1003 312.71Z" fill="#407BFF"/>
<path d="M138.5 55.71C138.5 56.34 138.81 56.85 139.22 56.84C139.63 56.83 139.98 56.32 139.99 55.69C140 55.06 139.69 54.55 139.27 54.56C138.85 54.57 138.51 55.08 138.5 55.71Z" fill="#263238"/>
<path d="M145.631 55.62C145.631 56.25 145.941 56.76 146.351 56.75C146.761 56.74 147.111 56.23 147.131 55.6C147.151 54.97 146.821 54.47 146.401 54.47C145.981 54.47 145.651 55 145.631 55.62Z" fill="#263238"/>
<path d="M143.361 56C144.066 57.9123 145.035 59.7165 146.241 61.36C145.101 62.42 143.141 61.81 143.141 61.81L143.361 56Z" fill="#ED893E"/>
<path d="M136.34 53.43C136.407 53.442 136.476 53.4354 136.54 53.4107C136.604 53.386 136.659 53.3442 136.7 53.29C136.978 52.9076 137.339 52.5943 137.757 52.374C138.175 52.1538 138.638 52.0327 139.11 52.02C139.209 52.0255 139.307 51.992 139.382 51.9265C139.456 51.8611 139.503 51.769 139.51 51.67C139.516 51.6224 139.512 51.5742 139.498 51.5284C139.484 51.4825 139.461 51.44 139.43 51.4034C139.399 51.3669 139.361 51.3371 139.318 51.3158C139.275 51.2946 139.228 51.2824 139.18 51.28C138.583 51.2858 137.996 51.4307 137.465 51.7032C136.933 51.9758 136.473 52.3684 136.12 52.85C136.062 52.9278 136.035 53.0252 136.046 53.1219C136.058 53.2187 136.106 53.3075 136.18 53.37C136.229 53.4002 136.284 53.4206 136.34 53.43Z" fill="#263238"/>
<path d="M148.75 53.13C148.822 53.1536 148.899 53.1536 148.97 53.13C149.059 53.0885 149.128 53.0144 149.163 52.9231C149.199 52.8318 149.198 52.7304 149.16 52.64C148.922 52.1166 148.558 51.6601 148.101 51.3112C147.644 50.9623 147.108 50.7317 146.54 50.64C146.442 50.6285 146.344 50.6554 146.265 50.7151C146.187 50.7748 146.135 50.8626 146.12 50.96C146.113 51.0073 146.116 51.0556 146.127 51.102C146.139 51.1483 146.16 51.1919 146.189 51.2301C146.218 51.2682 146.254 51.3003 146.295 51.3243C146.337 51.3483 146.383 51.3639 146.43 51.37C146.871 51.4642 147.284 51.6633 147.632 51.9505C147.98 52.2377 148.254 52.6046 148.43 53.02C148.47 53.0639 148.52 53.097 148.576 53.1162C148.632 53.1355 148.692 53.1402 148.75 53.13Z" fill="#263238"/>
<path d="M88.4907 323.48C88.8959 323.816 89.4042 324.003 89.9307 324.01C90.1165 323.994 90.2955 323.932 90.4523 323.831C90.6091 323.73 90.739 323.592 90.8307 323.43C90.8967 323.344 90.9372 323.241 90.9478 323.134C90.9584 323.026 90.9387 322.917 90.8907 322.82C90.4707 321.96 87.5207 321.82 87.1907 321.76C87.1532 321.758 87.1161 321.768 87.084 321.788C87.052 321.807 87.0265 321.836 87.0107 321.87C86.988 321.898 86.9756 321.934 86.9756 321.97C86.9756 322.006 86.988 322.042 87.0107 322.07C87.4461 322.597 87.943 323.071 88.4907 323.48ZM90.3907 322.82C90.4614 322.861 90.5201 322.919 90.5607 322.99C90.5826 323.028 90.5942 323.071 90.5942 323.115C90.5942 323.159 90.5826 323.202 90.5607 323.24C90.4993 323.351 90.4116 323.446 90.3053 323.516C90.199 323.585 90.0773 323.628 89.9507 323.64C89.4007 323.69 88.5507 323.15 87.6507 322.17C88.5981 322.203 89.5296 322.424 90.3907 322.82Z" fill="#407BFF"/>
<path d="M87.0603 322.1C87.0861 322.11 87.1146 322.11 87.1403 322.1C88.0503 322.21 90.3403 321.7 90.7303 320.89C90.7899 320.766 90.8045 320.626 90.7717 320.493C90.7388 320.359 90.6606 320.242 90.5503 320.16C90.4473 320.065 90.3256 319.993 90.1929 319.948C90.0603 319.903 89.9197 319.887 89.7803 319.9C88.6103 319.99 87.1003 321.73 87.0303 321.8C87.0137 321.829 87.0049 321.862 87.0049 321.895C87.0049 321.928 87.0137 321.961 87.0303 321.99C87.0265 322.029 87.0372 322.068 87.0603 322.1ZM90.2303 320.41H90.2903C90.4703 320.58 90.4203 320.68 90.4003 320.72C90.1703 321.2 88.5903 321.72 87.5803 321.72C88.1587 321.024 88.9263 320.51 89.7903 320.24C89.9535 320.238 90.1112 320.298 90.2303 320.41Z" fill="#407BFF"/>
<path d="M118.38 96.2899L115.92 99.2899C115.09 100.29 114.27 101.34 113.46 102.39C111.84 104.47 110.26 106.577 108.72 108.71C107.21 110.85 105.72 113.01 104.38 115.19C103.04 117.37 101.75 119.59 100.7 121.81L100.49 122.23L100.41 122.42C100.335 122.57 100.275 122.728 100.23 122.89C100.094 123.343 99.9871 123.804 99.9102 124.27C99.7167 125.418 99.5965 126.577 99.5502 127.74C99.4502 130.21 99.4802 132.84 99.6202 135.48C99.8802 140.76 100.36 146.22 100.89 151.58L95.1702 152.91C93.2823 147.575 91.7948 142.106 90.7202 136.55C90.1654 133.679 89.7848 130.777 89.5802 127.86C89.485 126.275 89.485 124.685 89.5802 123.1C89.652 122.2 89.7755 121.305 89.9502 120.42C90.0702 119.93 90.1602 119.47 90.3502 118.91L90.6102 118.13L90.8202 117.61C92.9905 112.152 95.7324 106.94 99.0002 102.06C100.58 99.66 102.24 97.34 104 95.06C104.87 93.93 105.76 92.82 106.67 91.71C107.58 90.6 108.48 89.55 109.52 88.39L118.38 96.2899Z" fill="#FFB573"/>
<path d="M111 84.2799C103.56 85.3399 95.4902 102.86 95.4902 102.86L109.57 116.18C109.57 116.18 115.41 107.37 120.22 98.82C125.45 89.51 120 82.9999 111 84.2799Z" fill="#407BFF"/>
<path d="M100.21 149.89L104.92 156.12L95.13 158.49C95.13 158.49 92.33 152.26 95.53 150.29L100.21 149.89Z" fill="#FFB573"/>
<path d="M104.761 162.65L96.5909 164.23L95.1309 158.49L104.921 156.12L104.761 162.65Z" fill="#FFB573"/>
<path d="M327.49 313.66L320.11 316.82L309.88 300.99L317.25 297.82L327.49 313.66Z" fill="#FFC3BD"/>
<path opacity="0.2" d="M317.26 297.82L309.88 300.99L315.16 309.15L322.54 305.99L317.26 297.82Z" fill="black"/>
<path d="M259.75 154.21C259.75 154.21 272.75 219.65 279.26 242.21C286.39 267 311 308.92 311 308.92L324.51 303.12C324.51 303.12 309.51 269.32 303.51 244.92C296.72 217.14 287.33 151.92 287.33 151.92L259.75 154.21Z" fill="#407BFF"/>
<path opacity="0.2" d="M270.51 173C272.18 191.19 272.58 204 273.27 218.08C269.85 203.14 266.2 185.82 263.55 173H270.51Z" fill="black"/>
<path d="M273.62 332.01L265.59 331.89L263.75 313.27L271.77 313.39L273.62 332.01Z" fill="#FFC3BD"/>
<path opacity="0.2" d="M263.75 313.27L264.7 322.87L272.73 323L271.78 313.4L263.75 313.27Z" fill="black"/>
<path d="M261.72 321L275.31 321.21C275.31 321.21 269.95 268.4 268.19 243.45C267.65 235.86 267.9 225.13 268.54 213.58C269.34 199.02 269.87 193.19 270.97 174.79C271.75 161.67 272.7 153.17 272.7 153.17L244.57 155.48C244.57 155.48 243.47 219.19 246.66 243.48C250 268.7 261.72 321 261.72 321Z" fill="#407BFF"/>
<path d="M265.66 331L274.43 331.14C274.588 331.139 274.742 331.194 274.864 331.294C274.986 331.395 275.07 331.535 275.1 331.69L276.58 338.85C276.619 339.023 276.617 339.203 276.575 339.376C276.532 339.549 276.451 339.709 276.337 339.845C276.223 339.982 276.079 340.09 275.917 340.162C275.754 340.234 275.578 340.267 275.4 340.26C272.24 340.16 267.67 339.9 263.7 339.84C259.05 339.77 258.52 339.96 253.07 339.84C249.78 339.79 248.92 336.45 250.3 336.17C256.6 334.89 258.24 334.82 263.72 331.56C264.304 331.2 264.975 331.007 265.66 331Z" fill="#263238"/>
<path d="M260.01 321.26L276.2 321.51L276.29 316.28L258.96 315.72L260.01 321.26Z" fill="#407BFF"/>
<path opacity="0.3" d="M260.01 321.26L276.2 321.51L276.29 316.28L258.96 315.72L260.01 321.26Z" fill="black"/>
<path d="M264.86 332.06C264.892 332.045 264.92 332.022 264.943 331.995C264.965 331.967 264.981 331.935 264.99 331.9C264.994 331.862 264.987 331.823 264.969 331.79C264.951 331.756 264.924 331.728 264.89 331.71C264.53 331.51 261.33 329.83 260.34 330.35C260.247 330.401 260.17 330.474 260.114 330.564C260.058 330.653 260.025 330.755 260.02 330.86C259.999 331.031 260.019 331.204 260.078 331.366C260.137 331.527 260.234 331.673 260.36 331.79C261.23 332.58 263.54 332.3 264.83 332.06H264.86ZM260.59 330.66C261.2 330.46 262.94 331.15 264.2 331.78C262.43 332.05 261.11 331.95 260.62 331.51C260.536 331.432 260.473 331.334 260.435 331.227C260.396 331.119 260.384 331.003 260.4 330.89C260.399 330.849 260.41 330.808 260.431 330.773C260.452 330.737 260.483 330.709 260.52 330.69L260.59 330.66Z" fill="#407BFF"/>
<path d="M264.86 332.06H264.91C264.936 332.04 264.956 332.014 264.97 331.984C264.984 331.955 264.991 331.923 264.99 331.89C264.99 331.8 264.8 329.63 263.79 328.78C263.648 328.654 263.482 328.558 263.301 328.5C263.12 328.441 262.929 328.421 262.74 328.44C262.22 328.44 262.06 328.74 262.02 328.96C261.86 329.86 263.76 331.63 264.72 332.08C264.768 332.089 264.817 332.082 264.86 332.06ZM262.58 328.82H262.77C262.91 328.807 263.05 328.823 263.183 328.868C263.316 328.913 263.437 328.985 263.54 329.08C264.126 329.785 264.476 330.656 264.54 331.57C263.54 330.96 262.28 329.57 262.38 329.03C262.4 329 262.42 328.87 262.58 328.82Z" fill="#407BFF"/>
<path d="M318.43 316.45L326.84 311.45C326.977 311.368 327.138 311.335 327.296 311.357C327.454 311.378 327.6 311.454 327.71 311.57L332.71 316.89C332.831 317.02 332.921 317.176 332.974 317.347C333.026 317.517 333.04 317.697 333.013 317.873C332.986 318.049 332.919 318.217 332.818 318.363C332.717 318.51 332.584 318.632 332.43 318.72C329.7 320.28 327.63 321.3 324.23 323.33C322.13 324.58 317.29 327.7 314.4 329.42C311.51 331.14 309.48 328.57 310.4 327.55C314.76 322.95 316.72 320.09 317.51 317.55C317.665 317.079 317.994 316.686 318.43 316.45Z" fill="#263238"/>
<path d="M200 48.57L201.56 41.57L193.27 39.16C193.27 39.16 190.75 45.93 195.62 49.16L200 48.57Z" fill="#FFC3BD"/>
<path d="M200.48 34.79L194.04 31.33L193.25 39.2L201.54 41.61L200.48 34.79Z" fill="#FFC3BD"/>
<path d="M240.32 99.67C237.24 98.81 234.45 97.86 231.56 96.82C228.67 95.78 225.87 94.65 223.06 93.41C220.25 92.17 217.47 90.87 214.71 89.41C213.33 88.71 211.96 87.91 210.59 87.13L208.59 85.88L208.08 85.57L207.32 85.07C206.82 84.7167 206.35 84.3567 205.91 83.99C204.341 82.6336 202.977 81.0573 201.86 79.31C200.885 77.806 200.029 76.2279 199.3 74.59C197.996 71.5889 196.965 68.4763 196.22 65.29C194.785 59.2461 194.023 53.0617 193.95 46.85L201.32 45.85C202.871 51.2776 204.71 56.6186 206.83 61.85C207.824 64.2888 209 66.6489 210.35 68.91C210.942 69.9038 211.611 70.85 212.35 71.74C212.912 72.4131 213.561 73.0084 214.28 73.51C214.399 73.59 214.523 73.6634 214.65 73.73C214.715 73.7457 214.775 73.7728 214.83 73.81L215.29 74.02L217.11 74.9C218.37 75.46 219.61 76.03 220.89 76.57C223.44 77.66 226.06 78.67 228.7 79.67C231.34 80.67 234.01 81.67 236.7 82.55L244.7 85.28L240.32 99.67Z" fill="#407BFF"/>
<path d="M266.84 61C266.26 66.95 266.16 77.77 270.63 81.27C267.76 84.74 263.97 88.79 257.05 89.71C250.13 90.63 250.88 85.71 252.47 83.04C258.84 80.85 258.2 76.04 256.62 71.6L266.84 61Z" fill="#FFC3BD"/>
<path d="M248.7 55.22C248.63 55.87 248.24 56.36 247.82 56.32C247.4 56.28 247.11 55.72 247.17 55.07C247.23 54.42 247.63 53.94 248.05 53.98C248.47 54.02 248.76 54.58 248.7 55.22Z" fill="#263238"/>
<path d="M248.47 55.85C247.509 57.7456 246.291 59.4989 244.85 61.06C245.255 61.4162 245.734 61.6795 246.252 61.8315C246.771 61.9835 247.316 62.0205 247.85 61.94L248.47 55.85Z" fill="#ED847E"/>
<path d="M250.42 52.81C250.362 52.7879 250.311 52.7516 250.271 52.7044C250.231 52.6572 250.203 52.6007 250.19 52.54C250.097 52.0714 249.893 51.6318 249.596 51.2578C249.298 50.8838 248.916 50.5863 248.48 50.39C248.433 50.373 248.39 50.3467 248.352 50.3129C248.315 50.279 248.285 50.2382 248.264 50.1927C248.242 50.1472 248.23 50.0979 248.228 50.0477C248.226 49.9975 248.233 49.9473 248.25 49.9C248.267 49.8528 248.294 49.8093 248.327 49.7722C248.361 49.735 248.402 49.7049 248.448 49.6836C248.493 49.6622 248.542 49.65 248.593 49.6477C248.643 49.6454 248.693 49.653 248.74 49.67C249.293 49.9141 249.78 50.2862 250.161 50.7557C250.542 51.2252 250.806 51.7785 250.93 52.37C250.951 52.4681 250.932 52.5705 250.878 52.6548C250.824 52.7391 250.738 52.7985 250.64 52.82C250.568 52.842 250.49 52.8385 250.42 52.81Z" fill="#263238"/>
<path d="M270.7 55.74C269.15 63.56 268.64 68.21 264.12 71.74C257.31 77.02 248.07 72.1 247.25 63.98C246.51 56.67 249.16 45.12 257.3 42.98C259.094 42.5083 260.978 42.5033 262.774 42.9655C264.57 43.4277 266.218 44.3417 267.561 45.6206C268.904 46.8994 269.898 48.5007 270.447 50.2719C270.997 52.0432 271.084 53.9256 270.7 55.74Z" fill="#FFC3BD"/>
<path d="M254.83 57.92C252.58 55.33 253.42 49.75 254.83 47.08C253.17 48.14 247.52 47.76 247.49 43.33C247.44 36.84 258.35 35.33 264.33 36.47C271.22 37.83 277.4 44.29 279.78 42.06C282.23 46.38 277.94 47.89 277.94 47.89C277.94 47.89 282.2 58.64 266.61 69.17C264.472 68.8691 262.296 68.9606 260.19 69.44C259.708 69.4384 259.245 69.2482 258.9 68.91C257.32 67.33 253 62.45 254.83 57.92Z" fill="#263238"/>
<path d="M277.35 47.65C277.35 47.65 280.29 48.27 281.29 46.38C281 49.08 279.35 49.1 277.35 47.65Z" fill="#263238"/>
<path d="M260 60.4C259.013 62.1443 257.372 63.4249 255.44 63.96C252.88 64.64 251.62 62.34 252.36 59.96C253.02 57.79 255.16 54.83 257.72 55.2C260.28 55.57 261.17 58.26 260 60.4Z" fill="#FFC3BD"/>
<path d="M290.53 88.1C291.68 89.2 292.62 90.19 293.61 91.25C294.6 92.31 295.54 93.36 296.45 94.45C298.3 96.6 300.06 98.83 301.78 101.09C303.5 103.35 305.14 105.67 306.69 108.09L308 110C308.49 110.72 308.89 111.46 309.31 112.19C310.097 113.64 310.782 115.144 311.36 116.69C312.47 119.601 313.284 122.616 313.79 125.69C314.293 128.638 314.578 131.62 314.64 134.61C314.729 137.526 314.642 140.445 314.38 143.35C314.139 146.261 313.712 149.154 313.1 152.01L305.71 151.2C305.58 148.71 305.39 145.99 305.1 143.41C304.81 140.83 304.43 138.23 303.96 135.71C303.143 130.881 301.659 126.19 299.55 121.77C299.048 120.792 298.491 119.844 297.88 118.93C297.57 118.5 297.28 118.05 296.96 117.66C296.78 117.45 296.67 117.29 296.45 117.04L295.8 116.28C294.04 114.28 292.3 112.28 290.51 110.28C288.72 108.28 286.95 106.28 285.17 104.37L279.92 98.62L290.53 88.1Z" fill="#407BFF"/>
<path d="M270.74 94.45C269.46 100.24 287.23 110.78 287.23 110.78L301.29 98.78C297.722 93.6696 293.706 88.8874 289.29 84.49C282 77.23 272.82 85.07 270.74 94.45Z" fill="#263238"/>
<path opacity="0.2" d="M283.09 100.52C280.55 99.13 280.16 102.3 280.55 106.33C284.09 108.92 287.22 110.78 287.22 110.78L289.01 109.25C287.6 105.56 285.64 101.91 283.09 100.52Z" fill="black"/>
<path d="M305.55 149.94L301.85 154.88L310.74 158.55C310.74 158.55 313.06 154.55 312.57 151.55C312.457 150.978 312.181 150.452 311.774 150.034C311.368 149.617 310.848 149.327 310.28 149.2L308.66 148.82C308.089 148.682 307.489 148.714 306.936 148.913C306.384 149.112 305.901 149.469 305.55 149.94Z" fill="#FFC3BD"/>
<path d="M300.06 162.81L308.44 164.67L310.74 158.55L301.85 154.88L300.06 162.81Z" fill="#FFC3BD"/>
<path d="M286.299 85.76C282.659 116.5 292.46 154.44 292.7 160.76C286.42 161.28 255.379 164.14 242.489 165.19C235.009 110.46 241.9 84.5 241.9 84.5C241.9 84.5 244.569 83.64 248.239 82.81C249.389 82.55 250.64 82.3 251.94 82.07C252.65 81.94 253.39 81.83 254.13 81.72C260.186 81.1021 266.272 80.8283 272.359 80.9C273.509 80.9 274.689 80.9 275.829 80.99C276.969 81.08 277.92 81.11 278.9 81.18C280.41 81.3 281.81 81.44 283 81.57C283.492 81.6258 283.969 81.7787 284.403 82.0201C284.836 82.2614 285.217 82.5864 285.524 82.9761C285.831 83.3658 286.058 83.8125 286.191 84.2904C286.324 84.7683 286.361 85.2678 286.299 85.76Z" fill="#263238"/>
<path opacity="0.2" d="M239.76 99.27C239.61 100.84 239.49 102.55 239.39 104.39C242.23 104.11 245.68 103.39 247.14 101.75C248.92 99.67 243.48 99.3 239.76 99.27Z" fill="black"/>
<path d="M250.47 102.07C243.6 105.47 230.59 99.67 230.59 99.67L230.8 79.5C230.8 79.5 244.85 81.76 254.8 81.66C265 81.56 258 98.33 250.47 102.07Z" fill="#263238"/>
<path d="M309.51 309.9L325.42 303.08L323.38 298.32L305.33 304.26L309.51 309.9Z" fill="#407BFF"/>
<path opacity="0.3" d="M309.51 309.9L325.42 303.08L323.38 298.32L305.33 304.26L309.51 309.9Z" fill="black"/>
<path d="M316.87 319C317.471 318.624 318.028 318.181 318.53 317.68C318.549 317.65 318.56 317.616 318.56 317.58C318.56 317.544 318.549 317.51 318.53 317.48C318.519 317.444 318.496 317.413 318.465 317.391C318.434 317.369 318.397 317.358 318.36 317.36C318.01 317.36 314.98 317.31 314.45 318.15C314.391 318.245 314.36 318.354 314.36 318.465C314.36 318.576 314.391 318.685 314.45 318.78C314.527 318.951 314.645 319.101 314.793 319.216C314.941 319.331 315.115 319.408 315.3 319.44C315.859 319.485 316.415 319.329 316.87 319ZM317.92 317.73C316.92 318.67 315.92 319.16 315.4 319.07C315.272 319.047 315.153 318.993 315.052 318.913C314.95 318.833 314.871 318.729 314.82 318.61C314.794 318.573 314.781 318.53 314.781 318.485C314.781 318.44 314.794 318.397 314.82 318.36C315.08 317.93 316.7 317.76 317.92 317.74V317.73Z" fill="#407BFF"/>
<path d="M318.49 317.72C318.522 317.699 318.549 317.672 318.57 317.64C318.587 317.611 318.596 317.578 318.596 317.545C318.596 317.512 318.587 317.479 318.57 317.45C318.51 317.37 317.16 315.45 315.97 315.3C315.827 315.272 315.68 315.275 315.538 315.309C315.397 315.344 315.264 315.409 315.15 315.5C315.028 315.574 314.936 315.689 314.889 315.824C314.841 315.959 314.842 316.106 314.89 316.24C315.2 317.1 317.48 317.78 318.42 317.75L318.49 317.72ZM315.43 315.72C315.574 315.642 315.739 315.614 315.9 315.64C316.66 315.76 317.57 316.78 318 317.32C317 317.2 315.41 316.58 315.22 316.08C315.22 316.03 315.17 315.92 315.36 315.77L315.43 315.72Z" fill="#407BFF"/>
<path opacity="0.9" d="M195.25 0.890015H194.08V6.56001H195.25V0.890015Z" fill="#407BFF"/>
<path opacity="0.9" d="M195.25 9.33002H194.08V23.66H195.25V9.33002Z" fill="#407BFF"/>
<path opacity="0.9" d="M207.456 23.1892L201.322 29.3166L202.149 30.1443L208.283 24.0169L207.456 23.1892Z" fill="#407BFF"/>
<path opacity="0.9" d="M217.891 36.25H208.841V37.42H217.891V36.25Z" fill="#407BFF"/>
<path opacity="0.9" d="M179.314 20.6632L178.486 21.4905L187.163 30.1667L187.99 29.3394L179.314 20.6632Z" fill="#407BFF"/>
<path opacity="0.9" d="M180.49 36.25H176.44V37.42H180.49V36.25Z" fill="#407BFF"/>
</svg>
