<svg width="398" height="355" viewBox="0 0 398 355" fill="none" xmlns="http://www.w3.org/2000/svg">
<path d="M397.9 333.49H364.78V333.74H397.9V333.49Z" fill="#EBEBEB"/>
<path d="M279.22 336.21H270.53V336.46H279.22V336.21Z" fill="#EBEBEB"/>
<path d="M363.78 324.21H344.59V324.46H363.78V324.21Z" fill="#EBEBEB"/>
<path d="M43.65 325.89H0.459961V326.14H43.65V325.89Z" fill="#EBEBEB"/>
<path d="M58.8896 325.89H52.5596V326.14H58.8896V325.89Z" fill="#EBEBEB"/>
<path d="M173.15 330.11H79.4697V330.36H173.15V330.11Z" fill="#EBEBEB"/>
<path d="M11.1804 223.38L0.610352 317.2H5.90035L17.0603 223.38H11.1804Z" fill="#EBEBEB"/>
<path d="M44.1901 223.38L33.6201 317.2H38.9101L50.0701 223.38H44.1901Z" fill="#EBEBEB"/>
<path d="M21.2797 292.88L18.6797 317.2H21.9997L27.1497 292.88H21.2797Z" fill="#F0F0F0"/>
<path d="M51.6998 292.88L54.3098 317.2H50.9898L45.8398 292.88H51.6998Z" fill="#F0F0F0"/>
<path d="M36.8797 302.05C39.9708 302.051 43.0282 301.408 45.8577 300.164C48.6873 298.919 51.2271 297.1 53.3157 294.822C55.4044 292.543 56.9963 289.855 57.9903 286.928C58.9843 284.001 59.3587 280.899 59.0897 277.82L50.4897 179.54C50.0043 173.984 47.4542 168.813 43.3425 165.045C39.2308 161.278 33.8563 159.189 28.2797 159.19C25.1895 159.191 22.1331 159.834 19.3048 161.079C16.4765 162.324 13.9379 164.144 11.8503 166.422C9.76269 168.701 8.17168 171.388 7.17826 174.314C6.18485 177.241 5.81075 180.341 6.0797 183.42L14.6797 281.7C15.1627 287.255 17.7108 292.426 21.8208 296.194C25.9309 299.961 31.3041 302.051 36.8797 302.05Z" fill="#E0E0E0"/>
<path d="M56.4298 279.73C56.3628 280.761 56.209 281.785 55.9698 282.79C55.5362 284.692 54.8074 286.514 53.8098 288.19C53.6398 288.5 53.4498 288.8 53.2498 289.1C52.6113 290.062 51.8849 290.962 51.0798 291.79L50.6098 292.27C49.1381 293.706 47.4511 294.904 45.6098 295.82C45.0218 296.108 44.4174 296.362 43.7998 296.58C41.0073 297.601 38.0171 297.966 35.0609 297.646C32.1047 297.326 29.2619 296.33 26.7527 294.734C24.2435 293.139 22.1353 290.987 20.5914 288.446C19.0476 285.905 18.1095 283.042 17.8498 280.08L10.1598 183.7C10.1598 183.12 10.0898 182.55 10.0898 181.99C10.092 178.429 11.0773 174.938 12.9371 171.901C14.7969 168.864 17.4589 166.4 20.6298 164.78C21.0862 164.532 21.5571 164.312 22.0398 164.12C24.0761 163.268 26.2452 162.777 28.4498 162.67C28.7798 162.67 29.0998 162.67 29.4498 162.67C30.2655 162.669 31.0804 162.719 31.8898 162.82L32.6798 162.95C33.8796 163.139 35.0561 163.454 36.1898 163.89L36.7298 164.09C40.0316 165.435 42.8985 167.664 45.0156 170.533C47.1326 173.402 48.4178 176.798 48.7298 180.35L56.4198 276.73C56.4971 277.728 56.5004 278.731 56.4298 279.73Z" fill="#FAFAFA"/>
<path d="M51.0804 291.8L50.6104 292.28C49.1386 293.716 47.4516 294.914 45.6104 295.83C45.0223 296.118 44.4179 296.372 43.8004 296.59L20.6104 164.79C21.0667 164.542 21.5376 164.322 22.0203 164.13C24.0566 163.278 26.2257 162.787 28.4304 162.68L51.0804 291.8Z" fill="white"/>
<path d="M56.4301 279.73C56.3631 280.761 56.2092 281.785 55.9701 282.79C55.5365 284.692 54.8076 286.514 53.8101 288.19L31.8701 162.8L32.6601 162.93C33.8599 163.119 35.0364 163.434 36.1701 163.87L56.4301 279.73Z" fill="white"/>
<path d="M362.36 180.67L360.45 179.09C350.94 171.27 348.85 161.78 348.67 160.86C348.474 160.253 348.421 159.608 348.515 158.977C348.608 158.346 348.846 157.744 349.21 157.22C349.511 156.829 349.899 156.513 350.344 156.298C350.788 156.083 351.276 155.974 351.77 155.98C352.58 155.976 353.371 156.228 354.03 156.7C355.21 157.59 358.18 159.7 358.81 160.12C364.41 161.99 363.01 175.5 362.67 178.2L362.36 180.67ZM351.77 158.72C351.698 158.712 351.626 158.722 351.559 158.75C351.493 158.778 351.434 158.823 351.39 158.88C351.286 159.081 351.226 159.302 351.214 159.527C351.202 159.753 351.238 159.979 351.32 160.19V160.3C352.811 166.005 355.882 171.173 360.18 175.21C360.53 169.81 360.09 163.35 357.87 162.7C355.967 161.533 354.127 160.264 352.36 158.9C352.187 158.779 351.981 158.716 351.77 158.72Z" fill="#F0F0F0"/>
<path d="M379.84 180.67L379.53 178.2C379.19 175.5 377.8 161.99 383.39 160.12C384.02 159.74 386.98 157.6 388.17 156.7C388.829 156.228 389.62 155.976 390.43 155.98C390.924 155.973 391.412 156.081 391.857 156.297C392.301 156.512 392.689 156.828 392.99 157.22C393.356 157.743 393.595 158.345 393.689 158.976C393.783 159.608 393.728 160.253 393.53 160.86C393.35 161.78 391.26 171.27 381.76 179.09L379.84 180.67ZM389.84 158.9C388.076 160.264 386.24 161.533 384.34 162.7C382.12 163.35 381.67 169.81 382.03 175.21C386.328 171.175 389.396 166.006 390.88 160.3V160.19C390.963 159.98 391.001 159.754 390.99 159.529C390.98 159.303 390.922 159.082 390.82 158.88C390.772 158.824 390.712 158.78 390.644 158.753C390.577 158.725 390.503 158.714 390.43 158.72C390.209 158.713 389.993 158.776 389.81 158.9H389.84Z" fill="#F0F0F0"/>
<path d="M371.09 193.79C364.09 193.79 358.48 170.59 358.48 163.62V156.45H383.7V163.62C383.7 170.59 378.05 193.79 371.09 193.79Z" fill="#F5F5F5"/>
<path d="M373.23 192.65H369.14V212.82H373.23V192.65Z" fill="#F5F5F5"/>
<path d="M381.87 223.41H360.1L358.37 217.06H383.59L381.87 223.41Z" fill="#E6E6E6"/>
<path d="M373.31 206.84L369.12 206.9L367.08 210.44H375.25L373.31 206.84Z" fill="#F0F0F0"/>
<path d="M374.57 208.92H367.74L364.65 212.99H377.74L374.57 208.92Z" fill="#EBEBEB"/>
<path d="M364.71 212.44H377.64L383.59 217.06H358.37L364.71 212.44Z" fill="#F5F5F5"/>
<path d="M369.12 195.99L373.31 195.93L375.23 191.48H367.07L369.12 195.99Z" fill="#F0F0F0"/>
<path d="M388.23 229.24H326.55V306.79H388.23V229.24Z" fill="#E0E0E0"/>
<path d="M397.65 223.47H389.9V316.85H397.65V223.47Z" fill="#E6E6E6"/>
<path d="M341.42 235.35H336.37V264.33H341.42V235.35Z" fill="#FAFAFA"/>
<path d="M362.38 235.35H357.33V264.33H362.38V235.35Z" fill="#F5F5F5"/>
<path d="M346.48 237.38H341.43V264.32H346.48V237.38Z" fill="#F5F5F5"/>
<path d="M357.33 237.38H352.28V264.32H357.33V237.38Z" fill="#FAFAFA"/>
<path d="M352.28 235.35H349.01V264.33H352.28V235.35Z" fill="#EBEBEB"/>
<path d="M349.01 237.38H346.48V264.32H349.01V237.38Z" fill="#FAFAFA"/>
<path d="M367.43 235.35H362.38V264.33H367.43V235.35Z" fill="#EBEBEB"/>
<path d="M372.49 237.38H367.44V264.32H372.49V237.38Z" fill="#E6E6E6"/>
<path d="M383.34 237.38H378.29V264.32H383.34V237.38Z" fill="#E6E6E6"/>
<path d="M378.29 235.35H375.02V264.33H378.29V235.35Z" fill="#FAFAFA"/>
<path d="M375.02 237.38H372.49V264.32H375.02V237.38Z" fill="#EBEBEB"/>
<path d="M385.87 236.03H383.34V264.32H385.87V236.03Z" fill="#FAFAFA"/>
<path d="M380.82 303.17H385.87V274.19H380.82V303.17Z" fill="#FAFAFA"/>
<path d="M359.86 303.17H364.91V274.19H359.86V303.17Z" fill="#FAFAFA"/>
<path d="M375.76 303.17H380.81V276.23H375.76V303.17Z" fill="#F0F0F0"/>
<path d="M364.92 303.17H369.97V276.23H364.92V303.17Z" fill="#EBEBEB"/>
<path d="M369.97 303.17H373.24V274.19H369.97V303.17Z" fill="#FAFAFA"/>
<path d="M373.23 303.17H375.76V276.23H373.23V303.17Z" fill="#F5F5F5"/>
<path d="M354.81 303.17H359.86V274.19H354.81V303.17Z" fill="#EBEBEB"/>
<path d="M349.75 303.17H354.8V276.23H349.75V303.17Z" fill="#F5F5F5"/>
<path d="M338.91 303.17H343.96V276.23H338.91V303.17Z" fill="#E6E6E6"/>
<path d="M343.96 303.17H347.229V274.19H343.96V303.17Z" fill="#FAFAFA"/>
<path d="M333.1 303.17H336.37V274.19H333.1V303.17Z" fill="#FAFAFA"/>
<path d="M347.22 303.17H349.75V276.23H347.22V303.17Z" fill="#EBEBEB"/>
<path d="M336.37 303.17H338.9V274.88H336.37V303.17Z" fill="#F0F0F0"/>
<path d="M387.93 223.47H324.6V311.62H385.86V316.86H390V223.47H387.93ZM385.86 303.17H328.5V269.17H385.86V303.17ZM385.86 264.36H328.5V231.93H385.86V264.36Z" fill="#E6E6E6"/>
<path d="M264.77 306.8H326.45V229.25H264.77V306.8Z" fill="#E0E0E0"/>
<path d="M267.15 316.85H274.9V310.67H267.15V316.85Z" fill="#E6E6E6"/>
<path d="M319.33 264.33H324.38V235.35H319.33V264.33Z" fill="#FAFAFA"/>
<path d="M298.36 264.33H303.41V235.35H298.36V264.33Z" fill="#F5F5F5"/>
<path d="M314.27 264.33H319.32V237.39H314.27V264.33Z" fill="#F5F5F5"/>
<path d="M303.42 264.33H308.47V237.39H303.42V264.33Z" fill="#FAFAFA"/>
<path d="M308.47 264.33H311.74V235.35H308.47V264.33Z" fill="#EBEBEB"/>
<path d="M311.74 264.33H314.27V237.39H311.74V264.33Z" fill="#FAFAFA"/>
<path d="M296.65 264.33H301.7V235.35H296.65V264.33Z" fill="#EBEBEB"/>
<path d="M291.59 264.33H296.64V237.39H291.59V264.33Z" fill="#E6E6E6"/>
<path d="M280.75 264.33H285.8V237.39H280.75V264.33Z" fill="#E6E6E6"/>
<path d="M285.79 264.33H289.06V235.35H285.79V264.33Z" fill="#FAFAFA"/>
<path d="M289.06 264.33H291.59V237.39H289.06V264.33Z" fill="#EBEBEB"/>
<path d="M278.22 264.33H280.75V236.04H278.22V264.33Z" fill="#F5F5F5"/>
<path d="M280.89 274.19H275.84V303.17H280.89V274.19Z" fill="#FAFAFA"/>
<path d="M301.85 274.19H296.8V303.17H301.85V274.19Z" fill="#FAFAFA"/>
<path d="M285.94 276.23H280.89V303.17H285.94V276.23Z" fill="#F5F5F5"/>
<path d="M296.79 276.23H291.74V303.17H296.79V276.23Z" fill="#EBEBEB"/>
<path d="M291.75 274.19H288.48V303.17H291.75V274.19Z" fill="#FAFAFA"/>
<path d="M288.48 276.23H285.95V303.17H288.48V276.23Z" fill="#F5F5F5"/>
<path d="M303.57 274.19H298.52V303.17H303.57V274.19Z" fill="#EBEBEB"/>
<path d="M308.62 276.23H303.57V303.17H308.62V276.23Z" fill="#F5F5F5"/>
<path d="M319.47 276.23H314.42V303.17H319.47V276.23Z" fill="#E6E6E6"/>
<path d="M314.42 274.19H311.15V303.17H314.42V274.19Z" fill="#FAFAFA"/>
<path d="M324.61 274.19H321.34V303.17H324.61V274.19Z" fill="#FAFAFA"/>
<path d="M311.16 276.23H308.63V303.17H311.16V276.23Z" fill="#EBEBEB"/>
<path d="M322 274.88H319.47V303.17H322V274.88Z" fill="#EBEBEB"/>
<path d="M263 223.47V316.86H267.14V311.62H328.4V223.47H263ZM267.14 269.19H324.5V303.19H267.15L267.14 269.19ZM267.14 231.93H324.5V264.36H267.15L267.14 231.93Z" fill="#E6E6E6"/>
<path d="M200 78.47L225.1 0.219971L224.79 82.4L272.85 15.73L247.16 93.79L313.46 45.24L264.91 111.54L342.97 85.85L276.3 133.91L358.48 133.6L280.23 158.7L358.48 183.8L276.3 183.49L342.97 231.55L264.91 205.86L313.46 272.16L247.16 223.61L272.85 301.67L224.79 235L225.1 317.18L200 238.93L174.9 317.18L175.21 235L127.15 301.67L152.84 223.61L86.5395 272.16L135.09 205.86L57.0295 231.55L123.7 183.49L41.5195 183.8L119.77 158.7L41.5195 133.6L123.7 133.91L57.0295 85.85L135.09 111.54L86.5395 45.24L152.84 93.79L127.15 15.73L175.21 82.4L174.9 0.219971L200 78.47Z" fill="#F5F5F5"/>
<path d="M216.931 125.58C213.341 123.26 211.931 117.82 211.541 112.11C211.304 107.77 211.482 103.417 212.071 99.11C212.181 98.01 212.341 96.95 212.531 95.95C212.69 94.9393 212.904 93.9379 213.171 92.95L180.561 79.4901C184.141 84.8901 186.871 102.18 186.111 107.74C185.281 113.98 185.031 122.74 181.791 125L216.931 125.58Z" fill="#407BFF"/>
<g opacity="0.7">
<path d="M216.931 125.58C213.341 123.26 211.931 117.82 211.541 112.11C211.304 107.77 211.482 103.417 212.071 99.11C212.181 98.01 212.341 96.95 212.531 95.95C212.69 94.9393 212.904 93.9379 213.171 92.95L180.561 79.4901C184.141 84.8901 186.871 102.18 186.111 107.74C185.281 113.98 185.031 122.74 181.791 125L216.931 125.58Z" fill="white"/>
</g>
<path d="M181.791 125C174.791 130 177.791 137.86 183.481 144.28C185.67 146.742 188.025 149.051 190.531 151.19C201.431 160.52 218.531 156.56 223.621 143.14C225.851 137.19 225.081 130.81 216.931 125.59L181.791 125Z" fill="#FFB573"/>
<path opacity="0.2" d="M211.54 112.11C211.304 107.77 211.481 103.417 212.07 99.11C212.18 98.01 212.34 96.95 212.53 95.95L187.32 91.11C192.61 96.35 200 107.07 211.54 112.11Z" fill="black"/>
<path d="M244.801 53.64C244.001 59.06 236.571 67.87 236.931 67.34C237.23 66.7654 237.335 66.1094 237.231 65.47C237.068 63.0298 236.468 60.6385 235.461 58.41C234.831 61.41 233.871 67.7 230.881 67.75C229.691 65.51 228.231 63.47 228.441 60.93C227.751 63.53 227.111 66.15 226.441 68.75C220.641 65.18 216.971 56.94 218.181 50.06C218.442 48.3914 219.022 46.7887 219.891 45.34C220.966 43.7589 222.27 42.3468 223.761 41.15C227.551 37.83 229.091 36.29 234.071 36.29C244.941 36.29 245.601 48.22 244.801 53.64Z" fill="#407BFF"/>
<path opacity="0.3" d="M244.801 53.64C244.001 59.06 236.571 67.87 236.931 67.34C237.23 66.7654 237.335 66.1094 237.231 65.47C237.068 63.0298 236.468 60.6385 235.461 58.41C234.831 61.41 233.871 67.7 230.881 67.75C229.691 65.51 228.231 63.47 228.441 60.93C227.751 63.53 227.111 66.15 226.441 68.75C220.641 65.18 216.971 56.94 218.181 50.06C218.442 48.3914 219.022 46.7887 219.891 45.34C220.966 43.7589 222.27 42.3468 223.761 41.15C227.551 37.83 229.091 36.29 234.071 36.29C244.941 36.29 245.601 48.22 244.801 53.64Z" fill="black"/>
<path d="M239.171 80.18C235.121 102.25 208.701 113.89 191.261 98.08C181.191 88.97 179.591 78.08 177.751 61.16C177.461 58.59 177.171 55.89 176.851 53.02C176.311 48.552 176.768 44.0199 178.191 39.75C178.774 37.9733 179.538 36.2611 180.471 34.64C183.881 28.5065 189.334 23.7628 195.88 21.2341C202.427 18.7054 209.653 18.5518 216.301 20.8C238.161 28.16 242.841 60.32 239.171 80.18Z" fill="#407BFF"/>
<path opacity="0.7" d="M239.171 80.18C235.121 102.25 208.701 113.89 191.261 98.08C181.191 88.97 179.591 78.08 177.751 61.16C177.461 58.59 177.171 55.89 176.851 53.02C176.311 48.552 176.768 44.0199 178.191 39.75C178.774 37.9733 179.538 36.2611 180.471 34.64C183.881 28.5065 189.334 23.7628 195.88 21.2341C202.427 18.7054 209.653 18.5518 216.301 20.8C238.161 28.16 242.841 60.32 239.171 80.18Z" fill="white"/>
<path d="M211.89 53.67C213.05 53.59 214.06 54.99 214.15 56.76C214.24 58.53 213.54 60.03 212.24 60.1C210.94 60.17 209.92 58.79 209.82 57C209.72 55.21 210.74 53.74 211.89 53.67Z" fill="#407BFF"/>
<path opacity="0.3" d="M211.89 53.67C213.05 53.59 214.06 54.99 214.15 56.76C214.24 58.53 213.54 60.03 212.24 60.1C210.94 60.17 209.92 58.79 209.82 57C209.72 55.21 210.74 53.74 211.89 53.67Z" fill="black"/>
<path d="M231.691 53.49C232.851 53.41 233.861 54.79 233.961 56.56C234.061 58.33 233.221 59.82 232.041 59.9C230.861 59.98 229.851 58.6 229.751 56.83C229.651 55.06 230.541 53.56 231.691 53.49Z" fill="#407BFF"/>
<path opacity="0.3" d="M231.691 53.49C232.851 53.41 233.861 54.79 233.961 56.56C234.061 58.33 233.221 59.82 232.041 59.9C230.861 59.98 229.851 58.6 229.751 56.83C229.651 55.06 230.541 53.56 231.691 53.49Z" fill="black"/>
<path d="M223.361 74.28C226.361 74.59 231.831 72.77 234.001 70.64C229.871 66.55 225.261 61.95 222.431 56.88L223.361 74.28Z" fill="#407BFF"/>
<path opacity="0.5" d="M223.361 74.28C226.361 74.59 231.831 72.77 234.001 70.64C229.871 66.55 225.261 61.95 222.431 56.88L223.361 74.28Z" fill="white"/>
<path d="M208.58 46.71C209.877 46.4649 211.213 46.5282 212.482 46.8947C213.75 47.2612 214.914 47.9207 215.88 48.82C215.936 48.9143 216.007 48.9988 216.09 49.07C216.194 49.16 216.315 49.2285 216.446 49.2717C216.577 49.3148 216.715 49.3318 216.853 49.3215C216.99 49.3113 217.124 49.2741 217.247 49.2121C217.37 49.1501 217.48 49.0644 217.57 48.96C217.66 48.8556 217.728 48.7345 217.772 48.6037C217.815 48.4728 217.832 48.3347 217.822 48.1973C217.811 48.0598 217.774 47.9257 217.712 47.8027C217.65 47.6796 217.564 47.57 217.46 47.48C216.278 46.3226 214.836 45.4647 213.255 44.9776C211.673 44.4905 209.999 44.3885 208.37 44.68C208.232 44.6942 208.099 44.7368 207.979 44.8052C207.859 44.8735 207.754 44.966 207.671 45.0769C207.588 45.1878 207.53 45.3147 207.498 45.4495C207.467 45.5843 207.464 45.7241 207.49 45.86C207.512 46.0418 207.589 46.2126 207.71 46.35C207.818 46.4724 207.952 46.5685 208.103 46.6309C208.254 46.6933 208.417 46.7203 208.58 46.71Z" fill="#407BFF"/>
<path opacity="0.3" d="M208.58 46.71C209.877 46.4649 211.213 46.5282 212.482 46.8947C213.75 47.2612 214.914 47.9207 215.88 48.82C215.936 48.9143 216.007 48.9988 216.09 49.07C216.194 49.16 216.315 49.2285 216.446 49.2717C216.577 49.3148 216.715 49.3318 216.853 49.3215C216.99 49.3113 217.124 49.2741 217.247 49.2121C217.37 49.1501 217.48 49.0644 217.57 48.96C217.66 48.8556 217.728 48.7345 217.772 48.6037C217.815 48.4728 217.832 48.3347 217.822 48.1973C217.811 48.0598 217.774 47.9257 217.712 47.8027C217.65 47.6796 217.564 47.57 217.46 47.48C216.278 46.3226 214.836 45.4647 213.255 44.9776C211.673 44.4905 209.999 44.3885 208.37 44.68C208.232 44.6942 208.099 44.7368 207.979 44.8052C207.859 44.8735 207.754 44.966 207.671 45.0769C207.588 45.1878 207.53 45.3147 207.498 45.4495C207.467 45.5843 207.464 45.7241 207.49 45.86C207.512 46.0418 207.589 46.2126 207.71 46.35C207.818 46.4724 207.952 46.5685 208.103 46.6309C208.254 46.6933 208.417 46.7203 208.58 46.71Z" fill="black"/>
<path d="M238.921 44.59C238.905 44.3194 238.787 44.065 238.59 43.879C238.393 43.693 238.132 43.5896 237.861 43.59C236.209 43.5478 234.572 43.9069 233.09 44.6368C231.607 45.3666 230.324 46.4452 229.351 47.78C229.276 47.8921 229.224 48.0182 229.199 48.1507C229.174 48.2832 229.176 48.4194 229.205 48.5511C229.234 48.6829 229.289 48.8074 229.368 48.9172C229.446 49.0269 229.546 49.1198 229.661 49.19H229.731C229.958 49.3261 230.229 49.3667 230.486 49.303C230.743 49.2393 230.964 49.0764 231.101 48.85C231.894 47.8117 232.922 46.9766 234.1 46.4133C235.279 45.85 236.575 45.5747 237.881 45.61C238.054 45.6177 238.226 45.5802 238.38 45.5013C238.534 45.4224 238.666 45.3048 238.761 45.16C238.856 44.9843 238.911 44.7896 238.921 44.59Z" fill="#407BFF"/>
<path opacity="0.3" d="M238.921 44.59C238.905 44.3194 238.787 44.065 238.59 43.879C238.393 43.693 238.132 43.5896 237.861 43.59C236.209 43.5478 234.572 43.9069 233.09 44.6368C231.607 45.3666 230.324 46.4452 229.351 47.78C229.276 47.8921 229.224 48.0182 229.199 48.1507C229.174 48.2832 229.176 48.4194 229.205 48.5511C229.234 48.6829 229.289 48.8074 229.368 48.9172C229.446 49.0269 229.546 49.1198 229.661 49.19H229.731C229.958 49.3261 230.229 49.3667 230.486 49.303C230.743 49.2393 230.964 49.0764 231.101 48.85C231.894 47.8117 232.922 46.9766 234.1 46.4133C235.279 45.85 236.575 45.5747 237.881 45.61C238.054 45.6177 238.226 45.5802 238.38 45.5013C238.534 45.4224 238.666 45.3048 238.761 45.16C238.856 44.9843 238.911 44.7896 238.921 44.59Z" fill="black"/>
<path d="M189.271 93.35C186.6 92.8437 184.079 91.7356 181.901 90.11C181.901 93.04 179.901 98.11 179.901 98.11C170.581 95.04 162.901 76.4 161.901 70.22C156.721 79.85 157.171 74.31 156.771 70.22C156.191 64.33 156.041 58.22 158.051 52.67C160.061 47.12 164.641 42.15 170.481 41.19C171.567 41.0906 172.66 41.284 173.647 41.75C174.634 42.216 175.477 42.9377 176.091 43.84C177.084 45.6228 177.732 47.577 178.001 49.6C180.731 64.21 180.611 81.27 189.271 93.35Z" fill="#407BFF"/>
<path opacity="0.3" d="M189.271 93.35C186.6 92.8437 184.079 91.7356 181.901 90.11C181.901 93.04 179.901 98.11 179.901 98.11C170.581 95.04 162.901 76.4 161.901 70.22C156.721 79.85 157.171 74.31 156.771 70.22C156.191 64.33 156.041 58.22 158.051 52.67C160.061 47.12 164.641 42.15 170.481 41.19C171.567 41.0906 172.66 41.284 173.647 41.75C174.634 42.216 175.477 42.9377 176.091 43.84C177.084 45.6228 177.732 47.577 178.001 49.6C180.731 64.21 180.611 81.27 189.271 93.35Z" fill="black"/>
<path d="M176.06 59.85C183.19 60.01 187.54 69 188.3 75.15C189.19 82 184.59 87.63 177.98 84.6C175.516 83.4568 173.304 81.833 171.476 79.8239C169.647 77.8148 168.237 75.4609 167.33 72.9C165.12 66.54 168.92 59.7 176.06 59.85Z" fill="#407BFF"/>
<path opacity="0.7" d="M176.06 59.85C183.19 60.01 187.54 69 188.3 75.15C189.19 82 184.59 87.63 177.98 84.6C175.516 83.4568 173.304 81.833 171.476 79.8239C169.647 77.8148 168.237 75.4609 167.33 72.9C165.12 66.54 168.92 59.7 176.06 59.85Z" fill="white"/>
<path d="M190.341 38.88C192.206 40.8888 193.599 43.2885 194.419 45.9043C195.239 48.5201 195.465 51.2859 195.081 54C194.251 59.42 186.581 68.22 186.941 67.69C187.247 67.1177 187.359 66.4616 187.261 65.82C187.083 63.3742 186.459 60.9814 185.421 58.76C184.771 61.76 183.781 68.05 180.691 68.09C179.461 65.86 177.951 63.82 178.161 61.27C177.451 63.88 176.791 66.5 176.081 69.1C170.081 65.52 166.281 57.28 167.521 50.4C167.794 48.7254 168.395 47.1213 169.291 45.68C170.411 44.0948 171.759 42.6831 173.291 41.49C177.211 38.17 182.401 34.86 187.131 36.85C187.811 37.17 190.521 38.16 190.341 38.88Z" fill="#407BFF"/>
<path opacity="0.3" d="M190.341 38.88C192.206 40.8888 193.599 43.2885 194.419 45.9043C195.239 48.5201 195.465 51.2859 195.081 54C194.251 59.42 186.581 68.22 186.941 67.69C187.247 67.1177 187.359 66.4616 187.261 65.82C187.083 63.3742 186.459 60.9814 185.421 58.76C184.771 61.76 183.781 68.05 180.691 68.09C179.461 65.86 177.951 63.82 178.161 61.27C177.451 63.88 176.791 66.5 176.081 69.1C170.081 65.52 166.281 57.28 167.521 50.4C167.794 48.7254 168.395 47.1213 169.291 45.68C170.411 44.0948 171.759 42.6831 173.291 41.49C177.211 38.17 182.401 34.86 187.131 36.85C187.811 37.17 190.521 38.16 190.341 38.88Z" fill="black"/>
<path d="M229.001 80.34C229.001 80.34 222.891 77.86 204.881 75.71C205.881 82.25 209.881 85.01 219.091 86.01C228.301 87.01 229.001 80.34 229.001 80.34Z" fill="#263238"/>
<path d="M228.18 80.11C227.905 80.8277 227.447 81.4613 226.853 81.9488C226.259 82.4362 225.548 82.7605 224.79 82.89C219.472 82.2479 214.23 81.0823 209.14 79.41C208.279 79.2134 207.49 78.7765 206.867 78.1498C206.244 77.5232 205.812 76.7326 205.62 75.87C213.254 76.5912 220.805 78.0105 228.18 80.11Z" fill="white"/>
<path d="M224.43 82.35C219.892 80.5054 215.095 79.3753 210.21 79C208.841 79.1491 207.538 79.6676 206.44 80.5C208.44 83.74 212.44 85.35 219.01 86.09C221.483 86.5277 224.031 86.0629 226.19 84.78C225.715 83.8947 225.123 83.0774 224.43 82.35Z" fill="white"/>
<path d="M240.751 123.49C239.979 130.741 237.267 137.65 232.901 143.49C232.581 143.92 232.251 144.35 231.901 144.77C222.181 157.08 204.711 160.9 190.181 154.43C185.587 152.44 181.177 150.051 177.001 147.29C168.761 141.75 161.651 134.05 158.301 125.01L183.851 121.72L201.321 119.47L213.261 120.69L240.751 123.49Z" fill="#FFB573"/>
<path d="M114.42 139.87C113.42 214.87 58.0704 279.87 52.3604 354.7H327.07C299.762 296.2 282.649 233.464 276.47 169.2L272.22 125H131.63C131.63 125 114.52 132.53 114.42 139.87Z" fill="#407BFF"/>
<path opacity="0.6" d="M114.42 139.87C113.42 214.87 58.0704 279.87 52.3604 354.7H327.07C299.762 296.2 282.649 233.464 276.47 169.2L272.22 125H131.63C131.63 125 114.52 132.53 114.42 139.87Z" fill="white"/>
<path opacity="0.2" d="M86.5403 354.6C86.5403 354.6 84.9403 277.37 110.54 197.47C136.14 117.57 104 221.43 109 314C110.42 340.69 117.41 355 117.41 355L86.5403 354.6Z" fill="white"/>
<path opacity="0.2" d="M301.86 355C301.86 355 268.3 277.17 262.27 174.44C262.27 174.44 254.05 265.35 282.41 354.7L301.86 355Z" fill="white"/>
<path d="M292.891 112.18C293.026 112.113 293.167 112.056 293.311 112.01L293.151 112.08L292.891 112.18Z" fill="#407BFF"/>
<path d="M295.101 111.36L294.391 111.62L293.811 111.83H293.721L293.311 111.98C293.881 111.78 294.481 111.57 295.101 111.36Z" fill="#407BFF"/>
<path d="M366.82 115.34C366.82 142.78 317.58 160.05 295.61 166.34C274.77 173.34 262.27 174.39 262.27 174.39C261.5 167.14 245.78 124.59 245.78 124.59C245.78 124.59 255.18 120.59 261.92 121.19H262.09C269.979 121.813 277.87 120.005 284.7 116.01C287.184 114.576 289.771 113.329 292.44 112.28L292.89 112.11L293.15 112.01L293.72 111.79H293.81L294.39 111.58L295.1 111.32L295.93 111.05L296.18 110.97L296.44 110.89L296.63 110.84H296.7C298.644 110.277 300.617 109.823 302.61 109.48C308.458 108.34 314.516 109.038 319.95 111.48C320.983 111.986 322.126 112.226 323.275 112.179C324.424 112.132 325.543 111.799 326.53 111.21C327.53 110.57 327.96 109.88 327 109.34L280.26 55.88L294.51 48.05C294.51 48.05 366.82 86.26 366.82 115.34Z" fill="#407BFF"/>
<path d="M366.82 115.34C366.82 142.78 317.58 160.05 295.61 166.34C274.77 173.34 262.27 174.39 262.27 174.39C261.5 167.14 245.78 124.59 245.78 124.59C245.78 124.59 255.18 120.59 261.92 121.19H262.09C269.979 121.813 277.87 120.005 284.7 116.01C287.184 114.576 289.771 113.329 292.44 112.28L292.89 112.11L293.15 112.01L293.72 111.79H293.81L294.39 111.58L295.1 111.32L295.93 111.05L296.18 110.97L296.44 110.89L296.63 110.84H296.7C298.644 110.277 300.617 109.823 302.61 109.48C308.458 108.34 314.516 109.038 319.95 111.48C320.983 111.986 322.126 112.226 323.275 112.179C324.424 112.132 325.543 111.799 326.53 111.21C327.53 110.57 327.96 109.88 327 109.34L280.26 55.88L294.51 48.05C294.51 48.05 366.82 86.26 366.82 115.34Z" fill="#407BFF"/>
<g opacity="0.3">
<path d="M366.82 115.34C366.82 142.78 317.58 160.05 295.61 166.34C274.77 173.34 262.27 174.39 262.27 174.39C261.5 167.14 245.78 124.59 245.78 124.59C245.78 124.59 255.18 120.59 261.92 121.19H262.09C269.979 121.813 277.87 120.005 284.7 116.01C287.184 114.576 289.771 113.329 292.44 112.28L292.89 112.11L293.15 112.01L293.72 111.79H293.81L294.39 111.58L295.1 111.32L295.93 111.05L296.18 110.97L296.44 110.89L296.63 110.84H296.7C298.644 110.277 300.617 109.823 302.61 109.48C308.458 108.34 314.516 109.038 319.95 111.48C320.983 111.986 322.126 112.226 323.275 112.179C324.424 112.132 325.543 111.799 326.53 111.21C327.53 110.57 327.96 109.88 327 109.34L280.26 55.88L294.51 48.05C294.51 48.05 366.82 86.26 366.82 115.34Z" fill="white"/>
</g>
<path d="M284.11 57.27L264.19 49.38L252.19 33.38L269.43 29.55L285.73 38L295.51 48.64C295.964 49.1342 296.285 49.7343 296.446 50.3852C296.606 51.0361 296.601 51.7169 296.429 52.3651C296.258 53.0132 295.927 53.608 295.466 54.0946C295.005 54.5813 294.428 54.9442 293.79 55.15L286.79 57.38C285.911 57.6529 284.964 57.6141 284.11 57.27Z" fill="#407BFF"/>
<path opacity="0.7" d="M284.11 57.27L264.19 49.38L252.19 33.38L269.43 29.55L285.73 38L295.51 48.64C295.964 49.1342 296.285 49.7343 296.446 50.3852C296.606 51.0361 296.601 51.7169 296.429 52.3651C296.258 53.0132 295.927 53.608 295.466 54.0946C295.005 54.5813 294.428 54.9442 293.79 55.15L286.79 57.38C285.911 57.6529 284.964 57.6141 284.11 57.27Z" fill="white"/>
<path opacity="0.2" d="M271.07 152.57L273.07 172.8C273.07 172.8 302.56 165.96 319.23 158.33L305.84 159.06C294.763 159.82 283.674 157.734 273.63 153L271.07 152.57Z" fill="black"/>
<path d="M274.6 172.33C274.31 236.72 262.48 242.8 263.04 298.22C263.04 298.22 151.551 298.67 147.771 298.77C138.771 224.19 129.601 220.77 132.021 163.5C130.851 144.69 141.52 128.15 152.25 126L201.34 119.47L248.56 124.47C260.56 126.19 271.41 135.65 274.6 172.33Z" fill="#407BFF"/>
<path opacity="0.3" d="M274.6 172.33C274.31 236.72 262.48 242.8 263.04 298.22C263.04 298.22 151.551 298.67 147.771 298.77C138.771 224.19 129.601 220.77 132.021 163.5C130.851 144.69 141.52 128.15 152.25 126L201.34 119.47L248.56 124.47C260.56 126.19 271.41 135.65 274.6 172.33Z" fill="white"/>
<path d="M194.081 46.58C191.081 39.98 187.081 36.79 189.411 37.15C195.671 38.15 199.501 32.64 204.101 35.74C206.341 38.3 203.761 43.06 203.651 42.8C205.951 43.89 208.821 43.03 210.711 41.35C212.601 39.67 213.261 36.73 214.191 34.35C214.887 36.9092 214.824 39.6157 214.011 42.14C215.661 43.45 219.061 40.99 220.611 39.56C222.159 37.9194 223.318 35.9505 224.001 33.8C224.591 36.1 225.051 38.44 223.401 41.21C225.741 41.34 228.811 40.62 230.351 38.87C231.155 37.9584 231.751 36.882 232.097 35.7161C232.442 34.5502 232.529 33.3229 232.351 32.12C232.881 33.3 232.961 38.12 231.911 38.93C235.911 37.62 239.621 32.62 239.411 28.45C239.218 26.3579 238.524 24.343 237.387 22.5761C236.251 20.8092 234.705 19.3424 232.881 18.3C231.091 17.23 229.101 16.53 227.221 15.61C224.331 14.19 205.971 0.489993 179.011 16.11C162.281 25.81 165.551 45.11 167.541 47.21C170.011 49.8 173.901 50.67 177.491 50.31C181.081 49.95 194.861 48.33 194.081 46.58Z" fill="#407BFF"/>
<path opacity="0.3" d="M194.081 46.58C191.081 39.98 187.081 36.79 189.411 37.15C195.671 38.15 199.501 32.64 204.101 35.74C206.341 38.3 203.761 43.06 203.651 42.8C205.951 43.89 208.821 43.03 210.711 41.35C212.601 39.67 213.261 36.73 214.191 34.35C214.887 36.9092 214.824 39.6157 214.011 42.14C215.661 43.45 219.061 40.99 220.611 39.56C222.159 37.9194 223.318 35.9505 224.001 33.8C224.591 36.1 225.051 38.44 223.401 41.21C225.741 41.34 228.811 40.62 230.351 38.87C231.155 37.9584 231.751 36.882 232.097 35.7161C232.442 34.5502 232.529 33.3229 232.351 32.12C232.881 33.3 232.961 38.12 231.911 38.93C235.911 37.62 239.621 32.62 239.411 28.45C239.218 26.3579 238.524 24.343 237.387 22.5761C236.251 20.8092 234.705 19.3424 232.881 18.3C231.091 17.23 229.101 16.53 227.221 15.61C224.331 14.19 205.971 0.489993 179.011 16.11C162.281 25.81 165.551 45.11 167.541 47.21C170.011 49.8 173.901 50.67 177.491 50.31C181.081 49.95 194.861 48.33 194.081 46.58Z" fill="black"/>
<path d="M229.001 80.34C229.001 80.34 222.891 77.86 204.881 75.71C205.881 82.25 209.881 85.01 219.091 86.01C228.301 87.01 229.001 80.34 229.001 80.34Z" fill="#407BFF"/>
<path opacity="0.3" d="M229.001 80.34C229.001 80.34 222.891 77.86 204.881 75.71C205.881 82.25 209.881 85.01 219.091 86.01C228.301 87.01 229.001 80.34 229.001 80.34Z" fill="black"/>
<path d="M228.18 80.11C227.905 80.8277 227.447 81.4613 226.853 81.9488C226.259 82.4362 225.548 82.7605 224.79 82.89C219.472 82.2479 214.23 81.0823 209.14 79.41C208.279 79.2134 207.49 78.7765 206.867 78.1498C206.244 77.5232 205.812 76.7326 205.62 75.87C213.254 76.5912 220.805 78.0105 228.18 80.11Z" fill="white"/>
<path d="M224.43 82.35C219.892 80.5054 215.095 79.3753 210.21 79C208.841 79.1491 207.538 79.6676 206.44 80.5C208.44 83.74 212.44 85.35 219.01 86.09C221.483 86.5277 224.031 86.0629 226.19 84.78C225.715 83.8947 225.123 83.0774 224.43 82.35Z" fill="white"/>
<path d="M142 270.37C142 270.37 165.58 257.87 165.45 259.24C165.32 260.61 165.94 287.06 165.94 287.06L140.23 286.47L142 270.37Z" fill="#407BFF"/>
<path d="M165.431 259.24C165.431 259.24 187.141 259.95 187.021 262.36C186.901 264.77 184.561 285 184.561 285L165.921 287.07L165.431 259.24Z" fill="#407BFF"/>
<g opacity="0.7">
<path d="M187 262.36C186.88 264.78 184.55 284.99 184.55 284.99L165.91 287.06L140.2 286.47L141.97 270.37C141.97 270.37 165.55 257.87 165.42 259.24C165.43 259.24 187.14 260 187 262.36Z" fill="white"/>
</g>
<path d="M240.751 123.49C239.979 130.741 237.267 137.65 232.901 143.49C232.581 143.92 232.251 144.35 231.901 144.77C222.181 157.08 204.711 160.9 190.181 154.43C185.587 152.44 181.177 150.051 177.001 147.29C168.761 141.75 161.651 134.05 158.301 125.01L183.851 121.72L201.321 119.47L213.261 120.69L240.751 123.49Z" fill="#407BFF"/>
<path opacity="0.7" d="M240.751 123.49C239.979 130.741 237.267 137.65 232.901 143.49C232.581 143.92 232.251 144.35 231.901 144.77C222.181 157.08 204.711 160.9 190.181 154.43C185.587 152.44 181.177 150.051 177.001 147.29C168.761 141.75 161.651 134.05 158.301 125.01L183.851 121.72L201.321 119.47L213.261 120.69L240.751 123.49Z" fill="white"/>
<path opacity="0.2" d="M132.181 188.43C132.217 199.675 133.22 210.897 135.181 221.97L143.531 169.85L132.181 188.43Z" fill="black"/>
<path d="M86.9204 226.14L142.77 265.6L140.21 288.81C140.21 288.81 56.3904 269.54 43.7004 243.39C37.7704 231.19 44.4504 216.27 54.7704 202.47C54.7751 202.454 54.7751 202.436 54.7704 202.42C67.0404 182.35 78.1904 170.42 86.6004 163.37C94.8485 156.658 102.013 148.715 107.84 139.82C122.32 117.09 154.84 126.3 154.84 126.3C147.43 143.64 147.35 176.62 147.35 176.62C147.35 176.62 140.08 182.1 132.14 188.43C132.06 193.78 128.81 200.33 122.53 207.73C114.28 217.49 89.7404 223.05 86.9204 226.14Z" fill="#407BFF"/>
<path opacity="0.3" d="M86.9204 226.14L142.77 265.6L140.21 288.81C140.21 288.81 56.3904 269.54 43.7004 243.39C37.7704 231.19 44.4504 216.27 54.7704 202.47C54.7751 202.454 54.7751 202.436 54.7704 202.42C67.0404 182.35 78.1904 170.42 86.6004 163.37C94.8485 156.658 102.013 148.715 107.84 139.82C122.32 117.09 154.84 126.3 154.84 126.3C147.43 143.64 147.35 176.62 147.35 176.62C147.35 176.62 140.08 182.1 132.14 188.43C132.06 193.78 128.81 200.33 122.53 207.73C114.28 217.49 89.7404 223.05 86.9204 226.14Z" fill="white"/>
<path d="M129.11 119.58C146.767 134.265 166.829 145.788 188.41 153.64C188.41 146.87 186.25 133.19 182.41 124.71C181.32 122.33 179.94 119.94 177.71 118.57C175.48 117.2 172.21 117.21 170.55 119.24C164.21 114.76 153.78 114.55 147.63 119.24C142.87 117.59 136.11 114.97 131.15 115.86C126.19 116.75 120.07 123.36 120.81 128.35C125.385 126.16 130.346 124.889 135.41 124.61C134.05 123 135.38 124.66 129.11 119.58Z" fill="#407BFF"/>
<path opacity="0.6" d="M129.11 119.58C146.767 134.265 166.829 145.788 188.41 153.64C188.41 146.87 186.25 133.19 182.41 124.71C181.32 122.33 179.94 119.94 177.71 118.57C175.48 117.2 172.21 117.21 170.55 119.24C164.21 114.76 153.78 114.55 147.63 119.24C142.87 117.59 136.11 114.97 131.15 115.86C126.19 116.75 120.07 123.36 120.81 128.35C125.385 126.16 130.346 124.889 135.41 124.61C134.05 123 135.38 124.66 129.11 119.58Z" fill="white"/>
<path d="M257.43 121.29C254.563 119.992 251.452 119.321 248.305 119.321C245.158 119.321 242.047 119.992 239.18 121.29C235.26 118.42 229.23 117.81 225.18 120.56C224.543 119.798 223.755 119.177 222.865 118.736C221.975 118.296 221.003 118.045 220.01 118C218.01 117.93 216.73 119.31 215.36 120.74C218.24 122.19 219.71 125.42 220.73 128.48C223.334 136.231 224.443 144.406 224 152.57C237.8 145.83 249.51 134.52 257.43 121.29Z" fill="#407BFF"/>
<path opacity="0.6" d="M257.43 121.29C254.563 119.992 251.452 119.321 248.305 119.321C245.158 119.321 242.047 119.992 239.18 121.29C235.26 118.42 229.23 117.81 225.18 120.56C224.543 119.798 223.755 119.177 222.865 118.736C221.975 118.296 221.003 118.045 220.01 118C218.01 117.93 216.73 119.31 215.36 120.74C218.24 122.19 219.71 125.42 220.73 128.48C223.334 136.231 224.443 144.406 224 152.57C237.8 145.83 249.51 134.52 257.43 121.29Z" fill="white"/>
<path opacity="0.5" d="M254.73 199.22C254.73 214.41 233.11 241.56 206.44 241.56C179.77 241.56 158.15 214.41 158.15 199.22C158.15 184.03 179.77 171.71 206.44 171.71C233.11 171.71 254.73 184 254.73 199.22Z" fill="white"/>
<path d="M248.24 200.53C248.24 213.04 230.43 235.41 208.46 235.41C186.49 235.41 168.69 213 168.69 200.53C168.69 188.06 186.49 177.86 208.46 177.86C230.43 177.86 248.24 188 248.24 200.53Z" fill="#407BFF"/>
<path opacity="0.5" d="M248.24 200.53C248.24 213.04 230.43 235.41 208.46 235.41C186.49 235.41 168.69 213 168.69 200.53C168.69 188.06 186.49 177.86 208.46 177.86C230.43 177.86 248.24 188 248.24 200.53Z" fill="white"/>
<path d="M263.061 298.77H147.771V317.58H263.061V298.77Z" fill="white"/>
<path d="M147.77 317.58L136.74 354.7H266.79L263.07 317.58H147.77Z" fill="#407BFF"/>
<path opacity="0.2" d="M147.77 317.58L136.74 354.7H266.79L263.07 317.58H147.77Z" fill="white"/>
<path d="M233.22 297.57H198.75V318.18H233.22V297.57Z" fill="#263238"/>
<path opacity="0.7" d="M233.22 297.57H198.75V318.18H233.22V297.57Z" fill="white"/>
<path opacity="0.7" d="M213.18 297.57L203.03 318.18H210.55L221.02 297.57H213.18Z" fill="white"/>
<path opacity="0.7" d="M224.241 297.57L214.091 318.18H219.461L229.931 297.57H224.241Z" fill="white"/>
<path opacity="0.2" d="M244.801 53.59C244.381 56.42 242.171 60.16 240.191 63.02C240.512 68.7428 240.177 74.4836 239.191 80.13C237.991 86.7802 234.63 92.8484 229.628 97.3924C224.627 101.936 218.265 104.702 211.531 105.26C211.406 107.525 211.406 109.795 211.531 112.06C211.671 114.99 212.251 117.882 213.251 120.64L240.721 123.44C239.949 130.691 237.237 137.6 232.871 143.44C232.551 143.87 232.221 144.3 231.871 144.72C222.151 157.03 204.681 160.85 190.151 154.38C185.567 152.388 181.167 149.999 177.001 147.24C168.761 141.7 161.651 134 158.301 124.96L183.851 121.67C185.171 117.93 185.471 112.17 186.071 107.67C186.491 104.6 185.851 97.96 184.591 91.73C183.632 91.2537 182.718 90.6914 181.861 90.05C181.861 92.98 179.861 98.05 179.861 98.05C170.541 94.98 162.861 76.34 161.861 70.16C156.671 79.79 157.131 74.25 156.731 70.16C156.151 64.27 156.001 58.16 158.011 52.61C159.445 48.4827 162.274 44.9851 166.011 42.72C165.011 35.94 166.391 23.33 178.891 16.08C205.891 0.460025 224.211 14.16 227.101 15.58C228.981 16.5 230.961 17.2 232.761 18.27C234.585 19.3125 236.131 20.7793 237.267 22.5462C238.404 24.313 239.098 26.3279 239.291 28.42C239.421 31.14 237.901 34.2 235.721 36.37C245.001 37.56 245.561 48.48 244.801 53.59Z" fill="white"/>
<path opacity="0.2" d="M225.611 34.93L225.271 34.36C225.396 33.6186 225.396 32.8614 225.271 32.12C225.533 33.0325 225.648 33.9812 225.611 34.93Z" fill="white"/>
<path d="M150.14 324.82C147.328 325.736 144.458 326.464 141.55 327C141.1 327.08 140.66 327.16 140.23 327.22C138.82 327.43 137.5 327.56 136.23 327.62C116.88 328.62 116.38 312.46 115.9 304.23C115.423 293.224 115.697 282.199 116.72 271.23C118.06 255.96 120.6 240.1 124.29 228.23C129.63 211.11 138.29 209.23 145.64 209.1C147.06 209.1 148.45 209.1 149.75 209.1C149.75 209.1 148.81 213.95 148.36 218.63L145.44 239.37L141.38 268.15L140.75 272.64V272.89L138.55 288.47L138.04 292.06C137.81 294.45 137.64 297.82 140.25 299.74C140.618 300.025 141.021 300.26 141.45 300.44C143.15 301.2 145.66 301.51 149.31 301.08L149.68 311.3L149.75 313.14L149.87 316.32L150.07 322.1L150.14 324.82Z" fill="#FFB573"/>
<path d="M106.15 265.4C111.69 271.73 116.15 270.96 123.81 272.16C131.47 273.36 138.07 272.94 145.81 272.23C147.38 250.7 150.03 229.23 149.81 207.72C143.53 208.19 136.81 207.93 131.66 211.05C124.8 215.22 124.34 225.93 119.72 233.48C114.26 242.4 107.26 249.71 100.33 256.93C102.85 261.33 103 261.75 106.15 265.4Z" fill="#407BFF"/>
<g opacity="0.6">
<path d="M106.15 265.4C111.69 271.73 116.15 270.96 123.81 272.16C131.47 273.36 138.07 272.94 145.81 272.23C147.38 250.7 150.03 229.23 149.81 207.72C143.53 208.19 136.81 207.93 131.66 211.05C124.8 215.22 124.34 225.93 119.72 233.48C114.26 242.4 107.26 249.71 100.33 256.93C102.85 261.33 103 261.75 106.15 265.4Z" fill="black"/>
</g>
<path opacity="0.2" d="M145.44 239.36L134.76 272.92H148.24L145.44 239.36Z" fill="black"/>
<path d="M248.621 277.62C247.391 283.12 245.921 288.51 244.421 295.38C244.101 296.85 243.771 298.38 243.421 300.02C242.971 302.3 242.521 304.72 242.091 307.36C241.611 310.36 241.141 313.56 240.691 317.12C240.291 320.2 239.921 323.52 239.571 327.12C239.421 328.69 239.261 330.31 239.121 332.01C238.841 335.32 238.571 338.85 238.331 342.62C238.091 346.39 237.871 350.57 237.671 354.95C234.411 354.87 138.061 354.95 138.061 354.95C138.601 348.54 139.061 342.51 139.501 336.69C139.731 333.46 139.961 330.3 140.151 327.18V327.11C140.221 326.11 140.281 325.21 140.331 324.27C140.481 321.89 140.611 319.54 140.731 317.2C141.021 311.6 141.241 306.06 141.381 300.41C141.381 300.17 141.381 299.93 141.381 299.69C141.461 296.21 141.511 292.69 141.531 289.07C141.531 283.87 141.531 278.5 141.421 272.86C141.421 272.76 141.421 272.66 141.421 272.56C141.421 271.1 141.371 269.62 141.331 268.12C141.211 263.52 141.051 258.72 140.831 253.67C140.561 247.37 140.211 240.67 139.771 233.53C139.251 225.08 139.851 213.85 145.581 209.08C146.148 208.603 146.769 208.193 147.431 207.86C148.414 207.362 149.471 207.024 150.561 206.86L180.811 202.15L191.361 200.51L206.901 203.51L241.001 210.21C241.409 210.289 241.813 210.389 242.211 210.51C244.414 211.154 246.346 212.503 247.711 214.35C251.231 219.06 251.961 227.35 251.261 238.51C252.131 257.8 250.781 267.88 248.621 277.62Z" fill="#407BFF"/>
<path opacity="0.6" d="M248.621 277.62C247.391 283.12 245.921 288.51 244.421 295.38C244.101 296.85 243.771 298.38 243.421 300.02C242.971 302.3 242.521 304.72 242.091 307.36C241.611 310.36 241.141 313.56 240.691 317.12C240.291 320.2 239.921 323.52 239.571 327.12C239.421 328.69 239.261 330.31 239.121 332.01C238.841 335.32 238.571 338.85 238.331 342.62C238.091 346.39 237.871 350.57 237.671 354.95C234.411 354.87 138.061 354.95 138.061 354.95C138.601 348.54 139.061 342.51 139.501 336.69C139.731 333.46 139.961 330.3 140.151 327.18V327.11C140.221 326.11 140.281 325.21 140.331 324.27C140.481 321.89 140.611 319.54 140.731 317.2C141.021 311.6 141.241 306.06 141.381 300.41C141.381 300.17 141.381 299.93 141.381 299.69C141.461 296.21 141.511 292.69 141.531 289.07C141.531 283.87 141.531 278.5 141.421 272.86C141.421 272.76 141.421 272.66 141.421 272.56C141.421 271.1 141.371 269.62 141.331 268.12C141.211 263.52 141.051 258.72 140.831 253.67C140.561 247.37 140.211 240.67 139.771 233.53C139.251 225.08 139.851 213.85 145.581 209.08C146.148 208.603 146.769 208.193 147.431 207.86C148.414 207.362 149.471 207.024 150.561 206.86L180.811 202.15L191.361 200.51L206.901 203.51L241.001 210.21C241.409 210.289 241.813 210.389 242.211 210.51C244.414 211.154 246.346 212.503 247.711 214.35C251.231 219.06 251.961 227.35 251.261 238.51C252.131 257.8 250.781 267.88 248.621 277.62Z" fill="black"/>
<path d="M208.31 205.31C214.37 209.63 211.8 216.42 206.86 221.97C196.57 233.52 185.86 237.11 185.86 237.11C185.7 237.04 159.13 217.84 177.86 205.83C180.96 203.83 182.17 199.12 182.51 194.19C182.716 190.424 182.565 186.647 182.06 182.91C181.97 181.97 181.82 181.05 181.66 180.18C181.5 179.31 181.32 178.43 181.11 177.62L209.38 166C206.28 170.66 203.92 185.6 204.58 190.41C205.3 195.79 205.51 203.32 208.31 205.31Z" fill="#FFB573"/>
<path opacity="0.2" d="M182.6 194.19C182.806 190.424 182.655 186.647 182.15 182.91C182.06 181.97 181.91 181.05 181.75 180.18L203.54 176C199 180.57 192.56 189.83 182.6 194.19Z" fill="black"/>
<path d="M153.07 144.84C153.78 149.52 160.41 157.13 160.07 156.67C159.804 156.178 159.709 155.612 159.8 155.06C159.951 152.943 160.49 150.872 161.39 148.95C161.94 151.57 162.8 156.95 165.47 157.02C166.53 155.09 167.84 153.33 167.66 151.13C168.28 153.38 168.84 155.64 169.45 157.89C172.09 156.179 174.188 153.751 175.499 150.891C176.809 148.031 177.278 144.857 176.85 141.74C176.615 140.29 176.099 138.901 175.33 137.65C174.374 136.27 173.218 135.04 171.9 134C168.52 131.13 164.21 128.78 159.9 130C151.76 132.32 152.36 140.16 153.07 144.84Z" fill="#263238"/>
<path d="M158.73 166.59C162.23 185.66 185.06 195.72 200.13 182.06C208.83 174.19 210.22 164.8 211.8 150.16C212.05 147.94 212.3 145.61 212.59 143.16C213.052 139.3 212.652 135.387 211.42 131.7C210.912 130.16 210.242 128.678 209.42 127.28C206.476 121.966 201.76 117.855 196.095 115.662C190.43 113.469 184.175 113.334 178.42 115.28C159.6 121.64 155.56 149.43 158.73 166.59Z" fill="#FFB573"/>
<path d="M177.25 139.54C177.11 139.49 176.988 139.399 176.9 139.28C176.76 139.091 176.701 138.855 176.735 138.623C176.769 138.391 176.893 138.181 177.08 138.04C178.203 137.181 179.518 136.608 180.912 136.371C182.306 136.134 183.736 136.24 185.08 136.68C185.187 136.724 185.285 136.788 185.367 136.87C185.449 136.952 185.514 137.049 185.559 137.155C185.603 137.262 185.626 137.377 185.627 137.493C185.627 137.608 185.604 137.723 185.56 137.83C185.469 138.05 185.296 138.225 185.077 138.318C184.858 138.412 184.612 138.416 184.39 138.33C183.325 137.98 182.19 137.897 181.085 138.087C179.979 138.277 178.938 138.735 178.05 139.42C177.938 139.507 177.806 139.564 177.666 139.585C177.526 139.606 177.382 139.591 177.25 139.54Z" fill="#263238"/>
<path d="M167.59 140.88C167.495 140.768 167.375 140.679 167.239 140.622C167.104 140.565 166.957 140.54 166.81 140.55C165.666 140.694 164.504 140.571 163.416 140.189C162.328 139.807 161.343 139.178 160.54 138.35C160.385 138.167 160.164 138.052 159.925 138.029C159.685 138.007 159.447 138.079 159.26 138.23C159.082 138.383 158.968 138.599 158.942 138.832C158.916 139.066 158.98 139.301 159.12 139.49C160.11 140.551 161.338 141.359 162.704 141.848C164.07 142.337 165.532 142.492 166.97 142.3C167.091 142.291 167.209 142.258 167.317 142.203C167.425 142.147 167.521 142.07 167.599 141.977C167.676 141.884 167.734 141.775 167.769 141.659C167.803 141.543 167.814 141.421 167.8 141.3C167.764 141.145 167.693 141.001 167.59 140.88Z" fill="#263238"/>
<path d="M171 161.05C168.259 161.076 165.591 160.162 163.44 158.46C166.37 155.55 169.65 152.28 171.66 148.67L171 161.05Z" fill="#ED893E"/>
<path d="M164.18 149.76C163.431 149.701 162.702 149.494 162.034 149.15C161.366 148.807 160.773 148.334 160.29 147.76C160.244 147.712 160.209 147.656 160.185 147.594C160.162 147.532 160.151 147.467 160.153 147.401C160.154 147.335 160.169 147.27 160.196 147.21C160.223 147.15 160.262 147.095 160.31 147.05C160.358 147.005 160.414 146.969 160.476 146.946C160.537 146.922 160.603 146.911 160.669 146.913C160.735 146.915 160.8 146.93 160.86 146.957C160.92 146.984 160.974 147.022 161.02 147.07C162.13 148.24 163.87 149.4 165.83 148.25C165.944 148.183 166.08 148.163 166.209 148.195C166.338 148.227 166.449 148.307 166.52 148.42C166.586 148.536 166.604 148.673 166.57 148.802C166.537 148.931 166.454 149.041 166.34 149.11C165.691 149.517 164.945 149.741 164.18 149.76Z" fill="#263238"/>
<path d="M181.58 165.67C180.171 166.75 178.561 167.538 176.844 167.986C175.126 168.434 173.336 168.534 171.58 168.28C171.46 168.267 171.35 168.21 171.272 168.118C171.194 168.027 171.154 167.91 171.16 167.79C171.162 167.733 171.176 167.678 171.2 167.627C171.224 167.576 171.258 167.53 171.3 167.492C171.341 167.454 171.39 167.424 171.444 167.405C171.497 167.386 171.553 167.377 171.61 167.38C173.525 167.65 175.477 167.477 177.315 166.874C179.153 166.27 180.827 165.253 182.21 163.9C182.292 163.821 182.401 163.777 182.515 163.777C182.628 163.777 182.738 163.821 182.82 163.9C182.898 163.988 182.942 164.102 182.942 164.22C182.942 164.338 182.898 164.452 182.82 164.54C182.446 164.947 182.033 165.323 181.58 165.67Z" fill="#263238"/>
<path d="M201.85 178C204.158 177.568 206.337 176.614 208.22 175.21C208.22 177.74 209.92 182.08 209.92 182.08C217.97 179.43 224.6 163.32 225.49 157.98C229.97 166.3 229.58 161.52 229.93 157.98C230.43 152.89 230.55 147.62 228.82 142.82C227.09 138.02 223.12 133.73 218.08 132.9C217.141 132.812 216.196 132.976 215.343 133.377C214.49 133.778 213.76 134.401 213.23 135.18C212.367 136.728 211.804 138.424 211.57 140.18C209.23 152.79 209.33 167.54 201.85 178Z" fill="#263238"/>
<path d="M213.27 149C207.11 149.13 203.34 156.9 202.69 162.22C201.92 168.13 205.9 173 211.61 170.38C213.739 169.392 215.649 167.988 217.229 166.252C218.809 164.516 220.026 162.482 220.81 160.27C222.71 154.8 219.43 148.89 213.27 149Z" fill="#FFB573"/>
<path opacity="0.2" d="M230.36 247.13C230.36 247.13 222.88 280.98 228.07 301.41C233.26 321.84 243.62 332.14 243.62 332.14L245.47 247.14L230.36 247.13Z" fill="black"/>
<path opacity="0.2" d="M243.62 332.14C242.149 332.491 240.613 332.457 239.16 332.04C238.88 335.35 238.61 338.88 238.37 342.65C232.42 345.84 205.89 336.47 182.62 327.12C177.49 325.06 172.52 322.99 167.97 321.06C166.35 320.39 164.8 319.72 163.31 319.06C160.22 317.74 157.4 316.51 154.94 315.43C152.94 314.56 151.18 313.78 149.72 313.12C146.67 311.77 144.92 310.97 144.92 310.97L149.65 311.28L187 313.7L196.65 314.33L198.59 314.44L210.54 315.21L218.7 315.73H219.12L227.04 316.24L233.49 316.65L240.69 317.11L243.58 317.3C243.58 317.3 243.74 319.3 243.79 322.65V322.77C243.86 325.26 243.83 328.45 243.62 332.14Z" fill="black"/>
<path d="M259 277.75C257.52 293.39 255.34 308.84 253.54 318.98C252.29 326.04 248.3 330.98 243.62 332.16C242.15 332.511 240.614 332.477 239.16 332.06C238.94 332 238.73 331.93 238.51 331.85L202.71 322.62L202.4 322.53L198.57 321.53L198.63 314.43V313.86V311.05L198.71 302.18L203.55 302.44L227.2 303.7C227.679 303.834 228.182 303.855 228.67 303.76C230.72 303.37 232.42 300.97 232.67 297.81L233.13 290.95L234.13 275.82L236.06 247.11L237.83 220.53C238.027 217.662 238.479 214.818 239.18 212.03C242.188 212.158 245.126 212.983 247.76 214.44C253.33 217.44 259.38 223.81 260.36 236.87C261.18 247.71 260.42 262.81 259 277.75Z" fill="#FFB573"/>
<path d="M216.05 325.19L163.51 315.05C162.078 314.599 160.559 314.5 159.08 314.76L144.28 317.3C142.691 317.576 141.058 317.439 139.536 316.903C138.015 316.368 136.656 315.451 135.59 314.24L128.59 306.3C127.746 305.346 127.103 304.232 126.7 303.023C126.297 301.815 126.141 300.538 126.243 299.268C126.345 297.998 126.702 296.762 127.292 295.634C127.883 294.505 128.695 293.507 129.68 292.7L132.19 290.64C133.821 289.3 135.853 288.545 137.962 288.494C140.072 288.444 142.138 289.1 143.83 290.36C145.54 291.632 147.63 292.288 149.76 292.22H150.63C152.607 292.159 154.554 292.719 156.195 293.822C157.837 294.926 159.091 296.516 159.78 298.37L160.6 300.56L203.43 302.2L216.05 325.19Z" fill="#FFB573"/>
<path opacity="0.1" d="M153.07 301.81C155.58 301.32 158.07 300.92 160.59 300.51L159.78 298.35C159.091 296.496 157.837 294.906 156.195 293.802C154.554 292.699 152.607 292.139 150.63 292.2H149.76C147.63 292.268 145.54 291.612 143.83 290.34C142.138 289.08 140.072 288.424 137.962 288.474C135.853 288.525 133.821 289.28 132.19 290.62L129.68 292.68C128.056 294.014 126.922 295.85 126.455 297.899C125.988 299.948 126.215 302.094 127.1 304C131.89 304.45 149.08 302.59 153.07 301.81Z" fill="black"/>
<path opacity="0.2" d="M232.52 314.42C230.757 315.168 228.943 315.786 227.09 316.27C223.6 317.27 218.79 318.53 213.18 319.93C209.84 320.76 206.18 321.63 202.42 322.53C196.14 324.03 189.42 325.6 182.68 327.13C165.09 331.13 147.68 334.96 139.6 336.73C139.83 333.5 140.06 330.34 140.25 327.22C138.84 327.43 137.52 327.56 136.25 327.62V327.38L136.56 325.17L140.36 324.31L150.03 322.11L163.3 319.11L173.02 316.9L187.02 313.71L198.64 311.07L207.21 309.12L213.65 307.66C213.65 307.66 225.38 308.88 231.02 310.85C234 311.85 235.25 313.06 232.52 314.42Z" fill="black"/>
<path d="M122.16 300.1L202.79 298.61C204.283 298.483 205.725 298.007 207 297.22L219.78 289.31C221.15 288.459 222.715 287.974 224.325 287.9C225.936 287.827 227.539 288.168 228.98 288.89L238.44 293.62C239.576 294.19 240.586 294.982 241.41 295.95C242.234 296.918 242.856 298.042 243.237 299.254C243.619 300.467 243.752 301.743 243.631 303.009C243.51 304.274 243.135 305.502 242.53 306.62L241 309.5C239.989 311.352 238.387 312.813 236.45 313.65C234.513 314.487 232.352 314.652 230.31 314.12C228.25 313.58 215.31 315.69 212.53 312.7L210.93 311L146.78 326.1C142.232 327.172 137.557 327.599 132.89 327.37L122.16 300.1Z" fill="#FFB573"/>
<path d="M280.4 273.18C278.206 274.758 275.677 275.809 273.01 276.25C255.63 279.13 244.62 277.67 230.61 275.25C228.14 252 228.76 234 233.22 221C234.71 216.68 238.97 210.39 243.53 210.58C262.9 211.39 266.2 230.87 268.41 239.86C271.155 251.378 275.177 262.554 280.4 273.18Z" fill="#407BFF"/>
<path opacity="0.6" d="M280.4 273.18C278.206 274.758 275.677 275.809 273.01 276.25C255.63 279.13 244.62 277.67 230.61 275.25C228.14 252 228.76 234 233.22 221C234.71 216.68 238.97 210.39 243.53 210.58C262.9 211.39 266.2 230.87 268.41 239.86C271.155 251.378 275.177 262.554 280.4 273.18Z" fill="black"/>
<path d="M197.61 139.78C200 133.62 203.5 130.53 201.43 130.95C195.83 132.1 192.15 127.25 188.14 130.28C186.23 132.71 188.75 136.96 188.84 136.72C186.84 137.81 184.19 137.15 182.42 135.72C180.65 134.29 179.93 131.6 178.99 129.5C178.476 131.872 178.646 134.341 179.48 136.62C178.05 137.89 174.89 135.77 173.48 134.53C172.023 133.074 170.909 131.311 170.22 129.37C169.8 131.49 169.47 133.66 171.08 136.12C168.97 136.33 166.18 135.8 164.72 134.26C163.955 133.456 163.374 132.497 163.015 131.448C162.656 130.398 162.528 129.283 162.64 128.18C162.21 129.28 162.34 133.73 163.32 134.39C159.64 133.39 156.11 128.93 156.12 125.11C156.202 123.196 156.742 121.329 157.694 119.665C158.645 118.002 159.981 116.591 161.59 115.55C163.15 114.55 164.91 113.77 166.59 112.85C169.13 111.44 185.1 98.13 210.03 111.32C225.51 119.5 223.38 137.32 221.67 139.32C219.55 141.79 216.08 142.75 212.83 142.57C209.58 142.39 197 141.41 197.61 139.78Z" fill="#263238"/>
<path d="M200.93 130.9C199.313 132.639 198.105 134.719 197.396 136.985C196.686 139.252 196.493 141.649 196.83 144C197.54 148.68 204.18 156.3 203.83 155.83C203.565 155.338 203.47 154.772 203.56 154.22C203.711 152.103 204.25 150.032 205.15 148.11C205.71 150.73 206.56 156.11 209.24 156.18C210.3 154.25 211.6 152.49 211.42 150.29C212.04 152.54 212.6 154.8 213.22 157.05C215.859 155.337 217.955 152.909 219.266 150.05C220.576 147.19 221.046 144.017 220.62 140.9C220.382 139.45 219.862 138.06 219.09 136.81C218.125 135.44 216.958 134.223 215.63 133.2C212.25 130.33 207.77 127.47 203.63 129.2C203.11 129.43 200.77 130.28 200.93 130.9Z" fill="#263238"/>
<path d="M184.27 146.1C184.27 147.66 183.44 148.91 182.44 148.94C181.44 148.97 180.62 147.73 180.54 146.13C180.46 144.53 181.37 143.32 182.38 143.3C183.39 143.28 184.28 144.56 184.27 146.1Z" fill="#263238"/>
<path d="M30.3105 290.41C30.7951 288.155 31.1292 285.87 31.3105 283.57C32.3105 275.84 36.8505 269.86 42.6205 268.69L46.7905 267.83C46.7905 267.83 40.2505 267.83 37.5205 265.92C31.7405 261.92 30.4105 249.92 30.4105 249.92C30.4105 249.92 28.7905 261.92 23.0005 265.92C20.2705 267.83 13.7305 267.83 13.7305 267.83L17.9005 268.69C23.6805 269.86 28.2605 275.84 29.2205 283.57C29.4344 285.871 29.7985 288.156 30.3105 290.41Z" fill="#407BFF"/>
<g opacity="0.7">
<path d="M30.3105 290.41C30.7951 288.155 31.1292 285.87 31.3105 283.57C32.3105 275.84 36.8505 269.86 42.6205 268.69L46.7905 267.83C46.7905 267.83 40.2505 267.83 37.5205 265.92C31.7405 261.92 30.4105 249.92 30.4105 249.92C30.4105 249.92 28.7905 261.92 23.0005 265.92C20.2705 267.83 13.7305 267.83 13.7305 267.83L17.9005 268.69C23.6805 269.86 28.2605 275.84 29.2205 283.57C29.4344 285.871 29.7985 288.156 30.3105 290.41Z" fill="white"/>
</g>
<path d="M316 203.71C316.432 201.766 316.733 199.795 316.9 197.81C317.73 191.15 321.68 186 326.66 184.98L330.25 184.25C330.25 184.25 324.61 184.25 322.25 182.6C317.25 179.11 316.12 168.8 316.12 168.8C316.12 168.8 314.72 179.11 309.74 182.6C307.39 184.25 301.74 184.25 301.74 184.25L305.34 184.98C310.34 185.98 314.27 191.15 315.09 197.81C315.266 199.794 315.57 201.765 316 203.71Z" fill="#407BFF"/>
<g opacity="0.7">
<path d="M316 203.71C316.432 201.766 316.733 199.795 316.9 197.81C317.73 191.15 321.68 186 326.66 184.98L330.25 184.25C330.25 184.25 324.61 184.25 322.25 182.6C317.25 179.11 316.12 168.8 316.12 168.8C316.12 168.8 314.72 179.11 309.74 182.6C307.39 184.25 301.74 184.25 301.74 184.25L305.34 184.98C310.34 185.98 314.27 191.15 315.09 197.81C315.266 199.794 315.57 201.765 316 203.71Z" fill="white"/>
</g>
<path d="M115.641 97.66C115.841 97.58 116.381 93.66 116.961 89C118.171 79.21 123.961 71.64 131.291 70.15L136.571 69.07C136.571 69.07 128.281 69.07 124.831 66.65C117.501 61.53 115.831 46.39 115.831 46.39C115.831 46.39 113.831 61.53 106.461 66.65C103.001 69.07 94.7207 69.07 94.7207 69.07L100.001 70.15C107.311 71.64 113.111 79.21 114.321 89C114.901 93.7 115.431 97.58 115.641 97.66Z" fill="#407BFF"/>
<g opacity="0.7">
<path d="M115.641 97.66C115.841 97.58 116.381 93.66 116.961 89C118.171 79.21 123.961 71.64 131.291 70.15L136.571 69.07C136.571 69.07 128.281 69.07 124.831 66.65C117.501 61.53 115.831 46.39 115.831 46.39C115.831 46.39 113.831 61.53 106.461 66.65C103.001 69.07 94.7207 69.07 94.7207 69.07L100.001 70.15C107.311 71.64 113.111 79.21 114.321 89C114.901 93.7 115.431 97.58 115.641 97.66Z" fill="white"/>
</g>
<path d="M345.34 314.32C345.55 314.24 346.09 310.32 346.67 305.66C347.88 295.87 353.67 288.3 361 286.81L366.28 285.73C366.28 285.73 357.99 285.73 354.53 283.31C347.21 278.18 345.53 263.04 345.53 263.04C345.53 263.04 343.53 278.18 336.15 283.31C332.7 285.73 324.41 285.73 324.41 285.73L329.69 286.81C337.01 288.3 342.81 295.87 344.02 305.66C344.6 310.36 345.14 314.24 345.34 314.32Z" fill="#407BFF"/>
<g opacity="0.7">
<path d="M345.34 314.32C345.55 314.24 346.09 310.32 346.67 305.66C347.88 295.87 353.67 288.3 361 286.81L366.28 285.73C366.28 285.73 357.99 285.73 354.53 283.31C347.21 278.18 345.53 263.04 345.53 263.04C345.53 263.04 343.53 278.18 336.15 283.31C332.7 285.73 324.41 285.73 324.41 285.73L329.69 286.81C337.01 288.3 342.81 295.87 344.02 305.66C344.6 310.36 345.14 314.24 345.34 314.32Z" fill="white"/>
</g>
<path d="M261.16 100C261.481 98.5565 261.704 97.0933 261.83 95.62C262.44 90.68 265.37 86.85 269.07 86.09L271.74 85.55C271.74 85.55 267.55 85.55 265.81 84.33C262.1 81.74 261.25 74.08 261.25 74.08C261.25 74.08 260.25 81.74 256.52 84.33C254.77 85.55 250.58 85.55 250.58 85.55L253.25 86.09C256.95 86.85 259.88 90.68 260.49 95.62C260.622 97.0926 260.845 98.5555 261.16 100Z" fill="#407BFF"/>
<g opacity="0.7">
<path d="M261.16 100C261.481 98.5565 261.704 97.0933 261.83 95.62C262.44 90.68 265.37 86.85 269.07 86.09L271.74 85.55C271.74 85.55 267.55 85.55 265.81 84.33C262.1 81.74 261.25 74.08 261.25 74.08C261.25 74.08 260.25 81.74 256.52 84.33C254.77 85.55 250.58 85.55 250.58 85.55L253.25 86.09C256.95 86.85 259.88 90.68 260.49 95.62C260.622 97.0926 260.845 98.5555 261.16 100Z" fill="white"/>
</g>
<path d="M32.1601 161.53C32.4862 160.088 32.7101 158.624 32.8301 157.15C33.4401 152.21 36.3801 148.38 40.0701 147.62L42.7401 147.08C42.7401 147.08 38.5501 147.08 36.8101 145.86C33.1101 143.27 32.2601 135.62 32.2601 135.62C32.2601 135.62 31.2601 143.27 27.5201 145.86C25.7701 147.08 21.5801 147.08 21.5801 147.08L24.2501 147.62C27.9501 148.38 30.8801 152.21 31.4901 157.15C31.6216 158.623 31.8454 160.085 32.1601 161.53Z" fill="#407BFF"/>
<g opacity="0.7">
<path d="M32.1601 161.53C32.4862 160.088 32.7101 158.624 32.8301 157.15C33.4401 152.21 36.3801 148.38 40.0701 147.62L42.7401 147.08C42.7401 147.08 38.5501 147.08 36.8101 145.86C33.1101 143.27 32.2601 135.62 32.2601 135.62C32.2601 135.62 31.2601 143.27 27.5201 145.86C25.7701 147.08 21.5801 147.08 21.5801 147.08L24.2501 147.62C27.9501 148.38 30.8801 152.21 31.4901 157.15C31.6216 158.623 31.8454 160.085 32.1601 161.53Z" fill="white"/>
</g>
</svg>
