<svg width="288" height="327" viewBox="0 0 288 327" fill="none" xmlns="http://www.w3.org/2000/svg">
<path d="M169.2 125.07C169.2 130.961 166.862 136.61 162.699 140.778C158.537 144.946 152.89 147.292 147 147.3H138.92V168.48H117V177.17C116.876 182.983 114.481 188.516 110.326 192.583C106.172 196.651 100.589 198.929 94.7748 198.929C88.9607 198.929 83.378 196.651 79.2234 192.583C75.0688 188.516 72.6731 182.983 72.5498 177.17V168.48H52.0798V147.3H42.7798C36.884 147.3 31.2298 144.958 27.0608 140.789C22.8919 136.62 20.5498 130.966 20.5498 125.07C20.5498 119.174 22.8919 113.52 27.0608 109.351C31.2298 105.182 36.884 102.84 42.7798 102.84H52.0798V81.66H73.2598V91C73.197 93.9583 73.7255 96.8994 74.8142 99.6508C75.903 102.402 77.53 104.909 79.6 107.023C81.67 109.137 84.1413 110.817 86.869 111.964C89.5967 113.111 92.5258 113.701 95.4848 113.701C98.4438 113.701 101.373 113.111 104.101 111.964C106.828 110.817 109.3 109.137 111.37 107.023C113.44 104.909 115.067 102.402 116.155 99.6508C117.244 96.8994 117.773 93.9583 117.71 91V81.7H138.89V102.88H147C152.883 102.888 158.524 105.228 162.685 109.387C166.847 113.547 169.189 119.186 169.2 125.07Z" fill="#407BFF"/>
<g opacity="0.5">
<path d="M169.2 125.07C169.2 130.961 166.862 136.61 162.699 140.778C158.537 144.946 152.89 147.292 147 147.3H138.92V168.48H117V177.17C116.876 182.983 114.481 188.516 110.326 192.583C106.172 196.651 100.589 198.929 94.7748 198.929C88.9607 198.929 83.378 196.651 79.2234 192.583C75.0688 188.516 72.6731 182.983 72.5498 177.17V168.48H52.0798V147.3H42.7798C36.884 147.3 31.2298 144.958 27.0608 140.789C22.8919 136.62 20.5498 130.966 20.5498 125.07C20.5498 119.174 22.8919 113.52 27.0608 109.351C31.2298 105.182 36.884 102.84 42.7798 102.84H52.0798V81.66H73.2598V91C73.197 93.9583 73.7255 96.8994 74.8142 99.6508C75.903 102.402 77.53 104.909 79.6 107.023C81.67 109.137 84.1413 110.817 86.869 111.964C89.5967 113.111 92.5258 113.701 95.4848 113.701C98.4438 113.701 101.373 113.111 104.101 111.964C106.828 110.817 109.3 109.137 111.37 107.023C113.44 104.909 115.067 102.402 116.155 99.6508C117.244 96.8994 117.773 93.9583 117.71 91V81.7H138.89V102.88H147C152.883 102.888 158.524 105.228 162.685 109.387C166.847 113.547 169.189 119.186 169.2 125.07Z" fill="white"/>
</g>
<path d="M147.08 147.19H137.78V168.37H224.6V147.19H232.67C238.566 147.19 244.22 144.848 248.389 140.679C252.558 136.51 254.9 130.856 254.9 124.96C254.9 119.064 252.558 113.41 248.389 109.241C244.22 105.072 238.566 102.73 232.67 102.73H224.6V81.55H203.42V72.25C203.42 66.3543 201.078 60.7 196.909 56.531C192.74 52.3621 187.086 50.02 181.19 50.02C175.295 50.02 169.64 52.3621 165.471 56.531C161.302 60.7 158.96 66.3543 158.96 72.25V81.55H137.78V102.73H147.08C152.976 102.73 158.63 105.072 162.799 109.241C166.968 113.41 169.31 119.064 169.31 124.96C169.31 130.856 166.968 136.51 162.799 140.679C158.63 144.848 152.976 147.19 147.08 147.19Z" fill="#407BFF"/>
<g opacity="0.3">
<path d="M147.08 147.19H137.78V168.37H224.6V147.19H232.67C238.566 147.19 244.22 144.848 248.389 140.679C252.558 136.51 254.9 130.856 254.9 124.96C254.9 119.064 252.558 113.41 248.389 109.241C244.22 105.072 238.566 102.73 232.67 102.73H224.6V81.55H203.42V72.25C203.42 66.3543 201.078 60.7 196.909 56.531C192.74 52.3621 187.086 50.02 181.19 50.02C175.295 50.02 169.64 52.3621 165.471 56.531C161.302 60.7 158.96 66.3543 158.96 72.25V81.55H137.78V102.73H147.08C152.976 102.73 158.63 105.072 162.799 109.241C166.968 113.41 169.31 119.064 169.31 124.96C169.31 130.856 166.968 136.51 162.799 140.679C158.63 144.848 152.976 147.19 147.08 147.19Z" fill="white"/>
</g>
<path d="M152.38 71.7301L150.51 71.2601C148.496 70.8459 146.535 70.2121 144.66 69.3701L144.41 69.2501C142.57 68.3601 140.27 67.2501 139.78 63.3801C139.771 63.1359 139.677 62.9024 139.515 62.7198C139.352 62.5373 139.131 62.4171 138.89 62.3801C121.75 61.5501 115.78 52.4801 115.77 42.3801C115.77 32.4801 122.28 23.1301 140.77 22.9101C157.91 22.7001 166.49 33.2501 165.97 44.1201C165.63 51.0601 160.19 60.5701 149.84 62.7301C148.57 63.1601 146.31 63.2401 145.52 64.3801C145.343 64.6564 145.25 64.9773 145.25 65.3051C145.25 65.6328 145.343 65.9537 145.52 66.2301C145.891 66.7982 146.346 67.3073 146.87 67.7401C148.71 69.3201 152.38 71.7301 152.38 71.7301Z" fill="white"/>
<path d="M152.38 72.23H152.26L150.39 71.7701C148.342 71.3441 146.347 70.697 144.44 69.84L144.2 69.7201C142.35 68.8301 139.81 67.6101 139.29 63.4601C139.29 63.3701 139.2 62.8801 138.86 62.8601C118.35 61.8601 115.28 49.6101 115.27 42.4001C115.27 36.4901 117.74 22.7101 140.77 22.4001C151.64 22.2901 157.77 26.2801 161.05 29.6801C162.902 31.5865 164.34 33.8549 165.274 36.3432C166.209 38.8314 166.619 41.4858 166.48 44.14C166.137 48.6655 164.351 52.9614 161.384 56.396C158.417 59.8306 154.427 62.2226 150 63.2201C149.58 63.355 149.153 63.4619 148.72 63.54C147.65 63.76 146.44 64.01 145.99 64.67C145.867 64.8628 145.801 65.0865 145.801 65.3151C145.801 65.5436 145.867 65.7674 145.99 65.9601C146.335 66.4859 146.756 66.9577 147.24 67.3601C149.03 68.9001 152.66 71.28 152.7 71.31C152.797 71.3737 152.869 71.4701 152.902 71.5819C152.935 71.6937 152.927 71.8136 152.88 71.92C152.84 72.0179 152.77 72.1007 152.68 72.1564C152.59 72.2121 152.485 72.2379 152.38 72.23ZM141.29 23.4001H140.78C118.64 23.6701 116.26 36.7501 116.27 42.4001C116.27 49.2601 119.22 60.9101 138.91 61.8601C139.279 61.8987 139.621 62.0701 139.873 62.3424C140.125 62.6146 140.269 62.9692 140.28 63.34C140.74 66.94 142.8 67.9401 144.63 68.8201L144.88 68.9401C146.456 69.6639 148.105 70.217 149.8 70.59C148.69 69.82 147.42 68.89 146.55 68.14C145.989 67.6733 145.504 67.1236 145.11 66.51C144.874 66.1559 144.749 65.7402 144.749 65.3151C144.749 64.8899 144.874 64.4742 145.11 64.12C145.78 63.12 147.2 62.8401 148.46 62.5801C148.91 62.4801 149.35 62.39 149.68 62.28C153.912 61.3485 157.732 59.0799 160.576 55.8096C163.419 52.5393 165.135 48.4408 165.47 44.1201C165.603 41.6017 165.215 39.0828 164.329 36.7217C163.442 34.3606 162.077 32.2083 160.32 30.4001C157.24 27.1801 151.44 23.4001 141.29 23.4001Z" fill="#407BFF"/>
<path d="M132 67.5301C133.19 66.1801 133.75 64.8301 133.45 63.5901C132.83 60.9801 130.52 61.0201 129.03 60.5201C118.68 58.3501 113.24 50.8501 112.9 43.9101C112.38 33.0401 120.96 22.4801 138.1 22.6901C156.6 22.9201 163.1 32.2701 163.1 42.1601C163.1 52.2301 157.1 61.3001 139.98 62.1601C139.41 62.1601 139.15 62.7101 139.08 63.1601C138.6 67.0301 136.3 68.1601 134.46 69.0301L134.21 69.1501C132.334 69.9877 130.372 70.6214 128.36 71.0401L126.49 71.5001C126.49 71.5001 130.37 69.3501 132 67.5301Z" fill="white"/>
<path d="M126.46 72.0001C126.359 72.0016 126.261 71.9728 126.177 71.9175C126.093 71.8622 126.028 71.783 125.99 71.6901C125.945 71.5776 125.943 71.4528 125.984 71.3388C126.024 71.2248 126.104 71.1293 126.21 71.0701C126.21 71.0701 130.07 68.9201 131.59 67.1901C132.72 65.8901 133.17 64.7201 132.93 63.7001C132.5 61.8901 131.19 61.5801 129.81 61.2501C129.47 61.1701 129.13 61.0901 128.81 60.9901C117.91 58.7101 112.67 50.7701 112.34 43.9301C112.201 41.2744 112.611 38.6186 113.546 36.1288C114.48 33.639 115.918 31.3687 117.77 29.4601C121.05 26.0701 127.18 22.0401 138.05 22.1801C161.05 22.4701 163.56 36.2401 163.55 42.1801C163.55 49.3901 160.47 61.6501 139.96 62.6401C139.62 62.6401 139.54 63.1401 139.53 63.2401C139.01 67.3801 136.47 68.6101 134.62 69.5001L134.38 69.6201C132.455 70.4759 130.443 71.1229 128.38 71.5501L126.5 72.0101L126.46 72.0001ZM137.55 23.1801C127.39 23.1801 121.55 26.9601 118.55 30.1801C116.792 31.9883 115.427 34.1406 114.541 36.5017C113.654 38.8628 113.266 41.3817 113.4 43.9001C113.71 50.3601 118.7 57.9001 129.13 60.0401C129.46 60.1501 129.77 60.2201 130.13 60.3001C131.51 60.6301 133.41 61.0801 133.98 63.4801C134.3 64.8401 133.78 66.3101 132.42 67.8701C131.543 68.7831 130.563 69.5918 129.5 70.2801C131.062 69.9138 132.583 69.3912 134.04 68.7201L134.29 68.6001C136.11 67.7201 138.18 66.7201 138.64 63.1201C138.646 62.7479 138.789 62.391 139.042 62.1178C139.294 61.8447 139.639 61.6745 140.01 61.6401C159.69 60.6901 162.64 49.0401 162.65 42.1701C162.65 36.5601 160.28 23.4801 138.13 23.1701L137.55 23.1801Z" fill="#407BFF"/>
<path d="M132.39 43.15L136.75 47.51L146.6 39.53" fill="white"/>
<path d="M136.75 48.51C136.618 48.5108 136.488 48.4856 136.366 48.4358C136.244 48.3861 136.133 48.3127 136.04 48.22L131.68 43.86C131.575 43.7704 131.49 43.6601 131.43 43.536C131.37 43.412 131.336 43.2768 131.331 43.1391C131.326 43.0014 131.349 42.8641 131.399 42.7357C131.449 42.6074 131.526 42.4908 131.623 42.3934C131.72 42.2959 131.837 42.2197 131.965 42.1694C132.094 42.1191 132.231 42.0959 132.369 42.1012C132.506 42.1066 132.642 42.1403 132.766 42.2003C132.89 42.2603 133 42.3454 133.09 42.45L136.82 46.17L145.97 38.76C146.07 38.6694 146.189 38.6003 146.317 38.5567C146.445 38.5132 146.581 38.4961 146.716 38.5067C146.851 38.5173 146.983 38.5552 147.103 38.6181C147.223 38.6811 147.329 38.7677 147.414 38.8729C147.5 38.978 147.563 39.0995 147.6 39.2298C147.637 39.3601 147.647 39.4966 147.63 39.631C147.613 39.7654 147.568 39.8949 147.5 40.0117C147.431 40.1284 147.339 40.2299 147.23 40.31L137.38 48.31C137.198 48.4462 136.976 48.5167 136.75 48.51Z" fill="#407BFF"/>
<path d="M264.12 19.4301C264.379 19.5236 264.662 19.5303 264.925 19.4491C265.188 19.368 265.418 19.2033 265.58 18.9801L273.16 8.40006C273.258 8.26679 273.328 8.11533 273.366 7.95459C273.404 7.79384 273.41 7.62705 273.383 7.46401C273.356 7.30097 273.297 7.14498 273.209 7.0052C273.121 6.86542 273.005 6.74467 272.87 6.65006C272.599 6.45794 272.263 6.38062 271.935 6.43493C271.607 6.48924 271.314 6.67079 271.12 6.94006L263.54 17.5201C263.442 17.6533 263.372 17.8048 263.334 17.9655C263.295 18.1263 263.289 18.2931 263.316 18.4561C263.343 18.6191 263.403 18.7751 263.491 18.9149C263.579 19.0547 263.694 19.1754 263.83 19.2701C263.919 19.3368 264.016 19.3906 264.12 19.4301Z" fill="#407BFF"/>
<path d="M273.08 33.3601C273.285 33.435 273.505 33.4557 273.72 33.42L286.29 31.34C286.6 31.2659 286.87 31.0771 287.047 30.8115C287.223 30.546 287.292 30.2235 287.24 29.9091C287.188 29.5947 287.019 29.3116 286.766 29.1169C286.514 28.9223 286.197 28.8305 285.88 28.8601L273.31 30.9401C273.038 30.9873 272.789 31.1228 272.601 31.3256C272.413 31.5283 272.297 31.7872 272.271 32.0623C272.245 32.3373 272.31 32.6134 272.456 32.8479C272.602 33.0824 272.822 33.2623 273.08 33.3601Z" fill="#407BFF"/>
<path d="M234.46 24.6101C234.744 24.7104 235.055 24.7053 235.336 24.5958C235.617 24.4863 235.85 24.2797 235.991 24.0134C236.133 23.7471 236.174 23.4389 236.108 23.1447C236.041 22.8505 235.872 22.5899 235.63 22.4101L224.73 14.6001C224.464 14.4574 224.155 14.4158 223.861 14.4827C223.567 14.5497 223.307 14.7208 223.129 14.9645C222.951 15.2082 222.867 15.508 222.893 15.8086C222.919 16.1092 223.053 16.3904 223.27 16.6001L234.17 24.4101C234.256 24.4909 234.354 24.5583 234.46 24.6101Z" fill="#407BFF"/>
<path d="M279.64 57C279.925 57.106 280.239 57.1051 280.524 56.9974C280.809 56.8898 281.045 56.6827 281.189 56.4144C281.332 56.1462 281.374 55.8349 281.307 55.5381C281.239 55.2413 281.066 54.9792 280.82 54.8L270.57 47.45C270.435 47.3535 270.283 47.2844 270.121 47.2468C269.96 47.2091 269.793 47.2036 269.629 47.2305C269.466 47.2575 269.31 47.3163 269.169 47.4037C269.028 47.4912 268.906 47.6054 268.81 47.74C268.713 47.8746 268.644 48.0269 268.606 48.1882C268.569 48.3495 268.563 48.5167 268.59 48.6801C268.617 48.8435 268.676 49.0001 268.763 49.1407C268.851 49.2814 268.965 49.4035 269.1 49.5L279.35 56.84C279.44 56.9047 279.537 56.9584 279.64 57Z" fill="#407BFF"/>
<path d="M248.15 16.0001C248.356 16.076 248.579 16.0968 248.796 16.0601C249.012 16.0235 249.216 15.9309 249.385 15.7914C249.555 15.6519 249.686 15.4704 249.764 15.2649C249.842 15.0594 249.865 14.8371 249.83 14.6201L247.66 1.51005C247.644 1.33781 247.593 1.17071 247.509 1.01918C247.426 0.867644 247.312 0.734918 247.175 0.629263C247.038 0.523607 246.881 0.447285 246.713 0.405058C246.545 0.362831 246.371 0.355602 246.2 0.383818C246.029 0.412034 245.866 0.475095 245.721 0.569067C245.576 0.663039 245.451 0.78591 245.356 0.930029C245.26 1.07415 245.195 1.23642 245.165 1.40675C245.135 1.57708 245.14 1.75181 245.18 1.92005L247.35 15.0001C247.381 15.2234 247.471 15.4342 247.612 15.6103C247.753 15.7863 247.939 15.921 248.15 16.0001Z" fill="#407BFF"/>
<g opacity="0.5">
<path d="M264.12 19.4301C264.379 19.5236 264.662 19.5303 264.925 19.4491C265.188 19.368 265.418 19.2033 265.58 18.9801L273.16 8.40006C273.258 8.26679 273.328 8.11533 273.366 7.95459C273.404 7.79384 273.41 7.62705 273.383 7.46401C273.356 7.30097 273.297 7.14498 273.209 7.0052C273.121 6.86542 273.005 6.74467 272.87 6.65006C272.599 6.45794 272.263 6.38062 271.935 6.43493C271.607 6.48924 271.314 6.67079 271.12 6.94006L263.54 17.5201C263.442 17.6533 263.372 17.8048 263.334 17.9655C263.295 18.1263 263.289 18.2931 263.316 18.4561C263.343 18.6191 263.403 18.7751 263.491 18.9149C263.579 19.0547 263.694 19.1754 263.83 19.2701C263.919 19.3368 264.016 19.3906 264.12 19.4301Z" fill="white"/>
<path d="M273.08 33.3601C273.285 33.435 273.505 33.4557 273.72 33.42L286.29 31.34C286.6 31.2659 286.87 31.0771 287.047 30.8115C287.223 30.546 287.292 30.2235 287.24 29.9091C287.188 29.5947 287.019 29.3116 286.766 29.1169C286.514 28.9223 286.197 28.8305 285.88 28.8601L273.31 30.9401C273.038 30.9873 272.789 31.1228 272.601 31.3256C272.413 31.5283 272.297 31.7872 272.271 32.0623C272.245 32.3373 272.31 32.6134 272.456 32.8479C272.602 33.0824 272.822 33.2623 273.08 33.3601Z" fill="white"/>
<path d="M234.46 24.6101C234.744 24.7104 235.055 24.7053 235.336 24.5958C235.617 24.4863 235.85 24.2797 235.991 24.0134C236.133 23.7471 236.174 23.4389 236.108 23.1447C236.041 22.8505 235.872 22.5899 235.63 22.4101L224.73 14.6001C224.464 14.4574 224.155 14.4158 223.861 14.4827C223.567 14.5497 223.307 14.7208 223.129 14.9645C222.951 15.2082 222.867 15.508 222.893 15.8086C222.919 16.1092 223.053 16.3904 223.27 16.6001L234.17 24.4101C234.256 24.4909 234.354 24.5583 234.46 24.6101Z" fill="white"/>
<path d="M279.64 57C279.925 57.106 280.239 57.1051 280.524 56.9974C280.809 56.8898 281.045 56.6827 281.189 56.4144C281.332 56.1462 281.374 55.8349 281.307 55.5381C281.239 55.2413 281.066 54.9792 280.82 54.8L270.57 47.45C270.435 47.3535 270.283 47.2844 270.121 47.2468C269.96 47.2091 269.793 47.2036 269.629 47.2305C269.466 47.2575 269.31 47.3163 269.169 47.4037C269.028 47.4912 268.906 47.6054 268.81 47.74C268.713 47.8746 268.644 48.0269 268.606 48.1882C268.569 48.3495 268.563 48.5167 268.59 48.6801C268.617 48.8435 268.676 49.0001 268.763 49.1407C268.851 49.2814 268.965 49.4035 269.1 49.5L279.35 56.84C279.44 56.9047 279.537 56.9584 279.64 57Z" fill="white"/>
<path d="M248.15 16.0001C248.356 16.076 248.579 16.0968 248.796 16.0601C249.012 16.0235 249.216 15.9309 249.385 15.7914C249.555 15.6519 249.686 15.4704 249.764 15.2649C249.842 15.0594 249.865 14.8371 249.83 14.6201L247.66 1.51005C247.644 1.33781 247.593 1.17071 247.509 1.01918C247.426 0.867644 247.312 0.734918 247.175 0.629263C247.038 0.523607 246.881 0.447285 246.713 0.405058C246.545 0.362831 246.371 0.355602 246.2 0.383818C246.029 0.412034 245.866 0.475095 245.721 0.569067C245.576 0.663039 245.451 0.78591 245.356 0.930029C245.26 1.07415 245.195 1.23642 245.165 1.40675C245.135 1.57708 245.14 1.75181 245.18 1.92005L247.35 15.0001C247.381 15.2234 247.471 15.4342 247.612 15.6103C247.753 15.7863 247.939 15.921 248.15 16.0001Z" fill="white"/>
</g>
<path d="M237.23 28.1901C239.967 24.8085 243.896 22.6049 248.209 22.033C252.522 21.461 256.889 22.5643 260.413 25.1155C263.937 27.6668 266.349 31.4719 267.152 35.7476C267.955 40.0233 267.088 44.4442 264.73 48.1001C260.73 53.6101 253.66 54.1601 247.73 56.5201C245.89 57.2501 242.33 62.3701 242.33 62.3701L230.67 53.9201C230.67 53.9201 234.42 48.9201 234.54 46.9701C234.93 40.6001 233.24 33.7001 237.23 28.1901Z" fill="#407BFF"/>
<path opacity="0.4" d="M237.23 28.1901C239.967 24.8085 243.896 22.6049 248.209 22.033C252.522 21.461 256.889 22.5643 260.413 25.1155C263.937 27.6668 266.349 31.4719 267.152 35.7476C267.955 40.0233 267.088 44.4442 264.73 48.1001C260.73 53.6101 253.66 54.1601 247.73 56.5201C245.89 57.2501 242.33 62.3701 242.33 62.3701L230.67 53.9201C230.67 53.9201 234.42 48.9201 234.54 46.9701C234.93 40.6001 233.24 33.7001 237.23 28.1901Z" fill="white"/>
<path d="M231 60.4701L236 64.0701C236.439 64.3887 236.937 64.6177 237.465 64.7439C237.992 64.8702 238.54 64.8911 239.076 64.8057C239.611 64.7203 240.125 64.5301 240.587 64.246C241.05 63.9619 241.452 63.5895 241.77 63.1501L230.1 54.7101C229.46 55.5948 229.196 56.6965 229.364 57.7753C229.533 58.8542 230.121 59.8227 231 60.4701Z" fill="#263238"/>
<path d="M231 65.7801C231.723 66.3027 232.624 66.5172 233.505 66.3766C234.386 66.236 235.175 65.7518 235.7 65.0301L230.25 61.0801C229.727 61.8032 229.513 62.7041 229.653 63.5851C229.794 64.4662 230.278 65.2555 231 65.7801Z" fill="#263238"/>
<path opacity="0.5" d="M231 65.7801C231.723 66.3027 232.624 66.5172 233.505 66.3766C234.386 66.236 235.175 65.7518 235.7 65.0301L230.25 61.0801C229.727 61.8032 229.513 62.7041 229.653 63.5851C229.794 64.4662 230.278 65.2555 231 65.7801Z" fill="white"/>
<g opacity="0.7">
<path d="M231 60.4701L236 64.0701C236.439 64.3887 236.937 64.6177 237.465 64.7439C237.992 64.8702 238.54 64.8911 239.076 64.8057C239.611 64.7203 240.125 64.5301 240.587 64.246C241.05 63.9619 241.452 63.5895 241.77 63.1501L230.1 54.7101C229.46 55.5948 229.196 56.6965 229.364 57.7753C229.533 58.8542 230.121 59.8227 231 60.4701Z" fill="white"/>
</g>
<path opacity="0.3" d="M240.7 26.8101C234.47 35.5001 232.86 49.2401 239.57 54.0401C246.28 58.8401 259.57 51.7401 264.99 44.2201C268.31 39.5901 265.57 31.9301 258.86 27.1301C252.15 22.3301 244 22.1801 240.7 26.8101Z" fill="white"/>
<path opacity="0.4" d="M238.91 38.33C237.799 39.8773 237.171 41.7196 237.107 43.6236C237.043 45.5277 237.545 47.408 238.55 49.0266C239.554 50.6453 241.016 51.9296 242.751 52.7171C244.486 53.5045 246.415 53.7597 248.295 53.4504C250.175 53.141 251.921 52.281 253.312 50.9792C254.703 49.6774 255.676 47.9923 256.11 46.137C256.543 44.2818 256.416 42.3397 255.745 40.5567C255.074 38.7736 253.889 37.2296 252.34 36.12C250.266 34.6337 247.686 34.0316 245.168 34.446C242.65 34.8603 240.399 36.2573 238.91 38.33Z" fill="white"/>
<path opacity="0.4" d="M239.889 42.0001C237.709 45.0001 239.509 47.7201 242.549 49.9001C245.589 52.0801 248.699 52.9001 250.879 49.9001C253.059 46.9001 251.219 44.2201 248.189 42.0401C245.159 39.8601 242.059 39.0001 239.889 42.0001Z" fill="white"/>
<path d="M0.660156 63.25L4.07015 66.09L23.7901 49.24L48.9702 54.33L68.1602 36.23L69.8802 38.59L74.4301 28.33L63.2702 29.52L64.9902 31.88L48.1501 50.53L22.9402 45.63L0.660156 63.25Z" fill="#407BFF"/>
<g opacity="0.3">
<path d="M0.660156 63.25L4.07015 66.09L23.7901 49.24L48.9702 54.33L68.1602 36.23L69.8802 38.59L74.4301 28.33L63.2702 29.52L64.9902 31.88L48.1501 50.53L22.9402 45.63L0.660156 63.25Z" fill="white"/>
</g>
<path d="M187.1 210.72C187.68 219.78 185.44 231.44 183.3 240.13C181.53 247.31 180.3 249.29 179.83 252.47C179.32 256.09 180.42 261.47 180.14 266.02C179.07 284.02 171.75 320.42 171.75 320.42L165.61 320.03L165.77 249.56L169.77 181.28L194 187.74C196.42 201 187.1 210.72 187.1 210.72Z" fill="#DD8C6A"/>
<path d="M218.281 321.67L212.701 321.51L197.211 252.71L181.551 186.14L206.661 185.39C212.661 197.39 206.571 209.39 206.571 209.39C209.701 217.92 210.891 229.73 211.321 238.68C211.681 246.06 211.031 248.32 211.511 251.49C212.071 255.11 213.831 259.92 214.881 264.39C219.001 282.13 218.281 321.67 218.281 321.67Z" fill="#DD8C6A"/>
<path d="M136.5 124.59L139.42 128.43C142.33 129.33 142.27 133.66 142.27 133.66C142.9 134.15 148.82 137.89 150.2 139.1L146.71 142.86C145.2 140.55 139.95 136.64 139.95 136.64C139.95 136.64 132.81 132.27 131.64 130.71C130.47 129.15 132.42 124.51 132.42 124.51L136.5 124.59Z" fill="#DD8C6A"/>
<path d="M144.581 134.05C149.371 137.54 156.441 142.89 156.441 142.89C160.206 138.73 164.177 134.761 168.341 131C170.922 128.55 173.875 126.525 177.091 125L175.861 139.39C172.071 142.65 160.191 152.51 155.551 152.11C151.721 151.78 144.611 143.57 140.551 138.49L144.581 134.05Z" fill="#263238"/>
<path opacity="0.2" d="M164.15 148.31C166.68 144.04 173.62 132.83 173.62 132.83L175.28 136.6L174.16 140.74C172.4 142.22 166.69 146.46 164.15 148.31Z" fill="black"/>
<path d="M209.71 132.28C208.693 145.458 206.803 158.553 204.05 171.48C204.05 171.48 218.7 183.48 213.95 232.77C213.95 232.77 199.13 239.33 164.15 231.53L170.8 171.26C170.8 171.26 169.26 132.09 173.42 127.72C177.1 123.84 193.15 118.72 205.42 124.8C206.798 125.48 207.941 126.554 208.705 127.886C209.469 129.219 209.819 130.748 209.71 132.28Z" fill="#407BFF"/>
<path opacity="0.4" d="M209.71 132.28C208.693 145.458 206.803 158.553 204.05 171.48C204.05 171.48 218.7 183.48 213.95 232.77C213.95 232.77 199.13 239.33 164.15 231.53L170.8 171.26C170.8 171.26 169.26 132.09 173.42 127.72C177.1 123.84 193.15 118.72 205.42 124.8C206.798 125.48 207.941 126.554 208.705 127.886C209.469 129.219 209.819 130.748 209.71 132.28Z" fill="black"/>
<path opacity="0.3" d="M192.68 170.16C192.68 170.16 181.95 172.02 174.41 170.16V174.76C174.41 174.76 180.02 175.57 192.68 174.76V170.16Z" fill="black"/>
<path d="M198.921 108C197.501 112 195.651 119.15 197.171 123.26C197.352 123.738 197.364 124.263 197.206 124.748C197.048 125.234 196.728 125.651 196.3 125.93C193.21 128.16 188.18 129.93 184.4 129.56C179.55 129.03 180.81 125.56 182.05 123.71C182.38 123.21 182.9 122.5 183.49 122.39C188.26 121.58 189.17 118 188.8 114.39L198.921 108Z" fill="#DD8C6A"/>
<path opacity="0.3" d="M194.801 110.61L188.801 114.36C188.881 115.245 188.881 116.135 188.801 117.02C190.003 116.984 191.178 116.654 192.224 116.06C193.27 115.465 194.154 114.624 194.801 113.61C195.501 112.34 195.291 110.84 194.801 110.61Z" fill="black"/>
<path d="M183.17 110.05L180.46 114.92C181.3 114.99 182.06 115.27 182.9 115.34C183.32 114.68 183.82 114.03 184.24 113.34C184.08 114.02 183.53 114.75 183.36 115.42C184.851 115.694 186.364 115.838 187.88 115.85C187.956 115.626 187.986 115.389 187.967 115.154C187.948 114.918 187.881 114.689 187.77 114.48C186.967 112.671 185.55 111.205 183.77 110.34L183.17 110.05Z" fill="#263238"/>
<path d="M200.81 101.43C199.06 107.66 198.35 111.43 194.46 113.95C188.61 117.79 181.46 113.2 181.29 106.58C181.16 100.58 184.05 91.4201 190.77 90.2501C193.069 89.842 195.436 90.361 197.353 91.6934C199.27 93.0258 200.581 95.0633 201 97.3601C201.249 98.7134 201.184 100.106 200.81 101.43Z" fill="#DD8C6A"/>
<path d="M186.2 101.43C185.447 102.604 184.539 103.67 183.5 104.6C183.747 104.858 184.045 105.06 184.377 105.193C184.708 105.326 185.064 105.386 185.42 105.37L186.2 101.43Z" fill="#FF5652"/>
<path d="M193.051 99.14C193.1 99.1499 193.151 99.1499 193.201 99.14C193.273 99.1033 193.329 99.0406 193.356 98.9645C193.384 98.8884 193.382 98.8046 193.351 98.73C193.153 98.2807 192.852 97.8849 192.471 97.5754C192.09 97.2658 191.641 97.0514 191.161 96.95C191.08 96.9385 190.998 96.9594 190.932 97.0081C190.867 97.0567 190.823 97.1293 190.811 97.21C190.799 97.2908 190.82 97.3729 190.869 97.4384C190.917 97.5039 190.99 97.5476 191.071 97.56C191.449 97.6469 191.802 97.8217 192.101 98.07C192.4 98.3184 192.636 98.6336 192.791 98.99C192.817 99.0356 192.855 99.0735 192.901 99.0998C192.946 99.1262 192.998 99.14 193.051 99.14Z" fill="#263238"/>
<path d="M183.22 96.2C183.265 96.2274 183.317 96.2419 183.37 96.2419C183.423 96.2419 183.475 96.2274 183.52 96.2C183.849 95.9985 184.22 95.878 184.605 95.8484C184.989 95.8188 185.375 95.8811 185.73 96.03C185.803 96.0649 185.887 96.0697 185.964 96.0436C186.04 96.0174 186.104 95.9623 186.14 95.89C186.159 95.8547 186.171 95.8159 186.174 95.776C186.178 95.7361 186.174 95.6958 186.162 95.6576C186.15 95.6194 186.13 95.584 186.104 95.5535C186.078 95.523 186.046 95.498 186.01 95.48C185.56 95.2836 185.069 95.1975 184.578 95.2288C184.088 95.2601 183.612 95.408 183.19 95.6601C183.155 95.6789 183.124 95.7045 183.099 95.7354C183.074 95.7663 183.055 95.8018 183.044 95.84C183.033 95.8781 183.03 95.9181 183.034 95.9576C183.039 95.9971 183.051 96.0353 183.07 96.0701C183.107 96.1262 183.159 96.1712 183.22 96.2Z" fill="#263238"/>
<path d="M196.941 121.22L189.941 126.64C189.643 126.872 189.295 127.032 188.925 127.107C188.555 127.183 188.173 127.171 187.808 127.075C187.443 126.978 187.105 126.798 186.821 126.549C186.537 126.3 186.315 125.989 186.171 125.64L184.581 122L182.721 122.48C182.508 122.531 182.314 122.64 182.16 122.796C182.006 122.951 181.899 123.147 181.851 123.36C181.481 125.07 180.121 129.25 180.201 133C180.201 133 184.491 127.26 186.911 131.39C186.911 131.39 190.071 127.66 192.621 134.11C194.253 131.764 195.698 129.293 196.941 126.72C198.251 123.66 199.131 122 199.131 122L196.941 121.22Z" fill="white"/>
<path d="M197.78 121.53C194.714 134.772 192.625 148.222 191.53 161.77C190.12 182.05 189.83 188.18 197.85 187.3C205.87 186.42 212.44 185.41 211.27 182.49C210.1 179.57 205.73 173 206 169.65C206.27 166.3 209.06 140.19 209.38 136.24C209.7 132.29 212.08 124 197.78 121.53Z" fill="#263238"/>
<path d="M199.15 176.76C199.05 176.22 200.97 174.27 203.15 172.91C204.603 172.043 206.145 171.336 207.75 170.8C207.75 170.8 212.23 165.53 213.47 164.1L216.93 167.1C214.676 169.176 212.53 171.365 210.5 173.66L208.64 177.59C207.971 178.538 207.074 179.302 206.03 179.81C204.857 180.355 203.635 180.787 202.38 181.1C202.139 181.164 201.884 181.149 201.652 181.057C201.419 180.965 201.223 180.802 201.09 180.59C200.255 179.418 199.601 178.127 199.15 176.76Z" fill="#DD8C6A"/>
<path d="M183.71 122.21C183.71 122.21 177.14 134.57 176.71 155.21C176.28 175.85 177.18 186.79 173.36 187.42C169.54 188.05 168.69 185.42 168.69 185.42C168.69 185.42 169.82 174.22 169.82 171.49C169.82 168.76 168.62 152.23 169.82 140.42C171.02 128.61 169.82 129.33 171.82 128.01C173.82 126.69 178.35 123.3 183.71 122.21Z" fill="#263238"/>
<path opacity="0.2" d="M207.15 158.49L203.21 135.88C203.21 135.88 206.46 139.19 208.87 141.73C208.41 146.35 207.73 152.87 207.15 158.49Z" fill="black"/>
<path d="M205.361 124.12C205.361 124.12 202.691 130.93 203.211 135.88C203.431 137.98 218.351 153.98 218.351 153.98L207.101 168.9L212.901 173.9C212.901 173.9 228.901 158.06 229.031 153.77C229.161 149.48 211.371 125.93 205.361 124.12Z" fill="#263238"/>
<path d="M190.781 100.69C190.681 101.21 190.321 101.57 189.981 101.51C189.641 101.45 189.441 100.97 189.551 100.44C189.661 99.91 190.011 99.56 190.351 99.62C190.691 99.68 190.881 100.16 190.781 100.69Z" fill="#263238"/>
<path d="M184.89 99.53C184.79 100.05 184.43 100.42 184.09 100.35C183.75 100.28 183.56 99.81 183.66 99.29C183.76 98.77 184.12 98.4001 184.46 98.4701C184.8 98.5401 185 99 184.89 99.53Z" fill="#263238"/>
<path d="M184.601 98.5201L183.421 97.92C183.421 97.92 183.881 99.0001 184.601 98.5201Z" fill="#263238"/>
<path d="M190.491 99.6801L189.311 99.0801C189.311 99.0801 189.771 100.18 190.491 99.6801Z" fill="#263238"/>
<path d="M187.13 108.27C186.797 108.297 186.463 108.297 186.13 108.27C186.107 108.27 186.085 108.265 186.064 108.256C186.043 108.247 186.024 108.233 186.009 108.216C185.994 108.199 185.983 108.179 185.976 108.157C185.969 108.136 185.967 108.113 185.97 108.09C185.973 108.047 185.992 108.006 186.023 107.976C186.055 107.946 186.097 107.93 186.14 107.93C186.858 107.992 187.581 107.886 188.251 107.621C188.921 107.355 189.52 106.937 190 106.4C190.015 106.383 190.033 106.369 190.054 106.36C190.075 106.351 190.097 106.346 190.12 106.346C190.143 106.346 190.165 106.351 190.186 106.36C190.207 106.369 190.225 106.383 190.24 106.4C190.272 106.432 190.29 106.475 190.29 106.52C190.29 106.565 190.272 106.608 190.24 106.64C189.447 107.557 188.336 108.14 187.13 108.27Z" fill="#263238"/>
<path d="M197.09 89.25C200.159 98.0296 199.722 107.655 195.87 116.12C196.74 115.86 197.67 115.66 198.53 115.41C198.95 114.3 199.28 113.16 199.7 112.06C199.56 113.06 199.29 114.3 199.15 115.35L201.5 114.92C201.91 113.85 202.25 112.65 202.66 111.58C202.48 112.53 202.28 113.86 202.09 114.81C204.815 112.952 206.74 110.134 207.48 106.92C208.236 103.361 207.771 99.6518 206.16 96.39C204.22 93 200.83 91.61 197.09 89.25Z" fill="#263238"/>
<path d="M203 106.53C202.518 108.091 201.44 109.398 200 110.17C198.09 111.17 196.68 109.59 196.83 107.55C196.95 105.72 198.1 102.98 200.2 102.8C200.664 102.763 201.13 102.844 201.554 103.035C201.979 103.227 202.348 103.522 202.627 103.894C202.906 104.267 203.087 104.703 203.152 105.164C203.218 105.625 203.165 106.095 203 106.53Z" fill="#DD8C6A"/>
<path d="M183.75 137.84C183.445 137.838 183.144 137.766 182.87 137.63C182.559 137.474 182.287 137.247 182.079 136.968C181.871 136.688 181.731 136.364 181.671 136.02C181.612 135.438 181.724 134.852 181.994 134.333C182.264 133.814 182.68 133.386 183.19 133.1C184.09 132.58 185.081 132.241 186.11 132.1H186.231H187.041C187.17 132.108 187.293 132.165 187.382 132.26C187.471 132.355 187.521 132.48 187.52 132.61C187.518 132.739 187.465 132.862 187.374 132.954C187.283 133.045 187.16 133.098 187.03 133.1C186.54 133.1 185.95 134.1 185.83 134.91V135.03C185.831 135.524 185.716 136.012 185.496 136.455C185.276 136.897 184.955 137.283 184.56 137.58C184.317 137.734 184.038 137.823 183.75 137.84ZM185.421 133.3C184.823 133.41 184.251 133.627 183.731 133.94C183.392 134.133 183.112 134.415 182.922 134.755C182.732 135.095 182.638 135.481 182.65 135.87C182.689 136.055 182.769 136.229 182.885 136.378C183.001 136.528 183.15 136.648 183.321 136.73C183.434 136.791 183.561 136.823 183.69 136.823C183.82 136.823 183.947 136.791 184.06 136.73C184.58 136.46 184.7 135.67 184.82 134.91V134.79C184.922 134.259 185.126 133.753 185.421 133.3Z" fill="white"/>
<path d="M189.86 138.17C189.522 138.171 189.191 138.07 188.91 137.88C188.544 137.546 188.263 137.13 188.089 136.665C187.915 136.201 187.854 135.702 187.91 135.21V135.09C187.91 134.3 187.39 133.23 186.91 133.16C186.782 133.145 186.665 133.08 186.584 132.979C186.504 132.877 186.466 132.748 186.48 132.62C186.491 132.492 186.551 132.373 186.648 132.288C186.746 132.204 186.872 132.162 187 132.17H187.81H187.93C188.94 132.414 189.894 132.848 190.74 133.45C191.215 133.789 191.58 134.259 191.791 134.803C192.003 135.346 192.051 135.939 191.93 136.51C191.837 136.847 191.663 137.156 191.425 137.412C191.186 137.668 190.89 137.863 190.56 137.98C190.341 138.087 190.104 138.151 189.86 138.17ZM188.5 133.46C188.738 133.955 188.877 134.492 188.91 135.04V135.17C188.91 135.93 188.99 136.72 189.47 137.06C189.581 137.126 189.706 137.165 189.834 137.173C189.963 137.182 190.092 137.16 190.21 137.11C190.389 137.045 190.551 136.94 190.682 136.804C190.814 136.667 190.913 136.501 190.97 136.32C191.022 135.94 190.97 135.553 190.818 135.2C190.667 134.848 190.422 134.544 190.11 134.32C189.626 133.945 189.082 133.654 188.5 133.46Z" fill="white"/>
<path d="M184.001 143.24C183.948 143.25 183.893 143.25 183.841 143.24C183.715 143.199 183.61 143.109 183.55 142.991C183.49 142.873 183.48 142.736 183.521 142.61C184.516 139.518 185.186 136.331 185.521 133.1C185.534 132.967 185.599 132.845 185.702 132.761C185.806 132.677 185.938 132.637 186.071 132.65C186.203 132.663 186.325 132.729 186.41 132.832C186.494 132.935 186.534 133.067 186.521 133.2C186.19 136.5 185.519 139.757 184.521 142.92C184.481 143.023 184.409 143.111 184.315 143.169C184.221 143.226 184.111 143.252 184.001 143.24Z" fill="white"/>
<path d="M188 145.73C187.902 145.73 187.805 145.7 187.723 145.645C187.641 145.59 187.578 145.511 187.54 145.42C187.151 144.417 186.932 143.355 186.89 142.28C186.889 141.188 186.979 140.097 187.16 139.02C187.24 138.48 187.32 137.94 187.37 137.4C187.623 135.905 187.351 134.368 186.6 133.05C186.564 132.996 186.538 132.934 186.525 132.87C186.512 132.805 186.511 132.739 186.524 132.675C186.536 132.61 186.561 132.549 186.598 132.494C186.634 132.439 186.681 132.392 186.735 132.355C186.79 132.318 186.851 132.293 186.915 132.279C186.98 132.266 187.046 132.266 187.111 132.279C187.175 132.291 187.237 132.316 187.292 132.353C187.346 132.389 187.393 132.436 187.43 132.49C188.315 133.997 188.644 135.766 188.36 137.49C188.31 138.05 188.23 138.61 188.15 139.16C187.976 140.177 187.89 141.208 187.89 142.24C187.927 143.202 188.123 144.152 188.47 145.05C188.517 145.174 188.514 145.31 188.461 145.432C188.409 145.553 188.312 145.649 188.19 145.7C188.129 145.721 188.065 145.731 188 145.73Z" fill="white"/>
<path d="M196.61 100.72C196.07 100.23 195.31 99.62 194.77 99.12C195.026 98.0331 195.114 96.9135 195.03 95.8C194.78 96.68 194.7 97.58 194.45 98.46L192.61 97.24C192.172 96.8808 191.635 96.6644 191.07 96.62C191.17 95.71 191.21 94.78 191.32 93.87C191.11 94.68 190.87 95.58 190.67 96.39C189.95 96.29 189.12 96.12 188.41 96.02C188.49 95.02 188.61 94.1 188.7 93.13C188.39 93.89 188.17 95.19 187.86 95.95L187.65 95.66C185.603 95.1588 183.481 95.0401 181.39 95.31C180.69 92.56 181.53 88.67 184.23 87.78C193.38 84.73 200.87 91.87 201.08 92.46C202.45 96.23 199.92 98.73 196.61 100.72Z" fill="#263238"/>
<path d="M200.001 108.4C200.001 108.572 199.95 108.74 199.854 108.883C199.759 109.026 199.623 109.138 199.464 109.204C199.305 109.27 199.13 109.287 198.961 109.253C198.792 109.22 198.637 109.137 198.516 109.015C198.394 108.894 198.311 108.739 198.277 108.57C198.244 108.401 198.261 108.226 198.327 108.067C198.393 107.908 198.504 107.772 198.647 107.677C198.79 107.581 198.959 107.53 199.131 107.53C199.361 107.53 199.583 107.622 199.746 107.785C199.909 107.948 200.001 108.169 200.001 108.4Z" fill="#407BFF"/>
<path d="M163.52 318.78C158.69 321.43 158.15 321.48 152.82 322.49C151.65 322.71 152.06 325.49 154.82 325.55C159.33 325.69 158.95 325.55 162.82 325.63C166.1 325.71 170.05 325.99 172.66 326.1H172.75C173.035 326.08 173.3 325.947 173.488 325.731C173.675 325.516 173.77 325.235 173.75 324.95L173.18 319.01C173.164 318.884 173.104 318.768 173.011 318.682C172.917 318.596 172.797 318.546 172.67 318.54L165.23 318.33C164.63 318.322 164.039 318.478 163.52 318.78Z" fill="#263238"/>
<path d="M163.551 319.23C163.565 319.206 163.572 319.178 163.572 319.15C163.572 319.122 163.565 319.094 163.551 319.07C163.526 319.053 163.496 319.044 163.466 319.044C163.435 319.044 163.406 319.053 163.381 319.07C163.061 319.18 160.281 320.28 160.071 321.17C160.052 321.255 160.053 321.343 160.076 321.426C160.099 321.51 160.142 321.587 160.201 321.65C160.298 321.755 160.418 321.836 160.552 321.886C160.685 321.936 160.829 321.955 160.971 321.94C161.971 321.83 163.021 320.24 163.571 319.3L163.551 319.23ZM160.361 321.14C160.561 320.65 161.951 319.95 163.021 319.49C162.231 320.75 161.441 321.49 160.901 321.58C160.807 321.593 160.712 321.582 160.624 321.547C160.536 321.512 160.459 321.454 160.401 321.38C160.374 321.359 160.354 321.331 160.343 321.299C160.333 321.267 160.332 321.233 160.341 321.2L160.361 321.14Z" fill="#407BFF"/>
<path d="M163.55 319.23C163.557 319.202 163.555 319.172 163.544 319.145C163.533 319.119 163.514 319.096 163.49 319.08C162.749 318.498 161.842 318.166 160.9 318.13C160.743 318.15 160.592 318.202 160.456 318.283C160.32 318.363 160.202 318.472 160.11 318.6C159.86 318.95 159.93 319.19 160.05 319.33C160.54 319.94 162.66 319.7 163.46 319.33C163.482 319.322 163.502 319.309 163.518 319.292C163.534 319.274 163.545 319.253 163.55 319.23ZM160.29 318.9L160.4 318.78C160.466 318.685 160.55 318.605 160.648 318.545C160.747 318.485 160.856 318.446 160.97 318.43C161.734 318.449 162.473 318.7 163.09 319.15C162.17 319.43 160.61 319.48 160.32 319.15C160.32 319.15 160.25 319.07 160.32 318.95L160.29 318.9Z" fill="#407BFF"/>
<path d="M210.111 319.25C207.382 321.484 204.181 323.067 200.751 323.88C199.331 324.28 200.221 326.88 203.621 326.88C209.251 326.79 207.011 326.7 211.821 326.59C215.931 326.51 217.021 326.48 220.281 326.46H220.391C220.556 326.456 220.718 326.419 220.869 326.351C221.019 326.283 221.154 326.186 221.266 326.065C221.378 325.943 221.465 325.801 221.52 325.645C221.576 325.49 221.6 325.325 221.591 325.16L220.501 318.78C220.465 318.635 220.38 318.507 220.259 318.419C220.138 318.331 219.99 318.289 219.841 318.3L211.251 318.53C210.501 318.44 210.691 318.84 210.111 319.25Z" fill="#263238"/>
<path d="M210.071 319.75C210.09 319.724 210.101 319.693 210.101 319.66C210.101 319.628 210.09 319.596 210.071 319.57C210.058 319.537 210.036 319.509 210.008 319.487C209.98 319.466 209.946 319.453 209.911 319.45C209.481 319.45 205.751 319.57 205.161 320.45C205.11 320.529 205.083 320.621 205.083 320.715C205.083 320.809 205.11 320.901 205.161 320.98C205.242 321.128 205.355 321.256 205.491 321.355C205.628 321.453 205.785 321.52 205.951 321.55C207.131 321.79 209.051 320.55 210.111 319.78L210.071 319.75ZM205.511 320.55C205.941 320.11 207.871 319.89 209.321 319.82C207.861 320.82 206.611 321.31 205.961 321.2C205.852 321.182 205.749 321.137 205.66 321.071C205.572 321.005 205.5 320.919 205.451 320.82C205.429 320.789 205.417 320.753 205.417 320.715C205.417 320.677 205.429 320.641 205.451 320.61L205.511 320.55Z" fill="#407BFF"/>
<path d="M210.07 319.75C210.088 319.725 210.097 319.695 210.097 319.665C210.097 319.635 210.088 319.605 210.07 319.58C210 319.53 208.75 317.9 207.41 317.69C207.025 317.617 206.627 317.688 206.29 317.89C205.84 318.16 205.83 318.43 205.91 318.61C206.23 319.39 208.83 319.92 209.91 319.85C209.943 319.847 209.975 319.836 210.002 319.819C210.03 319.802 210.053 319.778 210.07 319.75ZM206.36 318.24L206.49 318.11C206.737 317.965 207.029 317.915 207.31 317.97C208.175 318.233 208.941 318.749 209.51 319.45C208.3 319.4 206.45 318.91 206.26 318.45C206.26 318.45 206.26 318.34 206.39 318.23L206.36 318.24Z" fill="#407BFF"/>
<path d="M122.08 161.29C120.67 164.07 125.36 167.48 125.36 167.48L127.58 169.75C127.943 170.146 128.441 170.394 128.976 170.446C129.511 170.497 130.047 170.349 130.48 170.03L132.67 168.47L132.74 168.42C133.19 168.076 133.488 167.571 133.572 167.011C133.656 166.451 133.519 165.881 133.19 165.42L131.72 163.42C131.124 162.601 130.361 161.919 129.48 161.42L125.27 159L122.08 161.29Z" fill="#FFC3BD"/>
<path d="M103.79 100.38C104.321 99.2078 105.185 98.2177 106.274 97.5329C107.364 96.8481 108.631 96.4989 109.917 96.5287C111.204 96.5586 112.453 96.9662 113.51 97.7008C114.566 98.4353 115.384 99.4645 115.86 100.66L116 101.01C116.865 103.455 117.205 106.055 117 108.64C116.94 111.19 116.86 113.78 116.9 116.25C116.94 118.72 116.9 127.64 116.98 130.06C117.06 132.3 121.59 142.43 125.98 157.06C126.069 157.341 126.179 157.615 126.31 157.88L127.12 159.49C127.12 159.49 125.91 160.26 124.67 161C123.666 161.755 122.566 162.374 121.4 162.84C120.748 162.249 120.209 161.544 119.81 160.76C116.31 155.24 104.88 134.76 104.28 131.76C103.69 128.98 103.28 119.76 103.02 116.96C102.76 114.16 102.56 111.43 102.48 108.67C102.418 107.285 102.472 105.897 102.64 104.52C102.816 103.088 103.204 101.689 103.79 100.37V100.38Z" fill="#263238"/>
<path opacity="0.3" d="M103.79 100.38C104.321 99.2078 105.185 98.2177 106.274 97.5329C107.364 96.8481 108.631 96.4989 109.917 96.5287C111.204 96.5586 112.453 96.9662 113.51 97.7008C114.566 98.4353 115.384 99.4645 115.86 100.66L116 101.01C116.865 103.455 117.205 106.055 117 108.64C116.94 111.19 116.86 113.78 116.9 116.25C116.94 118.72 116.9 127.64 116.98 130.06C117.06 132.3 121.59 142.43 125.98 157.06C126.069 157.341 126.179 157.615 126.31 157.88L127.12 159.49C127.12 159.49 125.91 160.26 124.67 161C123.666 161.755 122.566 162.374 121.4 162.84C120.748 162.249 120.209 161.544 119.81 160.76C116.31 155.24 104.88 134.76 104.28 131.76C103.69 128.98 103.28 119.76 103.02 116.96C102.76 114.16 102.56 111.43 102.48 108.67C102.418 107.285 102.472 105.897 102.64 104.52C102.816 103.088 103.204 101.689 103.79 100.37V100.38Z" fill="black"/>
<path d="M67.8794 103.83C69.5894 123.53 76.1294 134.63 75.2494 150.37C75.2494 150.37 110.749 151.07 111.969 151.07C112.489 122.07 116.629 124.28 115.359 105.92C115.579 99.9201 112.149 96.1701 108.679 95.5701L93.5594 92.4401L74.0694 95.7901C72.216 96.1068 70.5498 97.1101 69.4027 98.6C68.2556 100.09 67.7118 101.957 67.8794 103.83Z" fill="#407BFF"/>
<path d="M95.7598 284.2L100.36 320.55L109.32 319.91L106.9 284.2H95.7598Z" fill="#FFC3BD"/>
<path d="M111.5 245.71C112.31 279.99 110.33 309.37 110.33 309.37L98.2399 310.19C98.2399 310.19 91.4299 265.71 94.1799 247.54C94.0499 243.72 89.6299 195.95 88.1099 186.92C85.3599 170.71 82.4199 159.59 82.4199 159.59L110.87 158C110.87 158 111 224.13 111.5 245.71Z" fill="#407BFF"/>
<g opacity="0.2">
<path d="M95.2694 172.05C95.2694 172.05 94.3494 209.6 92.7094 230.19C91.8594 219.06 89.6294 195.95 88.1094 186.92L95.2694 172.05Z" fill="black"/>
</g>
<path d="M57.9097 284.87L54.2197 319.32L63.1497 318.35L69.6297 284.44L57.9097 284.87Z" fill="#FFC3BD"/>
<path d="M53.0996 309.25L66.8096 308.75C66.8096 308.75 78.4896 266.66 83.4196 244.42C88.1996 219.63 97.1196 157.76 97.1196 157.76L74.3296 156C62.1896 177.93 66.5596 230.43 64.4096 245.13C54.1096 263.5 53.0996 309.25 53.0996 309.25Z" fill="#407BFF"/>
<path d="M110.639 147H77.2692C77.2692 147 71.7892 166.31 71.8392 166.12C71.8892 165.93 110.999 168 110.999 168L110.639 147Z" fill="#407BFF"/>
<path d="M110.999 317C116.919 320 117.569 320.06 123.999 321.08C125.419 321.31 124.999 324.67 121.729 324.85C116.299 325.18 116.729 324.96 112.119 325.22C108.169 325.44 102.449 325.91 99.2994 326.14H99.1993C99.0273 326.135 98.8579 326.096 98.701 326.025C98.544 325.955 98.4025 325.854 98.2846 325.728C98.1666 325.603 98.0745 325.456 98.0136 325.295C97.9526 325.134 97.924 324.962 97.9293 324.79L98.4094 317.6C98.4234 317.448 98.4917 317.305 98.6018 317.199C98.7119 317.092 98.8565 317.029 99.0093 317.02L108.939 316.51C109.659 316.472 110.374 316.642 110.999 317Z" fill="#263238"/>
<path d="M111 317.52C111.7 318.64 113.06 320.52 114.23 320.61C114.402 320.625 114.576 320.598 114.736 320.532C114.896 320.466 115.038 320.363 115.15 320.23C115.221 320.153 115.271 320.06 115.295 319.958C115.32 319.857 115.318 319.751 115.29 319.65C115 318.58 111.61 317.36 111.23 317.24C111.192 317.225 111.151 317.222 111.112 317.231C111.073 317.24 111.037 317.261 111.01 317.29C110.993 317.321 110.984 317.355 110.984 317.39C110.984 317.425 110.993 317.459 111.01 317.49L111 317.52ZM114.93 319.75C114.94 319.789 114.939 319.829 114.929 319.868C114.918 319.907 114.898 319.942 114.87 319.97C114.801 320.061 114.709 320.133 114.604 320.177C114.498 320.221 114.383 320.236 114.27 320.22C113.61 320.17 112.64 319.22 111.63 317.78C112.95 318.29 114.63 319.09 114.91 319.67L114.93 319.75Z" fill="#407BFF"/>
<path d="M110.999 317.6C111.999 318 114.549 318.21 115.119 317.46C115.249 317.29 115.339 316.99 115.019 316.58C114.897 316.427 114.746 316.301 114.574 316.208C114.402 316.115 114.214 316.058 114.019 316.04C112.709 315.88 111.019 317.22 110.929 317.27C110.905 317.293 110.885 317.321 110.873 317.352C110.861 317.383 110.856 317.417 110.859 317.45C110.859 317.488 110.874 317.525 110.9 317.553C110.926 317.581 110.961 317.598 110.999 317.6ZM114.819 316.99C114.845 317.027 114.858 317.07 114.858 317.115C114.858 317.16 114.845 317.203 114.819 317.24C114.479 317.68 112.599 317.68 111.479 317.37C112.208 316.809 113.09 316.481 114.009 316.43C114.147 316.445 114.281 316.488 114.401 316.556C114.522 316.625 114.627 316.718 114.709 316.83L114.849 316.97L114.819 316.99Z" fill="#407BFF"/>
<path d="M65.3496 316.63C67.7696 318.75 71.2396 320.69 76.6596 322.21C78.3696 322.69 77.2896 325.87 73.1896 325.78C66.3996 325.68 69.0996 325.56 63.2996 325.44C58.2996 325.34 57.0296 325.3 53.0896 325.27H52.9996C52.8005 325.268 52.6039 325.225 52.4217 325.144C52.2396 325.064 52.0758 324.947 51.9402 324.801C51.8046 324.655 51.7 324.483 51.6329 324.296C51.5657 324.108 51.5374 323.909 51.5496 323.71L52.8596 316.01C52.904 315.833 53.0099 315.678 53.1582 315.571C53.3066 315.465 53.4878 315.415 53.6696 315.43L64.0296 315.71C64.8896 315.65 64.6696 316.13 65.3496 316.63Z" fill="#263238"/>
<path d="M65.3799 317.26C66.6499 318.19 68.9599 319.67 70.3799 319.39C70.5894 319.363 70.7894 319.286 70.9633 319.166C71.1372 319.046 71.28 318.886 71.3799 318.7C71.4439 318.606 71.4782 318.494 71.4782 318.38C71.4782 318.266 71.4439 318.155 71.3799 318.06C70.6699 317.01 66.1599 316.87 65.6499 316.87C65.6045 316.869 65.5599 316.883 65.5236 316.91C65.4872 316.937 65.4612 316.976 65.4499 317.02C65.4264 317.05 65.4136 317.087 65.4136 317.125C65.4136 317.163 65.4264 317.2 65.4499 317.23L65.3799 317.26ZM70.9799 318.26C71.0067 318.296 71.0211 318.34 71.0211 318.385C71.0211 318.43 71.0067 318.474 70.9799 318.51C70.9183 318.629 70.8304 318.732 70.723 318.812C70.6156 318.891 70.4914 318.946 70.3599 318.97C69.5799 319.1 68.0599 318.5 66.2999 317.3C68.0499 317.39 70.3799 317.66 70.8999 318.19L70.9799 318.26Z" fill="#407BFF"/>
<path d="M65.5599 317.31C66.8799 317.4 70.0199 316.76 70.3999 315.82C70.5099 315.6 70.4899 315.27 69.9499 314.95C69.5435 314.71 69.0653 314.621 68.5999 314.7C66.9799 314.96 65.4699 316.92 65.3899 316.99C65.3688 317.019 65.3574 317.054 65.3574 317.09C65.3574 317.126 65.3688 317.161 65.3899 317.19C65.4291 317.25 65.49 317.293 65.5599 317.31ZM69.8499 315.38C69.9899 315.52 69.9499 315.61 70.0099 315.65C69.7799 316.21 67.5499 316.8 66.0899 316.87C66.7748 316.022 67.6978 315.399 68.7399 315.08C69.0828 315.008 69.4403 315.068 69.7399 315.25L69.8999 315.41L69.8499 315.38Z" fill="#407BFF"/>
<path opacity="0.8" d="M67.88 103.83C69.59 123.53 76.13 134.63 75.25 150.37C75.25 150.37 110.75 151.07 111.97 151.07C112.49 122.07 116.63 124.28 115.36 105.92C115.58 99.9201 111.99 96.1301 108.52 95.5301L93.52 92.4401L74.03 95.7901C72.1839 96.1158 70.5274 97.1228 69.3885 98.6118C68.2495 100.101 67.7112 101.963 67.88 103.83Z" fill="white"/>
<path d="M104.75 133.14L100.75 140.26L93.5098 132.55C93.5098 132.36 96.6098 100 96.6098 100L98.4798 99.8601C98.2998 103.79 104.75 133.14 104.75 133.14Z" fill="#407BFF"/>
<path d="M103.549 98.63C105.263 112.461 103.848 126.499 99.4092 139.71L102.409 172.05C102.999 176.74 106.009 177.66 108.699 177.91L114.219 177.47L112.219 146.61C112.219 146.61 116.729 112.61 115.689 104.91C114.999 99.83 113.319 97.85 112.119 96.82C111.604 96.3874 110.989 96.0917 110.329 95.96C108.229 95.52 102.049 93.85 102.329 93.96C102.609 94.07 103.549 98.63 103.549 98.63Z" fill="#263238"/>
<path d="M100.62 84.4601C99.8599 88.0701 98.6899 92.9901 102.62 94.6701C104.33 95.4101 105.14 97.8101 103.5 98.5801C101.86 99.3501 91.2399 98.5801 90.3099 98.1401C88.0099 96.9601 86.3899 96.1401 87.6299 93.8401C89.7899 89.9101 88.4199 81.6901 88.1299 77.7401L100.62 84.4601Z" fill="#FFC3BD"/>
<path d="M99.5391 98.2001L99.0491 99.7501C99.0146 99.9282 98.9276 100.092 98.7993 100.22C98.671 100.349 98.5073 100.436 98.3291 100.47L96.4592 100.61C96.3085 100.611 96.1614 100.564 96.0391 100.476C95.9169 100.388 95.8258 100.263 95.7791 100.12L94.8691 98.7401L97.1991 97.3701L99.5391 98.2001Z" fill="#407BFF"/>
<path opacity="0.2" d="M90.6094 83.4501C91.1773 84.8373 91.9902 86.1109 93.0094 87.2101C94.4594 88.8701 97.1894 89.6001 99.8294 89.6001C99.9188 87.852 100.18 86.117 100.609 84.4201L100.059 84.1301L90.6094 83.4501Z" fill="black"/>
<path d="M85.9994 177.79C94.9994 178.4 97.4994 177.47 98.7494 170.45C98.7494 170.45 101.129 145.28 100.659 139.71C100.659 139.71 94.6594 128.01 93.4794 119.88C92.1994 110.79 86.6194 92.5901 85.0094 92.7101C81.9194 92.9201 70.3894 96.96 68.5194 99.43C66.0394 102.72 67.6494 106.52 68.2394 110.6C70.1194 123.67 71.5294 128.17 72.2394 141.35C72.2394 141.35 66.2394 175.35 67.1594 175.47C67.8594 175.54 78.8194 177.3 85.9994 177.79Z" fill="#263238"/>
<path opacity="0.2" d="M75.25 150.37H90.61V151.06C90.61 152.036 90.2223 152.972 89.5322 153.662C88.842 154.352 87.906 154.74 86.93 154.74H78.93C77.954 154.74 77.018 154.352 76.3279 153.662C75.6377 152.972 75.25 152.036 75.25 151.06V150.37Z" fill="white"/>
<path opacity="0.2" d="M112.569 154.91H110.409C109.433 154.948 108.481 154.598 107.762 153.937C107.042 153.275 106.613 152.356 106.569 151.38V150.7L112.509 150.45L112.569 154.91Z" fill="white"/>
<path d="M106.67 79.4001C105.67 86.5501 97.3801 90.6701 91.5601 85.8501C88.1901 83.0701 87.5601 79.6101 86.6801 74.2001C86.5501 73.3801 86.4201 72.5201 86.2701 71.6001C86.0289 70.1734 86.1109 68.7108 86.5101 67.3201C86.6682 66.7392 86.8861 66.1761 87.1601 65.6401C88.1612 63.6164 89.8402 62.0078 91.9048 61.0942C93.9695 60.1806 96.2892 60.0199 98.4601 60.6401C105.59 62.7201 107.56 73.0001 106.67 79.4001Z" fill="#FFC3BD"/>
<path d="M89.5496 66.2201C90.5202 67.8069 91.3404 69.4808 91.9996 71.2201C91.3612 71.3655 90.7479 71.6047 90.1796 71.9301C89.6596 72.2601 90.1796 73.8201 90.4496 74.4001C90.9363 75.57 91.5009 76.7059 92.1396 77.8001C91.213 78.1937 90.2429 78.4757 89.2496 78.6401C88.9778 77.8814 88.5327 77.1966 87.9496 76.6401C87.6118 76.2268 87.1574 75.9247 86.6455 75.7731C86.1337 75.6215 85.5881 75.6274 85.0796 75.7901C84.8996 74.9001 79.6696 70.8801 84.0296 68.1901C84.6682 67.6832 85.371 67.2629 86.1196 66.9401L87.1196 66.5701C87.9041 66.3171 88.7257 66.1987 89.5496 66.2201Z" fill="#263238"/>
<path d="M85.3199 74C87.5499 73.49 89.6199 75.94 90.3199 77.8C91.1399 79.86 90.1599 81.97 87.8599 81.56C87.0032 81.3966 86.1874 81.065 85.4596 80.5844C84.7318 80.1038 84.1065 79.4837 83.6198 78.76C83.3116 78.3618 83.1086 77.8925 83.0295 77.3953C82.9503 76.898 82.9976 76.3889 83.167 75.9147C83.3363 75.4405 83.6223 75.0166 83.9985 74.682C84.3747 74.3474 84.8292 74.1129 85.3199 74Z" fill="#FFC3BD"/>
<path d="M98.6997 71C99.0697 71 99.4197 71.39 99.4797 72C99.5397 72.61 99.3297 73.06 98.9097 73.1C98.4897 73.14 98.1497 72.71 98.0897 72.1C98.0297 71.49 98.3297 71.08 98.6997 71Z" fill="#263238"/>
<path d="M105.11 70.5801C105.48 70.5801 105.83 70.9701 105.89 71.5801C105.95 72.1901 105.7 72.6401 105.32 72.6801C104.94 72.7201 104.6 72.2901 104.54 71.7301C104.48 71.1701 104.74 70.6301 105.11 70.5801Z" fill="#263238"/>
<path d="M103.489 77.71C103.971 77.7293 104.452 77.6415 104.896 77.4531C105.341 77.2646 105.738 76.9801 106.059 76.62C104.653 75.3933 103.424 73.9763 102.409 72.41L103.489 77.71Z" fill="#F98C8C"/>
<path d="M97.17 70.0601C97.3752 69.6949 97.6629 69.3826 98.0101 69.1483C98.3573 68.9139 98.7545 68.7638 99.17 68.7101H99.28C99.3687 68.6954 99.4481 68.6461 99.5006 68.573C99.553 68.4998 99.5744 68.4089 99.56 68.3201C99.5429 68.2325 99.493 68.1547 99.4205 68.1027C99.348 68.0506 99.2584 68.0282 99.17 68.0401C98.6397 68.0902 98.1291 68.2661 97.6804 68.553C97.2317 68.84 96.8579 69.2298 96.59 69.6901C96.5474 69.7666 96.5351 69.8563 96.5555 69.9415C96.5759 70.0266 96.6274 70.1011 96.7 70.1501C96.7557 70.1645 96.8142 70.1645 96.87 70.1501C96.9778 70.1599 97.0853 70.1276 97.17 70.0601Z" fill="#263238"/>
<path d="M106.379 69.4801C106.449 69.4249 106.494 69.345 106.505 69.2572C106.516 69.1695 106.492 69.0808 106.439 69.0101C106.118 68.5861 105.699 68.2451 105.219 68.0155C104.739 67.7859 104.211 67.6743 103.679 67.6901C103.636 67.6938 103.595 67.7061 103.556 67.7264C103.518 67.7467 103.485 67.7745 103.458 67.8082C103.43 67.8418 103.41 67.8806 103.399 67.9221C103.387 67.9637 103.384 68.0072 103.389 68.0501C103.402 68.1341 103.446 68.2101 103.513 68.2623C103.58 68.3144 103.665 68.3387 103.749 68.3301C104.17 68.3234 104.586 68.4169 104.964 68.603C105.341 68.789 105.669 69.0623 105.919 69.4001C105.953 69.4444 105.997 69.4796 106.048 69.5023C106.098 69.525 106.154 69.5346 106.209 69.5301C106.269 69.5241 106.326 69.5071 106.379 69.4801Z" fill="#263238"/>
<path d="M95.22 134.16C93.97 129.76 92.53 125.32 89.92 121.57C88.98 120.21 87.92 118.96 86.92 117.57C85.5793 115.8 84.347 113.95 83.23 112.03C84.33 111.03 85.78 110.03 86.96 109.11L82.5 105.42C83.6212 101.181 84.1363 96.8039 84.03 92.42C84.5194 92.071 85.126 91.9274 85.72 92.02C87.852 95.3297 89.4043 98.9787 90.31 102.81C92.8711 113.094 94.5142 123.585 95.22 134.16Z" fill="#263238"/>
<path opacity="0.2" d="M100.13 138.61C100.06 138.52 99.9998 138.41 99.9298 138.3C97.0898 133.88 84.1698 113.7 83.2698 112.02C84.3798 111.02 85.8298 110.02 87.0098 109.1L82.5498 105.41C83.6662 101.17 84.1812 96.7937 84.0798 92.4101C84.5661 92.0627 85.1691 91.9191 85.7598 92.0101C87.1057 94.0986 88.2253 96.3245 89.0998 98.6501C89.6055 100.005 90.023 101.391 90.3498 102.8C92.8798 112.74 95.5198 128.94 99.9698 138.17L100.13 138.61Z" fill="white"/>
<path d="M106.57 136.29C106.5 131.71 106.57 127.05 108 122.7C108.51 121.13 109.19 119.62 109.72 118.05C110.4 116.05 112.47 113.57 112.89 111.47C111.55 110.86 109.89 110.24 108.47 109.75L111.68 104.93C109.38 101.2 105.87 98.1601 104.68 93.9301C104.112 93.7377 103.492 93.7735 102.95 94.0301C102.24 96.3801 103.36 103.22 103.42 104.66C103.92 115.29 104.23 125.92 106.57 136.29Z" fill="#263238"/>
<path opacity="0.2" d="M112.889 111.47C110.399 118.29 105.209 132.47 100.129 138.61C99.9692 138.8 99.8192 138.98 99.6592 139.15L99.9292 138.3C99.9259 138.253 99.9259 138.207 99.9292 138.16C104.559 123.16 103.929 115.01 103.439 104.62C103.379 103.18 102.259 96.15 102.969 93.81C103.237 93.6804 103.527 93.6048 103.824 93.5876C104.121 93.5705 104.418 93.6121 104.699 93.71C105.869 97.93 109.379 101.15 111.699 104.88C110.639 106.49 109.569 108.09 108.499 109.7C109.849 110.24 111.549 110.86 112.889 111.47Z" fill="white"/>
<path opacity="0.3" d="M67.4595 106.72C67.4595 106.72 70.5295 113.62 77.9395 123.81C85.4695 134.16 89.6995 134.16 89.6995 134.16L95.2195 135.82C95.2195 135.82 93.7995 109.72 77.7595 105.82C72.9995 104.63 66.4395 106.75 67.4595 106.72Z" fill="black"/>
<path d="M130.199 123.71L121.949 124.09V128.63L130.199 127.47V123.71Z" fill="#FFC3BD"/>
<path d="M127.83 126.7C127.66 130.7 132.54 131.61 132.54 131.61L135.08 133.69C135.486 134.039 136.004 134.231 136.54 134.231C137.075 134.231 137.593 134.039 138 133.69L140.1 131.9L140.16 131.85C140.596 131.449 140.856 130.891 140.883 130.299C140.909 129.707 140.699 129.128 140.3 128.69L138.59 126.8C137.898 126.028 137.049 125.414 136.1 125L130.2 123.71L127.83 126.7Z" fill="#FFC3BD"/>
<path d="M68.2701 101.22C66.5701 104.54 67.3301 108.38 69.3701 111.5C74.0101 118.56 89.3101 127.94 92.3701 130.01C99.2901 134.73 127.37 129.23 127.37 129.23L127.78 122.3L97.7801 120.8C97.7801 120.8 87.7101 104.03 80.7801 98.9101C77.2901 96.3501 70.6501 96.5701 68.2701 101.22Z" fill="#263238"/>
<path d="M90.4796 59.73C90.0137 59.6764 89.5417 59.7227 89.0951 59.8658C88.6485 60.0089 88.2375 60.2456 87.8896 60.56C85.902 62.0566 84.5124 64.212 83.9696 66.64C83.8409 67.1351 83.8409 67.6549 83.9696 68.15C84.0243 68.4027 84.1536 68.6332 84.3408 68.8115C84.528 68.9898 84.7645 69.1078 85.0196 69.15C85.7221 68.4159 86.5995 67.8723 87.5696 67.57C89.5241 66.9285 91.5321 66.4633 93.5696 66.18C97.2696 65.6174 100.923 64.7818 104.5 63.68C105.21 63.47 106.02 63.15 106.21 62.44C106.4 61.73 104.87 60.57 105.12 60.34C105.51 59.96 106.05 59.62 106.05 59.08C106.044 58.8658 105.986 58.6562 105.88 58.47C105.731 58.1205 105.515 57.8037 105.244 57.5378C104.973 57.2718 104.652 57.0619 104.3 56.92C103.941 56.7974 103.549 56.8198 103.207 56.9823C102.865 57.1449 102.601 57.4348 102.47 57.79C102.36 57.1422 102.213 56.5011 102.03 55.87C101.854 55.5797 101.575 55.3657 101.25 55.27C100.751 55.1274 100.225 55.1093 99.7173 55.2174C99.21 55.3255 98.7369 55.5565 98.3396 55.89C97.5467 56.5642 96.8709 57.3651 96.3396 58.26C95.2996 59.78 92.2996 60.15 90.4796 59.73Z" fill="#263238"/>
<path d="M99.8193 78.8C99.8039 78.7851 99.7916 78.7672 99.7832 78.7474C99.7748 78.7277 99.7705 78.7064 99.7705 78.685C99.7705 78.6635 99.7748 78.6423 99.7832 78.6225C99.7916 78.6028 99.8039 78.5849 99.8193 78.57C99.8473 78.5425 99.885 78.5271 99.9243 78.5271C99.9635 78.5271 100.001 78.5425 100.029 78.57C100.486 79.0515 101.051 79.4183 101.676 79.6407C102.302 79.8632 102.971 79.9349 103.629 79.85C103.673 79.8471 103.716 79.8611 103.749 79.889C103.783 79.9169 103.804 79.9567 103.809 80C103.812 80.0409 103.799 80.0813 103.773 80.1129C103.747 80.1445 103.71 80.165 103.669 80.17C102.965 80.2633 102.248 80.1877 101.579 79.9495C100.91 79.7113 100.306 79.3173 99.8193 78.8Z" fill="#263238"/>
<path d="M85.7101 92.34L88.25 91.54C90.8385 94.3877 94.0577 96.5899 97.65 97.97C96.0269 98.9506 94.732 100.392 93.93 102.11C85.43 98.75 85.7101 92.34 85.7101 92.34Z" fill="white"/>
<path d="M102.64 92.78L100.33 92.17C100.33 92.17 99.1497 96.98 96.7197 97.55C100.83 99.38 101.42 101.48 101.42 101.48C107.54 99.83 102.64 92.78 102.64 92.78Z" fill="white"/>
<path opacity="0.3" d="M97.8397 140.9C97.8257 141.082 97.7582 141.257 97.6457 141.401C97.5332 141.545 97.3807 141.653 97.2072 141.711C97.0337 141.769 96.847 141.774 96.6704 141.727C96.4937 141.679 96.3351 141.581 96.2143 141.443C96.0934 141.306 96.0158 141.136 95.991 140.955C95.9662 140.774 95.9954 140.589 96.075 140.424C96.1546 140.26 96.2809 140.122 96.4383 140.029C96.5956 139.935 96.777 139.891 96.9597 139.9C97.0832 139.908 97.204 139.94 97.3152 139.994C97.4263 140.048 97.5256 140.124 97.6074 140.217C97.6891 140.31 97.7518 140.418 97.7916 140.535C97.8315 140.653 97.8478 140.777 97.8397 140.9Z" fill="white"/>
</svg>
