<svg width="229" height="201" viewBox="0 0 229 201" fill="none" xmlns="http://www.w3.org/2000/svg">
<g clip-path="url(#clip0_648_1127)">
<path d="M228.736 182.936H209.713V183.08H228.736V182.936Z" fill="#EBEBEB"/>
<path d="M160.569 184.499H155.578V184.642H160.569V184.499Z" fill="#EBEBEB"/>
<path d="M209.138 177.606H198.115V177.75H209.138V177.606Z" fill="#EBEBEB"/>
<path d="M25.2633 178.571H0.456055V178.715H25.2633V178.571Z" fill="#EBEBEB"/>
<path d="M34.0167 178.571H30.3809V178.715H34.0167V178.571Z" fill="#EBEBEB"/>
<path d="M99.6454 180.995H45.8379V181.138H99.6454V180.995Z" fill="#EBEBEB"/>
<path d="M202.831 16.8269H154.176V67.0503H202.831V16.8269Z" fill="#F5F5F5"/>
<path d="M202.833 16.8269H202.275V67.0503H202.833V16.8269Z" fill="#E6E6E6"/>
<path d="M62.8428 18.3647C64.0805 10.7402 58.9029 3.55608 51.2784 2.31845C43.6539 1.08082 36.4698 6.2584 35.2321 13.8829C33.9945 21.5074 39.1721 28.6915 46.7966 29.9292C54.421 31.1668 61.6052 25.9892 62.8428 18.3647Z" fill="#E0E0E0"/>
<path d="M60.7734 18.0289C61.8255 11.5473 57.4241 5.44002 50.9425 4.38791C44.4609 3.3358 38.3536 7.73727 37.3015 14.2189C36.2494 20.7005 40.6509 26.8077 47.1325 27.8599C53.614 28.912 59.7213 24.5105 60.7734 18.0289Z" fill="#F0F0F0"/>
<path d="M48.4741 7.96997V16.2812L42.9658 13.1623" fill="#F0F0F0"/>
<path d="M48.4736 16.8557C48.3751 16.8542 48.2785 16.8286 48.1922 16.781L42.6954 13.6622C42.5629 13.586 42.466 13.4603 42.4262 13.3128C42.3863 13.1652 42.4067 13.0078 42.4829 12.8753C42.5591 12.7428 42.6848 12.6459 42.8323 12.6061C42.9799 12.5662 43.1373 12.5866 43.2698 12.6628L47.9222 15.2934V7.97013C47.9222 7.81779 47.9828 7.6717 48.0905 7.56398C48.1982 7.45627 48.3443 7.39575 48.4966 7.39575C48.6489 7.39575 48.795 7.45627 48.9028 7.56398C49.0105 7.6717 49.071 7.81779 49.071 7.97013V16.2813C49.071 16.4337 49.0105 16.5798 48.9028 16.6875C48.795 16.7952 48.6489 16.8557 48.4966 16.8557H48.4736Z" fill="#E0E0E0"/>
<path d="M90.0873 47.4526H16.0732V129.313H90.0873V47.4526Z" fill="#E0E0E0"/>
<path d="M92.4479 47.4526H15.6826V129.313H92.4479V47.4526Z" fill="#F0F0F0"/>
<path d="M89.2031 50.0659H18.8076V125.556H89.2031V50.0659Z" fill="white"/>
<path d="M89.2032 50.0659H87.1699V125.556H89.2032V50.0659Z" fill="#E0E0E0"/>
<path d="M18.6289 104.35V106.384H87.3874V104.35H18.6289Z" fill="#E0E0E0"/>
<path d="M89.2026 100.933H17.7158V104.35H89.2026V100.933Z" fill="#F0F0F0"/>
<path d="M199.465 36.1948H156.387V64.9825H199.465V36.1948Z" fill="#FAFAFA"/>
<path d="M199.472 36.1948H196.324V64.9825H199.472V36.1948Z" fill="#F0F0F0"/>
<path d="M199.465 36.1948H156.387V40.7324H199.465V36.1948Z" fill="#E0E0E0"/>
<path d="M196.323 36.1948H156.387V40.7324H196.323V36.1948Z" fill="#E6E6E6"/>
<path d="M167.834 43.4951H163.291V46.792H167.834V43.4951Z" fill="white"/>
<path d="M173.229 43.4951H168.686V46.792H173.229V43.4951Z" fill="white"/>
<path d="M178.627 43.4951H174.084V46.792H178.627V43.4951Z" fill="white"/>
<path d="M184.02 43.4951H179.477V46.792H184.02V43.4951Z" fill="white"/>
<path d="M189.42 43.4951H184.877V46.792H189.42V43.4951Z" fill="white"/>
<path d="M194.819 43.4951H190.275V46.792H194.819V43.4951Z" fill="white"/>
<path d="M162.436 47.6765H157.893V50.9734H162.436V47.6765Z" fill="white"/>
<path d="M167.834 47.6765H163.291V50.9734H167.834V47.6765Z" fill="white"/>
<path d="M173.229 47.6765H168.686V50.9734H173.229V47.6765Z" fill="white"/>
<path d="M178.627 47.6765H174.084V50.9734H178.627V47.6765Z" fill="white"/>
<path d="M184.02 47.6765H179.477V50.9734H184.02V47.6765Z" fill="white"/>
<path d="M189.42 47.6765H184.877V50.9734H189.42V47.6765Z" fill="white"/>
<path d="M194.819 47.6765H190.275V50.9734H194.819V47.6765Z" fill="white"/>
<path d="M162.436 51.8582H157.893V55.1551H162.436V51.8582Z" fill="white"/>
<path d="M167.834 51.8582H163.291V55.1551H167.834V51.8582Z" fill="white"/>
<path d="M173.229 51.8582H168.686V55.1551H173.229V51.8582Z" fill="white"/>
<path d="M178.627 51.8582H174.084V55.1551H178.627V51.8582Z" fill="white"/>
<path d="M184.02 51.8582H179.477V55.1551H184.02V51.8582Z" fill="white"/>
<path d="M189.42 51.8582H184.877V55.1551H189.42V51.8582Z" fill="#E6E6E6"/>
<path d="M194.819 51.8582H190.275V55.1551H194.819V51.8582Z" fill="white"/>
<path d="M162.436 56.0337H157.893V59.3306H162.436V56.0337Z" fill="white"/>
<path d="M167.834 56.0337H163.291V59.3306H167.834V56.0337Z" fill="white"/>
<path d="M173.229 56.0337H168.686V59.3306H173.229V56.0337Z" fill="white"/>
<path d="M178.627 56.0337H174.084V59.3306H178.627V56.0337Z" fill="white"/>
<path d="M184.02 56.0337H179.477V59.3306H184.02V56.0337Z" fill="white"/>
<path d="M189.42 56.0337H184.877V59.3306H189.42V56.0337Z" fill="white"/>
<path d="M194.819 56.0337H190.275V59.3306H194.819V56.0337Z" fill="white"/>
<path d="M162.436 60.2153H157.893V63.5123H162.436V60.2153Z" fill="white"/>
<path d="M167.834 60.2153H163.291V63.5123H167.834V60.2153Z" fill="white"/>
<path d="M173.229 60.2153H168.686V63.5123H173.229V60.2153Z" fill="white"/>
<path d="M178.627 60.2153H174.084V63.5123H178.627V60.2153Z" fill="white"/>
<path d="M184.02 60.2153H179.477V63.5123H184.02V60.2153Z" fill="white"/>
<path d="M163.455 43.2602L163.117 43.7251L167.663 47.0245L168.001 46.5597L163.455 43.2602Z" fill="#E6E6E6"/>
<path d="M167.665 43.275L163.117 46.572L163.454 47.0371L168.002 43.74L167.665 43.275Z" fill="#E6E6E6"/>
<path d="M168.855 43.2617L168.518 43.7266L173.064 47.026L173.401 46.5611L168.855 43.2617Z" fill="#E6E6E6"/>
<path d="M173.066 43.2708L168.518 46.5679L168.855 47.0329L173.403 43.7358L173.066 43.2708Z" fill="#E6E6E6"/>
<path d="M174.249 43.2573L173.912 43.7222L178.458 47.0216L178.796 46.5568L174.249 43.2573Z" fill="#E6E6E6"/>
<path d="M178.464 43.2725L173.916 46.5696L174.253 47.0346L178.801 43.7376L178.464 43.2725Z" fill="#E6E6E6"/>
<path d="M179.646 43.2632L179.309 43.728L183.855 47.0275L184.192 46.5626L179.646 43.2632Z" fill="#E6E6E6"/>
<path d="M183.861 43.2718L179.312 46.5688L179.65 47.0339L184.198 43.7368L183.861 43.2718Z" fill="#E6E6E6"/>
<path d="M185.046 43.2588L184.709 43.7236L189.255 47.0231L189.593 46.5582L185.046 43.2588Z" fill="#E6E6E6"/>
<path d="M189.259 43.2732L184.711 46.5703L185.048 47.0353L189.596 43.7383L189.259 43.2732Z" fill="#E6E6E6"/>
<path d="M190.443 43.259L190.105 43.7239L194.652 47.0233L194.989 46.5585L190.443 43.259Z" fill="#E6E6E6"/>
<path d="M194.653 43.2725L190.105 46.5696L190.443 47.0346L194.991 43.7376L194.653 43.2725Z" fill="#E6E6E6"/>
<path d="M190.439 47.4407L190.102 47.9055L194.648 51.205L194.985 50.7401L190.439 47.4407Z" fill="#E6E6E6"/>
<path d="M194.652 47.4517L190.104 50.7488L190.441 51.2138L194.989 47.9168L194.652 47.4517Z" fill="#E6E6E6"/>
<path d="M185.042 47.4346L184.705 47.8994L189.251 51.1989L189.589 50.734L185.042 47.4346Z" fill="#E6E6E6"/>
<path d="M189.257 47.4466L184.709 50.7437L185.046 51.2087L189.594 47.9116L189.257 47.4466Z" fill="#E6E6E6"/>
<path d="M179.642 47.439L179.305 47.9038L183.851 51.2032L184.188 50.7384L179.642 47.439Z" fill="#E6E6E6"/>
<path d="M183.859 47.4507L179.311 50.7478L179.648 51.2128L184.196 47.9158L183.859 47.4507Z" fill="#E6E6E6"/>
<path d="M174.251 47.4331L173.914 47.8979L178.46 51.1974L178.798 50.7325L174.251 47.4331Z" fill="#E6E6E6"/>
<path d="M178.464 47.4459L173.916 50.7429L174.253 51.208L178.801 47.9109L178.464 47.4459Z" fill="#E6E6E6"/>
<path d="M168.851 47.4375L168.514 47.9023L173.06 51.2018L173.397 50.7369L168.851 47.4375Z" fill="#E6E6E6"/>
<path d="M173.064 47.45L168.516 50.7471L168.853 51.2121L173.401 47.915L173.064 47.45Z" fill="#E6E6E6"/>
<path d="M163.453 47.4419L163.115 47.9067L167.662 51.2062L167.999 50.7413L163.453 47.4419Z" fill="#E6E6E6"/>
<path d="M167.665 47.4485L163.117 50.7456L163.454 51.2106L168.002 47.9136L167.665 47.4485Z" fill="#E6E6E6"/>
<path d="M158.056 47.4358L157.719 47.9006L162.265 51.2001L162.602 50.7352L158.056 47.4358Z" fill="#E6E6E6"/>
<path d="M162.269 47.4493L157.721 50.7463L158.058 51.2114L162.606 47.9143L162.269 47.4493Z" fill="#E6E6E6"/>
<path d="M158.056 51.6094L157.719 52.0742L162.265 55.3737L162.602 54.9088L158.056 51.6094Z" fill="#E6E6E6"/>
<path d="M162.272 51.6069L157.727 54.908L158.064 55.3727L162.609 52.0717L162.272 51.6069Z" fill="#E6E6E6"/>
<path d="M163.453 51.6096L163.115 52.0745L167.662 55.3739L167.999 54.909L163.453 51.6096Z" fill="#E6E6E6"/>
<path d="M167.662 51.6082L163.117 54.9092L163.455 55.3739L168 52.0729L167.662 51.6082Z" fill="#E6E6E6"/>
<path d="M168.847 51.6108L168.51 52.0757L173.056 55.3751L173.393 54.9103L168.847 51.6108Z" fill="#E6E6E6"/>
<path d="M173.061 51.6116L168.516 54.9126L168.853 55.3773L173.398 52.0763L173.061 51.6116Z" fill="#E6E6E6"/>
<path d="M174.244 51.6111L173.906 52.0759L178.453 55.3754L178.79 54.9105L174.244 51.6111Z" fill="#E6E6E6"/>
<path d="M178.457 51.6128L173.912 54.9138L174.25 55.3786L178.795 52.0775L178.457 51.6128Z" fill="#E6E6E6"/>
<path d="M179.644 51.6125L179.307 52.0774L183.853 55.3768L184.19 54.912L179.644 51.6125Z" fill="#E6E6E6"/>
<path d="M183.854 51.6106L179.309 54.9116L179.646 55.3764L184.191 52.0753L183.854 51.6106Z" fill="#E6E6E6"/>
<path d="M189.712 22.9441H166.375V28.7108H189.712V22.9441Z" fill="#E6E6E6"/>
<path d="M182.607 19.9114H173.486V21.4564H182.607V19.9114Z" fill="#E6E6E6"/>
<path d="M113.917 199.633C175.423 199.633 225.283 196.722 225.283 193.132C225.283 189.541 175.423 186.63 113.917 186.63C52.4119 186.63 2.55176 189.541 2.55176 193.132C2.55176 196.722 52.4119 199.633 113.917 199.633Z" fill="#F5F5F5"/>
<path d="M119.088 11.1177H92.8793C90.4937 11.1177 88.2055 12.0642 86.517 13.7494C84.8285 15.4347 83.8776 17.721 83.8731 20.1067V45.5515C83.8708 46.7354 84.1021 47.9081 84.5538 49.0025C85.0054 50.0968 85.6686 51.0913 86.5052 51.929C87.3418 52.7666 88.3354 53.431 89.4292 53.8841C90.523 54.3371 91.6954 54.57 92.8793 54.5692H110.179L116.388 64.0751V54.5692H119.088C120.27 54.57 121.441 54.3377 122.533 53.8856C123.626 53.4336 124.618 52.7706 125.454 51.9347C126.29 51.0988 126.953 50.1063 127.405 49.014C127.857 47.9216 128.089 46.7509 128.089 45.5687V20.1067C128.085 17.7216 127.136 15.4352 125.448 13.7498C123.761 12.0644 121.473 11.1177 119.088 11.1177Z" fill="#407BFF"/>
<path opacity="0.7" d="M119.088 11.1177H92.8793C90.4937 11.1177 88.2055 12.0642 86.517 13.7494C84.8285 15.4347 83.8776 17.721 83.8731 20.1067V45.5515C83.8708 46.7354 84.1021 47.9081 84.5538 49.0025C85.0054 50.0968 85.6686 51.0913 86.5052 51.929C87.3418 52.7666 88.3354 53.431 89.4292 53.8841C90.523 54.3371 91.6954 54.57 92.8793 54.5692H110.179L116.388 64.0751V54.5692H119.088C120.27 54.57 121.441 54.3377 122.533 53.8856C123.626 53.4336 124.618 52.7706 125.454 51.9347C126.29 51.0988 126.953 50.1063 127.405 49.014C127.857 47.9216 128.089 46.7509 128.089 45.5687V20.1067C128.085 17.7216 127.136 15.4352 125.448 13.7498C123.761 12.0644 121.473 11.1177 119.088 11.1177Z" fill="white"/>
<path d="M103.212 49.3193C101.148 49.2946 99.1156 48.812 97.2612 47.9064C94.7512 46.7117 93.074 44.9828 92.5398 43.0816C92.3445 42.9897 92.1492 42.8863 91.9654 42.7772C90.9792 42.1372 90.1413 41.2935 89.5083 40.3028C88.8752 39.3121 88.4616 38.1973 88.2952 37.0334C87.7786 33.6683 88.3016 30.2256 89.7943 27.1657C89.6523 26.4086 89.6059 25.6367 89.6564 24.8682C89.8173 22.1571 91.1671 19.7332 93.1831 18.55C94.4931 17.7971 96.047 17.5908 97.5082 17.9757C99.6391 16.5231 102.112 15.6501 104.682 15.4427C107.215 15.2622 109.733 15.9622 111.81 17.4243C112.972 17.0892 114.197 17.0358 115.384 17.2685C116.57 17.5013 117.684 18.0134 118.634 18.7625C120.203 20.1131 121.224 21.9903 121.506 24.0411C121.648 25.0727 121.638 26.1196 121.477 27.1484C122.43 28.2838 123.121 29.6148 123.502 31.0471C123.883 32.4794 123.945 33.9779 123.682 35.4367C123.09 37.8492 121.646 39.9665 119.616 41.3987C119.852 41.9733 119.956 42.5935 119.92 43.2137C119.771 45.2642 118.054 46.7576 116.417 47.3263C114.683 47.8275 112.849 47.875 111.092 47.4641C109.869 48.2409 108.445 48.6404 106.997 48.6129C105.792 49.0877 104.507 49.3275 103.212 49.3193ZM93.3727 43.4148C94.2285 45.4997 96.4973 46.7863 97.5541 47.286C100.753 48.8081 104.131 49.0494 106.744 47.981C106.759 47.9753 106.775 47.9753 106.79 47.981C107.02 47.8834 107.244 47.78 107.462 47.6651C107.894 47.431 108.306 47.164 108.697 46.8667C107.854 46.5706 107.075 46.1185 106.4 45.5342C106.126 45.2881 105.876 45.0169 105.653 44.7243C103.913 44.7076 102.187 44.4029 100.547 43.8226C100.181 43.6879 99.8225 43.5345 99.4725 43.3631C97.4843 43.9516 95.3706 43.9695 93.3727 43.4148ZM109.49 47.1022C109.202 47.3487 108.899 47.5769 108.582 47.7858C109.113 47.6827 109.627 47.5068 110.11 47.2631L109.49 47.1022ZM111.787 46.884C113.249 47.1713 114.759 47.1004 116.187 46.6772C117.611 46.1832 119.11 44.9024 119.231 43.162C119.263 42.7014 119.197 42.2393 119.036 41.8065C118.611 42.0847 118.172 42.3397 117.72 42.5704C116.306 43.2674 114.805 43.7735 113.258 44.0753C113.052 45.136 112.538 46.1128 111.781 46.884H111.787ZM110.098 46.5508C110.386 46.6198 110.673 46.683 110.931 46.7346C111.72 46.0912 112.276 45.2078 112.517 44.2189L111.942 44.3165C111.404 45.1154 110.784 45.8564 110.093 46.5279L110.098 46.5508ZM106.566 44.7186C106.664 44.8162 106.761 44.9139 106.865 45.0058C107.586 45.6161 108.427 46.0681 109.335 46.3326C109.953 45.7591 110.511 45.124 111 44.4371C110.15 44.5405 109.335 44.6037 108.576 44.6497C107.927 44.6841 107.255 44.7128 106.56 44.7186H106.566ZM105.992 44.0293C106.865 44.0293 107.715 44.0293 108.519 43.9604C109.438 43.9087 110.449 43.8283 111.506 43.679C111.81 43.2022 112.109 42.691 112.402 42.1396L112.649 41.6629C112.506 40.7436 112.241 39.8474 111.862 38.9978C110.699 39.454 109.48 39.7496 108.238 39.8766C107.14 40.2901 106.066 40.7669 105.004 41.2321L104.82 41.3183C105.052 42.2844 105.453 43.2021 106.003 44.0293H105.992ZM100.478 43.0472L100.776 43.162C102.186 43.6647 103.664 43.9475 105.159 44.0006C104.727 43.246 104.398 42.4365 104.182 41.594C102.976 42.1398 101.744 42.6247 100.489 43.0472H100.478ZM112.695 43.0472C112.597 43.2195 112.499 43.3918 112.402 43.5526L112.649 43.5124C112.646 43.4799 112.646 43.4472 112.649 43.4148C112.689 43.2769 112.7 43.1563 112.706 43.0299L112.695 43.0472ZM113.355 41.8008C113.413 42.3219 113.413 42.8477 113.355 43.3688C114.748 43.0728 116.099 42.6039 117.376 41.9731C117.836 41.7413 118.281 41.4804 118.708 41.1919C118.252 40.4042 117.575 39.7673 116.761 39.3597C116.086 39.0335 115.359 38.8293 114.613 38.7566C114.248 39.7888 113.824 40.7994 113.344 41.7835L113.355 41.8008ZM93.1142 42.6049C94.8665 43.2324 96.766 43.3244 98.5708 42.8691C97.5701 42.2733 96.7155 41.4611 96.0694 40.4921C95.4234 39.5231 95.0024 38.4218 94.8373 37.2689C93.7403 38.8312 92.8557 40.4567 93.0567 42.2315C93.0716 42.3517 93.0946 42.4707 93.1257 42.5877L93.1142 42.6049ZM95.4117 36.4533C95.4903 37.7564 95.9164 39.0146 96.6457 40.0974C97.3749 41.1802 98.3807 42.048 99.5587 42.6106C101.092 42.1416 102.591 41.5658 104.045 40.8875C103.953 40.4567 103.878 40.0144 103.826 39.5722C103.004 39.3788 102.203 39.1016 101.437 38.7451C100.386 38.2454 97.9275 36.8209 97.8413 34.3683V34.1271C97.6058 34.1271 97.3646 34.1271 97.1233 34.1271C96.7902 34.6211 96.4283 35.1208 96.0493 35.632L95.8367 35.9134L95.4117 36.4533ZM90.024 28.2857C88.8547 31.0092 88.4765 34.0072 88.9327 36.9358C89.0897 38.0003 89.4696 39.0198 90.0476 39.9274C90.6257 40.835 91.3888 41.6104 92.2871 42.2028L92.3445 42.2373C92.1263 39.9742 93.4473 37.9524 94.7856 36.1489L95.2451 35.5343L95.4576 35.2529C95.7563 34.8566 96.032 34.4602 96.3135 34.0697C95.0537 33.8574 93.8682 33.3299 92.8672 32.5361C91.5224 31.4279 90.5418 29.941 90.0528 28.2685L90.024 28.2857ZM114.837 38.0903C115.612 38.1809 116.365 38.4023 117.066 38.7451C117.98 39.2037 118.745 39.9129 119.271 40.7899C121.118 39.4611 122.431 37.5187 122.976 35.3103C123.203 34.0504 123.167 32.7571 122.871 31.5117C122.574 30.2663 122.023 29.0956 121.253 28.0732C120.975 29.2484 120.552 30.3847 119.995 31.4562C118.833 33.7241 117.16 35.6906 115.107 37.2C115.067 37.4929 114.958 37.7859 114.866 38.0731L114.837 38.0903ZM104.498 39.7675C104.539 40.0604 104.59 40.3418 104.648 40.652L104.711 40.6233L106.239 39.957C105.665 39.9217 105.093 39.8527 104.527 39.7502L104.498 39.7675ZM112.488 38.7795C112.749 39.3803 112.962 40.0006 113.125 40.6348C113.407 40.003 113.665 39.3597 113.901 38.7106C113.439 38.6987 112.976 38.7159 112.517 38.7623L112.488 38.7795ZM104.447 39.0552C105.644 39.2834 106.869 39.3395 108.082 39.2218C109.201 38.7959 110.354 38.4673 111.529 38.2396C111.038 37.2926 110.461 36.3928 109.806 35.5515C108.105 36.1468 106.281 36.3009 104.504 35.9996C104.38 37.0154 104.363 38.0415 104.452 39.061L104.447 39.0552ZM98.5191 34.1213C98.5133 34.2112 98.5133 34.3014 98.5191 34.3913C98.5937 36.5222 100.989 37.8376 101.724 38.165C102.372 38.474 103.05 38.7184 103.746 38.8944C103.677 37.8831 103.706 36.8675 103.832 35.8617C103.112 35.6905 102.412 35.4401 101.747 35.115C101.048 34.7756 100.397 34.3449 99.8114 33.8342C99.3919 33.964 98.9611 34.0544 98.5248 34.1041L98.5191 34.1213ZM110.466 35.2701C111.129 36.1592 111.706 37.1093 112.189 38.1075C112.995 37.7388 113.765 37.2946 114.487 36.7807C115.453 33.3227 115.739 29.7103 115.331 26.1433C115.234 25.2426 115.073 24.3501 114.849 23.4724C113.177 22.8875 111.442 22.5019 109.679 22.3237C108.916 22.2398 108.149 22.1957 107.382 22.1916C106.78 23.4235 106.26 24.6937 105.825 25.9939L105.745 26.2122C105.277 27.6083 104.673 28.955 103.941 30.2328C104.427 30.3527 104.9 30.5181 105.354 30.7268L105.561 30.3477C106.262 28.8827 107.408 27.6766 108.835 26.9015C109.58 26.5092 110.427 26.354 111.262 26.4567C112.098 26.5593 112.882 26.9149 113.51 27.4758C114.033 28.0632 114.372 28.7908 114.485 29.5686C114.598 30.3465 114.481 31.1406 114.148 31.8526C113.474 33.2157 112.362 34.3124 110.989 34.9657C110.851 35.0978 110.661 35.1897 110.472 35.2701H110.466ZM113.912 38.0041H114.171C114.171 37.941 114.211 37.872 114.234 37.8031C114.125 37.8778 114.016 37.941 113.918 38.0041H113.912ZM115.681 23.7768C115.855 24.5344 115.983 25.3016 116.066 26.0743C116.45 29.4343 116.234 32.8357 115.429 36.1202C117.08 34.7459 118.435 33.0495 119.409 31.1346C120.034 29.949 120.479 28.6773 120.73 27.3609C120.342 26.8971 119.915 26.4667 119.455 26.0743C118.322 25.117 117.047 24.3419 115.676 23.7768H115.681ZM104.613 35.3046C106.201 35.5762 107.831 35.4579 109.363 34.9599C108.684 34.1329 107.937 33.3643 107.129 32.6624C106.692 32.2864 106.221 31.9518 105.722 31.663C105.193 32.8229 104.818 34.0472 104.607 35.3046H104.613ZM100.547 33.5355C101.016 33.9034 101.522 34.2211 102.057 34.4832C102.659 34.7768 103.29 35.0041 103.941 35.161C104.159 33.8493 104.545 32.5712 105.09 31.3586C104.607 31.1305 104.098 30.9627 103.574 30.8589C102.912 31.8451 102.039 32.6712 101.018 33.277C100.868 33.3689 100.707 33.4551 100.541 33.5355H100.547ZM106.02 31.0542C106.573 31.3674 107.092 31.7349 107.571 32.1512C108.472 32.9252 109.298 33.7808 110.041 34.7072C110.274 34.6136 110.502 34.5082 110.725 34.3913C111.958 33.813 112.959 32.8355 113.568 31.6171C113.845 31.031 113.946 30.3769 113.859 29.7344C113.771 29.0919 113.498 28.4888 113.074 27.9985C112.057 26.9704 110.345 26.9991 109.185 27.5562C107.89 28.265 106.85 29.3618 106.21 30.6923L106.02 31.0542ZM97.5656 33.4723C97.6862 33.4723 97.8068 33.4723 97.9275 33.4723C98.0272 33.0383 98.2043 32.6259 98.4501 32.2546L98.3812 32.1512C98.1227 32.582 97.8356 33.0243 97.5599 33.4723H97.5656ZM90.5065 27.2461C90.8647 29.1004 91.8579 30.772 93.3152 31.9732C94.3105 32.7608 95.5023 33.2613 96.7615 33.4206C97.2095 32.7428 97.6173 32.0823 97.9792 31.4333C97.7688 30.9779 97.6182 30.4971 97.5311 30.0031C97.1233 27.6424 98.3008 25.1037 100.46 23.4839C100.542 22.2893 100.225 21.1014 99.5587 20.1066C99.0655 19.4617 98.3856 18.9844 97.6116 18.7396C97.0716 19.1072 96.5834 19.4863 96.1526 19.8424C93.7647 21.8813 91.838 24.4051 90.5008 27.2461H90.5065ZM98.8924 32.8635C98.8007 33.0327 98.7239 33.2095 98.6627 33.3919C98.8637 33.3919 99.059 33.3172 99.237 33.2713C99.1164 33.1392 98.9843 33.0013 98.8867 32.8635H98.8924ZM99.2945 32.2891C99.5035 32.5599 99.732 32.8152 99.978 33.053C100.225 32.9545 100.465 32.8394 100.696 32.7084C101.522 32.2148 102.241 31.5605 102.81 30.7842C102.495 30.7677 102.179 30.7831 101.868 30.8302C100.865 30.9873 99.9505 31.4963 99.2887 32.2661L99.2945 32.2891ZM98.7718 31.4735L98.8982 31.6917C99.6538 30.8675 100.666 30.323 101.77 30.1467C102.266 30.0805 102.768 30.0805 103.263 30.1467C104.041 28.8448 104.675 27.4619 105.153 26.0227L105.228 25.7987C105.643 24.5923 106.118 23.4076 106.652 22.249C104.976 22.2828 103.33 22.6993 101.839 23.4667C101.602 23.5932 101.374 23.7352 101.155 23.8917C101.155 24.2019 101.104 24.5293 101.058 24.8624C100.703 27.18 99.9261 29.413 98.766 31.4505L98.7718 31.4735ZM100.415 24.4661C98.9269 25.8159 97.8643 27.8262 98.2261 29.9112C98.2716 30.1686 98.3369 30.422 98.4214 30.6694C99.4066 28.8254 100.069 26.8264 100.38 24.759L100.415 24.4661ZM115.463 22.9785C117.076 23.5809 118.574 24.4551 119.892 25.5632C120.226 25.8513 120.547 26.1561 120.851 26.4764C120.927 25.7115 120.912 24.9402 120.805 24.1789C120.552 22.2991 119.623 20.5759 118.191 19.3312C117.396 18.7022 116.471 18.2566 115.483 18.0263C114.495 17.796 113.468 17.7865 112.476 17.9986C112.88 18.3474 113.251 18.7319 113.585 19.1474C114.457 20.2884 115.095 21.5903 115.463 22.9785ZM96.0435 18.4983C95.1602 18.4952 94.2919 18.7272 93.5277 19.1704C91.707 20.2444 90.4836 22.4558 90.3342 24.9486C90.307 25.331 90.307 25.7149 90.3342 26.0973C91.683 23.5278 93.5096 21.2391 95.7161 19.3542C96.0263 19.1014 96.3594 18.8372 96.7213 18.573C96.4982 18.5233 96.2716 18.4907 96.0435 18.4754V18.4983ZM98.341 18.2973C99.0517 18.6034 99.6696 19.0906 100.133 19.7103C100.814 20.6895 101.177 21.8546 101.173 23.0474C101.282 22.9785 101.397 22.9153 101.517 22.8521C103.223 21.9827 105.111 21.5319 107.026 21.5368C107.623 20.4135 108.444 19.4245 109.438 18.6304C109.919 18.2632 110.446 17.9601 111.006 17.7287C109.137 16.5418 106.937 15.9824 104.728 16.1319C102.452 16.3117 100.255 17.0474 98.3295 18.2743L98.341 18.2973ZM107.824 21.5368C108.467 21.5368 109.134 21.5942 109.834 21.6689C111.477 21.8403 113.098 22.181 114.671 22.6855C114.321 21.5623 113.774 20.5102 113.057 19.5782C112.655 19.068 112.192 18.6089 111.678 18.2111C111.021 18.4272 110.405 18.7535 109.857 19.1761C109.033 19.8178 108.339 20.6113 107.812 21.5138L107.824 21.5368Z" fill="#263238"/>
<path d="M135.331 134.93C120.971 131.484 104.464 123.758 96.3132 110.806C95.6143 109.756 95.0798 108.606 94.7279 107.394C91.5344 94.6489 109.133 87.1361 118.478 83.5118C121.811 82.2539 125.211 81.182 128.662 80.301L131.051 86.7742C125.308 89.9161 108.404 98.7787 106.6 104.396C106.663 104.396 106.692 104.051 106.658 103.822C106.653 103.757 106.642 103.694 106.623 103.632C106.623 103.632 106.623 103.632 106.623 103.598C113.608 112.857 126.514 117.831 137.37 121.064L138.369 121.34L135.325 134.924L135.331 134.93Z" fill="#EBC0BB"/>
<path d="M135.083 143.19L131.482 141.03L129.259 139.697L111.379 128.985L115.003 109.939C115.003 109.939 125.457 116.349 130.816 118.164C130.816 118.164 134.095 121.243 135.17 127.446C135.339 128.418 135.444 129.401 135.485 130.387C135.485 130.961 135.531 131.535 135.543 132.11C135.698 135.809 135.545 139.516 135.083 143.19Z" fill="#407BFF"/>
<path opacity="0.2" d="M135.084 143.189L131.482 141.03C132.177 137.584 134.004 134.35 135.543 132.093C135.7 135.798 135.546 139.51 135.084 143.189Z" fill="black"/>
<path d="M133.073 69.5028C133.038 69.5019 133.004 69.4887 132.978 69.4656C132.952 69.4425 132.935 69.411 132.929 69.3764C132.929 69.3764 132.521 66.3552 130.551 65.2294C130.52 65.2093 130.497 65.178 130.487 65.1419C130.478 65.1057 130.482 65.0673 130.5 65.0342C130.519 65.0016 130.55 64.9778 130.587 64.9682C130.623 64.9585 130.662 64.9636 130.695 64.9825C132.791 66.1772 133.199 69.2099 133.216 69.342C133.22 69.3798 133.209 69.4175 133.185 69.4474C133.162 69.4773 133.128 69.4971 133.09 69.5028H133.073Z" fill="#263238"/>
<path d="M190.309 182.333C190.797 166.849 189.744 151.355 187.167 136.079C186.564 132.489 185.921 129.186 185.283 126.263C184.102 120.509 182.581 114.829 180.728 109.255C180.728 109.255 164.858 120.743 152.142 120.743C144.964 120.727 137.814 119.854 130.844 118.141C135.674 141.202 136.438 168.824 136.49 182.31L190.309 182.333Z" fill="#407BFF"/>
<path d="M126.072 84.0748L125.768 73.489L135.486 76.4987C135.486 76.4987 134.182 86.4699 131.046 86.6882L126.072 84.0748Z" fill="#EEC1BB"/>
<path d="M132.683 67.0159L138.892 70.8642L135.486 76.4988L125.768 73.4891L132.683 67.0159Z" fill="#EEC1BB"/>
<path d="M146.789 115.964C148.116 114.867 161.895 111.145 163.693 111.742C165.49 112.34 158.403 125.28 151.51 122.897C144.618 120.513 145.244 117.233 146.789 115.964Z" fill="#407BFF"/>
<path d="M164.899 114.844C164.899 114.844 164.68 120.473 153.371 123.46C152.281 124.635 151.411 125.997 150.803 127.48C150.234 126.47 149.79 125.394 149.482 124.275C138.891 125.964 144.761 119.623 144.761 119.623C148.357 117.791 149.689 115.516 149.81 113.075C149.838 111.677 149.596 110.286 149.098 108.98C148.76 107.999 148.361 107.039 147.903 106.108L149.574 103.856L158.247 95.5164C158.382 98.1329 158.683 100.738 159.149 103.316C160.091 108.29 161.82 112.995 164.899 114.844Z" fill="#EEC1BB"/>
<path opacity="0.2" d="M159.151 103.305C157.502 107.188 153.66 110.95 149.811 113.069C149.839 111.671 149.598 110.28 149.099 108.974C148.761 107.993 148.362 107.033 147.904 106.102L149.576 103.85L158.249 95.5105C158.383 98.1251 158.685 100.728 159.151 103.305Z" fill="black"/>
<path d="M153.371 123.437L158.058 128.032C158.058 128.032 167.656 123.04 169.454 115.476L163.71 111.748C163.71 111.748 161.814 118.933 153.371 123.437Z" fill="#407BFF"/>
<path d="M149.484 124.264L143.55 129.812C143.55 129.812 141.494 124.143 142.103 119.87L146.79 115.947C146.79 115.947 146.376 120.904 149.484 124.264Z" fill="#407BFF"/>
<path opacity="0.2" d="M153.371 123.437L158.058 128.032C158.058 128.032 167.656 123.04 169.454 115.476L163.71 111.748C163.71 111.748 161.814 118.933 153.371 123.437Z" fill="white"/>
<path opacity="0.2" d="M149.484 124.264L143.55 129.812C143.55 129.812 141.494 124.143 142.103 119.87L146.79 115.947C146.79 115.947 146.376 120.904 149.484 124.264Z" fill="white"/>
<path d="M136.117 78.417C132.217 81.5014 132.861 94.4995 139.121 95.7574C145.382 97.0153 143.498 72.5814 136.117 78.417Z" fill="#263238"/>
<path d="M159.506 86.8031C159.788 95.9414 160.414 101.26 156.279 106.493C150.064 114.362 138.542 111.628 135.555 102.851C132.867 94.9478 132.861 81.3293 141.368 76.6022C149.748 71.9383 159.231 77.6648 159.506 86.8031Z" fill="#EEC1BB"/>
<path d="M153.986 82.3113C153.044 87.5324 156.565 94.5111 159.419 95.1486C162.866 96.7798 167.018 90.7719 167.593 87.6817C168.104 84.919 167.334 78.911 165.554 76.6135L153.986 82.3113Z" fill="#263238"/>
<path d="M163.763 95.3497C162.786 97.3927 161.132 99.0345 159.082 99.9964C156.463 101.145 155.216 98.7614 155.992 95.9757C156.692 93.4657 158.898 89.8357 161.5 89.8701C164.102 89.9046 165.003 92.7765 163.763 95.3497Z" fill="#EEC1BB"/>
<path d="M140.414 92.1619C140.414 92.1619 139.133 96.6363 137.484 98.9223C138.897 99.9791 141.057 99.1405 141.057 99.1405L140.414 92.1619Z" fill="#D4827D"/>
<path d="M145.066 86.6768C144.994 86.6949 144.928 86.7327 144.876 86.7859C144.796 86.8683 144.752 86.9785 144.752 87.0932C144.752 87.2078 144.796 87.318 144.876 87.4005C145.345 87.9013 145.929 88.2786 146.579 88.4991C147.228 88.7195 147.922 88.7762 148.598 88.6641C148.654 88.6534 148.708 88.6312 148.755 88.5989C148.803 88.5667 148.843 88.525 148.874 88.4766C148.904 88.4281 148.925 88.3739 148.934 88.3172C148.943 88.2606 148.94 88.2027 148.926 88.1472C148.913 88.0916 148.89 88.039 148.858 87.9924C148.825 87.9458 148.783 87.9062 148.735 87.8757C148.687 87.8453 148.634 87.8247 148.578 87.8151C148.521 87.8055 148.464 87.8071 148.409 87.8198C147.878 87.8947 147.337 87.8404 146.832 87.6614C146.327 87.4824 145.873 87.184 145.508 86.7916C145.451 86.7346 145.38 86.6938 145.303 86.6736C145.225 86.6534 145.143 86.6545 145.066 86.6768Z" fill="#263238"/>
<path d="M137.869 86.7342C137.798 86.7306 137.727 86.745 137.663 86.7762C137.598 86.8073 137.543 86.8541 137.502 86.9122C137.192 87.3756 136.779 87.7612 136.296 88.0391C135.813 88.3171 135.272 88.4798 134.716 88.5147C134.6 88.5147 134.489 88.5607 134.407 88.6426C134.325 88.7245 134.279 88.8355 134.279 88.9513C134.279 89.067 134.325 89.1781 134.407 89.2599C134.489 89.3418 134.6 89.3878 134.716 89.3878C135.413 89.3552 136.093 89.1607 136.702 88.8198C137.311 88.4788 137.833 88.0007 138.225 87.4234C138.273 87.3598 138.302 87.2842 138.31 87.2051C138.317 87.1259 138.302 87.0462 138.267 86.9749C138.232 86.9035 138.178 86.8432 138.111 86.8008C138.044 86.7583 137.966 86.7352 137.886 86.7342H137.869Z" fill="#263238"/>
<path d="M147.232 91.8634C147.202 91.8636 147.172 91.8576 147.144 91.8457C147.116 91.8339 147.091 91.8164 147.071 91.7944C146.801 91.4958 145.922 91.4958 145.405 91.5647C145.36 91.571 145.315 91.5634 145.275 91.5428C145.235 91.5222 145.202 91.4898 145.181 91.4498C145.161 91.4109 145.154 91.3669 145.16 91.3238C145.167 91.2806 145.186 91.2404 145.216 91.2086C145.446 90.9227 145.736 90.6904 146.065 90.5278C146.395 90.3651 146.755 90.276 147.123 90.2666C147.174 90.275 147.22 90.3012 147.254 90.3407C147.287 90.3801 147.305 90.4302 147.305 90.482C147.305 90.5338 147.287 90.5839 147.254 90.6233C147.22 90.6628 147.174 90.689 147.123 90.6974C146.707 90.7028 146.304 90.8417 145.974 91.0937C146.482 91.0441 146.99 91.1922 147.392 91.5073C147.432 91.547 147.454 91.6007 147.454 91.6566C147.454 91.7125 147.432 91.7662 147.392 91.8059C147.372 91.8267 147.346 91.8426 147.318 91.8526C147.291 91.8625 147.261 91.8662 147.232 91.8634Z" fill="#263238"/>
<path d="M136.037 93.0523C135.999 93.0517 135.961 93.0418 135.928 93.0235C135.879 92.9947 135.843 92.948 135.828 92.8934C135.813 92.8387 135.82 92.7803 135.847 92.7306C136.176 92.3422 136.64 92.0937 137.146 92.0356C136.779 91.8607 136.367 91.8064 135.968 91.8805C135.913 91.8931 135.854 91.884 135.805 91.8552C135.756 91.8264 135.72 91.78 135.704 91.7255C135.69 91.6699 135.698 91.611 135.727 91.5616C135.756 91.5121 135.804 91.4761 135.859 91.4612C136.22 91.3948 136.592 91.4077 136.948 91.4989C137.304 91.5901 137.636 91.7576 137.921 91.9897C137.956 92.0153 137.982 92.0513 137.995 92.0925C138.009 92.1337 138.009 92.1781 137.996 92.2194C137.985 92.2627 137.961 92.3016 137.927 92.3304C137.893 92.3593 137.851 92.3767 137.806 92.3802C137.301 92.4147 136.422 92.5985 136.221 92.9546C136.201 92.9853 136.174 93.0104 136.142 93.0275C136.11 93.0446 136.073 93.0531 136.037 93.0523Z" fill="#263238"/>
<path d="M150.488 100.628C150.443 100.998 150.28 101.343 150.024 101.612C149.767 101.881 149.43 102.06 149.063 102.122C147.271 102.696 145.54 103.444 143.894 104.356L143.848 104.276C143.484 103.576 143 102.946 142.418 102.415C142.326 102.339 142.221 102.283 142.107 102.248V102.214C142.377 101.846 144.807 98.6237 148.69 98.8132C149.105 98.8198 149.508 98.9586 149.839 99.2095C150.055 99.3744 150.228 99.5901 150.341 99.8376C150.454 100.085 150.504 100.357 150.488 100.628Z" fill="white"/>
<path opacity="0.2" d="M142.125 102.202L142.412 102.403C142.32 102.328 142.215 102.271 142.102 102.237L142.125 102.202Z" fill="black"/>
<path opacity="0.1" d="M150.241 100.341C149.31 100.445 148.39 100.637 147.495 100.915L147.564 101.381L147.289 100.984C146.542 101.232 145.82 101.545 145.129 101.921L145.29 102.305L144.98 102.007C144.402 102.34 143.856 102.724 143.348 103.156L143.842 104.27C143.478 103.57 142.994 102.941 142.412 102.409L143.182 102.937C143.617 102.468 144.116 102.062 144.664 101.731L144.394 101.094L144.905 101.588C145.584 101.188 146.304 100.863 147.053 100.617L146.841 100.042L147.415 100.485C148.244 100.24 149.094 100.073 149.954 99.985L149.816 99.2039C150.035 99.3692 150.21 99.5865 150.324 99.8361C150.438 100.086 150.489 100.36 150.471 100.634L150.241 100.341Z" fill="black"/>
<path d="M166.962 85.5853C166.962 85.5853 173.55 77.0788 166.514 74.293C166.514 74.293 164.687 68.2047 161.316 66.74C157.944 65.2754 155.227 68.7216 155.227 68.7216C154.622 67.4 153.635 66.2896 152.393 65.5332C151.152 64.7768 149.712 64.409 148.26 64.477C143.131 64.6837 142.413 68.9399 142.413 68.9399C142.413 68.9399 138.473 67.2512 135.084 69.5142C134.628 69.7807 134.229 70.1353 133.911 70.5574C133.593 70.9796 133.363 71.4608 133.233 71.973C133.103 72.4851 133.076 73.0181 133.154 73.5407C133.233 74.0632 133.414 74.565 133.688 75.0168C133.688 75.0168 128.611 77.8025 130.15 81.3349C131.689 84.8673 135.894 83.1671 135.894 83.1671C135.894 83.1671 135.779 85.1487 138.266 85.2234C140.753 85.2981 144.779 82.5124 144.779 82.5124C145.184 83.0198 145.699 83.4288 146.285 83.7083C146.871 83.9879 147.513 84.1308 148.162 84.1264C150.512 84.1953 152.683 82.5813 152.683 82.5813C153.046 83.4062 153.584 84.1419 154.261 84.7372C154.937 85.3324 155.736 85.7728 156.6 86.0275C159.506 86.803 166.962 85.5853 166.962 85.5853Z" fill="#263238"/>
<path d="M171.965 74.6723L168.088 64.8218L160.334 71.4041C160.334 71.4041 165.446 80.06 168.421 79.0318L171.965 74.6723Z" fill="#EEC1BB"/>
<path d="M159.191 61.5535L154.986 67.5327L160.334 71.381L168.088 64.7987L159.191 61.5535Z" fill="#EEC1BB"/>
<path d="M142.412 70.6975H142.383C142.365 70.6941 142.348 70.687 142.332 70.6767C142.317 70.6664 142.303 70.653 142.293 70.6375C142.283 70.6219 142.276 70.6044 142.273 70.5861C142.27 70.5678 142.27 70.549 142.274 70.5309C142.412 69.6324 142.301 68.7133 141.952 67.8738C141.604 67.0342 141.032 66.3063 140.298 65.7693C140.253 66.055 140.143 66.3266 139.978 66.5643C139.813 66.8019 139.597 66.9993 139.345 67.1421C139.272 67.2078 139.187 67.2582 139.094 67.2904C139.001 67.3225 138.903 67.3358 138.805 67.3294C138.707 67.3229 138.611 67.297 138.523 67.253C138.436 67.209 138.358 67.1478 138.294 67.0731C138.119 66.8145 138.035 66.5056 138.053 66.194C138.072 65.8825 138.193 65.5859 138.397 65.35C138.587 65.1432 139.092 64.7756 140.028 65.2524C139.905 64.4051 139.466 63.6357 138.799 63.0985C138.775 63.0728 138.761 63.0392 138.76 63.0039C138.759 62.9687 138.771 62.9343 138.794 62.9073C138.817 62.8803 138.848 62.8626 138.883 62.8577C138.918 62.8527 138.954 62.8607 138.983 62.8802C139.369 63.1883 139.687 63.5729 139.917 64.0098C140.148 64.4467 140.285 64.9264 140.321 65.4189L140.459 65.5108C143.142 67.3776 142.561 70.5366 142.556 70.5711C142.55 70.6056 142.533 70.6372 142.507 70.6603C142.481 70.6834 142.447 70.6965 142.412 70.6975ZM139.19 65.3156C139.082 65.3117 138.975 65.3312 138.876 65.3729C138.777 65.4145 138.688 65.4773 138.616 65.5568C138.464 65.7411 138.374 65.9678 138.358 66.2055C138.342 66.4433 138.399 66.6802 138.524 66.8836C138.719 67.1191 139 67.0157 139.196 66.8836C139.433 66.7537 139.635 66.5663 139.781 66.3385C139.928 66.1107 140.015 65.8499 140.034 65.5798C139.781 65.4197 139.49 65.3286 139.19 65.3156Z" fill="#263238"/>
<path d="M134.653 75.5051C133.162 75.5175 131.708 75.0461 130.507 74.1617C129.307 73.2773 128.426 72.0276 127.996 70.5999C127.99 70.5819 127.987 70.5627 127.989 70.5436C127.99 70.5245 127.995 70.5058 128.003 70.4887C128.012 70.4716 128.024 70.4563 128.038 70.4439C128.053 70.4314 128.07 70.422 128.088 70.4161C128.124 70.4052 128.163 70.4087 128.196 70.4259C128.229 70.4431 128.254 70.4725 128.266 70.508C128.693 71.897 129.562 73.1084 130.741 73.9576C131.92 74.8069 133.344 75.2474 134.797 75.2122C134.816 75.2106 134.835 75.213 134.853 75.2192C134.871 75.2254 134.888 75.2353 134.902 75.2483C134.916 75.2612 134.927 75.277 134.935 75.2945C134.942 75.312 134.946 75.3309 134.946 75.35C134.948 75.3872 134.935 75.4235 134.91 75.4514C134.886 75.4792 134.851 75.4964 134.814 75.4994L134.653 75.5051Z" fill="#263238"/>
<path d="M129.856 86.1596C129.823 86.159 129.792 86.1472 129.767 86.1264C129.742 86.1055 129.725 86.0767 129.718 86.0447C129.714 86.0262 129.714 86.007 129.717 85.9883C129.721 85.9697 129.728 85.952 129.739 85.9363C129.75 85.9207 129.764 85.9075 129.78 85.8974C129.796 85.8874 129.814 85.8809 129.833 85.8782C132.917 85.3038 134.658 82.0356 134.675 82.0069C134.684 81.9898 134.695 81.9745 134.71 81.962C134.724 81.9496 134.741 81.9401 134.759 81.9342C134.778 81.9283 134.797 81.9261 134.816 81.9278C134.835 81.9294 134.853 81.9348 134.87 81.9437C134.887 81.9527 134.902 81.9649 134.914 81.9796C134.925 81.9943 134.934 82.0113 134.94 82.0294C134.945 82.0475 134.947 82.0666 134.945 82.0854C134.943 82.1042 134.937 82.1224 134.928 82.139C134.859 82.2768 133.113 85.5565 129.885 86.1596H129.856Z" fill="#263238"/>
<path d="M164.394 66.3553C164.218 66.3552 164.044 66.318 163.883 66.2462C163.665 66.1441 163.474 65.9929 163.325 65.8046C163.175 65.6162 163.072 65.3958 163.022 65.1606C162.51 65.4537 162.046 65.8215 161.643 66.2519C161.616 66.2782 161.58 66.293 161.542 66.293C161.505 66.293 161.469 66.2782 161.442 66.2519C161.415 66.2241 161.4 66.1871 161.4 66.1486C161.4 66.11 161.415 66.073 161.442 66.0452C161.885 65.5722 162.401 65.1727 162.97 64.862C162.886 64.2321 162.927 63.5921 163.09 62.978C163.094 62.9596 163.102 62.9422 163.113 62.9269C163.124 62.9116 163.138 62.8987 163.154 62.889C163.17 62.8793 163.188 62.8731 163.207 62.8706C163.226 62.8681 163.245 62.8695 163.263 62.8746C163.299 62.8829 163.331 62.9048 163.351 62.9359C163.371 62.967 163.379 63.0047 163.372 63.0412C163.231 63.5942 163.188 64.1677 163.246 64.7356C163.471 64.647 163.71 64.5966 163.952 64.5863C164.15 64.5776 164.347 64.6116 164.53 64.6859C164.714 64.7603 164.879 64.8732 165.015 65.017C165.159 65.1251 165.259 65.283 165.294 65.4602C165.329 65.6374 165.297 65.8213 165.204 65.9762C165.11 66.1008 164.988 66.2005 164.846 66.2666C164.705 66.3327 164.55 66.3632 164.394 66.3553ZM163.286 65.0343C163.322 65.2377 163.405 65.4298 163.529 65.5953C163.653 65.7609 163.813 65.8952 163.998 65.9877C164.154 66.0657 164.331 66.0921 164.504 66.0632C164.676 66.0343 164.835 65.9516 164.957 65.8269C165.072 65.6603 165.015 65.4478 164.796 65.2525C164.686 65.1387 164.554 65.0489 164.408 64.9886C164.262 64.9283 164.104 64.8989 163.946 64.9022C163.73 64.9113 163.516 64.9559 163.314 65.0343H163.286Z" fill="#263238"/>
<path d="M155.405 70.3471C155.378 70.3465 155.35 70.3381 155.327 70.3229C155.304 70.3077 155.285 70.2862 155.273 70.261C155.273 70.2265 154.027 67.1134 156.996 63.5695C157.008 63.5526 157.022 63.5384 157.039 63.5276C157.056 63.5168 157.076 63.5097 157.096 63.5068C157.116 63.504 157.136 63.5054 157.156 63.5109C157.175 63.5165 157.193 63.5261 157.208 63.5391C157.224 63.5522 157.236 63.5683 157.245 63.5865C157.254 63.6047 157.259 63.6246 157.26 63.6448C157.26 63.665 157.256 63.6852 157.249 63.7039C157.241 63.7225 157.229 63.7394 157.215 63.7533C154.377 67.1593 155.537 70.1174 155.555 70.1518C155.568 70.1869 155.567 70.2258 155.552 70.2601C155.537 70.2945 155.509 70.3216 155.474 70.3356L155.405 70.3471Z" fill="#263238"/>
<path d="M170.206 87.1877C170.173 87.1882 170.141 87.1769 170.116 87.1558C170.091 87.1347 170.074 87.1053 170.068 87.0729C169.574 84.6203 166.134 83.684 166.099 83.6726C166.079 83.6693 166.06 83.662 166.044 83.651C166.027 83.64 166.012 83.6256 166.001 83.6087C165.991 83.5917 165.983 83.5727 165.98 83.5529C165.977 83.533 165.978 83.5127 165.984 83.4933C165.989 83.4738 165.998 83.4557 166.011 83.4401C166.023 83.4245 166.039 83.4118 166.057 83.4027C166.075 83.3936 166.095 83.3884 166.115 83.3874C166.135 83.3864 166.155 83.3896 166.174 83.3969C166.323 83.4371 169.821 84.3848 170.35 87.0154C170.356 87.0534 170.348 87.0926 170.327 87.1247C170.305 87.1568 170.272 87.1794 170.235 87.1877H170.206Z" fill="#263238"/>
<path opacity="0.2" d="M187.139 136.079C180.821 133.333 180.062 125.843 180.062 125.843C181.793 125.533 183.574 125.678 185.232 126.263C185.892 129.238 186.536 132.489 187.139 136.079Z" fill="black"/>
<path d="M175.285 113.758C184.199 106.556 194.739 96.3721 197.513 84.9708C197.559 85.1718 197.72 85.6715 197.852 85.6887C197.984 85.706 197.801 85.4935 197.525 85.2522C191.293 80.8812 176.468 79.9392 168.444 79.0834L168.1 72.1909C178.203 70.755 191.5 69.9911 201.184 73.7475C207.347 76.2288 211.247 81.289 209.702 88.3194C207.008 102.575 196.669 114.431 185.785 123.282L184.636 124.143L184.062 124.574L183.407 125.051L175.268 113.753L175.285 113.758Z" fill="#EBC0BB"/>
<path d="M173.591 113.73C173.591 113.73 187.197 102.529 192.034 95.4473L203.182 109.278L186.347 132.374C186.347 132.374 180.156 130.972 176.64 125.424C174.51 121.905 173.45 117.841 173.591 113.73Z" fill="#407BFF"/>
<path d="M29.404 174.671C27.7958 144.057 36.6986 123.879 44.4469 112.34C52.9132 99.7381 61.7299 94.4883 62.0975 94.27L64.1308 97.7163L63.1141 95.9931L64.1365 97.7163C64.0504 97.7622 55.6128 102.834 47.6519 114.758C40.3057 125.769 31.8738 145.056 33.4189 174.436L29.404 174.671Z" fill="#407BFF"/>
<g opacity="0.2">
<path d="M29.404 174.671C27.7958 144.057 36.6986 123.879 44.4469 112.34C52.9132 99.7381 61.7299 94.4883 62.0975 94.27L64.1308 97.7163L63.1141 95.9931L64.1365 97.7163C64.0504 97.7622 55.6128 102.834 47.6519 114.758C40.3057 125.769 31.8738 145.056 33.4189 174.436L29.404 174.671Z" fill="black"/>
</g>
<g opacity="0.2">
<path d="M63.946 97.854L61.7979 94.4537L62.108 94.2642L64.1241 97.7449L63.946 97.854Z" fill="black"/>
<path d="M29.2541 170.869V170.294L33.2747 170.208V170.782L29.2541 170.869ZM29.2139 166.785V166.21L33.2345 166.245V166.819L29.2139 166.785ZM33.3149 162.845L29.2943 162.701V162.127L33.3149 162.293V162.845ZM33.5217 158.899L29.5011 158.617L29.5413 158.043L33.5619 158.341L33.5217 158.899ZM33.8663 154.958L29.8457 154.545L29.9089 153.97L33.9295 154.413L33.8663 154.958ZM34.3488 151.047L30.3684 150.473L30.4545 149.898L34.4292 150.473L34.3488 151.047ZM34.9749 147.153L31.0174 146.469L31.1265 145.895L35.0782 146.63L34.9749 147.153ZM35.756 143.287L31.8273 142.449L31.9594 141.874L35.8766 142.77L35.756 143.287ZM36.6865 139.462L32.8037 138.428L32.9531 137.854L36.8301 138.91L36.6865 139.462ZM37.7778 135.688L33.941 134.488L34.119 133.913L37.9501 135.137L37.7778 135.688ZM39.0357 131.966L35.2563 130.593L35.4573 130.019L39.2252 131.415L39.0357 131.966ZM40.4601 128.302L36.7439 126.762L36.9737 126.217L40.6727 127.785L40.4601 128.302ZM42.0454 124.712L38.4096 122.989L38.6624 122.454L42.2867 124.178L42.0454 124.712ZM43.8088 121.208L40.2591 119.318L40.5406 118.796L44.073 120.72L43.8088 121.208ZM45.7387 117.802L42.2924 115.729L42.5968 115.223L46.0431 117.32L45.7387 117.802ZM47.8409 114.499L44.5095 112.248L44.8369 111.765L48.1568 114.034L47.8409 114.499ZM50.1384 111.312L46.9334 108.882L47.2895 108.417L50.4773 110.864L50.1384 111.312ZM52.5795 108.256L49.4893 105.688L49.8742 105.24L52.9184 107.86L52.5795 108.256ZM55.1871 105.35L52.275 102.581L52.6886 102.15L55.5605 104.953L55.1871 105.35ZM57.9614 102.616L55.2331 99.6633L55.6696 99.2612L58.3692 102.236L57.9614 102.616ZM60.8964 100.083L58.3864 96.9407L58.8574 96.5674L61.333 99.7379L60.8964 100.083Z" fill="black"/>
<path d="M29.403 174.671L29.3857 174.372L33.4064 174.183L33.4179 174.436L29.403 174.671Z" fill="black"/>
</g>
<path d="M69.1163 85.0398C67.9437 84.5249 66.6631 84.3044 65.3858 84.3975C64.1086 84.4906 62.8735 84.8945 61.788 85.574C60.7025 86.2535 59.7996 87.188 59.1577 88.2962C58.5159 89.4043 58.1547 90.6526 58.1055 91.9323L62.419 101.421L69.1048 97.2165L75.7675 93.0523L69.1163 85.0398Z" fill="#407BFF"/>
<path opacity="0.2" d="M69.1163 85.0398C67.9437 84.5249 66.6631 84.3044 65.3858 84.3975C64.1086 84.4906 62.8735 84.8945 61.788 85.574C60.7025 86.2535 59.7996 87.188 59.1577 88.2962C58.5159 89.4043 58.1547 90.6526 58.1055 91.9323L62.419 101.421L69.1048 97.2165L75.7675 93.0523L69.1163 85.0398Z" fill="white"/>
<path d="M82.3272 95.9241C80.5696 93.1327 77.2095 92.2711 76.2733 92.0816H76.2273L76.0205 92.0413C74.0102 91.7427 70.7535 92.7134 67.5313 94.7352C64.309 96.757 62.0288 99.2785 61.4257 101.214C61.4257 101.214 61.4257 101.289 61.3682 101.421V101.461C61.1327 102.392 60.455 105.786 62.2068 108.583C63.6427 110.881 69.3176 109.887 74.8833 106.389C80.449 102.891 83.7516 98.2216 82.3272 95.9241Z" fill="#407BFF"/>
<path opacity="0.2" d="M62.1602 108.595C63.5961 110.892 69.271 109.899 74.8367 106.401C80.4024 102.903 83.751 98.2217 82.3265 95.9242C80.9021 93.6267 75.21 94.6203 69.6443 98.1183C64.0786 101.616 60.7185 106.309 62.1602 108.595Z" fill="white"/>
<path opacity="0.2" d="M81.8561 96.2057C83.0968 98.1815 79.7941 102.484 74.4811 105.826C69.1681 109.169 63.8552 110.278 62.6088 108.308C61.8678 107.119 62.7696 105.086 64.7742 102.92C67.9146 99.6839 71.7877 97.2509 76.0664 95.8266C78.8808 94.9535 81.1152 95.0224 81.8561 96.2057Z" fill="black"/>
<path d="M76.1863 95.9987C76.6528 96.7409 76.9686 97.5678 77.1155 98.432C77.2625 99.2963 77.2378 100.181 77.0429 101.036C76.848 101.89 76.4866 102.698 75.9794 103.413C75.4722 104.128 74.8292 104.737 74.0869 105.203C73.3447 105.67 72.5179 105.985 71.6537 106.132C70.7894 106.279 69.9047 106.255 69.05 106.06C68.1953 105.865 67.3873 105.503 66.6723 104.996C65.9572 104.489 65.3491 103.846 64.8826 103.104L64.7734 102.92C67.9139 99.6837 71.787 97.2507 76.0657 95.8264C76.1059 95.8781 76.1461 95.9241 76.1863 95.9987Z" fill="white"/>
<path d="M46.4914 181.42V177.589C46.4914 176.613 46.1035 175.676 45.4131 174.986C44.7226 174.295 43.7861 173.907 42.8097 173.907H20.1046C19.1281 173.907 18.1917 174.295 17.5012 174.986C16.8107 175.676 16.4229 176.613 16.4229 177.589V181.42H46.4914Z" fill="#407BFF"/>
<path d="M46.4914 179.438H16.4229V181.42H46.4914V179.438Z" fill="black"/>
<path d="M16.7277 156.957C16.6377 158.362 17.1063 159.745 18.0315 160.806C18.9567 161.867 20.2635 162.519 21.6674 162.621L22.437 162.667H22.5979H22.9769V162.368L23.0574 161.185L21.8397 161.104H21.7478C20.7392 161.032 19.8001 160.564 19.1351 159.802C18.4702 159.041 18.1334 158.047 18.1981 157.038L18.29 155.648C18.3091 155.428 18.4136 155.224 18.5811 155.08C18.7485 154.936 18.9657 154.864 19.1861 154.878L20.7024 154.982L22.5519 155.108L22.6553 153.615L20.622 153.477L19.2895 153.385C18.6755 153.355 18.0747 153.569 17.6175 153.98C17.1604 154.391 16.884 154.965 16.8484 155.579L16.7277 156.957Z" fill="#407BFF"/>
<g opacity="0.5">
<path d="M16.7277 156.957C16.6377 158.362 17.1063 159.745 18.0315 160.806C18.9567 161.867 20.2635 162.519 21.6674 162.621L22.437 162.667H22.5979H22.9769V162.368L23.0574 161.185L21.8397 161.104H21.7478C20.7392 161.032 19.8001 160.564 19.1351 159.802C18.4702 159.041 18.1334 158.047 18.1981 157.038L18.29 155.648C18.3091 155.428 18.4136 155.224 18.5811 155.08C18.7485 154.936 18.9657 154.864 19.1861 154.878L20.7024 154.982L22.5519 155.108L22.6553 153.615L20.622 153.477L19.2895 153.385C18.6755 153.355 18.0747 153.569 17.6175 153.98C17.1604 154.391 16.884 154.965 16.8484 155.579L16.7277 156.957Z" fill="white"/>
</g>
<path d="M20.6221 152.787V152.925C20.6221 153.109 20.6221 153.293 20.6221 153.5C20.6221 154.017 20.6565 154.522 20.7025 155.004C20.8108 157.091 21.1971 159.154 21.8512 161.139C22.0541 161.65 22.302 162.142 22.5922 162.609L22.6266 162.678C22.934 163.25 23.4231 163.702 24.0166 163.965C24.1524 164.018 24.2959 164.049 24.4417 164.057L31.3342 164.528C32.2647 164.597 33.1952 163.815 34.0223 162.391C34.5079 161.527 34.9117 160.619 35.2284 159.68C35.846 157.843 36.3034 155.956 36.5955 154.039V153.913L20.6221 152.787Z" fill="#407BFF"/>
<path opacity="0.6" d="M20.6221 152.787V152.925C20.6221 153.109 20.6221 153.293 20.6221 153.5C20.6221 154.017 20.6565 154.522 20.7025 155.004C20.8108 157.091 21.1971 159.154 21.8512 161.139C22.0541 161.65 22.302 162.142 22.5922 162.609L22.6266 162.678C22.934 163.25 23.4231 163.702 24.0166 163.965C24.1524 164.018 24.2959 164.049 24.4417 164.057L31.3342 164.528C32.2647 164.597 33.1952 163.815 34.0223 162.391C34.5079 161.527 34.9117 160.619 35.2284 159.68C35.846 157.843 36.3034 155.956 36.5955 154.039V153.913L20.6221 152.787Z" fill="white"/>
<path opacity="0.1" d="M22.4375 162.667H22.5983C22.9057 163.238 23.3948 163.691 23.9883 163.953C26.7683 163.678 30.8808 162.965 33.971 162.38C34.4737 161.521 34.8949 160.617 35.2288 159.68C32.9313 159.933 26.7855 160.737 23.0176 162.402C22.8683 162.471 22.7189 162.529 22.5811 162.609C22.531 162.622 22.4828 162.642 22.4375 162.667Z" fill="black"/>
<path d="M36.0444 170.306L34.7463 170.507L34.5165 169.031L35.8146 168.83C36.8136 168.671 37.7092 168.124 38.3055 167.307C38.9019 166.49 39.1504 165.47 38.9966 164.47L38.7841 163.103C38.7488 162.885 38.6288 162.69 38.4503 162.56C38.2718 162.43 38.0491 162.375 37.8307 162.408L34.4993 162.931L34.2695 161.455L37.6009 160.932C38.2102 160.838 38.8319 160.99 39.3295 161.354C39.827 161.718 40.1598 162.264 40.2545 162.873L40.4728 164.24C40.686 165.631 40.3399 167.05 39.5101 168.187C38.6802 169.323 37.4342 170.085 36.0444 170.306Z" fill="#407BFF"/>
<g opacity="0.5">
<path d="M38.9909 164.476C39.1461 165.475 38.8981 166.495 38.3013 167.312C37.7046 168.128 36.8081 168.674 35.8089 168.83H35.7055L34.5108 169.025L34.6544 170.019L34.7348 170.501L35.1024 170.444L36.0329 170.306C36.0671 170.311 36.102 170.311 36.1363 170.306C37.5023 170.064 38.72 169.298 39.5299 168.172C40.3399 167.045 40.6782 165.647 40.4728 164.275L40.2545 162.908C40.2112 162.605 40.1077 162.313 39.9501 162.05C39.7925 161.788 39.5839 161.559 39.3366 161.378C39.0894 161.197 38.8085 161.068 38.5104 160.997C38.2123 160.926 37.9031 160.916 37.6009 160.967L36.2798 161.173L34.2695 161.484L34.4993 162.954L36.3258 162.667L37.8307 162.437C38.0499 162.404 38.2734 162.459 38.4521 162.59C38.6307 162.722 38.7501 162.919 38.7841 163.138L38.9909 164.476Z" fill="white"/>
</g>
<path d="M33.4189 171.983L26.6126 173.046C24.5161 173.373 22.0175 169.278 20.4438 163.046L20.415 162.919L36.2391 160.449V160.582C36.6756 166.992 35.5154 171.656 33.4189 171.983Z" fill="#407BFF"/>
<path opacity="0.6" d="M20.415 162.925L20.4495 163.04C20.9527 165.196 21.6884 167.292 22.6436 169.289C23.9187 171.817 25.3432 173.241 26.6068 173.046L33.4189 171.977C34.0852 171.874 34.6596 171.346 35.1076 170.449C35.1642 170.346 35.2141 170.238 35.2569 170.128C35.4426 169.713 35.5925 169.282 35.7049 168.841C36.1905 166.811 36.3991 164.724 36.3252 162.638C36.3252 162.155 36.3252 161.662 36.2793 161.145C36.2793 160.961 36.2793 160.777 36.2448 160.57V160.444L20.415 162.925Z" fill="white"/>
<path opacity="0.1" d="M22.6436 169.289C23.9187 171.816 25.3431 173.241 26.6067 173.046L33.4188 171.977C34.0851 171.874 34.6595 171.345 35.1075 170.449L36.038 170.312C36.0723 170.317 36.1071 170.317 36.1414 170.312C35.8657 170.254 35.567 170.208 35.2568 170.151L34.6825 170.047C31.4085 169.496 26.6125 168.91 22.6436 169.289Z" fill="black"/>
<path d="M23.5109 180.001H24.8263V178.508H23.5109C22.5039 178.5 21.5406 178.095 20.8306 177.381C20.1207 176.667 19.7215 175.701 19.7201 174.694V173.31C19.7201 173.089 19.8078 172.877 19.964 172.721C20.1202 172.565 20.332 172.477 20.5529 172.477H23.9245V170.984H20.5299C19.9184 170.993 19.335 171.242 18.9052 171.677C18.4755 172.112 18.2339 172.698 18.2324 173.31V174.694C18.2339 176.096 18.7896 177.441 19.7784 178.435C20.7671 179.429 22.1088 179.992 23.5109 180.001Z" fill="#407BFF"/>
<g opacity="0.5">
<path d="M23.5109 180.001H24.8263V178.508H23.5109C22.5039 178.5 21.5406 178.095 20.8306 177.381C20.1207 176.667 19.7215 175.701 19.7201 174.694V173.31C19.7201 173.089 19.8078 172.877 19.964 172.721C20.1202 172.565 20.332 172.477 20.5529 172.477H23.9245V170.984H20.5299C19.9184 170.993 19.335 171.242 18.9052 171.677C18.4755 172.112 18.2339 172.698 18.2324 173.31V174.694C18.2339 176.096 18.7896 177.441 19.7784 178.435C20.7671 179.429 22.1088 179.992 23.5109 180.001Z" fill="white"/>
</g>
<path d="M26.3603 181.253H33.2529C35.378 181.253 37.239 176.825 37.8019 170.426V170.3H21.7998V170.426C22.3742 176.825 24.2409 181.253 26.3603 181.253Z" fill="#407BFF"/>
<path opacity="0.6" d="M26.3603 181.253H33.2529C35.378 181.253 37.239 176.825 37.8019 170.426V170.3H21.7998V170.426C22.3742 176.825 24.2409 181.253 26.3603 181.253Z" fill="white"/>
<path opacity="0.4" d="M27.6465 153.293C28.33 153.344 28.1577 155.682 28.6114 156.078C29.0652 156.475 29.2375 153.976 29.8061 154.149C30.3748 154.321 31.0181 154.803 31.581 153.574L27.6465 153.293Z" fill="black"/>
<path opacity="0.4" d="M21.0645 162.782C21.0645 162.782 21.4033 165.165 21.7997 165.194C22.196 165.223 21.8858 163.178 22.4372 163.35C22.9886 163.522 23.6549 162.42 23.6549 162.42L21.0645 162.782Z" fill="black"/>
<path d="M50.0928 176.974V180.174C50.0928 180.995 51.0635 181.322 51.8733 181.322H115.842C116.663 181.322 117.651 180.989 117.651 180.174V176.974H50.0928Z" fill="#263238"/>
<path opacity="0.4" d="M50.0928 176.974V180.174C50.0928 180.995 51.0635 181.322 51.8733 181.322H115.842C116.663 181.322 117.651 180.989 117.651 180.174V176.974H50.0928Z" fill="white"/>
<path opacity="0.2" d="M50.0928 176.974V180.174C50.0928 180.995 51.0635 181.322 51.8733 181.322H94.067C94.8826 181.322 95.859 180.989 95.859 180.174V176.974H50.0928Z" fill="black"/>
<path d="M39.3924 143.735L47.0086 178.278C47.1465 178.832 47.4633 179.325 47.9099 179.68C48.3565 180.035 48.9079 180.233 49.4784 180.243H91.0805C91.3424 180.239 91.5999 180.175 91.8326 180.054C92.0652 179.934 92.2665 179.761 92.4204 179.549C92.5744 179.337 92.6767 179.092 92.7193 178.833C92.7619 178.575 92.7436 178.31 92.6658 178.06L85.0553 143.781C84.8026 142.632 83.7055 142.093 82.5855 142.093H40.9719C39.8232 142.104 39.1454 142.609 39.3924 143.735Z" fill="#263238"/>
<path opacity="0.4" d="M39.3924 143.735L47.0086 178.278C47.1465 178.832 47.4633 179.325 47.9099 179.68C48.3565 180.035 48.9079 180.233 49.4784 180.243H89.6847C89.9444 180.237 90.1992 180.171 90.4292 180.051C90.6593 179.93 90.8583 179.758 91.0107 179.548C91.1631 179.337 91.2648 179.095 91.3078 178.839C91.3508 178.583 91.3339 178.32 91.2585 178.071L83.6423 143.793C83.3953 142.644 82.2868 142.104 81.1725 142.104H40.9719C39.8232 142.104 39.1454 142.609 39.3924 143.735Z" fill="white"/>
<path opacity="0.2" d="M59.9268 161.294C59.9268 164.246 63.0973 166.653 65.4178 166.653C67.7383 166.653 69.1225 164.246 68.462 161.294C67.8014 158.342 65.4867 156.033 63.2122 155.941C63.8727 158.899 62.454 161.294 60.1393 161.294C60.0686 161.301 59.9974 161.301 59.9268 161.294Z" fill="black"/>
<path d="M219.241 182.437H11.2539V192.741H219.241V182.437Z" fill="#263238"/>
<path opacity="0.5" d="M219.241 182.437H11.2539V192.741H219.241V182.437Z" fill="white"/>
<path d="M221.492 181.443H9.00789C8.36711 181.443 7.84766 181.962 7.84766 182.603V184.269C7.84766 184.91 8.36711 185.429 9.00789 185.429H221.492C222.133 185.429 222.653 184.91 222.653 184.269V182.603C222.653 181.962 222.133 181.443 221.492 181.443Z" fill="#263238"/>
<path opacity="0.6" d="M221.492 181.443H9.00789C8.36711 181.443 7.84766 181.962 7.84766 182.603V184.269C7.84766 184.91 8.36711 185.429 9.00789 185.429H221.492C222.133 185.429 222.653 184.91 222.653 184.269V182.603C222.653 181.962 222.133 181.443 221.492 181.443Z" fill="white"/>
<path d="M174.003 165.688H201.344V159.243H174.003V165.688Z" fill="#407BFF"/>
<path opacity="0.7" d="M174.003 165.688H201.344V159.243H174.003V165.688Z" fill="white"/>
<path d="M190.77 158.646H212.188C213.175 158.684 214.108 159.103 214.793 159.815C215.477 160.526 215.86 161.475 215.86 162.463C215.86 163.45 215.477 164.399 214.793 165.111C214.108 165.822 213.175 166.241 212.188 166.279H190.77V164.884H194.026C194.648 164.853 195.234 164.585 195.663 164.134C196.093 163.684 196.332 163.085 196.332 162.463C196.332 161.84 196.093 161.242 195.663 160.791C195.234 160.34 194.648 160.072 194.026 160.042H190.77V158.646Z" fill="#407BFF"/>
<g opacity="0.4">
<path d="M190.77 158.646H212.188C213.175 158.684 214.108 159.103 214.793 159.815C215.477 160.526 215.86 161.475 215.86 162.463C215.86 163.45 215.477 164.399 214.793 165.111C214.108 165.822 213.175 166.241 212.188 166.279H190.77V164.884H194.026C194.648 164.853 195.234 164.585 195.663 164.134C196.093 163.684 196.332 163.085 196.332 162.463C196.332 161.84 196.093 161.242 195.663 160.791C195.234 160.34 194.648 160.072 194.026 160.042H190.77V158.646Z" fill="white"/>
</g>
<path d="M172.607 158.646H194.026C195.013 158.684 195.946 159.103 196.631 159.815C197.315 160.526 197.697 161.475 197.697 162.463C197.697 163.45 197.315 164.399 196.631 165.111C195.946 165.822 195.013 166.241 194.026 166.279H172.607V164.884H194.026C194.648 164.853 195.234 164.585 195.663 164.134C196.092 163.684 196.332 163.085 196.332 162.463C196.332 161.84 196.092 161.242 195.663 160.791C195.234 160.34 194.648 160.072 194.026 160.042H172.607V158.646Z" fill="#407BFF"/>
<g opacity="0.2">
<path d="M172.607 158.646H194.026C195.013 158.684 195.946 159.103 196.631 159.815C197.315 160.526 197.697 161.475 197.697 162.463C197.697 163.45 197.315 164.399 196.631 165.111C195.946 165.822 195.013 166.241 194.026 166.279H172.607V164.884H194.026C194.648 164.853 195.234 164.585 195.663 164.134C196.092 163.684 196.332 163.085 196.332 162.463C196.332 161.84 196.092 161.242 195.663 160.791C195.234 160.34 194.648 160.072 194.026 160.042H172.607V158.646Z" fill="white"/>
</g>
<path d="M213.209 151.61H185.869V158.055H213.209V151.61Z" fill="#407BFF"/>
<path opacity="0.7" d="M213.209 151.61H185.869V158.055H213.209V151.61Z" fill="white"/>
<path d="M196.443 151.018H175.031C174.53 151.018 174.034 151.117 173.571 151.309C173.108 151.5 172.688 151.781 172.334 152.135C171.98 152.49 171.699 152.91 171.507 153.373C171.315 153.835 171.217 154.331 171.217 154.832C171.217 155.333 171.315 155.829 171.507 156.292C171.699 156.754 171.98 157.175 172.334 157.529C172.688 157.883 173.108 158.164 173.571 158.356C174.034 158.547 174.53 158.646 175.031 158.646H196.443V157.25H193.181C192.54 157.25 191.925 156.996 191.471 156.542C191.018 156.089 190.763 155.473 190.763 154.832C190.763 154.191 191.018 153.576 191.471 153.122C191.925 152.669 192.54 152.414 193.181 152.414H196.432L196.443 151.018Z" fill="#407BFF"/>
<g opacity="0.4">
<path d="M196.443 151.018H175.031C174.53 151.018 174.034 151.117 173.571 151.309C173.108 151.5 172.688 151.781 172.334 152.135C171.98 152.49 171.699 152.91 171.507 153.373C171.315 153.835 171.217 154.331 171.217 154.832C171.217 155.333 171.315 155.829 171.507 156.292C171.699 156.754 171.98 157.175 172.334 157.529C172.688 157.883 173.108 158.164 173.571 158.356C174.034 158.547 174.53 158.646 175.031 158.646H196.443V157.25H193.181C192.54 157.25 191.925 156.996 191.471 156.542C191.018 156.089 190.763 155.473 190.763 154.832C190.763 154.191 191.018 153.576 191.471 153.122C191.925 152.669 192.54 152.414 193.181 152.414H196.432L196.443 151.018Z" fill="black"/>
</g>
<path d="M214.605 151.018H193.181C192.17 151.018 191.199 151.42 190.484 152.135C189.769 152.851 189.367 153.821 189.367 154.832C189.367 155.844 189.769 156.814 190.484 157.529C191.199 158.244 192.17 158.646 193.181 158.646H214.605V157.25H193.181C192.54 157.25 191.925 156.996 191.471 156.542C191.018 156.089 190.763 155.473 190.763 154.832C190.763 154.191 191.018 153.576 191.471 153.122C191.925 152.669 192.54 152.414 193.181 152.414H214.605V151.018Z" fill="#407BFF"/>
<g opacity="0.2">
<path d="M214.605 151.018H193.181C192.17 151.018 191.199 151.42 190.484 152.135C189.769 152.851 189.367 153.821 189.367 154.832C189.367 155.844 189.769 156.814 190.484 157.529C191.199 158.244 192.17 158.646 193.181 158.646H214.605V157.25H193.181C192.54 157.25 191.925 156.996 191.471 156.542C191.018 156.089 190.763 155.473 190.763 154.832C190.763 154.191 191.018 153.576 191.471 153.122C191.925 152.669 192.54 152.414 193.181 152.414H214.605V151.018Z" fill="black"/>
</g>
<path d="M168.392 173.316H195.732V166.871H168.392V173.316Z" fill="#407BFF"/>
<path opacity="0.7" d="M168.392 173.316H195.732V166.871H168.392V173.316Z" fill="white"/>
<path d="M185.141 166.28H206.553C207.054 166.28 207.55 166.378 208.013 166.57C208.476 166.762 208.896 167.042 209.25 167.397C209.604 167.751 209.885 168.171 210.077 168.634C210.269 169.097 210.367 169.593 210.367 170.093C210.367 170.594 210.269 171.09 210.077 171.553C209.885 172.016 209.604 172.436 209.25 172.79C208.896 173.144 208.476 173.425 208.013 173.617C207.55 173.809 207.054 173.907 206.553 173.907H185.141V172.512H188.392C189.033 172.512 189.648 172.257 190.101 171.803C190.555 171.35 190.81 170.735 190.81 170.093C190.81 169.452 190.555 168.837 190.101 168.384C189.648 167.93 189.033 167.675 188.392 167.675H185.141V166.28Z" fill="#263238"/>
<g opacity="0.2">
<path d="M185.141 166.28H206.553C207.054 166.28 207.55 166.378 208.013 166.57C208.476 166.762 208.896 167.042 209.25 167.397C209.604 167.751 209.885 168.171 210.077 168.634C210.269 169.097 210.367 169.593 210.367 170.093C210.367 170.594 210.269 171.09 210.077 171.553C209.885 172.016 209.604 172.436 209.25 172.79C208.896 173.144 208.476 173.425 208.013 173.617C207.55 173.809 207.054 173.907 206.553 173.907H185.141V172.512H188.392C189.033 172.512 189.648 172.257 190.101 171.803C190.555 171.35 190.81 170.735 190.81 170.093C190.81 169.452 190.555 168.837 190.101 168.384C189.648 167.93 189.033 167.675 188.392 167.675H185.141V166.28Z" fill="white"/>
</g>
<path d="M166.99 166.28H188.409C189.42 166.28 190.39 166.681 191.106 167.397C191.821 168.112 192.223 169.082 192.223 170.093C192.223 171.105 191.821 172.075 191.106 172.79C190.39 173.505 189.42 173.907 188.409 173.907H166.99V172.512H188.409C189.05 172.512 189.665 172.257 190.119 171.803C190.572 171.35 190.827 170.735 190.827 170.093C190.827 169.452 190.572 168.837 190.119 168.384C189.665 167.93 189.05 167.675 188.409 167.675H166.99V166.28Z" fill="#263238"/>
<g opacity="0.4">
<path d="M166.99 166.28H188.409C189.42 166.28 190.39 166.681 191.106 167.397C191.821 168.112 192.223 169.082 192.223 170.093C192.223 171.105 191.821 172.075 191.106 172.79C190.39 173.505 189.42 173.907 188.409 173.907H166.99V172.512H188.409C189.05 172.512 189.665 172.257 190.119 171.803C190.572 171.35 190.827 170.735 190.827 170.093C190.827 169.452 190.572 168.837 190.119 168.384C189.665 167.93 189.05 167.675 188.409 167.675H166.99V166.28Z" fill="white"/>
</g>
<path d="M212.522 174.499H185.182V180.943H212.522V174.499Z" fill="#407BFF"/>
<path opacity="0.7" d="M212.522 174.499H185.182V180.943H212.522V174.499Z" fill="white"/>
<path d="M213.922 173.907H192.504C191.517 173.946 190.583 174.364 189.899 175.076C189.214 175.788 188.832 176.737 188.832 177.724C188.832 178.711 189.214 179.66 189.899 180.372C190.583 181.084 191.517 181.502 192.504 181.541H213.922V180.145H192.504C191.882 180.115 191.296 179.846 190.866 179.396C190.437 178.945 190.198 178.346 190.198 177.724C190.198 177.102 190.437 176.503 190.866 176.052C191.296 175.602 191.882 175.333 192.504 175.303H213.922V173.907Z" fill="#263238"/>
<path d="M195.754 173.907H174.341C173.355 173.946 172.421 174.364 171.737 175.076C171.052 175.788 170.67 176.737 170.67 177.724C170.67 178.711 171.052 179.66 171.737 180.372C172.421 181.084 173.355 181.502 174.341 181.541H195.754V180.145H192.503C191.882 180.115 191.295 179.846 190.866 179.396C190.437 178.945 190.197 178.346 190.197 177.724C190.197 177.102 190.437 176.503 190.866 176.052C191.295 175.602 191.882 175.333 192.503 175.303H195.754V173.907Z" fill="#263238"/>
<g opacity="0.4">
<path d="M213.922 173.907H192.504C191.517 173.946 190.583 174.364 189.899 175.076C189.214 175.788 188.832 176.737 188.832 177.724C188.832 178.711 189.214 179.66 189.899 180.372C190.583 181.084 191.517 181.502 192.504 181.541H213.922V180.145H192.504C191.882 180.115 191.296 179.846 190.866 179.396C190.437 178.945 190.198 178.346 190.198 177.724C190.198 177.102 190.437 176.503 190.866 176.052C191.296 175.602 191.882 175.333 192.504 175.303H213.922V173.907Z" fill="white"/>
</g>
<path d="M170.798 150.427H198.139V143.982H170.798V150.427Z" fill="#407BFF"/>
<path opacity="0.7" d="M170.798 150.427H198.139V143.982H170.798V150.427Z" fill="white"/>
<path d="M169.402 151.018H190.815C191.329 151.038 191.841 150.954 192.322 150.772C192.802 150.589 193.241 150.311 193.611 149.954C193.982 149.598 194.276 149.171 194.478 148.698C194.679 148.225 194.783 147.716 194.783 147.202C194.783 146.688 194.679 146.179 194.478 145.706C194.276 145.233 193.982 144.805 193.611 144.449C193.241 144.093 192.802 143.815 192.322 143.632C191.841 143.449 191.329 143.365 190.815 143.385H169.402V144.781H190.815C191.143 144.765 191.471 144.815 191.778 144.93C192.086 145.044 192.367 145.22 192.605 145.447C192.842 145.673 193.032 145.945 193.161 146.247C193.29 146.549 193.357 146.873 193.357 147.202C193.357 147.53 193.29 147.855 193.161 148.156C193.032 148.458 192.842 148.73 192.605 148.957C192.367 149.183 192.086 149.359 191.778 149.473C191.471 149.588 191.143 149.639 190.815 149.623H169.402V151.018Z" fill="#263238"/>
<path d="M187.564 151.018H208.983C209.97 150.98 210.903 150.561 211.588 149.85C212.272 149.138 212.654 148.189 212.654 147.202C212.654 146.214 212.272 145.265 211.588 144.554C210.903 143.842 209.97 143.423 208.983 143.385H187.564V144.781H190.815C191.143 144.765 191.471 144.816 191.779 144.93C192.086 145.044 192.367 145.22 192.605 145.447C192.843 145.673 193.032 145.945 193.161 146.247C193.291 146.549 193.357 146.873 193.357 147.202C193.357 147.53 193.291 147.855 193.161 148.156C193.032 148.458 192.843 148.73 192.605 148.957C192.367 149.183 192.086 149.359 191.779 149.473C191.471 149.588 191.143 149.639 190.815 149.623H187.564V151.018Z" fill="#263238"/>
<g opacity="0.4">
<path d="M169.402 151.018H190.815C191.329 151.038 191.841 150.954 192.322 150.772C192.802 150.589 193.241 150.311 193.611 149.954C193.982 149.598 194.276 149.171 194.478 148.698C194.679 148.225 194.783 147.716 194.783 147.202C194.783 146.688 194.679 146.179 194.478 145.706C194.276 145.233 193.982 144.805 193.611 144.449C193.241 144.093 192.802 143.815 192.322 143.632C191.841 143.449 191.329 143.365 190.815 143.385H169.402V144.781H190.815C191.143 144.765 191.471 144.815 191.778 144.93C192.086 145.044 192.367 145.22 192.605 145.447C192.842 145.673 193.032 145.945 193.161 146.247C193.29 146.549 193.357 146.873 193.357 147.202C193.357 147.53 193.29 147.855 193.161 148.156C193.032 148.458 192.842 148.73 192.605 148.957C192.367 149.183 192.086 149.359 191.778 149.473C191.471 149.588 191.143 149.639 190.815 149.623H169.402V151.018Z" fill="white"/>
</g>
<g opacity="0.2">
<path d="M168.387 168.29L188.231 168.502L168.387 168.721V168.29Z" fill="black"/>
<path d="M168.387 169.347L181.586 169.565L168.387 169.777V169.347Z" fill="black"/>
<path d="M168.387 170.409L190.087 170.622L168.387 170.84V170.409Z" fill="black"/>
<path d="M168.387 171.466L187.111 171.679L168.387 171.897V171.466Z" fill="black"/>
</g>
<g opacity="0.2">
<path d="M174.004 160.656L193.849 160.875L174.004 161.087V160.656Z" fill="black"/>
<path d="M174.004 161.719L187.203 161.932L174.004 162.15V161.719Z" fill="black"/>
<path d="M174.004 162.776L195.698 162.994L174.004 163.207V162.776Z" fill="black"/>
<path d="M174.004 163.839L192.723 164.051L174.004 164.269V163.839Z" fill="black"/>
</g>
<g opacity="0.2">
<path d="M170.734 145.395L190.585 145.614L170.734 145.826V145.395Z" fill="black"/>
<path d="M170.734 146.458L183.934 146.67L170.734 146.889V146.458Z" fill="black"/>
<path d="M170.734 147.515L192.434 147.733L170.734 147.945V147.515Z" fill="black"/>
<path d="M170.734 148.577L189.459 148.79L170.734 149.008V148.577Z" fill="black"/>
</g>
<g opacity="0.2">
<path d="M212.47 179.553L192.625 179.335L212.47 179.123V179.553Z" fill="black"/>
<path d="M212.469 178.491L199.27 178.278L212.469 178.06V178.491Z" fill="black"/>
<path d="M212.47 177.434L190.775 177.221L212.47 177.003V177.434Z" fill="black"/>
<path d="M212.469 176.377L193.744 176.159L212.469 175.946V176.377Z" fill="black"/>
</g>
<g opacity="0.2">
<path d="M213.216 156.636L193.365 156.418L213.216 156.205V156.636Z" fill="black"/>
<path d="M213.215 155.579L200.016 155.361L213.215 155.148V155.579Z" fill="black"/>
<path d="M213.216 154.516L191.516 154.304L213.216 154.086V154.516Z" fill="black"/>
<path d="M213.215 153.46L194.49 153.241L213.215 153.029V153.46Z" fill="black"/>
</g>
<path d="M171.965 177.532C171.965 177.532 164.039 173.551 159.668 173.436H118.434L120.961 181.34L138.617 180.725L171.219 180.248L171.965 177.532Z" fill="#407BFF"/>
<path opacity="0.7" d="M171.965 177.532C171.965 177.532 164.039 173.551 159.668 173.436H118.434L120.961 181.34L138.617 180.725L171.219 180.248L171.965 177.532Z" fill="white"/>
<path d="M107.312 177.922C107.312 177.922 111.959 174.057 117.588 173.494C123.217 172.931 125.187 177.353 125.187 177.353C125.187 177.353 127.864 173.672 132.08 173.442C136.295 173.212 144.934 177.532 144.934 177.532L144.216 180.248L107.766 180.782L107.312 177.922Z" fill="#407BFF"/>
<path opacity="0.6" d="M107.312 177.922C107.312 177.922 111.959 174.057 117.588 173.494C123.217 172.931 125.187 177.353 125.187 177.353C125.187 177.353 127.864 173.672 132.08 173.442C136.295 173.212 144.934 177.532 144.934 177.532L144.216 180.248L107.766 180.782L107.312 177.922Z" fill="white"/>
<path opacity="0.2" d="M171.964 177.531L171.821 178.066L171.729 178.405L171.235 180.248H144.188L144.498 179.071L144.601 178.715L144.911 177.531H171.964Z" fill="black"/>
<g opacity="0.2">
<path d="M144.188 177.853C142.62 177.164 141.015 176.562 139.381 176.05C137.768 175.497 136.097 175.131 134.401 174.958C132.706 174.87 131.017 175.218 129.496 175.969C127.953 176.682 126.511 177.593 125.205 178.68L125.067 178.789L124.952 178.657C123.923 177.479 122.682 176.505 121.293 175.785C120.599 175.423 119.856 175.164 119.088 175.016C118.327 174.888 117.551 174.888 116.79 175.016C115.241 175.319 113.732 175.798 112.293 176.446C110.832 177.056 109.407 177.751 108.025 178.525C109.374 177.719 110.766 176.989 112.195 176.337C113.638 175.651 115.155 175.134 116.716 174.797C117.51 174.639 118.326 174.617 119.128 174.734C119.927 174.883 120.7 175.144 121.426 175.51C122.862 176.246 124.147 177.248 125.211 178.462H124.958C126.292 177.356 127.768 176.432 129.346 175.716C130.92 174.951 132.666 174.608 134.412 174.723C136.123 174.934 137.805 175.337 139.427 175.923C141.049 176.477 142.638 177.121 144.188 177.853Z" fill="black"/>
</g>
<g opacity="0.2">
<path d="M108.301 178.887C109.634 178.269 111.008 177.744 112.413 177.313C113.823 176.876 115.274 176.589 116.744 176.457C118.229 176.34 119.722 176.488 121.155 176.894C122.59 177.284 123.948 177.911 125.176 178.749H124.992C126.442 178.079 127.947 177.535 129.489 177.124C131.026 176.66 132.631 176.466 134.234 176.549C135.819 176.696 137.393 176.952 138.944 177.313C140.475 177.673 142.007 178.085 143.539 178.548C142.005 178.146 140.46 177.79 138.904 177.491C137.359 177.16 135.793 176.939 134.217 176.831C132.648 176.764 131.08 176.958 129.576 177.405C128.058 177.827 126.577 178.371 125.147 179.031L125.05 179.071L124.963 179.013C123.773 178.187 122.45 177.569 121.052 177.187C119.653 176.786 118.197 176.623 116.744 176.704C115.288 176.806 113.846 177.058 112.442 177.457C111.032 177.842 109.648 178.319 108.301 178.887Z" fill="black"/>
</g>
<g opacity="0.2">
<path d="M110.127 178.887C112.589 178.326 115.11 178.069 117.634 178.123C118.899 178.133 120.161 178.228 121.413 178.404C122.666 178.575 123.907 178.82 125.13 179.14H125.055C126.462 178.887 127.881 178.726 129.3 178.565C130.718 178.404 132.137 178.318 133.567 178.272C134.997 178.226 136.439 178.244 137.841 178.318C139.262 178.42 140.676 178.612 142.074 178.893C139.26 178.498 136.414 178.392 133.579 178.577C130.744 178.72 127.919 179.023 125.118 179.484H125.038C123.831 179.157 122.605 178.904 121.367 178.726C120.128 178.547 118.88 178.434 117.628 178.387C116.374 178.337 115.118 178.357 113.866 178.445C112.611 178.509 111.362 178.657 110.127 178.887Z" fill="black"/>
</g>
<g opacity="0.2">
<path d="M171.822 178.066L171.73 178.405L145.809 178.238L171.822 178.066Z" fill="black"/>
</g>
<g opacity="0.2">
<path d="M169.311 178.893L144.498 179.071L144.601 178.715L169.311 178.893Z" fill="black"/>
</g>
<path d="M124.062 179.783C124.062 179.783 124.2 177.583 125.211 177.382C126.222 177.181 126.136 179.783 126.136 179.783H124.062Z" fill="#263238"/>
<path d="M173.177 179.306H105.613V181.443H173.177V179.306Z" fill="#263238"/>
<path opacity="0.2" d="M173.177 179.306H105.613V181.443H173.177V179.306Z" fill="white"/>
<path opacity="0.2" d="M173.183 179.306H146.158V181.443H173.183V179.306Z" fill="black"/>
<path d="M165.641 183.562L163.918 178.898L165.641 175.142H168.972L172.212 171.248H176.715C177.565 171.248 181.31 173.993 181.31 173.993C181.31 173.993 181.011 176.716 181.31 177.038C181.609 177.359 183.223 178.898 183.223 178.898L181.873 180.047V182.655L181.299 183.695L176.704 183.407C176.078 183.205 175.405 183.205 174.779 183.407C173.631 183.735 172.74 185.32 171.908 184.929C171.075 184.539 165.641 183.562 165.641 183.562Z" fill="#407BFF"/>
<path opacity="0.7" d="M183.223 178.904L181.878 180.053V182.655L181.304 183.7L176.709 183.407C176.084 183.202 175.41 183.202 174.785 183.407C173.636 183.741 172.746 185.32 171.913 184.935C171.08 184.55 165.629 183.563 165.629 183.563L163.906 178.91L165.629 175.148H168.961L172.2 171.254H176.703C177.548 171.254 181.298 173.993 181.298 173.993C181.183 174.946 181.162 175.908 181.235 176.865C181.246 176.921 181.268 176.973 181.298 177.02C181.609 177.359 183.223 178.904 183.223 178.904Z" fill="white"/>
<path opacity="0.4" d="M181.241 176.911L179.937 174.039L177.513 177.79L175.79 177.009V173.476L172.252 174.838L172.758 177.79L171.701 180.087L167.502 176.319L166.491 179.031L163.918 178.95L165.641 175.188H168.972L172.212 171.294H176.715C177.559 171.294 181.31 174.033 181.31 174.033C181.192 174.988 181.169 175.952 181.241 176.911Z" fill="white"/>
<path opacity="0.1" d="M165.641 183.557L167.726 183.057V178.433L171.804 181.879L174.101 176.566L175.348 178.64L178.076 178.898L179.799 177.124L180.707 178.025L179.73 179.789L180.707 180.489L181.89 180.036L180.546 180.932L179.397 180.265L178.087 179.352L174.986 178.881L173.9 180.357L174.865 181.305L174.767 179.794L177.094 182.586L178.07 180.955L176.519 180.656L178.403 180.616L178.639 181.133L177.26 182.856C177.26 182.856 174.865 181.874 175.003 181.868C175.141 181.862 172.614 184.114 172.614 184.114L169.512 183.04L169.477 180.512L168.231 183.384L165.641 183.66" fill="black"/>
<path d="M97.5025 179.335L97.3876 179.393L97.0889 179.576C97.0288 179.604 96.9711 179.637 96.9166 179.674L96.5318 179.921C96.4707 179.949 96.4129 179.984 96.3595 180.024L95.9804 180.266C95.6588 180.461 95.3084 180.679 94.9752 180.903C94.9063 180.949 94.8317 180.984 94.7685 181.035C94.7053 181.087 94.4985 181.213 94.3721 181.3L94.1769 181.426C93.7101 181.708 93.2732 182.037 92.873 182.408C92.8299 182.458 92.7772 182.499 92.7179 182.529C92.6837 182.535 92.6488 182.535 92.6146 182.529H92.4193C92.0658 182.455 91.7264 182.325 91.4141 182.144C90.9545 181.881 90.4466 181.713 89.9207 181.65C89.3452 181.611 88.7775 181.801 88.3412 182.178L84.6824 183.729L83.8094 182.85L82.7985 180.266L81.2477 179.513C81.2477 179.513 81.4315 179.025 81.6267 178.474C81.6784 178.347 81.7244 178.204 81.7818 178.072C81.8004 178.001 81.8234 177.932 81.8508 177.865C81.9197 177.669 81.9829 177.497 82.0231 177.365L82.1035 177.135C82.1063 177.114 82.1063 177.093 82.1035 177.072C82.1035 177.043 82.1035 177.003 82.1035 176.963C82.022 176.634 81.9125 176.314 81.7761 176.004C81.6153 175.607 81.4257 175.182 81.2649 174.855C81.2189 174.746 81.1672 174.642 81.1213 174.551C81.1189 174.529 81.1088 174.508 81.0926 174.493C81.0179 174.332 80.9662 174.223 80.9375 174.172C81.0581 173.942 82.9593 170.415 83.6371 170.203L87.3418 168.962L88.2838 169.628L91.5118 171.926L94.2515 171.012L97.1234 174.263L97.5025 179.335Z" fill="#407BFF"/>
<path opacity="0.7" d="M97.4919 179.341L97.3828 179.416L97.0841 179.599C97.024 179.627 96.9663 179.66 96.9118 179.697L96.527 179.944C96.4659 179.972 96.4081 180.007 96.3547 180.047C96.236 180.116 96.1096 180.197 95.9756 180.289C95.6539 180.484 95.3036 180.702 94.9704 180.926C94.9015 180.972 94.8268 181.007 94.7636 181.058C94.7005 181.11 94.4937 181.236 94.3673 181.322L94.172 181.449C93.7052 181.731 93.2684 182.06 92.8682 182.431C92.8251 182.481 92.7724 182.522 92.7131 182.552C92.6789 182.558 92.6439 182.558 92.6097 182.552H92.4145C92.061 182.478 91.7216 182.348 91.4093 182.167C90.9497 181.904 90.4418 181.736 89.9159 181.673C89.3403 181.634 88.7727 181.824 88.3364 182.201L84.6776 183.752L83.8046 182.873L82.7937 180.289L81.2428 179.536C81.2428 179.536 81.4266 179.048 81.6219 178.497C81.6736 178.37 81.7196 178.227 81.777 178.094C81.7956 178.024 81.8186 177.955 81.8459 177.888C81.9091 177.692 81.978 177.52 82.0183 177.388L82.0987 177.158C82.1015 177.137 82.1015 177.116 82.0987 177.095C82.0987 177.066 82.0987 177.026 82.0987 176.986C82.0172 176.657 81.9076 176.336 81.7713 176.027C81.6104 175.63 81.4209 175.205 81.2601 174.878C81.2141 174.769 81.1624 174.665 81.1165 174.574C81.1141 174.552 81.1039 174.531 81.0878 174.516C81.0131 174.355 80.9614 174.246 80.9327 174.194C81.0533 173.965 82.9545 170.438 83.6322 170.225L87.337 168.985L88.2789 169.651L91.5069 171.949L94.241 171.035L97.1128 174.275L97.4919 179.341Z" fill="white"/>
<path opacity="0.4" d="M97.5023 179.335L94.8199 178.979L96.0319 174.258L93.3495 174.947L91.9136 172.523L89.1853 171.535L91.6724 174.648L90.0584 176.71L84.6822 172.115L85.7333 175.688L80.9258 174.166C81.0464 173.936 82.9476 170.409 83.6253 170.197L87.3301 168.956L88.2721 169.622L91.5 171.92L94.2398 171.007L97.1117 174.258L97.5023 179.335Z" fill="white"/>
<path opacity="0.1" d="M89.9153 181.707C89.3397 181.668 88.772 181.858 88.3357 182.236L84.677 183.786L83.8039 182.908L82.793 180.323L81.2422 179.571C81.2422 179.571 81.426 179.082 81.6213 178.531C81.673 178.405 81.7189 178.261 81.7764 178.129C81.7949 178.059 81.818 177.99 81.8453 177.922C81.9085 177.727 81.9774 177.555 82.0176 177.422L82.098 177.193L87.5488 177.813L87.3995 176.308L90.2714 178.56L87.3306 179.295L87.4512 180.627H89.3811L89.9153 181.707Z" fill="black"/>
<path opacity="0.1" d="M92.5734 182.58H92.4126C92.0591 182.507 91.7198 182.377 91.4074 182.195C90.9478 181.932 90.44 181.764 89.9141 181.702L92.5332 179.978L92.0909 177.486L94.2104 177.267C94.2104 177.267 93.2914 179.938 93.4465 180.001C93.6016 180.065 92.4241 182.523 92.5734 182.58Z" fill="black"/>
<path d="M68.083 177.612L68.1175 177.681L68.2094 177.882C68.232 177.918 68.2512 177.957 68.2668 177.997L68.3817 178.261C68.4047 178.296 68.4221 178.335 68.4334 178.376L68.5483 178.634C68.6459 178.852 68.755 179.088 68.8469 179.329C68.8714 179.375 68.8925 179.423 68.9101 179.473C68.9503 179.559 68.9905 179.657 69.025 179.743L69.0824 179.881C69.2277 180.194 69.3412 180.521 69.4213 180.857C69.4224 180.9 69.4364 180.942 69.4615 180.978C69.4732 180.994 69.4867 181.01 69.5017 181.024C69.5254 181.051 69.5548 181.072 69.5879 181.087C69.798 181.174 70.0212 181.227 70.2484 181.242C70.5828 181.268 70.9087 181.36 71.2076 181.512C71.5212 181.695 71.7501 181.994 71.8452 182.345L73.2122 184.453L73.9818 184.298L75.4235 183.304L76.5034 183.459L76.6699 182.781C76.6699 182.695 76.7159 182.603 76.7331 182.511C76.7499 182.468 76.7634 182.424 76.7733 182.379C76.7733 182.253 76.8307 182.144 76.8595 182.057C76.8882 181.971 76.8882 181.943 76.8997 181.908C76.8974 181.897 76.8974 181.885 76.8997 181.874C76.9141 181.857 76.9275 181.84 76.9399 181.822C77.0993 181.68 77.2703 181.551 77.4511 181.437C77.6751 181.282 77.9278 181.127 78.1346 181.001C78.192 180.96 78.2609 180.926 78.3184 180.891C78.3758 180.857 78.3184 180.891 78.3528 180.891L78.5424 180.777C78.5424 180.616 78.8066 178.094 78.5424 177.744L77.0892 175.762H76.354L73.8555 175.82L72.7412 174.372L70.0933 175.062L68.083 177.612Z" fill="#407BFF"/>
<path opacity="0.7" d="M68.0889 177.618C68.0903 177.643 68.0903 177.667 68.0889 177.692L68.1808 177.893C68.2034 177.93 68.2226 177.968 68.2382 178.008L68.3531 178.272C68.3761 178.308 68.3935 178.347 68.4048 178.387C68.4476 178.471 68.4859 178.558 68.5196 178.646C68.6173 178.864 68.7264 179.1 68.8183 179.341C68.8428 179.387 68.8639 179.435 68.8815 179.484C68.9217 179.571 68.9619 179.668 68.9964 179.754L69.0538 179.892C69.1991 180.206 69.3126 180.533 69.3927 180.869C69.3938 180.912 69.4078 180.954 69.4329 180.989C69.4446 181.006 69.4581 181.021 69.4731 181.035C69.4967 181.062 69.5262 181.084 69.5593 181.098C69.7694 181.186 69.9926 181.238 70.2198 181.253C70.5542 181.279 70.8801 181.371 71.179 181.523C71.4925 181.707 71.7215 182.006 71.8166 182.356L73.1836 184.464L73.9532 184.309L75.3949 183.315L76.4747 183.471L76.6413 182.793C76.6413 182.707 76.6873 182.615 76.7045 182.523C76.7213 182.48 76.7347 182.436 76.7447 182.391C76.7792 182.27 76.8021 182.155 76.8309 182.069C76.8596 181.983 76.8596 181.954 76.8711 181.92C76.8687 181.908 76.8687 181.897 76.8711 181.885C76.8854 181.869 76.8989 181.852 76.9113 181.834C77.0707 181.691 77.2417 181.563 77.4225 181.449C77.6465 181.294 77.8992 181.139 78.106 181.012C78.1634 180.972 78.2323 180.938 78.2898 180.903C78.3472 180.869 78.2898 180.903 78.3242 180.903L78.5138 180.788C78.5138 180.627 78.778 178.106 78.5138 177.756L77.0893 175.762H76.3541L73.8556 175.826L72.7413 174.378L70.0934 175.062L68.0889 177.618Z" fill="white"/>
<path opacity="0.4" d="M68.083 177.612L69.6166 178.37L70.6505 175.469L71.7992 176.779L73.4075 176.015L75.188 176.463L72.7814 177.215L72.8963 178.87L77.3362 178.364L75.5269 179.863L78.5826 180.765C78.5826 180.604 78.8468 178.083 78.5826 177.732L77.0892 175.762H76.354L73.8555 175.82L72.7412 174.372L70.0933 175.062L68.083 177.612Z" fill="white"/>
<path opacity="0.1" d="M71.2246 181.535C71.5381 181.718 71.7671 182.017 71.8622 182.368L73.2292 184.476L73.9988 184.321L75.4405 183.327L76.5204 183.482L76.6869 182.804C76.6869 182.718 76.7329 182.626 76.7501 182.534C76.7669 182.491 76.7804 182.447 76.7903 182.402C76.8248 182.282 76.8477 182.167 76.8765 182.081C76.9052 181.994 76.9052 181.966 76.9167 181.931L73.838 180.358L74.4469 179.622L72.1494 179.783L73.4245 181.208L72.896 181.862L71.8909 181.173L71.2246 181.535Z" fill="black"/>
<path opacity="0.1" d="M69.5186 181.047C69.5422 181.074 69.5716 181.095 69.6047 181.11C69.8149 181.198 70.038 181.25 70.2652 181.265C70.5996 181.291 70.9256 181.383 71.2245 181.535L70.449 179.72L71.5978 178.537L70.5697 177.675C70.4299 178.265 70.2377 178.842 69.9953 179.398C69.8804 179.352 69.6162 181.075 69.5186 181.047Z" fill="black"/>
</g>
<defs>
<clipPath id="clip0_648_1127">
<rect width="228.793" height="200" fill="white" transform="translate(0 0.0776367)"/>
</clipPath>
</defs>
</svg>
