<svg width="241" height="200" viewBox="0 0 241 200" fill="none" xmlns="http://www.w3.org/2000/svg">
<path d="M239.941 181.895H220.007V182.045H239.941V181.895Z" fill="#EBEBEB"/>
<path d="M168.511 183.532H163.28V183.682H168.511V183.532Z" fill="#EBEBEB"/>
<path d="M219.404 176.31H207.854V176.46H219.404V176.31Z" fill="#EBEBEB"/>
<path d="M26.7281 177.321H0.733398V177.471H26.7281V177.321Z" fill="#EBEBEB"/>
<path d="M35.9007 177.321H32.0908V177.471H35.9007V177.321Z" fill="#EBEBEB"/>
<path d="M104.67 179.861H48.2871V180.011H104.67V179.861Z" fill="#EBEBEB"/>
<path d="M158.231 10.645H102.889V135.316H158.231V10.645Z" fill="#EBEBEB"/>
<path d="M156.142 132.981V12.9863L104.977 12.9863V132.981H156.142Z" fill="#FAFAFA"/>
<path d="M131.14 12.3845H129.967V134.149H131.14V12.3845Z" fill="#F5F5F5"/>
<path d="M159.506 9.02612H101.612V14.8943H159.506V9.02612Z" fill="#E0E0E0"/>
<path d="M159.506 15.5383H101.612V16.2365H159.506V15.5383Z" fill="#F5F5F5"/>
<path d="M159.506 17.1213H101.612V17.8195H159.506V17.1213Z" fill="#F5F5F5"/>
<path d="M159.506 18.6982H101.612V19.3964H159.506V18.6982Z" fill="#F5F5F5"/>
<path d="M159.506 20.2751H101.612V20.9733H159.506V20.2751Z" fill="#F5F5F5"/>
<path d="M159.506 21.8521H101.612V22.5502H159.506V21.8521Z" fill="#F5F5F5"/>
<path d="M159.506 23.4348H101.612V24.133H159.506V23.4348Z" fill="#F5F5F5"/>
<path d="M159.506 25.0117H101.612V25.7099H159.506V25.0117Z" fill="#F5F5F5"/>
<path d="M159.506 26.5886H101.612V27.2868H159.506V26.5886Z" fill="#F5F5F5"/>
<path d="M159.506 28.1655H101.612V28.8637H159.506V28.1655Z" fill="#F5F5F5"/>
<path d="M159.506 29.7485H101.612V30.4467H159.506V29.7485Z" fill="#F5F5F5"/>
<path d="M159.506 31.3254H101.612V32.0236H159.506V31.3254Z" fill="#F5F5F5"/>
<path d="M159.506 32.9023H101.612V33.6005H159.506V32.9023Z" fill="#F5F5F5"/>
<path d="M159.506 34.4792H101.612V35.1774H159.506V34.4792Z" fill="#F5F5F5"/>
<path d="M159.506 36.0562H101.612V36.7543H159.506V36.0562Z" fill="#F5F5F5"/>
<path d="M159.506 37.6389H101.612V38.3371H159.506V37.6389Z" fill="#F5F5F5"/>
<path d="M159.506 39.2158H101.612V39.914H159.506V39.2158Z" fill="#F5F5F5"/>
<path d="M159.506 40.7927H101.612V41.4909H159.506V40.7927Z" fill="#F5F5F5"/>
<path d="M159.506 42.3696H101.612V43.0678H159.506V42.3696Z" fill="#F5F5F5"/>
<path d="M223.75 10.645H168.408V135.316H223.75V10.645Z" fill="#EBEBEB"/>
<path d="M221.661 132.981V12.9863L170.496 12.9863V132.981H221.661Z" fill="#FAFAFA"/>
<path d="M196.66 12.3845H195.486V134.149H196.66V12.3845Z" fill="#F5F5F5"/>
<path d="M225.026 9.02612H167.132V14.8943H225.026V9.02612Z" fill="#E0E0E0"/>
<path d="M225.026 15.5383H167.132V16.2365H225.026V15.5383Z" fill="#F5F5F5"/>
<path d="M225.026 17.1213H167.132V17.8195H225.026V17.1213Z" fill="#F5F5F5"/>
<path d="M225.026 18.6982H167.132V19.3964H225.026V18.6982Z" fill="#F5F5F5"/>
<path d="M225.026 20.2751H167.132V20.9733H225.026V20.2751Z" fill="#F5F5F5"/>
<path d="M225.026 21.8521H167.132V22.5502H225.026V21.8521Z" fill="#F5F5F5"/>
<path d="M225.026 23.4348H167.132V24.133H225.026V23.4348Z" fill="#F5F5F5"/>
<path d="M225.026 25.0117H167.132V25.7099H225.026V25.0117Z" fill="#F5F5F5"/>
<path d="M225.026 26.5886H167.132V27.2868H225.026V26.5886Z" fill="#F5F5F5"/>
<path d="M225.026 28.1655H167.132V28.8637H225.026V28.1655Z" fill="#F5F5F5"/>
<path d="M225.026 29.7485H167.132V30.4467H225.026V29.7485Z" fill="#F5F5F5"/>
<path d="M225.026 31.3254H167.132V32.0236H225.026V31.3254Z" fill="#F5F5F5"/>
<path d="M225.026 32.9023H167.132V33.6005H225.026V32.9023Z" fill="#F5F5F5"/>
<path d="M225.026 34.4792H167.132V35.1774H225.026V34.4792Z" fill="#F5F5F5"/>
<path d="M225.026 36.0562H167.132V36.7543H225.026V36.0562Z" fill="#F5F5F5"/>
<path d="M225.026 37.6389H167.132V38.3371H225.026V37.6389Z" fill="#F5F5F5"/>
<path d="M225.026 39.2158H167.132V39.914H225.026V39.2158Z" fill="#F5F5F5"/>
<path d="M225.026 40.7927H167.132V41.4909H225.026V40.7927Z" fill="#F5F5F5"/>
<path d="M225.026 42.3696H167.132V43.0678H225.026V42.3696Z" fill="#F5F5F5"/>
<path d="M82.0703 82.2376V28.1235L12.4341 28.1235V82.2376H82.0703Z" fill="#E0E0E0"/>
<path d="M13.4032 81.2686L81.1074 81.2686V29.0865L13.4032 29.0865V81.2686Z" fill="#EBEBEB"/>
<path d="M46.4153 38.5117H45.8135V45.7883H46.4153V38.5117Z" fill="#E0E0E0"/>
<path d="M29.8694 69.219H29.2676V45.4873H60.5828V59.228H59.981V46.0892H29.8694V69.219Z" fill="#E0E0E0"/>
<path d="M69.5214 66.6309H68.9195V59.5289H52.639V66.3781H52.0371V58.927H69.5214V66.6309Z" fill="#E0E0E0"/>
<path d="M53.8848 35.8394H38.3506V41.1839H53.8848V35.8394Z" fill="#F5F5F5"/>
<path d="M67.9144 48.6711H53.1084V54.4792H67.9144V48.6711Z" fill="#F5F5F5"/>
<path d="M57.4175 63.387H47.252V69.3816H57.4175V63.387Z" fill="#F5F5F5"/>
<path d="M74.6671 64.356H63.7793V68.9061H74.6671V64.356Z" fill="#F5F5F5"/>
<path d="M39.247 49.8989H22.4248V57.657H39.247V49.8989Z" fill="#F5F5F5"/>
<path d="M34.9436 66.3782H24.2002V72.0478H34.9436V66.3782Z" fill="#F5F5F5"/>
<path d="M48.4347 45.9789L46.1152 43.6594L43.7958 45.9789L46.1152 48.2983L48.4347 45.9789Z" fill="#F5F5F5"/>
<path d="M62.5997 59.2296L60.2803 56.9102L57.9608 59.2296L60.2803 61.549L62.5997 59.2296Z" fill="#F5F5F5"/>
<path d="M47.2519 20.5037C52.67 20.5037 57.0623 16.1115 57.0623 10.6933C57.0623 5.27511 52.67 0.882812 47.2519 0.882812C41.8337 0.882812 37.4414 5.27511 37.4414 10.6933C37.4414 16.1115 41.8337 20.5037 47.2519 20.5037Z" fill="#E0E0E0"/>
<path d="M47.2521 19.0351C51.8592 19.0351 55.594 15.3003 55.594 10.6932C55.594 6.08612 51.8592 2.35132 47.2521 2.35132C42.645 2.35132 38.9102 6.08612 38.9102 10.6932C38.9102 15.3003 42.645 19.0351 47.2521 19.0351Z" fill="#F0F0F0"/>
<path d="M47.6436 4.96948V10.8016L51.5136 8.61681" fill="#F0F0F0"/>
<path d="M47.6429 11.4095C47.5369 11.4084 47.4331 11.3794 47.342 11.3253C47.251 11.2728 47.1754 11.1974 47.1226 11.1066C47.0698 11.0158 47.0416 10.9127 47.041 10.8077V4.96955C47.041 4.80992 47.1044 4.65683 47.2173 4.54396C47.3302 4.43109 47.4833 4.36768 47.6429 4.36768C47.8025 4.36768 47.9556 4.43109 48.0685 4.54396C48.1813 4.65683 48.2448 4.80992 48.2448 4.96955V9.7845L51.212 8.10528C51.281 8.06573 51.3572 8.04027 51.4362 8.03036C51.5152 8.02046 51.5953 8.02631 51.672 8.04758C51.7487 8.06885 51.8204 8.10512 51.8829 8.15428C51.9455 8.20344 51.9977 8.26453 52.0365 8.334C52.1145 8.47292 52.1342 8.6371 52.0913 8.79053C52.0485 8.94397 51.9465 9.07415 51.8078 9.15254L47.9438 11.3433C47.8499 11.3881 47.7469 11.4108 47.6429 11.4095Z" fill="#E0E0E0"/>
<path d="M119.626 199.391C184.076 199.391 236.323 196.341 236.323 192.578C236.323 188.815 184.076 185.765 119.626 185.765C55.1765 185.765 2.92969 188.815 2.92969 192.578C2.92969 196.341 55.1765 199.391 119.626 199.391Z" fill="#F5F5F5"/>
<path d="M213.789 173.096C213.789 172.879 213.055 151.392 209.576 147.998C206.2 144.711 202.306 147.877 202.143 147.998L201.758 147.534C201.8 147.498 206.23 143.887 209.997 147.534C213.657 151.097 214.373 172.151 214.403 173.041L213.789 173.096Z" fill="#407BFF"/>
<path d="M214.12 177.321C214.089 177.062 211.712 151.501 221.065 140.781L221.517 141.178C212.35 151.699 214.691 177.008 214.715 177.291L214.12 177.321Z" fill="#407BFF"/>
<path d="M213.795 174.618L213.193 174.576C213.193 174.287 214.999 145.542 208.186 139.253L208.595 138.813C215.637 145.289 213.873 173.421 213.795 174.618Z" fill="#407BFF"/>
<path d="M214.686 174.6H214.084C214.084 173.806 214.313 155.16 219.615 152.121C220.121 151.793 220.698 151.591 221.298 151.532C221.899 151.473 222.504 151.56 223.064 151.783C226.278 153.114 227.879 158.819 227.933 159.06L227.331 159.223C227.331 159.162 225.754 153.553 222.811 152.337C222.335 152.153 221.823 152.084 221.315 152.136C220.808 152.188 220.32 152.36 219.892 152.638C214.909 155.503 214.722 174.408 214.686 174.6Z" fill="#407BFF"/>
<path d="M212.627 174.612L212.025 174.576C212.025 174.432 212.825 159.866 208.895 154.714C207.95 153.475 206.915 152.909 205.838 152.963C203.274 153.138 201.119 156.899 201.101 156.935L200.571 156.64C200.668 156.478 202.907 152.566 205.796 152.361C207.096 152.277 208.293 152.963 209.371 154.347C213.433 159.674 212.663 174.004 212.627 174.612Z" fill="#407BFF"/>
<path d="M213.433 176.598C213.325 175.178 210.863 141.889 215.203 136.014L215.69 136.37C211.477 142.063 214.005 176.207 214.035 176.55L213.433 176.598Z" fill="#407BFF"/>
<path d="M224.237 155.172C224.237 155.172 221.631 156.135 222.431 158.398C223.232 160.661 231.459 164.387 231.459 164.387C231.459 164.387 234.908 161.233 231.742 156.093C228.576 150.953 224.303 153.553 224.237 155.172Z" fill="#407BFF"/>
<path opacity="0.2" d="M224.237 155.172C224.237 155.172 221.631 156.135 222.431 158.398C223.232 160.661 231.459 164.387 231.459 164.387C231.459 164.387 234.908 161.233 231.742 156.093C228.576 150.953 224.303 153.553 224.237 155.172Z" fill="white"/>
<path d="M212.916 150.862C212.916 150.862 215.685 150.748 215.841 153.138C215.998 155.527 209.823 162.129 209.823 162.129C209.823 162.129 205.429 160.541 206.368 154.582C207.307 148.624 212.236 149.394 212.916 150.862Z" fill="#407BFF"/>
<path opacity="0.2" d="M212.916 150.862C212.916 150.862 215.685 150.748 215.841 153.138C215.998 155.527 209.823 162.129 209.823 162.129C209.823 162.129 205.429 160.541 206.368 154.582C207.307 148.624 212.236 149.394 212.916 150.862Z" fill="white"/>
<path d="M210.581 139.433C210.581 139.433 212.429 139.234 212.278 138.115C212.128 136.995 205.098 134.094 200.951 138.771C200.951 138.771 203.605 143.339 207.445 143.399C211.285 143.459 210.581 139.433 210.581 139.433Z" fill="#407BFF"/>
<path opacity="0.2" d="M210.581 139.433C210.581 139.433 212.429 139.234 212.278 138.115C212.128 136.995 205.098 134.094 200.951 138.771C200.951 138.771 203.605 143.339 207.445 143.399C211.285 143.459 210.581 139.433 210.581 139.433Z" fill="white"/>
<path d="M214.023 136.707C214.023 136.707 212.35 137.513 211.881 136.478C211.411 135.443 215.847 129.255 221.842 131.061C221.842 131.061 222.004 136.339 218.778 138.422C215.552 140.504 214.023 136.707 214.023 136.707Z" fill="#407BFF"/>
<path opacity="0.2" d="M214.023 136.707C214.023 136.707 212.35 137.513 211.881 136.478C211.411 135.443 215.847 129.255 221.842 131.061C221.842 131.061 222.004 136.339 218.778 138.422C215.552 140.504 214.023 136.707 214.023 136.707Z" fill="white"/>
<path d="M205.278 154.263C205.278 154.263 206.554 153.234 205.176 152.734C203.798 152.235 197.051 152.373 196.979 159.06C196.979 159.06 204.839 160.366 205.814 157.82C206.789 155.274 205.278 154.263 205.278 154.263Z" fill="#407BFF"/>
<path opacity="0.2" d="M205.278 154.263C205.278 154.263 206.554 153.234 205.176 152.734C203.798 152.235 197.051 152.373 196.979 159.06C196.979 159.06 204.839 160.366 205.814 157.82C206.789 155.274 205.278 154.263 205.278 154.263Z" fill="white"/>
<path d="M221.306 139.271C221.306 139.271 220.036 138.241 221.408 137.736C222.78 137.23 229.533 137.375 229.606 144.062C229.606 144.062 221.745 145.368 220.77 142.822C219.795 140.276 221.306 139.271 221.306 139.271Z" fill="#407BFF"/>
<path opacity="0.2" d="M221.306 139.271C221.306 139.271 220.036 138.241 221.408 137.736C222.78 137.23 229.533 137.375 229.606 144.062C229.606 144.062 221.745 145.368 220.77 142.822C219.795 140.276 221.306 139.271 221.306 139.271Z" fill="white"/>
<path d="M217.129 144.651C217.129 144.651 217.015 143.405 218.026 143.893C219.037 144.38 222.552 148.178 218.905 151.783C218.905 151.783 213.999 148.172 214.884 146.252C215.769 144.332 217.129 144.651 217.129 144.651Z" fill="#407BFF"/>
<path opacity="0.2" d="M217.129 144.651C217.129 144.651 217.015 143.405 218.026 143.893C219.037 144.38 222.552 148.178 218.905 151.783C218.905 151.783 213.999 148.172 214.884 146.252C215.769 144.332 217.129 144.651 217.129 144.651Z" fill="white"/>
<path d="M204.135 146.439C204.135 146.439 204.899 145.44 203.786 145.313C202.672 145.187 197.665 146.517 198.832 151.518C198.832 151.518 204.923 151.061 205.182 148.985C205.441 146.908 204.135 146.439 204.135 146.439Z" fill="#407BFF"/>
<path opacity="0.2" d="M204.135 146.439C204.135 146.439 204.899 145.44 203.786 145.313C202.672 145.187 197.665 146.517 198.832 151.518C198.832 151.518 204.923 151.061 205.182 148.985C205.441 146.908 204.135 146.439 204.135 146.439Z" fill="white"/>
<path d="M224.719 193.132H203.816L201.559 170.243H226.976L224.719 193.132Z" fill="#407BFF"/>
<path opacity="0.5" d="M224.719 193.132H203.816L201.559 170.243H226.976L224.719 193.132Z" fill="white"/>
<path d="M228.095 167.715H200.445V172.765H228.095V167.715Z" fill="#407BFF"/>
<path opacity="0.2" d="M228.095 167.715H200.445V172.765H228.095V167.715Z" fill="white"/>
<path d="M39.306 178.771C39.429 178.521 39.4896 178.245 39.4825 177.967C39.4754 177.689 39.4009 177.416 39.2654 177.173C39.1299 176.93 38.9373 176.723 38.7044 176.57C38.4714 176.418 38.2049 176.324 37.9277 176.297C38.1621 175.583 38.1723 174.813 37.9572 174.093C37.742 173.372 37.3118 172.734 36.724 172.265C36.5867 172.133 36.4082 172.052 36.2184 172.036C36.0152 172.057 35.8238 172.142 35.6707 172.277L32.4447 174.594C32.1836 174.754 31.9631 174.972 31.8007 175.232C31.1447 176.508 33.522 178.145 32.541 179.204C32.2641 179.505 31.8127 179.572 31.4576 179.806C30.6933 180.288 30.597 181.341 30.2539 182.172C29.9108 183.002 28.6469 183.652 28.1654 182.882C28.5205 182.081 27.4552 181.395 26.5885 181.293C25.7218 181.191 24.7829 181.148 24.3315 180.33C23.1278 181.407 20.3471 178.41 20.4133 177.2C19.4022 177.272 18.71 178.223 18.4934 179.168C18.3492 180.165 18.3128 181.174 18.385 182.178C18.385 184.134 17.723 186.054 17.7832 188.01C17.7832 189.538 18.385 191.23 19.7934 191.844C20.4875 192.091 21.2256 192.189 21.9601 192.133L37.8495 192.03C38.2353 192.059 38.6221 191.99 38.975 191.832C39.6912 191.458 39.8417 190.52 39.9079 189.713C40.1968 186.258 40.4817 182.806 40.7625 179.355L39.306 178.771Z" fill="#407BFF"/>
<path opacity="0.3" d="M39.306 178.771C39.429 178.521 39.4896 178.245 39.4825 177.967C39.4754 177.689 39.4009 177.416 39.2654 177.173C39.1299 176.93 38.9373 176.723 38.7044 176.57C38.4714 176.418 38.2049 176.324 37.9277 176.297C38.1621 175.583 38.1723 174.813 37.9572 174.093C37.742 173.372 37.3118 172.734 36.724 172.265C36.5867 172.133 36.4082 172.052 36.2184 172.036C36.0152 172.057 35.8238 172.142 35.6707 172.277L32.4447 174.594C32.1836 174.754 31.9631 174.972 31.8007 175.232C31.1447 176.508 33.522 178.145 32.541 179.204C32.2641 179.505 31.8127 179.572 31.4576 179.806C30.6933 180.288 30.597 181.341 30.2539 182.172C29.9108 183.002 28.6469 183.652 28.1654 182.882C28.5205 182.081 27.4552 181.395 26.5885 181.293C25.7218 181.191 24.7829 181.148 24.3315 180.33C23.1278 181.407 20.3471 178.41 20.4133 177.2C19.4022 177.272 18.71 178.223 18.4934 179.168C18.3492 180.165 18.3128 181.174 18.385 182.178C18.385 184.134 17.723 186.054 17.7832 188.01C17.7832 189.538 18.385 191.23 19.7934 191.844C20.4875 192.091 21.2256 192.189 21.9601 192.133L37.8495 192.03C38.2353 192.059 38.6221 191.99 38.975 191.832C39.6912 191.458 39.8417 190.52 39.9079 189.713C40.1968 186.258 40.4817 182.806 40.7625 179.355L39.306 178.771Z" fill="white"/>
<path d="M40.2333 161.973H15.5566L15.7613 164.465L15.9057 166.27L16.2849 170.899L16.4956 173.553L16.7784 177.098L16.9048 178.615L16.9409 179.066L17.0854 180.872L17.284 183.315L17.4044 184.832L17.5308 186.373L17.6812 188.178L17.7896 189.526L17.91 191.043L17.9641 191.705H40.5884L40.6425 191.043L40.7629 189.532L40.8713 188.172L41.0157 186.367L41.1421 184.832L41.2685 183.315L41.4611 180.866L41.6055 179.09L41.6417 178.639L41.762 177.122L42.0509 173.577L42.2676 170.929L42.6408 166.294L42.7852 164.489L42.9838 161.997L40.2333 161.973ZM41.7199 163.61L41.2444 163.135H41.762L41.7199 163.61ZM41.5995 165.121L41.5514 165.723L39.3425 167.931L36.8147 165.398L39.0777 163.135H39.6073L41.5995 165.121ZM40.9615 173.011L39.3425 174.624L36.8147 172.096L39.3425 169.568L41.0939 171.32L40.9615 173.011ZM17.4886 171.32L19.2521 169.562L21.78 172.09L19.2521 174.618L17.6391 173.005L17.4886 171.32ZM38.5119 168.75L35.9841 171.278L33.4502 168.75L35.9841 166.216L38.5119 168.75ZM34.5336 163.135H37.4286L35.9841 164.585L34.5336 163.135ZM35.1354 172.096L32.6136 174.624L30.0797 172.096L32.6136 169.568L35.1354 172.096ZM26.7093 175.443L29.2371 172.915L31.765 175.443L29.2973 177.989L26.7093 175.443ZM28.4186 178.789L25.8847 181.323L23.3569 178.795L25.8907 176.267L28.4186 178.789ZM32.5895 176.267L35.1114 178.795L32.5895 181.323L30.0557 178.789L32.5895 176.267ZM29.2371 171.278L26.7093 168.75L29.2371 166.216L31.765 168.75L29.2371 171.278ZM28.4186 172.096L25.8907 174.624L23.3569 172.096L25.8907 169.568L28.4186 172.096ZM22.5383 171.278L20.0105 168.75L22.5383 166.216L25.0662 168.75L22.5383 171.278ZM22.5383 172.915L25.0662 175.443L22.5985 177.989L20.0707 175.455L22.5383 172.915ZM25.1324 182.148L22.6045 184.669L20.0767 182.148L22.6045 179.614L25.1324 182.148ZM25.9509 182.96L28.4848 185.494L25.9569 188.022L23.4231 185.494L25.9509 182.96ZM26.7755 182.148L29.3033 179.614L31.8312 182.148L29.3033 184.669L26.7755 182.148ZM32.6557 182.96L35.1776 185.494L32.6557 188.022L30.1219 185.494L32.6557 182.96ZM36.0021 186.312L38.53 188.84L36.8929 190.483H35.0873L33.4622 188.822L36.0021 186.312ZM33.4683 182.148L36.0021 179.614L38.53 182.148L36.0021 184.669L33.4683 182.148ZM33.4683 175.443L36.0021 172.915L38.53 175.443L36.0021 177.977L33.4683 175.443ZM35.1776 165.398L32.6557 167.931L30.1219 165.398L32.3849 163.135H32.9206L35.1776 165.398ZM29.3033 164.585L27.8588 163.135H30.7478L29.3033 164.585ZM28.4848 165.398L25.9569 167.931L23.4231 165.398L25.6921 163.135H26.2218L28.4848 165.398ZM24.049 163.135L22.6045 164.585L21.16 163.135H24.049ZM19.523 163.135L21.786 165.398L19.2581 167.931L17.0553 165.723L17.0071 165.121L18.9873 163.135H19.523ZM17.3562 163.135L16.8868 163.604L16.8446 163.135H17.3562ZM17.1997 167.51L18.4396 168.75L17.3863 169.803L17.1997 167.51ZM17.91 175.996L17.8136 174.793L18.4637 175.443L17.91 175.996ZM18.0363 177.519L19.2822 176.267L21.8101 178.795L19.2822 181.323L18.259 180.306L18.0363 177.519ZM18.4095 182.196V182.087L18.4697 182.148L18.4155 182.196H18.4095ZM18.8489 187.613L18.5118 183.706L19.2642 182.96L21.792 185.494L19.2642 188.022L18.8308 187.588L18.8489 187.613ZM19.0836 190.508L19.0354 189.906L19.2822 189.665L20.1008 190.489L19.0836 190.508ZM20.0707 188.822L22.5985 186.294L25.1324 188.822L23.4953 190.465H21.6897L20.0707 188.822ZM25.1264 190.465L25.9509 189.641L26.7755 190.465H25.1264ZM28.4066 190.465L26.7695 188.822L29.2973 186.294L31.8252 188.822L30.1941 190.465H28.4066ZM31.8252 190.465L32.6497 189.641L33.4683 190.465H31.8252ZM39.5411 190.465H38.524L39.3425 189.641L39.5893 189.882L39.5411 190.465ZM39.7759 187.57L39.3425 188.004L36.8147 185.476L39.3425 182.942L40.0888 183.688L39.7759 187.57ZM40.2212 182.063V182.202L40.1671 182.154L40.2273 182.087L40.2212 182.063ZM40.3717 180.288L39.3425 181.305L36.8147 178.777L39.3425 176.249L40.5944 177.501L40.3717 180.288ZM40.7148 175.978L40.1611 175.425L40.8171 174.775L40.7148 175.978ZM41.3828 167.504L41.1963 169.809L40.1791 168.75L41.425 167.504H41.3828Z" fill="#407BFF"/>
<g opacity="0.6">
<path d="M40.2333 161.973H15.5566L15.7613 164.465L15.9057 166.27L16.2849 170.899L16.4956 173.553L16.7784 177.098L16.9048 178.615L16.9409 179.066L17.0854 180.872L17.284 183.315L17.4044 184.832L17.5308 186.373L17.6812 188.178L17.7896 189.526L17.91 191.043L17.9641 191.705H40.5884L40.6425 191.043L40.7629 189.532L40.8713 188.172L41.0157 186.367L41.1421 184.832L41.2685 183.315L41.4611 180.866L41.6055 179.09L41.6417 178.639L41.762 177.122L42.0509 173.577L42.2676 170.929L42.6408 166.294L42.7852 164.489L42.9838 161.997L40.2333 161.973ZM41.7199 163.61L41.2444 163.135H41.762L41.7199 163.61ZM41.5995 165.121L41.5514 165.723L39.3425 167.931L36.8147 165.398L39.0777 163.135H39.6073L41.5995 165.121ZM40.9615 173.011L39.3425 174.624L36.8147 172.096L39.3425 169.568L41.0939 171.32L40.9615 173.011ZM17.4886 171.32L19.2521 169.562L21.78 172.09L19.2521 174.618L17.6391 173.005L17.4886 171.32ZM38.5119 168.75L35.9841 171.278L33.4502 168.75L35.9841 166.216L38.5119 168.75ZM34.5336 163.135H37.4286L35.9841 164.585L34.5336 163.135ZM35.1354 172.096L32.6136 174.624L30.0797 172.096L32.6136 169.568L35.1354 172.096ZM26.7093 175.443L29.2371 172.915L31.765 175.443L29.2973 177.989L26.7093 175.443ZM28.4186 178.789L25.8847 181.323L23.3569 178.795L25.8907 176.267L28.4186 178.789ZM32.5895 176.267L35.1114 178.795L32.5895 181.323L30.0557 178.789L32.5895 176.267ZM29.2371 171.278L26.7093 168.75L29.2371 166.216L31.765 168.75L29.2371 171.278ZM28.4186 172.096L25.8907 174.624L23.3569 172.096L25.8907 169.568L28.4186 172.096ZM22.5383 171.278L20.0105 168.75L22.5383 166.216L25.0662 168.75L22.5383 171.278ZM22.5383 172.915L25.0662 175.443L22.5985 177.989L20.0707 175.455L22.5383 172.915ZM25.1324 182.148L22.6045 184.669L20.0767 182.148L22.6045 179.614L25.1324 182.148ZM25.9509 182.96L28.4848 185.494L25.9569 188.022L23.4231 185.494L25.9509 182.96ZM26.7755 182.148L29.3033 179.614L31.8312 182.148L29.3033 184.669L26.7755 182.148ZM32.6557 182.96L35.1776 185.494L32.6557 188.022L30.1219 185.494L32.6557 182.96ZM36.0021 186.312L38.53 188.84L36.8929 190.483H35.0873L33.4622 188.822L36.0021 186.312ZM33.4683 182.148L36.0021 179.614L38.53 182.148L36.0021 184.669L33.4683 182.148ZM33.4683 175.443L36.0021 172.915L38.53 175.443L36.0021 177.977L33.4683 175.443ZM35.1776 165.398L32.6557 167.931L30.1219 165.398L32.3849 163.135H32.9206L35.1776 165.398ZM29.3033 164.585L27.8588 163.135H30.7478L29.3033 164.585ZM28.4848 165.398L25.9569 167.931L23.4231 165.398L25.6921 163.135H26.2218L28.4848 165.398ZM24.049 163.135L22.6045 164.585L21.16 163.135H24.049ZM19.523 163.135L21.786 165.398L19.2581 167.931L17.0553 165.723L17.0071 165.121L18.9873 163.135H19.523ZM17.3562 163.135L16.8868 163.604L16.8446 163.135H17.3562ZM17.1997 167.51L18.4396 168.75L17.3863 169.803L17.1997 167.51ZM17.91 175.996L17.8136 174.793L18.4637 175.443L17.91 175.996ZM18.0363 177.519L19.2822 176.267L21.8101 178.795L19.2822 181.323L18.259 180.306L18.0363 177.519ZM18.4095 182.196V182.087L18.4697 182.148L18.4155 182.196H18.4095ZM18.8489 187.613L18.5118 183.706L19.2642 182.96L21.792 185.494L19.2642 188.022L18.8308 187.588L18.8489 187.613ZM19.0836 190.508L19.0354 189.906L19.2822 189.665L20.1008 190.489L19.0836 190.508ZM20.0707 188.822L22.5985 186.294L25.1324 188.822L23.4953 190.465H21.6897L20.0707 188.822ZM25.1264 190.465L25.9509 189.641L26.7755 190.465H25.1264ZM28.4066 190.465L26.7695 188.822L29.2973 186.294L31.8252 188.822L30.1941 190.465H28.4066ZM31.8252 190.465L32.6497 189.641L33.4683 190.465H31.8252ZM39.5411 190.465H38.524L39.3425 189.641L39.5893 189.882L39.5411 190.465ZM39.7759 187.57L39.3425 188.004L36.8147 185.476L39.3425 182.942L40.0888 183.688L39.7759 187.57ZM40.2212 182.063V182.202L40.1671 182.154L40.2273 182.087L40.2212 182.063ZM40.3717 180.288L39.3425 181.305L36.8147 178.777L39.3425 176.249L40.5944 177.501L40.3717 180.288ZM40.7148 175.978L40.1611 175.425L40.8171 174.775L40.7148 175.978ZM41.3828 167.504L41.1963 169.809L40.1791 168.75L41.425 167.504H41.3828Z" fill="white"/>
</g>
<path d="M15.1835 164.164H43.4112C44.0627 164.164 44.5908 163.636 44.5908 162.984V162.117C44.5908 161.466 44.0627 160.938 43.4112 160.938H15.1835C14.532 160.938 14.0038 161.466 14.0038 162.117V162.984C14.0038 163.636 14.532 164.164 15.1835 164.164Z" fill="#407BFF"/>
<path d="M41.2027 189.906H17.3867C16.7352 189.906 16.207 190.434 16.207 191.085V191.952C16.207 192.604 16.7352 193.132 17.3867 193.132H41.2027C41.8542 193.132 42.3823 192.604 42.3823 191.952V191.085C42.3823 190.434 41.8542 189.906 41.2027 189.906Z" fill="#407BFF"/>
<path d="M58.9105 182.124L74.6314 180.751V160.107H80.1565V180.745L95.9375 182.124C96.608 182.191 97.2298 182.504 97.6823 183.003C98.1349 183.503 98.386 184.152 98.3871 184.826V186.92H56.4609V184.826C56.4607 184.152 56.7114 183.502 57.1642 183.002C57.617 182.502 58.2395 182.189 58.9105 182.124Z" fill="#263238"/>
<path opacity="0.1" d="M58.9105 182.124L74.6314 180.751V160.107H80.1565V180.745L95.9375 182.124C96.608 182.191 97.2298 182.504 97.6823 183.003C98.1349 183.503 98.386 184.152 98.3871 184.826V186.92H56.4609V184.826C56.4607 184.152 56.7114 183.502 57.1642 183.002C57.617 182.502 58.2395 182.189 58.9105 182.124Z" fill="white"/>
<path d="M93.2949 189.515C93.2949 190.229 93.5067 190.927 93.9035 191.521C94.3003 192.115 94.8643 192.578 95.5242 192.851C96.1841 193.124 96.9101 193.196 97.6107 193.056C98.3112 192.917 98.9546 192.573 99.4597 192.068C99.9647 191.563 100.309 190.92 100.448 190.219C100.587 189.519 100.516 188.792 100.242 188.133C99.9691 187.473 99.5063 186.909 98.9124 186.512C98.3186 186.115 97.6204 185.903 96.9061 185.903C95.9484 185.903 95.0299 186.284 94.3526 186.961C93.6754 187.638 93.2949 188.557 93.2949 189.515Z" fill="#263238"/>
<path d="M61.5525 189.515C61.5525 190.229 61.3407 190.927 60.9439 191.521C60.5471 192.115 59.9831 192.578 59.3232 192.851C58.6634 193.124 57.9373 193.196 57.2368 193.056C56.5363 192.917 55.8928 192.573 55.3878 192.068C54.8827 191.563 54.5388 190.92 54.3995 190.219C54.2601 189.519 54.3316 188.792 54.605 188.133C54.8783 187.473 55.3411 186.909 55.935 186.512C56.5289 186.115 57.2271 185.903 57.9413 185.903C58.899 185.903 59.8176 186.284 60.4948 186.961C61.172 187.638 61.5525 188.557 61.5525 189.515Z" fill="#263238"/>
<path d="M78.6637 164.32H76.1238C75.8029 164.32 75.4851 164.257 75.1887 164.134C74.8922 164.011 74.6228 163.832 74.3959 163.605C74.169 163.378 73.989 163.108 73.8662 162.812C73.7434 162.515 73.6802 162.198 73.6802 161.877V146.752H81.1133V161.871C81.1141 162.193 81.0513 162.511 80.9284 162.809C80.8056 163.107 80.6252 163.377 80.3976 163.605C80.1699 163.832 79.8996 164.013 79.602 164.135C79.3045 164.258 78.9856 164.321 78.6637 164.32Z" fill="#263238"/>
<path opacity="0.2" d="M78.6637 164.32H76.1238C75.8029 164.32 75.4851 164.257 75.1887 164.134C74.8922 164.011 74.6228 163.832 74.3959 163.605C74.169 163.378 73.989 163.108 73.8662 162.812C73.7434 162.515 73.6802 162.198 73.6802 161.877V146.752H81.1133V161.871C81.1141 162.193 81.0513 162.511 80.9284 162.809C80.8056 163.107 80.6252 163.377 80.3976 163.605C80.1699 163.832 79.8996 164.013 79.602 164.135C79.3045 164.258 78.9856 164.321 78.6637 164.32Z" fill="white"/>
<path d="M61.0947 105.909C61.0947 105.909 62.798 140.047 70.1227 145.921H62.2864C62.2864 145.921 55.2746 134.293 54.751 105.909H61.0947Z" fill="#263238"/>
<path opacity="0.1" d="M61.0947 105.909C61.0947 105.909 62.798 140.047 70.1227 145.921H62.2864C62.2864 145.921 55.2746 134.293 54.751 105.909H61.0947Z" fill="white"/>
<path d="M60.4513 143.08H95.3115C96.0969 143.08 96.8501 143.392 97.4054 143.948C97.9607 144.503 98.2727 145.256 98.2727 146.042V148.738H57.4961V146.042C57.4961 145.257 57.8072 144.505 58.3613 143.95C58.9153 143.395 59.6669 143.082 60.4513 143.08Z" fill="#263238"/>
<path d="M98.633 145.921H57.1341C56.4759 145.921 55.9424 146.455 55.9424 147.113V147.558C55.9424 148.216 56.4759 148.75 57.1341 148.75H98.633C99.2911 148.75 99.8247 148.216 99.8247 147.558V147.113C99.8247 146.455 99.2911 145.921 98.633 145.921Z" fill="#263238"/>
<path opacity="0.6" d="M98.633 145.921H57.1341C56.4759 145.921 55.9424 146.455 55.9424 147.113V147.558C55.9424 148.216 56.4759 148.75 57.1341 148.75H98.633C99.2911 148.75 99.8247 148.216 99.8247 147.558V147.113C99.8247 146.455 99.2911 145.921 98.633 145.921Z" fill="white"/>
<path d="M53.3729 113.384H65.964C69.6594 113.384 72.3197 110.068 71.9164 105.975L71.3808 100.516C70.9775 96.4296 67.6612 93.1133 63.9718 93.1133H51.3747C47.6852 93.1133 45.0189 96.4296 45.4222 100.516L45.9578 105.975C46.3611 110.068 49.6834 113.384 53.3729 113.384Z" fill="#263238"/>
<path d="M83.3578 88.1357C82.6296 89.9894 82.1541 91.145 82.1541 91.145L78.8438 88.262L71.2783 81.6896L80.3425 71.8731L80.0355 68.6712C80.0355 68.6712 86.3612 64.6507 88.9552 66.5105C90.9534 67.973 85.8074 81.8702 83.3578 88.1357Z" fill="#407BFF"/>
<path opacity="0.2" d="M83.3578 88.1357C82.6296 89.9894 82.1541 91.145 82.1541 91.145L78.8438 88.262L71.2783 81.6896L74.7631 77.9219L78.7656 73.5885L80.3425 71.8731L80.0355 68.6712C80.0355 68.6712 86.3612 64.6507 88.9552 66.5105C90.9534 67.973 85.8074 81.8702 83.3578 88.1357Z" fill="white"/>
<path opacity="0.2" d="M83.3584 88.1357C82.6301 89.9894 82.1546 91.145 82.1546 91.145L78.8444 88.2621C78.2064 87.5759 77.6406 86.9741 77.2614 86.5046L76.792 84.3198C79.1988 85.173 81.4255 86.467 83.3584 88.1357Z" fill="black"/>
<path opacity="0.2" d="M85.32 74.2204C85.32 74.2204 78.4827 78.1385 74.7451 77.9459L78.7476 73.6125C80.4385 73.4603 82.1425 73.6653 83.7491 74.2144L85.32 74.2204Z" fill="black"/>
<path d="M94.144 123.219C94.144 123.219 126.85 133.451 134.626 138.145C142.402 142.84 163.624 176.827 163.624 176.827L156.341 183.327C156.341 183.327 131.755 152.674 128.884 150.682C126.013 148.69 89.8105 140.414 89.8105 140.414L94.144 123.219Z" fill="#263238"/>
<path opacity="0.3" d="M94.144 123.219C94.144 123.219 126.85 133.451 134.626 138.145C142.402 142.84 163.624 176.827 163.624 176.827L156.341 183.327C156.341 183.327 131.755 152.674 128.884 150.682C126.013 148.69 89.8105 140.414 89.8105 140.414L94.144 123.219Z" fill="white"/>
<path d="M165.946 189.376L169.383 185.374L162.624 176.43L159.199 180.432L165.946 189.376Z" fill="#EEC1BB"/>
<path opacity="0.2" d="M159.199 180.432L162.63 176.436L166.494 181.546L162.913 185.362L159.199 180.432Z" fill="black"/>
<path d="M170.003 184.916C170.003 184.916 170.003 184.916 170.04 184.916C170.076 184.916 170.04 184.916 170.076 184.916C170.502 184.726 170.906 184.487 171.279 184.206C171.574 184.02 171.789 183.73 171.881 183.394C171.897 183.27 171.878 183.145 171.824 183.033C171.771 182.921 171.686 182.827 171.58 182.762C171.522 182.709 171.451 182.672 171.374 182.654C171.297 182.636 171.217 182.638 171.141 182.659C170.786 182.768 170.467 183.309 170.238 183.821C170.255 183.367 170.112 182.922 169.835 182.563C169.754 182.497 169.653 182.461 169.549 182.461C169.445 182.461 169.344 182.497 169.263 182.563C169.184 182.609 169.116 182.672 169.065 182.749C169.014 182.825 168.981 182.911 168.968 183.002C168.872 183.725 169.907 184.808 169.961 184.856L170.015 184.784L169.961 184.862C169.961 184.862 169.919 184.94 169.919 184.946L170.003 184.916ZM170.003 184.429C170.003 184.471 169.973 184.507 169.961 184.543C169.648 184.158 169.161 183.472 169.227 183.044C169.231 182.996 169.246 182.949 169.27 182.906C169.293 182.864 169.326 182.827 169.365 182.798L169.414 182.762C169.564 182.671 169.654 182.707 169.709 182.762C169.995 183.267 170.098 183.856 169.997 184.429H170.003ZM170.232 184.573C170.479 183.893 170.894 183.002 171.249 182.894C171.287 182.884 171.327 182.884 171.365 182.894C171.402 182.903 171.437 182.922 171.466 182.948C171.531 182.992 171.583 183.051 171.618 183.121C171.652 183.19 171.669 183.268 171.665 183.345C171.61 183.688 171.087 184.14 170.226 184.573H170.232Z" fill="#407BFF"/>
<path d="M169.257 184.609L164.592 188.257C164.552 188.285 164.518 188.321 164.492 188.362C164.467 188.403 164.449 188.45 164.441 188.498C164.433 188.546 164.435 188.595 164.447 188.643C164.458 188.69 164.479 188.735 164.508 188.774L167.174 192.674C167.325 192.868 167.546 192.994 167.79 193.025C168.033 193.057 168.279 192.991 168.474 192.843C170.081 191.543 170.779 190.845 172.82 189.232C174.078 188.245 176.654 186.409 178.158 184.79C179.663 183.171 178.02 181.726 177.237 182.28C175.384 183.58 172.049 184.326 170.159 184.32C169.835 184.314 169.517 184.416 169.257 184.609Z" fill="#263238"/>
<path d="M156.882 185.885L166.042 178.777L163.49 174.414L153.596 182.412L156.882 185.885Z" fill="#407BFF"/>
<path opacity="0.2" d="M156.882 185.885L166.042 178.777L163.49 174.414L153.596 182.412L156.882 185.885Z" fill="white"/>
<path d="M141.643 177.236C141.643 177.236 130.701 137.609 128.889 135.328C125.934 131.609 97.5922 127.679 97.5922 127.679L90.1952 114.865L62.75 120.883C62.75 120.883 65.4163 137.417 68.6844 142.262C71.9526 147.107 115.089 146.3 117.959 147.239C120.83 148.178 131.658 179.138 131.658 179.138L141.643 177.236Z" fill="#263238"/>
<path opacity="0.4" d="M141.643 177.236C141.643 177.236 130.701 137.609 128.889 135.328C125.934 131.609 97.5922 127.679 97.5922 127.679L90.1952 114.865L62.75 120.883C62.75 120.883 65.4163 137.417 68.6844 142.262C71.9526 147.107 115.089 146.3 117.959 147.239C120.83 148.178 131.658 179.138 131.658 179.138L141.643 177.236Z" fill="white"/>
<path d="M56.6592 76.8747V81.2563C56.6592 81.2563 63.7612 81.9966 64.3992 81.5572L66.7585 79.9141L82.1423 74.2024L80.0358 68.6772L63.6529 77.3622L56.6592 76.8747Z" fill="#EEC1BB"/>
<path opacity="0.2" d="M56.6592 76.8747V81.2563C56.6592 81.2563 63.7612 81.9966 64.3992 81.5572L66.7585 79.9141L82.1423 74.2024L80.0358 68.6772L63.6529 77.3622L56.6592 76.8747Z" fill="black"/>
<path d="M143.557 186.12H143.593C143.606 186.124 143.621 186.124 143.635 186.12C144.101 186.083 144.561 185.994 145.007 185.855C145.353 185.781 145.658 185.579 145.862 185.29C145.918 185.178 145.94 185.053 145.926 184.929C145.912 184.805 145.863 184.688 145.784 184.591C145.746 184.522 145.691 184.464 145.625 184.422C145.559 184.38 145.483 184.355 145.404 184.351C145.037 184.351 144.556 184.742 144.164 185.151C144.336 184.731 144.351 184.263 144.207 183.833C144.155 183.742 144.074 183.67 143.977 183.631C143.879 183.592 143.772 183.586 143.671 183.616C143.582 183.633 143.497 183.67 143.424 183.725C143.351 183.779 143.292 183.849 143.25 183.929C142.919 184.579 143.545 185.94 143.575 186.012L143.647 185.964L143.569 186.018C143.569 186.018 143.502 186.078 143.502 186.084L143.557 186.12ZM143.719 185.657L143.641 185.753C143.466 185.284 143.244 184.477 143.442 184.092C143.463 184.047 143.492 184.007 143.528 183.974C143.564 183.941 143.607 183.916 143.653 183.899H143.713C143.888 183.863 143.954 183.929 143.99 183.99C144.089 184.562 143.986 185.151 143.701 185.657H143.719ZM143.888 185.867C144.339 185.302 145.031 184.603 145.398 184.621C145.437 184.623 145.475 184.636 145.508 184.657C145.54 184.678 145.567 184.707 145.585 184.742C145.632 184.803 145.663 184.876 145.674 184.953C145.684 185.031 145.674 185.109 145.645 185.181C145.507 185.494 144.839 185.741 143.888 185.867Z" fill="#407BFF"/>
<path d="M138.254 188.979L142.822 186.337L139.181 175.256L134.625 177.899L138.254 188.979Z" fill="#EEC1BB"/>
<path opacity="0.2" d="M134.625 177.898L139.187 175.262L141.264 181.594L136.617 184.001L134.625 177.898Z" fill="black"/>
<path d="M142.949 185.602L137.345 187.498C137.25 187.526 137.17 187.591 137.121 187.677C137.073 187.764 137.06 187.866 137.087 187.962L138.29 192.488C138.327 192.604 138.387 192.712 138.465 192.805C138.544 192.899 138.641 192.975 138.749 193.031C138.858 193.087 138.976 193.121 139.098 193.131C139.219 193.141 139.342 193.127 139.458 193.09C141.408 192.398 142.299 191.97 144.76 191.116C146.271 190.604 149.311 189.725 151.267 188.708C153.223 187.691 152.151 185.771 151.237 186.036C149.052 186.638 145.663 186.246 143.882 185.621C143.581 185.512 143.253 185.506 142.949 185.602Z" fill="#263238"/>
<path d="M132.092 182.683L143.088 179.012L142.131 174.052L130.142 178.314L132.092 182.683Z" fill="#407BFF"/>
<path opacity="0.2" d="M132.092 182.683L143.088 179.012L142.131 174.052L130.142 178.314L132.092 182.683Z" fill="white"/>
<path d="M71.8077 118.205L62.0273 119.981L62.4547 122.352L72.6804 120.733L71.8077 118.205Z" fill="#263238"/>
<path d="M73.084 117.97L73.9687 120.528L91.2063 117.796L90.1951 114.865L73.084 117.97Z" fill="#263238"/>
<path d="M82.1659 117.32L82.7678 119.012C82.8462 119.215 82.9914 119.385 83.1797 119.494C83.3679 119.604 83.5877 119.646 83.803 119.613L86.7642 119.102C86.8622 119.088 86.9558 119.053 87.0382 118.998C87.1205 118.944 87.1895 118.871 87.2398 118.786C87.2902 118.701 87.3207 118.606 87.329 118.507C87.3373 118.409 87.3232 118.309 87.2879 118.217L86.686 116.526C86.6065 116.322 86.4601 116.152 86.2709 116.042C86.0817 115.933 85.8608 115.891 85.6447 115.924L82.6896 116.436C82.5911 116.448 82.4967 116.483 82.4137 116.537C82.3307 116.591 82.2613 116.664 82.2108 116.749C82.1602 116.835 82.1299 116.931 82.1221 117.03C82.1143 117.129 82.1293 117.228 82.1659 117.32Z" fill="white"/>
<path d="M61.5821 120.901L90.9894 115.791C85.7772 89.5259 73.4329 79.9321 73.4329 79.9321C71.919 80.8792 70.2079 81.4661 68.4314 81.6475C64.7555 81.9963 61.1023 82.5529 57.4894 83.3146C55.0615 83.7963 52.6733 84.4603 50.3452 85.3008C49.2077 86.0652 49.8095 91.8251 57.0621 108.81C58.7736 112.761 60.2822 116.797 61.5821 120.901Z" fill="#407BFF"/>
<path opacity="0.2" d="M73.4998 79.9923L73.4336 79.9321C73.5058 79.9321 73.5239 79.9502 73.4998 79.9923Z" fill="white"/>
<path opacity="0.2" d="M90.99 115.792L61.5827 120.901C60.2846 116.796 58.7759 112.76 57.0626 108.81C55.257 104.597 53.8727 101.07 52.8195 98.1448C51.8125 95.4706 50.9782 92.7345 50.3217 89.9534C49.6777 87.0042 49.8402 85.644 50.3217 85.3009C52.6501 84.4611 55.0382 83.7972 57.4659 83.3148C61.0768 82.553 64.728 81.9964 68.4018 81.6476C70.6769 81.5272 73.283 80.2753 73.4756 79.9924C74.4867 80.7869 85.9945 90.6515 90.99 115.792Z" fill="white"/>
<path d="M75.5342 91.2354L80.6741 90.3386L83.0997 96.1587L80.9329 98.3555L77.7069 97.5249L75.5342 91.2354Z" fill="#407BFF"/>
<path opacity="0.2" d="M73.2826 101.509C70.4177 102.99 62.4489 104.344 52.819 98.1449C51.8121 95.4706 50.9778 92.7345 50.3213 89.9534C54.751 82.4481 77.4355 98.7588 77.4355 98.7588L73.2826 101.509Z" fill="black"/>
<path d="M56.6592 83.6216L65.6872 85.0239L66.7465 82.0146C66.7465 82.0146 64.5557 80.9613 64.8988 79.8419L57.5439 74.8223C58.5791 78.1386 58.4527 80.8049 56.6592 83.6216Z" fill="#EEC1BB"/>
<path opacity="0.2" d="M60.5531 76.8748L64.9046 79.848C64.8679 80.1095 64.7666 80.3577 64.6099 80.5702C64.4531 80.7827 64.2459 80.9527 64.007 81.0651C63.768 81.1774 63.5048 81.2284 63.2412 81.2134C62.9776 81.1985 62.7219 81.1181 62.4971 80.9795C61.6371 80.4986 60.9917 79.7091 60.6915 78.7706C60.5283 78.1527 60.4814 77.5098 60.5531 76.8748Z" fill="black"/>
<path d="M58.6458 64.9819C57.6467 67.1366 59.5847 68.5931 65.2242 69.3575C65.5673 66.4144 63.4728 62.3578 61.6551 62.1351C59.8375 61.9124 59.5185 63.1041 58.6458 64.9819Z" fill="#263238"/>
<path d="M53.2829 72.487C55.9432 76.5015 57.2974 78.9812 60.6317 79.902C65.6513 81.2863 69.6598 76.4112 68.2755 71.6805C67.0055 67.4373 62.8586 61.5811 57.839 62.2853C56.1176 62.5187 54.559 63.4254 53.5052 64.8065C52.4513 66.1875 51.9883 67.9302 52.2176 69.6522C52.343 70.6682 52.7081 71.6399 53.2829 72.487Z" fill="#EEC1BB"/>
<path d="M62.8408 68.6953C63.8438 69.4993 64.9539 70.1597 66.1391 70.6574C66.0022 70.9572 65.8014 71.2235 65.5509 71.4377C65.3003 71.6518 65.006 71.8087 64.6886 71.8973L62.8408 68.6953Z" fill="#D4827D"/>
<path d="M59.3917 67.5879C59.4316 67.5697 59.4759 67.5641 59.5191 67.5716C59.5622 67.5792 59.602 67.5996 59.6332 67.6302C59.6645 67.6608 59.6858 67.7002 59.6942 67.7431C59.7027 67.7861 59.698 67.8306 59.6806 67.8708C59.5632 68.2174 59.3641 68.5307 59.1001 68.7842C58.8361 69.0377 58.515 69.224 58.1639 69.3273C58.1074 69.3405 58.0479 69.3317 57.9976 69.3026C57.9473 69.2735 57.9099 69.2264 57.8931 69.1708C57.8817 69.112 57.8926 69.051 57.9238 68.9998C57.9549 68.9486 58.0041 68.9108 58.0616 68.8939C58.3404 68.8124 58.5954 68.6647 58.805 68.4635C59.0145 68.2624 59.1725 68.0136 59.2653 67.7384C59.2747 67.7058 59.2907 67.6756 59.3125 67.6496C59.3343 67.6237 59.3613 67.6027 59.3917 67.5879Z" fill="#263238"/>
<path d="M62.876 64.9818C62.9105 64.9548 62.9517 64.9377 62.9952 64.9324C63.0387 64.9271 63.0828 64.9338 63.1227 64.9517C63.3786 65.0837 63.6624 65.1525 63.9503 65.1525C64.2382 65.1525 64.522 65.0837 64.7779 64.9517C64.8298 64.9298 64.8879 64.9273 64.9415 64.9447C64.9951 64.962 65.0407 64.9981 65.0699 65.0463C65.0991 65.0945 65.11 65.1516 65.1006 65.2072C65.0912 65.2627 65.0621 65.313 65.0186 65.3489C64.6934 65.5149 64.3335 65.6014 63.9684 65.6014C63.6032 65.6014 63.2433 65.5149 62.9181 65.3489C62.8654 65.3218 62.8252 65.2753 62.8061 65.2191C62.787 65.163 62.7905 65.1016 62.8158 65.048C62.8316 65.0225 62.852 65 62.876 64.9818Z" fill="#263238"/>
<path d="M52.8197 67.8467C55.1489 67.3893 56.124 69.6222 55.498 75.2738C52.5549 74.9066 49.1062 71.9093 49.3168 70.0796C49.5275 68.25 50.7733 68.2439 52.8197 67.8467Z" fill="#263238"/>
<path d="M53.2221 76.959C53.6537 77.3764 54.1636 77.7046 54.7223 77.9246C55.2811 78.1446 55.8778 78.2521 56.4782 78.241C58.0852 78.1988 58.4102 76.652 57.5736 75.3821C56.8152 74.2385 55.0698 72.8903 53.6494 73.5464C52.229 74.2024 52.1568 75.9238 53.2221 76.959Z" fill="#EEC1BB"/>
<path opacity="0.5" d="M60.6433 78.1748C60.6433 78.1748 59.7827 74.0821 60.6975 73.2876C61.6123 72.4931 63.9295 73.1612 63.9295 73.1612L63.7189 73.8112C63.7189 73.8112 61.9795 73.4802 61.498 73.6909C61.0165 73.9015 61.0045 76.8386 61.7748 77.3021C62.3601 77.5535 63.0169 77.5835 63.6226 77.3863L63.767 75.8395L64.8564 75.671L65.3138 77.1998C65.9998 76.9995 66.5807 76.5396 66.9329 75.9178C67.294 75.015 66.1203 73.101 65.9819 73.0348C65.5208 73.1517 65.076 73.3256 64.6578 73.5524L64.5976 72.9506C64.5976 72.9506 65.8435 71.6927 66.4032 71.9635C66.963 72.2343 68.4315 75.4604 67.9922 76.297C67.6902 76.9627 67.2406 77.5509 66.6775 78.0171C66.1143 78.4832 65.4525 78.815 64.7421 78.9873C62.6656 79.5531 60.8299 79.2461 60.6433 78.1748Z" fill="black"/>
<path d="M64.953 74.347C64.953 74.347 62.1723 73.8956 61.9858 74.69C61.7992 75.4845 64.002 75.978 64.953 74.347Z" fill="#263238"/>
<path d="M59.9692 70.4226C59.937 70.4208 59.9058 70.4104 59.8789 70.3925C59.8514 70.3644 59.8359 70.3266 59.8359 70.2872C59.8359 70.2478 59.8514 70.21 59.8789 70.1819C59.8789 70.1458 60.541 69.2971 61.2873 69.4295C61.3123 69.435 61.3356 69.4465 61.3552 69.463C61.3747 69.4795 61.3899 69.5006 61.3994 69.5243C61.4089 69.5481 61.4124 69.5738 61.4097 69.5993C61.4069 69.6247 61.398 69.6491 61.3836 69.6703L60.9202 70.3143C60.8962 70.3462 60.8606 70.3673 60.8211 70.373C60.7816 70.3786 60.7415 70.3683 60.7095 70.3444C60.6926 70.3335 60.6781 70.3193 60.6669 70.3025C60.6558 70.2858 60.6483 70.2669 60.6449 70.247C60.6415 70.2272 60.6423 70.2069 60.6472 70.1874C60.6521 70.1679 60.661 70.1496 60.6734 70.1337L60.9623 69.7365C60.6287 69.8505 60.3358 70.0598 60.1197 70.3384C60.1079 70.3674 60.0865 70.3915 60.0592 70.4068C60.0319 70.4221 60.0001 70.4277 59.9692 70.4226Z" fill="#263238"/>
<path d="M64.7181 68.2139L64.0621 68.1838C64.0227 68.1784 63.9864 68.1592 63.9598 68.1296C63.9453 68.116 63.9344 68.0989 63.9281 68.08C63.9217 68.0611 63.9202 68.0409 63.9237 68.0213C63.9406 67.8186 64.0352 67.6302 64.1877 67.4956C64.3403 67.361 64.5389 67.2906 64.7422 67.2991C64.7624 67.2964 64.7828 67.2982 64.8022 67.3043C64.8216 67.3104 64.8394 67.3208 64.8543 67.3346C64.8693 67.3484 64.881 67.3653 64.8887 67.3841C64.8963 67.4029 64.8998 67.4232 64.8987 67.4435C64.8987 67.484 64.8831 67.5229 64.855 67.5521C64.827 67.5813 64.7887 67.5984 64.7482 67.6C64.6473 67.5931 64.5466 67.617 64.4595 67.6686C64.3725 67.7202 64.3031 67.797 64.2607 67.8889H64.7362C64.756 67.8897 64.7754 67.8943 64.7933 67.9026C64.8113 67.9109 64.8274 67.9227 64.8409 67.9372C64.8543 67.9517 64.8647 67.9688 64.8715 67.9873C64.8783 68.0059 64.8814 68.0256 64.8806 68.0454C64.8824 68.0674 64.8794 68.0896 64.8719 68.1104C64.8644 68.1312 64.8526 68.1502 64.8373 68.1662C64.8219 68.1821 64.8034 68.1946 64.7828 68.2028C64.7623 68.211 64.7402 68.2148 64.7181 68.2139Z" fill="#263238"/>
<path d="M54.6248 69.568C54.6248 69.568 53.0901 66.1434 54.6248 64.9336C54.6248 64.9336 61.2815 64.3799 61.7209 63.5734C62.1602 62.7669 62.744 59.6974 60.9144 58.7585C59.9023 58.2143 58.7712 57.9294 57.6221 57.9294C56.4731 57.9294 55.3419 58.2143 54.3299 58.7585C54.3299 58.7585 55.6059 58.4635 55.8827 58.9751C54.2492 59.1342 52.7043 59.7927 51.4583 60.861C50.2123 61.9293 49.3257 63.3556 48.9191 64.9457C47.2339 70.6815 50.821 71.5662 50.821 71.5662L54.6248 69.568Z" fill="#263238"/>
<path d="M61.5949 65.8726H61.5468C61.5093 65.859 61.4787 65.8311 61.4618 65.7949C61.4448 65.7588 61.4429 65.7175 61.4565 65.6799C61.6225 65.3146 61.6728 64.9072 61.6008 64.5124C61.5287 64.1176 61.3376 63.7542 61.0532 63.4711C60.9569 63.9466 60.5717 64.8614 58.9768 65.2767C58.9578 65.2822 58.9379 65.284 58.9183 65.2818C58.8986 65.2797 58.8796 65.2737 58.8623 65.2642C58.845 65.2547 58.8297 65.2419 58.8173 65.2265C58.8049 65.211 58.7957 65.1933 58.7902 65.1744C58.7847 65.1554 58.7829 65.1355 58.7851 65.1159C58.7872 65.0963 58.7932 65.0772 58.8027 65.0599C58.8122 65.0426 58.825 65.0273 58.8404 65.0149C58.8558 65.0026 58.8735 64.9933 58.8925 64.9878C60.8185 64.4582 60.7824 63.2183 60.7824 63.1822C60.7806 63.1547 60.7864 63.1273 60.7991 63.1029C60.8119 63.0785 60.8311 63.058 60.8546 63.0438C60.8777 63.028 60.9049 63.0195 60.9328 63.0195C60.9608 63.0195 60.9881 63.028 61.0111 63.0438C61.4265 63.3474 61.7254 63.7842 61.8579 64.2814C61.9904 64.7786 61.9486 65.3061 61.7394 65.7762C61.7275 65.8048 61.7074 65.8291 61.6817 65.8463C61.656 65.8634 61.6258 65.8726 61.5949 65.8726Z" fill="#263238"/>
<path d="M57.3509 81.6054C60.0657 82.8151 62.9028 83.7292 65.8132 84.3319C65.913 83.0793 65.7065 81.8213 65.2113 80.6665L69.3461 81.9244C69.3461 81.9244 70.1586 84.8314 69.5447 86.5106L66.397 84.9398L63.6886 88.0274C63.6886 88.0274 57.3449 86.7394 55.8643 83.7782L57.3509 81.6054Z" fill="#407BFF"/>
<path d="M51.2668 86.625C45.9222 90.0857 64.2612 101.672 70.4424 101.78C76.6236 101.888 95.119 102.099 95.119 102.099L96.4551 102.888C96.4551 102.888 103.515 103.634 104.123 102.888C104.731 102.141 106.434 96.8688 106.434 96.8688C106.434 96.8688 98.5256 95.7975 95.7269 98.3615C95.7269 98.3615 72.7776 96.9651 72.0915 96.6883C71.4054 96.4114 51.2668 86.625 51.2668 86.625Z" fill="#EEC1BB"/>
<path d="M79.3135 68.0634L81.3358 75.2075L83.7673 74.2205L82.1423 67.5698L79.3135 68.0634Z" fill="#407BFF"/>
<path opacity="0.4" d="M79.3135 68.0634L81.3358 75.2075L83.7673 74.2205L82.1423 67.5698L79.3135 68.0634Z" fill="white"/>
<path opacity="0.2" d="M97.6043 127.678L87.9443 126.589L96.5691 125.891L97.6043 127.678Z" fill="black"/>
<path d="M50.3457 85.301C50.3457 85.301 47.9382 88.3103 49.3587 91.4942C50.7791 94.6781 65.7536 101.955 65.7536 101.955L70.5685 95.3883C70.5685 95.3883 54.0532 83.6037 50.3457 85.301Z" fill="#407BFF"/>
<path opacity="0.2" d="M50.3457 85.301C50.3457 85.301 47.9382 88.3103 49.3587 91.4942C50.7791 94.6781 65.7536 101.955 65.7536 101.955L70.5685 95.3883C70.5685 95.3883 54.0532 83.6037 50.3457 85.301Z" fill="white"/>
<path d="M65.3145 101.955L70.4484 94.9248L72.585 96.2429L68.9497 103.598L65.3145 101.955Z" fill="#407BFF"/>
<path opacity="0.4" d="M65.3145 101.955L70.4484 94.9248L72.585 96.2429L68.9497 103.598L65.3145 101.955Z" fill="white"/>
<path d="M188.714 101.768L175.479 102.093L174.173 102.123L177.471 85.3733H186.222L187.276 86.5469L185.175 94.8708L188.714 101.768Z" fill="#263238"/>
<path opacity="0.4" d="M180.427 91.2595L183.232 102.123L175.479 102.093L178.543 86.5469H187.276L185.176 94.8707L183.232 91.2595H180.427Z" fill="white"/>
<path d="M161.612 101.876L161.124 100.041H141.148L131.952 100.956L131.597 101.876H161.612Z" fill="#263238"/>
<path opacity="0.4" d="M141.148 100.041V101.876H161.612L161.124 100.041H141.148Z" fill="black"/>
<path d="M134.071 91.2415C134.044 91.4644 134.065 91.6905 134.133 91.9044C134.202 92.1184 134.315 92.3153 134.465 92.4818C134.616 92.6484 134.8 92.7807 135.006 92.8699C135.212 92.9591 135.435 93.0031 135.66 92.9989H166.259C166.737 92.9898 167.196 92.8061 167.548 92.4824C167.901 92.1588 168.123 91.7174 168.173 91.2415L169.978 71.6506C169.997 71.4593 169.985 71.2663 169.942 71.0789C169.859 70.7326 169.661 70.4249 169.379 70.2062C169.098 69.9875 168.751 69.8707 168.395 69.8751H137.796C137.318 69.8855 136.86 70.0697 136.508 70.3931C136.156 70.7165 135.933 71.1571 135.882 71.6326L134.071 91.2415Z" fill="#263238"/>
<path opacity="0.4" d="M135.762 92.9989H166.253C166.731 92.9898 167.19 92.8061 167.543 92.4824C167.895 92.1588 168.117 91.7174 168.167 91.2415L169.973 71.6506C169.991 71.4593 169.979 71.2663 169.936 71.0789H139.452C138.973 71.0907 138.515 71.2761 138.163 71.6006C137.811 71.925 137.589 72.3663 137.538 72.8423L135.732 92.4332C135.708 92.6221 135.719 92.8137 135.762 92.9989Z" fill="black"/>
<path d="M156.785 80.9856H150.454L152.139 99.1079L142.13 100.613V101.876H163.213V100.613L158.892 99.1079L156.785 80.9856Z" fill="#263238"/>
<path opacity="0.1" d="M150.454 80.9856L155.143 101.588L158.892 101.479L156.786 80.9856H150.454Z" fill="white"/>
<path d="M132.072 96.0022V96.4175L133.505 96.9832H132.072V97.9583H133.306L134.606 98.8069H133.631L134.931 99.5653H133.631V101.503L110.652 101.509V100.426L109.785 99.5653H110.844V97.1457H108.96V96.3332H108.021V96.0022H132.072Z" fill="#407BFF"/>
<path opacity="0.9" d="M132.072 96.0022V96.4175L133.505 96.9832H132.072V97.9583H133.306L134.606 98.8069H133.631L134.931 99.5653H133.631V101.503L110.652 101.509V100.426L109.785 99.5653H110.844V97.1457H108.96V96.3332H108.021V96.0022H132.072Z" fill="white"/>
<path opacity="0.1" d="M132.072 96.0022V96.4175L133.505 96.9832H132.072V97.9583H133.306L134.606 98.8069H133.631L134.931 99.5653H133.631V101.503L121.118 101.509V100.426L120.258 99.5653H121.311V97.1457H119.427V96.3332H118.488V96.0022H132.072Z" fill="black"/>
<path opacity="0.1" d="M110.845 97.1458H121.311L121.359 97.88L110.845 97.1458Z" fill="black"/>
<path opacity="0.1" d="M108.961 96.3333H119.427L108.961 96.7004V96.3333Z" fill="black"/>
<path opacity="0.1" d="M110.845 99.5654H121.311L110.845 99.1802V99.5654Z" fill="black"/>
<path opacity="0.1" d="M110.652 100.426H121.119V100.829L110.652 100.426Z" fill="black"/>
<path opacity="0.1" d="M132.073 96.4175L121.312 96.3333L132.073 96.0925V96.4175Z" fill="black"/>
<path opacity="0.1" d="M132.072 96.9834H121.118L132.072 97.3505V96.9834Z" fill="black"/>
<path opacity="0.1" d="M133.631 98.8069H121.474V99.18L133.631 98.8069Z" fill="black"/>
<path opacity="0.1" d="M133.632 99.5654H124.82L133.632 99.8062V99.5654Z" fill="black"/>
<path d="M149.431 193.132H152.934L159.235 105.446H154.583L149.431 193.132Z" fill="#263238"/>
<path opacity="0.1" d="M149.425 193.132H152.934L158.928 109.797L159.235 105.584H154.583L154.33 109.797L149.425 193.132Z" fill="white"/>
<path opacity="0.2" d="M154.33 109.592H158.928L159.235 105.584H154.583L154.33 109.592Z" fill="black"/>
<path d="M123.707 193.132H127.21L127.781 105.446H123.129L123.707 193.132Z" fill="#263238"/>
<path opacity="0.1" d="M123.129 105.584L123.219 119.734L123.701 193.132H127.21L127.691 119.734L127.781 105.584H123.129Z" fill="white"/>
<path opacity="0.2" d="M123.129 105.584L123.219 119.89H127.691L127.781 105.584H123.129Z" fill="black"/>
<path d="M86.4873 193.132H89.9962L96.2918 105.446H91.6393L86.4873 193.132Z" fill="#263238"/>
<path opacity="0.1" d="M86.4873 193.132H89.9962L95.9848 109.797L96.2918 105.584H91.6393L91.3925 109.797L86.4873 193.132Z" fill="white"/>
<path opacity="0.2" d="M91.3926 109.592H95.9848L96.2918 105.584H91.6393L91.3926 109.592Z" fill="black"/>
<path d="M189.527 193.132H193.036L187.878 105.446H183.231L189.527 193.132Z" fill="#263238"/>
<path opacity="0.1" d="M183.231 105.584L183.538 109.797L189.533 193.132H193.03L188.137 109.797L187.884 105.584H183.231Z" fill="white"/>
<path opacity="0.2" d="M187.884 105.584H183.231L183.538 109.592H188.137L187.884 105.584Z" fill="black"/>
<path d="M190.285 107.642L89.2376 107.642C88.8976 107.642 88.5715 107.507 88.3311 107.267C88.0907 107.026 87.9556 106.7 87.9556 106.36V103.249L191.567 103.249V106.36C191.567 106.7 191.432 107.026 191.192 107.267C190.951 107.507 190.625 107.642 190.285 107.642Z" fill="#407BFF"/>
<path opacity="0.4" d="M190.285 107.642L89.2376 107.642C88.8976 107.642 88.5715 107.507 88.3311 107.267C88.0907 107.026 87.9556 106.7 87.9556 106.36V103.249L191.567 103.249V106.36C191.567 106.7 191.432 107.026 191.192 107.267C190.951 107.507 190.625 107.642 190.285 107.642Z" fill="white"/>
<path opacity="0.2" d="M87.9556 105.446L191.567 105.446V103.249L87.9556 103.249V105.446Z" fill="black"/>
<path d="M85.7828 103.821H193.74C194.063 103.822 194.374 103.697 194.606 103.472C194.838 103.247 194.972 102.94 194.98 102.617C194.98 102.288 194.849 101.973 194.617 101.74C194.384 101.508 194.069 101.377 193.74 101.377H85.7828C85.454 101.377 85.1386 101.508 84.9061 101.74C84.6736 101.973 84.543 102.288 84.543 102.617C84.5508 102.94 84.6851 103.247 84.917 103.472C85.1488 103.697 85.4597 103.822 85.7828 103.821Z" fill="#407BFF"/>
<path opacity="0.4" d="M85.7828 103.821H193.74C194.063 103.822 194.374 103.697 194.606 103.472C194.838 103.247 194.972 102.94 194.98 102.617C194.98 102.288 194.849 101.973 194.617 101.74C194.384 101.508 194.069 101.377 193.74 101.377H85.7828C85.454 101.377 85.1386 101.508 84.9061 101.74C84.6736 101.973 84.543 102.288 84.543 102.617C84.5508 102.94 84.6851 103.247 84.917 103.472C85.1488 103.697 85.4597 103.822 85.7828 103.821Z" fill="white"/>
<path d="M129.063 90.5854V91.0007L130.496 91.5665H129.063V92.5415H130.297L131.597 93.3902H130.622L131.922 94.1485H130.622V96.0805L107.643 96.0925V95.0092L106.776 94.1485H107.835V91.729H105.952V90.9165H105.013V90.5854H129.063Z" fill="#407BFF"/>
<path opacity="0.9" d="M129.063 90.5854V91.0007L130.496 91.5665H129.063V92.5415H130.297L131.597 93.3902H130.622L131.922 94.1485H130.622V96.0805L107.643 96.0925V95.0092L106.776 94.1485H107.835V91.729H105.952V90.9165H105.013V90.5854H129.063Z" fill="white"/>
<path opacity="0.1" d="M129.064 90.5854V91.0007L130.496 91.5665H129.064V92.5415H130.298L131.598 93.3902H130.623L131.923 94.1485H130.623V96.0805L118.11 96.0925V95.0092L117.249 94.1485H118.302V91.729H116.418V90.9165H115.479V90.5854H129.064Z" fill="black"/>
<path opacity="0.1" d="M107.835 91.729H118.301L118.35 92.4633L107.835 91.729Z" fill="black"/>
<path opacity="0.1" d="M105.951 90.9165H116.418L105.951 91.2836V90.9165Z" fill="black"/>
<path opacity="0.1" d="M107.835 94.1486H118.301L107.835 93.7634V94.1486Z" fill="black"/>
<path opacity="0.1" d="M107.643 95.0093H118.109V95.4125L107.643 95.0093Z" fill="black"/>
<path opacity="0.1" d="M129.063 91.0008L118.302 90.9165L129.063 90.6758V91.0008Z" fill="black"/>
<path opacity="0.1" d="M129.063 91.5664H118.109L129.063 91.9335V91.5664Z" fill="black"/>
<path opacity="0.1" d="M130.622 93.3901H118.464V93.7633L130.622 93.3901Z" fill="black"/>
<path opacity="0.1" d="M130.622 94.1484H121.811L130.622 94.3892V94.1484Z" fill="black"/>
<path d="M102.172 10.5427C86.2044 10.5427 73.2822 20.618 73.2822 33.0406C73.2822 40.57 78.043 47.2266 85.3196 51.3133C83.7909 53.9194 80.6973 57.5607 74.7688 59.5589C74.7688 59.5589 83.7006 59.559 91.0795 53.8171C94.6644 54.9665 98.4073 55.5474 102.172 55.5385C118.14 55.5385 131.062 45.4632 131.062 33.0406C131.062 20.618 118.164 10.5427 102.172 10.5427Z" fill="#407BFF"/>
<path opacity="0.7" d="M102.172 10.5427C86.2044 10.5427 73.2822 20.618 73.2822 33.0406C73.2822 40.57 78.043 47.2266 85.3196 51.3133C83.7909 53.9194 80.6973 57.5607 74.7688 59.5589C74.7688 59.5589 83.7006 59.559 91.0795 53.8171C94.6644 54.9665 98.4073 55.5474 102.172 55.5385C118.14 55.5385 131.062 45.4632 131.062 33.0406C131.062 20.618 118.164 10.5427 102.172 10.5427Z" fill="white"/>
<path d="M92.1744 28.4182H88.6836V38.5116H92.1744V28.4182Z" fill="#407BFF"/>
<path opacity="0.2" d="M97.5914 28.4182H94.1006V38.5116H97.5914V28.4182Z" fill="black"/>
<path opacity="0.2" d="M103.003 28.4182H99.5117V38.5116H103.003V28.4182Z" fill="black"/>
<path opacity="0.2" d="M108.42 28.4182H104.929V38.5116H108.42V28.4182Z" fill="black"/>
<path opacity="0.2" d="M113.83 28.4182H110.339V38.5116H113.83V28.4182Z" fill="black"/>
<path d="M117.604 30.8078H116.015V27.4493C116.015 27.1572 115.899 26.8771 115.692 26.6705C115.486 26.4639 115.206 26.3479 114.914 26.3479H87.5887C87.2966 26.3479 87.0165 26.4639 86.8099 26.6705C86.6033 26.8771 86.4873 27.1572 86.4873 27.4493V39.4867C86.4873 39.6313 86.5158 39.7746 86.5711 39.9082C86.6265 40.0418 86.7076 40.1633 86.8099 40.2655C86.9122 40.3678 87.0336 40.4489 87.1672 40.5043C87.3009 40.5596 87.4441 40.5881 87.5887 40.5881H114.932C115.076 40.5881 115.22 40.5596 115.353 40.5043C115.487 40.4489 115.608 40.3678 115.71 40.2655C115.813 40.1633 115.894 40.0418 115.949 39.9082C116.005 39.7746 116.033 39.6313 116.033 39.4867V36.1283H117.604C117.676 36.1291 117.747 36.1156 117.813 36.0888C117.879 36.0619 117.94 36.0221 117.991 35.9718C118.042 35.9214 118.082 35.8614 118.11 35.7953C118.137 35.7292 118.152 35.6582 118.152 35.5866V31.3735C118.154 31.3001 118.142 31.2269 118.115 31.1584C118.089 31.0898 118.049 31.0273 117.998 30.9745C117.947 30.9217 117.885 30.8797 117.818 30.8511C117.75 30.8225 117.677 30.8077 117.604 30.8078ZM115.479 39.4807C115.479 39.6259 115.422 39.7653 115.319 39.868C115.216 39.9707 115.077 40.0284 114.932 40.0284H87.5887C87.4435 40.0284 87.3042 39.9707 87.2014 39.868C87.0987 39.7653 87.041 39.6259 87.041 39.4807V27.4433C87.041 27.298 87.0987 27.1587 87.2014 27.056C87.3042 26.9533 87.4435 26.8956 87.5887 26.8956H114.932C115.077 26.8956 115.216 26.9533 115.319 27.056C115.422 27.1587 115.479 27.298 115.479 27.4433V39.4807Z" fill="#407BFF"/>
</svg>
