<svg width="226" height="200" viewBox="0 0 226 200" fill="none" xmlns="http://www.w3.org/2000/svg">
<path d="M224.967 183.188H206.303V183.329H224.967V183.188Z" fill="#EBEBEB"/>
<path d="M158.087 184.721H153.189V184.862H158.087V184.721Z" fill="#EBEBEB"/>
<path d="M205.74 177.959H194.926V178.1H205.74V177.959Z" fill="#EBEBEB"/>
<path d="M25.3318 178.906H0.992188V179.046H25.3318V178.906Z" fill="#EBEBEB"/>
<path d="M33.9208 178.906H30.3535V179.046H33.9208V178.906Z" fill="#EBEBEB"/>
<path d="M98.3106 181.284H45.5176V181.425H98.3106V181.284Z" fill="#EBEBEB"/>
<path d="M221.936 174.121V38.96H177.432V174.121H221.936Z" fill="#F0F0F0"/>
<path d="M219.49 82.5277V42.9104H179.873V82.5277H219.49Z" fill="#F5F5F5"/>
<path d="M219.49 125.701V86.0837H179.873V125.701H219.49Z" fill="#F5F5F5"/>
<path d="M219.49 168.874V129.257H179.873V168.874H219.49Z" fill="#F5F5F5"/>
<path d="M190.914 42.3865H208.452C208.452 42.926 208.345 43.4602 208.139 43.9586C207.932 44.4571 207.63 44.91 207.248 45.2915C206.867 45.6729 206.414 45.9755 205.916 46.182C205.417 46.3885 204.883 46.4947 204.343 46.4947H195.022C193.933 46.4947 192.888 46.0619 192.117 45.2915C191.347 44.521 190.914 43.4761 190.914 42.3865Z" fill="#E6E6E6"/>
<path d="M190.914 85.5598H208.452C208.452 86.0993 208.345 86.6335 208.139 87.132C207.932 87.6304 207.63 88.0833 207.248 88.4648C206.867 88.8463 206.414 89.1489 205.916 89.3553C205.417 89.5618 204.883 89.6681 204.343 89.6681H195.022C193.933 89.6681 192.888 89.2352 192.117 88.4648C191.347 87.6943 190.914 86.6494 190.914 85.5598Z" fill="#E6E6E6"/>
<path d="M190.914 128.733H208.452C208.452 129.273 208.345 129.807 208.139 130.305C207.932 130.804 207.63 131.257 207.248 131.638C206.867 132.02 206.414 132.322 205.916 132.529C205.417 132.735 204.883 132.841 204.343 132.841H195.022C193.933 132.841 192.888 132.409 192.117 131.638C191.347 130.868 190.914 129.823 190.914 128.733Z" fill="#E6E6E6"/>
<path d="M177.428 174.115V38.9543H155.201V174.115H177.428Z" fill="#F5F5F5"/>
<path d="M14.0996 86.5066V87.7295H14.8829L15.5254 97.3154H25.0493L25.6918 87.7295H26.4751V86.5066H14.0996Z" fill="#E6E6E6"/>
<path d="M17.2331 62.7135C18.0165 56.9991 25.7201 55.3874 35.5033 55.162C44.8075 54.9591 47.7886 51.668 47.7886 51.668C47.7886 51.668 47.7605 65.0015 34.348 69.8311C21.6175 74.4127 16.4498 68.4335 17.2331 62.7135Z" fill="#E6E6E6"/>
<path d="M21.9843 75.6582C21.8209 73.3082 18.0733 68.9914 9.05091 70.9582C2.53067 72.3727 0.107422 68.9915 0.107422 68.9915C0.107422 68.9915 0.710418 78.5379 10.5161 81.3895C19.8316 84.1283 22.2717 79.7834 21.9843 75.6582Z" fill="#E6E6E6"/>
<path d="M19.9269 90.1076C19.8765 90.1069 19.8268 90.0955 19.7811 90.0742C19.7355 90.0528 19.6949 90.0219 19.6621 89.9836C19.0083 89.2116 19.5437 87.3575 20.282 84.799C21.2344 81.5079 22.4178 77.4165 21.4091 74.4466C20.8558 72.8799 20.2084 71.348 19.4705 69.8594C18.0503 66.8669 16.8274 64.2803 17.8474 61.5809C17.8637 61.5379 17.8883 61.4986 17.9197 61.4652C17.9512 61.4317 17.9889 61.4048 18.0308 61.386C18.0727 61.3672 18.1179 61.3568 18.1637 61.3554C18.2096 61.354 18.2554 61.3617 18.2983 61.378C18.341 61.3937 18.3802 61.4177 18.4136 61.4486C18.447 61.4795 18.4739 61.5168 18.4927 61.5582C18.5116 61.5996 18.5221 61.6444 18.5235 61.6899C18.525 61.7353 18.5174 61.7807 18.5012 61.8232C17.5826 64.2521 18.6928 66.5964 20.096 69.5607C20.8448 71.0759 21.5034 72.634 22.0684 74.2269C23.1391 77.3996 21.9219 81.6093 20.9413 84.9906C20.3778 86.9856 19.7691 89.0425 20.1805 89.5328C20.2399 89.6032 20.2691 89.6942 20.2617 89.7861C20.2543 89.8779 20.211 89.9631 20.1411 90.0231C20.0818 90.0754 20.006 90.1054 19.9269 90.1076Z" fill="#E6E6E6"/>
<path d="M167.814 97.3154H128.326V174.121H167.814V97.3154Z" fill="#F5F5F5"/>
<path d="M167.814 97.3154H164.557V174.121H167.814V97.3154Z" fill="#F0F0F0"/>
<path d="M40.4521 132.007H131.369V99.5076L40.4521 99.5076V132.007Z" fill="#E6E6E6"/>
<path d="M78.3663 174.104H39.3858C39.2364 174.104 39.093 174.045 38.9873 173.939C38.8816 173.834 38.8223 173.69 38.8223 173.541C38.8223 173.391 38.8816 173.248 38.9873 173.142C39.093 173.037 39.2364 172.977 39.3858 172.977H78.3663C84.0018 172.977 84.7513 171.337 84.7513 164.806V82.5279C84.7513 82.3784 84.8107 82.2351 84.9164 82.1294C85.0221 82.0237 85.1654 81.9644 85.3149 81.9644C85.4643 81.9644 85.6077 82.0237 85.7134 82.1294C85.8191 82.2351 85.8784 82.3784 85.8784 82.5279V164.806C85.8784 171.782 84.7908 174.104 78.3663 174.104Z" fill="#E6E6E6"/>
<path d="M44.8353 103.075L167.812 103.075V97.3153L44.8353 97.3153V103.075Z" fill="#F0F0F0"/>
<path d="M44.8354 97.3154H5.34766V174.121H44.8354V97.3154Z" fill="#F5F5F5"/>
<path d="M44.8354 97.3154H41.5781V174.121H44.8354V97.3154Z" fill="#F0F0F0"/>
<path d="M89.2769 97.3154H80.7617L82.8299 80.7358H91.3508L89.2769 97.3154Z" fill="#F0F0F0"/>
<path d="M91.1654 97.3154H82.6445L84.7184 80.7358H93.2336L91.1654 97.3154Z" fill="#F5F5F5"/>
<path d="M92.2025 89.0256H83.6816L84.7186 80.7358H93.2338L92.2025 89.0256Z" fill="#F0F0F0"/>
<path d="M60.8981 87.0417H121.158C121.277 87.0419 121.394 87.0168 121.502 86.968C121.611 86.9192 121.707 86.8479 121.786 86.7588C121.864 86.6697 121.922 86.5649 121.957 86.4514C121.992 86.3379 122.002 86.2183 121.987 86.1006L117.343 48.9516C117.319 48.7489 117.222 48.562 117.069 48.4268C116.916 48.2916 116.719 48.2176 116.515 48.219H56.2545C56.1364 48.2189 56.0196 48.244 55.9118 48.2924C55.8041 48.3409 55.7079 48.4117 55.6296 48.5001C55.5512 48.5886 55.4926 48.6926 55.4575 48.8055C55.4225 48.9183 55.4117 49.0372 55.4261 49.1545L60.0697 86.3091C60.0945 86.5114 60.1925 86.6975 60.3451 86.8325C60.4977 86.9674 60.6944 87.0419 60.8981 87.0417Z" fill="#F0F0F0"/>
<path d="M61.7927 87.0418H122.053C122.171 87.042 122.289 87.0168 122.397 86.968C122.505 86.9192 122.602 86.8479 122.68 86.7588C122.758 86.6698 122.817 86.565 122.852 86.4515C122.886 86.338 122.896 86.2184 122.881 86.1007L118.238 48.9517C118.211 48.7466 118.109 48.5586 117.952 48.4243C117.795 48.2899 117.593 48.2188 117.387 48.2247H57.1491C57.0309 48.2246 56.9141 48.2496 56.8064 48.2981C56.6986 48.3466 56.6024 48.4174 56.5241 48.5058C56.4458 48.5943 56.3871 48.6983 56.3521 48.8111C56.317 48.924 56.3063 49.0429 56.3206 49.1602L60.9643 86.3148C60.9903 86.516 61.0888 86.7008 61.2413 86.8347C61.3938 86.9685 61.5898 87.0421 61.7927 87.0418Z" fill="#F5F5F5"/>
<path d="M120.938 84.9848L116.593 50.214C116.585 50.1582 116.558 50.1071 116.515 50.0699C116.473 50.0328 116.419 50.0119 116.362 50.0111H58.4973C58.4642 50.0099 58.4312 50.0161 58.4006 50.0291C58.3701 50.0421 58.3429 50.0617 58.3208 50.0864C58.2987 50.1112 58.2824 50.1405 58.273 50.1723C58.2635 50.2041 58.2612 50.2376 58.2662 50.2704L62.6112 85.0468C62.6192 85.1026 62.6469 85.1537 62.6893 85.1909C62.7316 85.2281 62.7859 85.249 62.8423 85.2497H120.707C120.74 85.2492 120.773 85.2417 120.803 85.2277C120.833 85.2137 120.86 85.1936 120.882 85.1687C120.903 85.1437 120.92 85.1144 120.929 85.0828C120.939 85.0511 120.942 85.0177 120.938 84.9848Z" fill="#E6E6E6"/>
<path d="M114.762 85.2498L99.4671 50.0112H86.0547L101.355 85.2498H114.762Z" fill="#EBEBEB"/>
<path d="M98.7668 85.2498L83.4722 50.0112H78.6426L93.9372 85.2498H98.7668Z" fill="#EBEBEB"/>
<path d="M98.9141 97.3154H85.0395V97.1407C85.0395 96.7745 85.185 96.4234 85.4439 96.1644C85.7029 95.9055 86.054 95.76 86.4202 95.76H97.5334C97.8996 95.76 98.2507 95.9055 98.5097 96.1644C98.7686 96.4234 98.9141 96.7745 98.9141 97.1407V97.3154Z" fill="#F5F5F5"/>
<path d="M86.6465 97.3154H77.2353V97.1407C77.2353 96.7745 77.3807 96.4234 77.6396 96.1644C77.8986 95.9055 78.2498 95.76 78.6159 95.76H85.2658C85.632 95.76 85.9832 95.9055 86.2421 96.1644C86.501 96.4234 86.6465 96.7745 86.6465 97.1407V97.3154Z" fill="#F0F0F0"/>
<path d="M114.248 97.3153H71.3504L70.1895 93.8721H108.668L114.248 97.3153Z" fill="#F5F5F5"/>
<path d="M76.0728 97.3153H68.9834L68.0254 93.8721H75.1092L76.0728 97.3153Z" fill="#F0F0F0"/>
<path d="M125.102 94.4355H131.555C131.933 94.4355 132.308 94.51 132.657 94.6548C133.006 94.7995 133.324 95.0116 133.591 95.279C133.859 95.5464 134.071 95.8639 134.216 96.2133C134.36 96.5626 134.435 96.9371 134.435 97.3153H122.223C122.223 96.9371 122.297 96.5626 122.442 96.2133C122.587 95.8639 122.799 95.5464 123.066 95.279C123.334 95.0116 123.651 94.7995 124 94.6548C124.35 94.51 124.724 94.4355 125.102 94.4355Z" fill="#F0F0F0"/>
<path d="M83.0509 5.75586H19.9844V37.399H83.0509V5.75586Z" fill="#E6E6E6"/>
<path d="M86.1715 5.75586H20.7832V37.399H86.1715V5.75586Z" fill="#F0F0F0"/>
<path d="M83.6758 34.9026V8.24683L23.2748 8.24683V34.9026H83.6758Z" fill="white"/>
<path d="M25.6699 21.5747C25.6699 21.3042 25.7774 21.0447 25.9687 20.8534C26.16 20.6622 26.4194 20.5547 26.6899 20.5547H80.2663C80.5369 20.5547 80.7963 20.6622 80.9876 20.8534C81.1789 21.0447 81.2864 21.3042 81.2864 21.5747C81.2864 21.7087 81.26 21.8413 81.2087 21.9651C81.1575 22.0888 81.0823 22.2013 80.9876 22.296C80.8929 22.3907 80.7804 22.4658 80.6567 22.5171C80.5329 22.5683 80.4003 22.5947 80.2663 22.5947H26.6899C26.556 22.5947 26.4233 22.5683 26.2996 22.5171C26.1758 22.4658 26.0634 22.3907 25.9687 22.296C25.874 22.2013 25.7988 22.0888 25.7476 21.9651C25.6963 21.8413 25.6699 21.7087 25.6699 21.5747Z" fill="#F5F5F5"/>
<path d="M112.315 199.571C172.661 199.571 221.581 196.715 221.581 193.191C221.581 189.668 172.661 186.812 112.315 186.812C51.9689 186.812 3.04883 189.668 3.04883 193.191C3.04883 196.715 51.9689 199.571 112.315 199.571Z" fill="#F5F5F5"/>
<path d="M24.24 99.5073L156.882 99.5073C160.617 99.5073 163.645 96.4796 163.645 92.7448V9.65543C163.645 5.92056 160.617 2.89286 156.882 2.89286L24.24 2.89286C20.5051 2.89286 17.4774 5.92056 17.4774 9.65543V92.7448C17.4774 96.4796 20.5051 99.5073 24.24 99.5073Z" fill="#263238"/>
<path d="M55.8311 187.894L87.88 155.862L88.669 155.079V60.059C88.669 59.7212 88.8031 59.3973 89.042 59.1584C89.2808 58.9196 89.6048 58.7854 89.9426 58.7854H91.1824C91.5202 58.7854 91.8441 58.9196 92.083 59.1584C92.3218 59.3973 92.456 59.7212 92.456 60.059V155.062L93.2393 155.845L125.277 187.894C125.379 187.995 125.46 188.115 125.515 188.248C125.57 188.38 125.599 188.522 125.599 188.666C125.599 188.81 125.57 188.952 125.515 189.084C125.46 189.217 125.379 189.337 125.277 189.438L124.15 190.565C123.945 190.768 123.669 190.882 123.381 190.882C123.093 190.882 122.816 190.768 122.611 190.565L92.456 160.41V189.618C92.456 189.956 92.3218 190.28 92.083 190.519C91.8441 190.758 91.5202 190.892 91.1824 190.892H89.9426C89.7734 190.895 89.6054 190.864 89.4483 190.802C89.2911 190.739 89.148 190.646 89.0274 190.527C88.9067 190.409 88.8109 190.267 88.7455 190.111C88.6801 189.955 88.6464 189.788 88.6464 189.618V160.421L58.5136 190.576C58.3045 190.773 58.0284 190.882 57.7415 190.882C57.4546 190.882 57.1785 190.773 56.9694 190.576L55.8424 189.449C55.641 189.241 55.5275 188.964 55.5254 188.674C55.5233 188.384 55.6328 188.105 55.8311 187.894Z" fill="#263238"/>
<path d="M147.025 0.92041H142.748V1.48396H147.025V0.92041Z" fill="#407BFF"/>
<path d="M138.802 0.92041H129.881V1.48396H138.802V0.92041Z" fill="#407BFF"/>
<path d="M25.6189 99.5073L158.261 99.5073C161.996 99.5073 165.023 96.4796 165.023 92.7448V9.65543C165.023 5.92056 161.996 2.89286 158.261 2.89286L25.6189 2.89286C21.884 2.89286 18.8563 5.92056 18.8563 9.65543V92.7448C18.8563 96.4796 21.884 99.5073 25.6189 99.5073Z" fill="#407BFF"/>
<path d="M161.08 92.7391V9.64977C161.08 8.09357 159.819 6.83203 158.262 6.83203L25.6203 6.83203C24.0641 6.83203 22.8026 8.09357 22.8026 9.64977V92.7391C22.8026 94.2953 24.0641 95.5568 25.6203 95.5568L158.262 95.5568C159.819 95.5568 161.08 94.2953 161.08 92.7391Z" fill="#FAFAFA"/>
<path d="M86.8539 156.33H94.2702C95.2568 156.33 96.0566 155.53 96.0566 154.543V149.477C96.0566 148.49 95.2568 147.69 94.2702 147.69H86.8539C85.8673 147.69 85.0675 148.49 85.0675 149.477V154.543C85.0675 155.53 85.8673 156.33 86.8539 156.33Z" fill="#407BFF"/>
<path opacity="0.1" d="M74.2717 81.0173C79.2874 81.0173 84.1904 79.53 88.3608 76.7435C92.5311 73.9569 95.7815 69.9963 97.7009 65.3624C99.6203 60.7286 100.123 55.6296 99.144 50.7103C98.1655 45.791 95.7503 41.2724 92.2037 37.7258C88.6571 34.1792 84.1384 31.7639 79.2191 30.7854C74.2998 29.8069 69.2009 30.3091 64.567 32.2285C59.9331 34.1479 55.9725 37.3983 53.186 41.5687C50.3994 45.739 48.9121 50.6421 48.9121 55.6577C48.9121 62.3835 51.5839 68.8338 56.3398 73.5897C61.0956 78.3455 67.5459 81.0173 74.2717 81.0173ZM74.2717 30.8166C79.1871 30.8166 83.992 32.2741 88.079 35.005C92.1659 37.7358 95.3513 41.6172 97.2324 46.1584C99.1134 50.6996 99.6055 55.6966 98.6466 60.5174C97.6877 65.3383 95.3207 69.7666 91.845 73.2423C88.3694 76.718 83.9411 79.0849 79.1202 80.0439C74.2993 81.0028 69.3023 80.5107 64.7611 78.6296C60.2199 76.7486 56.3385 73.5632 53.6077 69.4763C50.8769 65.3893 49.4193 60.5843 49.4193 55.669C49.4268 49.08 52.0475 42.763 56.7066 38.1039C61.3658 33.4448 67.6827 30.824 74.2717 30.8166Z" fill="black"/>
<path d="M44.0137 17.6917H66.3357C67.1309 17.6917 67.8935 18.0075 68.4557 18.5698C69.0179 19.132 69.3338 19.8946 69.3338 20.6897V61.9413C69.3338 62.7365 69.0179 63.4991 68.4557 64.0613C67.8935 64.6235 67.1309 64.9394 66.3357 64.9394H37.7696C36.9744 64.9394 36.2118 64.6235 35.6496 64.0613C35.0874 63.4991 34.7715 62.7365 34.7715 61.9413V26.9338L44.0137 17.6917Z" fill="#407BFF"/>
<path d="M45.3267 60.8141H63.9238C64.2671 60.8053 64.5933 60.6623 64.8324 60.4158C65.0716 60.1693 65.2046 59.8389 65.203 59.4954C65.203 59.1487 65.0653 58.8161 64.8201 58.5709C64.5749 58.3257 64.2424 58.188 63.8956 58.188H45.2986C44.9562 58.1953 44.6302 58.3361 44.3902 58.5804C44.1502 58.8246 44.0151 59.153 44.0137 59.4954C44.0137 59.8442 44.1518 60.1788 44.3979 60.4259C44.644 60.673 44.978 60.8126 45.3267 60.8141Z" fill="white"/>
<path d="M54.073 24.4371H63.8957C64.2424 24.4371 64.575 24.2994 64.8202 24.0542C65.0654 23.809 65.2031 23.4764 65.2031 23.1297C65.2031 22.7829 65.0654 22.4504 64.8202 22.2052C64.575 21.96 64.2424 21.8223 63.8957 21.8223H54.073C53.7263 21.8223 53.3937 21.96 53.1486 22.2052C52.9034 22.4504 52.7656 22.7829 52.7656 23.1297C52.7656 23.4764 52.9034 23.809 53.1486 24.0542C53.3937 24.2994 53.7263 24.4371 54.073 24.4371Z" fill="white"/>
<path d="M47.6648 29.6276H63.895C64.2417 29.6276 64.5743 29.4898 64.8195 29.2446C65.0647 28.9994 65.2024 28.6669 65.2024 28.3201C65.2024 27.9734 65.0647 27.6408 64.8195 27.3956C64.5743 27.1504 64.2417 27.0127 63.895 27.0127H47.6648C47.3181 27.0127 46.9855 27.1504 46.7404 27.3956C46.4952 27.6408 46.3574 27.9734 46.3574 28.3201C46.3574 28.6669 46.4952 28.9994 46.7404 29.2446C46.9855 29.4898 47.3181 29.6276 47.6648 29.6276Z" fill="white"/>
<path d="M40.2095 34.829H63.8785C64.2253 34.829 64.5578 34.6912 64.803 34.446C65.0482 34.2008 65.1859 33.8683 65.1859 33.5215C65.1859 33.1748 65.0482 32.8422 64.803 32.5971C64.5578 32.3519 64.2253 32.2141 63.8785 32.2141H40.2095C39.8623 32.2141 39.5291 32.3517 39.2831 32.5967C39.037 32.8417 38.898 33.1743 38.8965 33.5215C38.898 33.8688 39.037 34.2013 39.2831 34.4464C39.5291 34.6914 39.8623 34.829 40.2095 34.829Z" fill="white"/>
<path d="M40.2095 40.025H53.977C54.3243 40.025 54.6574 39.8875 54.9035 39.6424C55.1496 39.3974 55.2886 39.0649 55.2901 38.7176C55.2886 38.3703 55.1496 38.0378 54.9035 37.7928C54.6574 37.5477 54.3243 37.4102 53.977 37.4102H40.2095C39.8623 37.4102 39.5291 37.5477 39.2831 37.7928C39.037 38.0378 38.898 38.3703 38.8965 38.7176C38.898 39.0649 39.037 39.3974 39.2831 39.6424C39.5291 39.8875 39.8623 40.025 40.2095 40.025Z" fill="white"/>
<path d="M60.2957 40.025H63.8968C64.2435 40.025 64.5761 39.8873 64.8213 39.6421C65.0665 39.3969 65.2042 39.0643 65.2042 38.7176C65.2042 38.3708 65.0665 38.0383 64.8213 37.7931C64.5761 37.5479 64.2435 37.4102 63.8968 37.4102H60.2957C59.949 37.4102 59.6164 37.5479 59.3712 37.7931C59.126 38.0383 58.9883 38.3708 58.9883 38.7176C58.9883 39.0643 59.126 39.3969 59.3712 39.6421C59.6164 39.8873 59.949 40.025 60.2957 40.025Z" fill="white"/>
<path d="M40.2095 45.2208H63.8785C64.2253 45.2208 64.5578 45.0831 64.803 44.8379C65.0482 44.5927 65.1859 44.2601 65.1859 43.9134C65.1859 43.5666 65.0482 43.2341 64.803 42.9889C64.5578 42.7437 64.2253 42.606 63.8785 42.606H40.2095C39.8623 42.606 39.5291 42.7435 39.2831 42.9886C39.037 43.2336 38.898 43.5661 38.8965 43.9134C38.898 44.2607 39.037 44.5932 39.2831 44.8382C39.5291 45.0833 39.8623 45.2208 40.2095 45.2208Z" fill="white"/>
<path d="M49.3502 50.4166H63.8953C64.2421 50.4166 64.5746 50.2789 64.8198 50.0337C65.065 49.7885 65.2027 49.4559 65.2027 49.1092C65.2027 48.7624 65.065 48.4299 64.8198 48.1847C64.5746 47.9395 64.2421 47.8018 63.8953 47.8018H49.3502C49.0029 47.8018 48.6698 47.9393 48.4237 48.1844C48.1776 48.4294 48.0386 48.7619 48.0371 49.1092C48.0386 49.4565 48.1776 49.789 48.4237 50.034C48.6698 50.2791 49.0029 50.4166 49.3502 50.4166Z" fill="white"/>
<path d="M40.2095 50.4166H44.0924C44.4391 50.4166 44.7717 50.2789 45.0169 50.0337C45.2621 49.7885 45.3998 49.4559 45.3998 49.1092C45.3998 48.7624 45.2621 48.4299 45.0169 48.1847C44.7717 47.9395 44.4391 47.8018 44.0924 47.8018H40.2095C39.8623 47.8018 39.5291 47.9393 39.2831 48.1844C39.037 48.4294 38.898 48.7619 38.8965 49.1092C38.898 49.4565 39.037 49.789 39.2831 50.034C39.5291 50.2791 39.8623 50.4166 40.2095 50.4166Z" fill="white"/>
<path d="M40.2095 55.6127H63.8785C64.2253 55.6127 64.5578 55.4749 64.803 55.2297C65.0482 54.9845 65.1859 54.652 65.1859 54.3052C65.1859 53.9585 65.0482 53.6259 64.803 53.3807C64.5578 53.1355 64.2253 52.9978 63.8785 52.9978H40.2095C39.8623 52.9978 39.5291 53.1354 39.2831 53.3804C39.037 53.6254 38.898 53.958 38.8965 54.3052C38.898 54.6525 39.037 54.985 39.2831 55.2301C39.5291 55.4751 39.8623 55.6127 40.2095 55.6127Z" fill="white"/>
<path opacity="0.2" d="M44.0137 17.6917V23.9358C44.0137 24.7309 43.6978 25.4935 43.1355 26.0557C42.5733 26.618 41.8107 26.9338 41.0156 26.9338H34.7715L44.0137 17.6917Z" fill="black"/>
<path d="M118.72 23.8894V15.7634C111.997 15.7563 105.46 18.0155 100.125 22.19C94.7897 26.3645 90.9548 32.2206 89.216 38.8484C87.4771 45.4762 87.9318 52.5046 90.5094 58.8416C93.0869 65.1785 97.6429 70.4692 103.47 73.8915L107.451 66.8531C103.15 64.3215 99.7878 60.4119 97.8865 55.731C95.9852 51.0501 95.6508 45.8596 96.9351 40.9648C98.2194 36.0701 101.051 31.7448 104.99 28.6602C108.928 25.5755 113.755 23.9039 118.72 23.9048V23.8894Z" fill="#263238"/>
<path opacity="0.2" d="M150.248 46.3053C150.246 38.2064 146.925 30.4395 141.013 24.7122C135.1 18.9849 127.082 15.7661 118.721 15.7634V23.7322C124.901 23.7335 130.828 26.1122 135.198 30.3452C139.569 34.5782 142.024 40.3189 142.026 46.3053H150.248Z" fill="black"/>
<path d="M150.248 46.3054H142.025C142.025 50.3952 140.948 54.4129 138.903 57.9547C136.858 61.4966 133.916 64.4378 130.374 66.4826C126.831 68.5275 122.813 69.6041 118.722 69.6041C114.632 69.6041 110.613 68.5275 107.071 66.4827L102.957 73.6239C107.75 76.3844 113.184 77.8358 118.715 77.8325C124.246 77.8292 129.679 76.3712 134.469 73.6049C139.258 70.8386 143.235 66.8613 146.001 62.0723C148.767 57.2833 150.224 51.8511 150.227 46.321L150.248 46.3054Z" fill="#407BFF"/>
<path d="M70.7598 71.3131L81.5742 57.3428L92.3887 71.3131H87.2999V89.403H75.8486V71.3131H70.7598Z" fill="#407BFF"/>
<path d="M161.906 186.141L157.635 184.665L159.923 174.369L164.2 175.851L161.906 186.141Z" fill="#EBC0BB"/>
<path opacity="0.2" d="M159.922 174.375L158.744 179.677L163.016 181.16L164.199 175.857L159.922 174.375Z" fill="black"/>
<path d="M203.006 188.57H198.487L194.959 178.094H199.484L203.006 188.57Z" fill="#EBC0BB"/>
<path opacity="0.2" d="M199.484 178.1H194.959L196.779 183.498H201.305L199.484 178.1Z" fill="black"/>
<path d="M197.884 188.046H203.395C203.485 188.047 203.572 188.078 203.641 188.134C203.711 188.19 203.759 188.269 203.778 188.356L204.674 192.38C204.696 192.477 204.695 192.578 204.671 192.676C204.648 192.773 204.603 192.863 204.539 192.94C204.476 193.017 204.396 193.079 204.305 193.12C204.214 193.162 204.115 193.182 204.015 193.18C202.24 193.152 200.944 193.045 198.707 193.045C197.331 193.045 193.189 193.191 191.29 193.191C189.391 193.191 189.143 191.315 189.921 191.14C193.404 190.379 196.03 189.331 197.145 188.322C197.35 188.144 197.612 188.046 197.884 188.046Z" fill="#263238"/>
<path d="M157.838 184.18L162.504 185.798C162.589 185.827 162.662 185.884 162.71 185.96C162.758 186.035 162.779 186.125 162.769 186.215L162.296 190.306C162.287 190.406 162.255 190.504 162.203 190.59C162.151 190.676 162.08 190.749 161.995 190.804C161.91 190.858 161.814 190.893 161.713 190.904C161.613 190.915 161.512 190.904 161.417 190.87C159.726 190.261 157.342 189.32 155.218 188.615C152.744 187.759 150.557 187.15 147.655 186.147C145.902 185.538 146.026 183.594 146.821 183.69C150.416 184.118 153.172 184.98 156.677 184.203C157.054 184.086 157.457 184.078 157.838 184.18Z" fill="#263238"/>
<path d="M105.118 36.8691L151.284 77.963L150.495 78.8477L104.74 37.2862L105.118 36.8691Z" fill="#263238"/>
<path d="M182.415 52.5863C182.088 53.5669 181.772 54.4179 181.411 55.3083C181.051 56.1987 180.69 57.0609 180.284 57.9288C179.51 59.657 178.656 61.3608 177.72 63.0401C176.767 64.7468 175.701 66.3885 174.531 67.9543C173.298 69.6365 171.853 71.1519 170.231 72.4626L169.549 72.9698C169.318 73.1333 169.059 73.291 168.811 73.4488C168.319 73.7486 167.809 74.0159 167.283 74.2491C166.286 74.6927 165.248 75.0381 164.184 75.2804C162.203 75.7197 160.177 75.9203 158.148 75.8777C156.219 75.8335 154.296 75.6452 152.394 75.3142C151.459 75.162 150.529 74.9535 149.611 74.7506C148.692 74.5478 147.796 74.2942 146.838 73.9786L147.593 70.6706C148.41 70.7382 149.317 70.8058 150.18 70.8509C151.042 70.896 151.927 70.9016 152.795 70.9129C154.506 70.9333 156.216 70.8505 157.917 70.6649C159.52 70.5041 161.1 70.1754 162.634 69.6843C163.324 69.4579 163.99 69.1654 164.623 68.8109C164.918 68.6548 165.2 68.4777 165.469 68.2811C165.593 68.1797 165.717 68.0952 165.846 67.9881L166.241 67.6499C167.369 66.5889 168.372 65.4036 169.233 64.1165C170.161 62.7216 171.011 61.2767 171.78 59.7885C172.569 58.2725 173.308 56.7115 174.006 55.1279C174.36 54.3315 174.698 53.5331 175.021 52.7329C175.336 51.9383 175.675 51.0929 175.945 50.366L182.415 52.5863Z" fill="#EBC0BB"/>
<path d="M184.251 50.366C185.22 54.5757 177.432 66.4215 177.432 66.4215L167.666 59.2813C169.508 55.7886 171.718 52.5031 174.26 49.4813C178.069 45.187 183.186 45.7393 184.251 50.366Z" fill="#263238"/>
<path d="M148.168 70.6763L143.344 69.5886L144.048 75.3199C144.944 75.5587 145.892 75.5049 146.755 75.1662C147.618 74.8276 148.35 74.2219 148.844 73.4376L148.168 70.6763Z" fill="#EBC0BB"/>
<path d="M140.193 69.4478L141.76 73.7814L144.048 75.3199L143.344 69.5886L140.193 69.4478Z" fill="#EBC0BB"/>
<path d="M204.489 49.7347C198.599 66.596 198.492 84.855 197.833 88.518C194.316 88.0503 181.073 86.2638 173.854 85.2889C172.231 59.3996 179.343 46.5732 179.343 46.5732C179.343 46.5732 180.91 46.3647 183.029 46.2746C183.694 46.2746 184.409 46.2295 185.153 46.2351C185.565 46.2351 185.982 46.2351 186.404 46.2633C189.826 46.5336 193.23 47.0002 196.599 47.6609C197.236 47.7792 197.884 47.9145 198.509 48.0554C199.135 48.1962 199.636 48.3315 200.2 48.4724C202.623 49.0867 204.489 49.7347 204.489 49.7347Z" fill="#263238"/>
<path d="M200.194 48.4498L198.3 49.8813C195.894 51.7015 193.127 53.3865 189.154 53.3865C188.703 53.3865 188.241 53.3865 187.779 53.3189C184.488 52.992 183.231 51.3916 182.752 50.101C182.538 49.4776 182.452 48.8172 182.499 48.1596C182.546 47.5019 182.727 46.8607 183.028 46.2746C183.693 46.2746 184.409 46.2295 185.153 46.2351C185.564 46.2351 185.981 46.2351 186.404 46.2633C189.826 46.5336 193.23 47.0002 196.599 47.6609C197.235 47.7792 197.883 47.9145 198.509 48.0554C199.135 48.1962 199.664 48.309 200.194 48.4498Z" fill="#407BFF"/>
<path d="M197.133 36.0237C196.051 39.219 194.597 45.1419 196.598 47.6384C194.575 49.1712 191.971 50.9013 188.054 50.5125C184.138 50.1236 185.186 47.5369 186.403 46.2633C190.179 45.8857 190.45 43.1582 190.156 40.5208L197.133 36.0237Z" fill="#EBC0BB"/>
<path opacity="0.2" d="M194.287 37.8608L190.162 40.5208C190.238 41.1339 190.26 41.7523 190.23 42.3692C191.656 42.3692 193.78 41.0843 194.124 39.6416C194.287 39.0631 194.342 38.4594 194.287 37.8608Z" fill="black"/>
<path d="M188.833 23.2086C185.327 22.9212 184.116 31.3575 186.302 32.9749C188.489 34.5922 195.392 23.744 188.833 23.2086Z" fill="#263238"/>
<path d="M198.188 31.1435C197.321 35.5448 197.033 38.1652 194.48 40.1602C190.648 43.1357 185.464 40.3631 184.979 35.7871C184.562 31.6675 186.055 25.1586 190.643 23.9526C191.653 23.6879 192.714 23.686 193.726 23.947C194.737 24.208 195.665 24.7233 196.421 25.4438C197.177 26.1643 197.736 27.0662 198.046 28.0638C198.355 29.0614 198.404 30.1215 198.188 31.1435Z" fill="#EBC0BB"/>
<path d="M197.292 35.4489C195.122 36.8014 193.031 24.7754 199.056 25.0571C206.427 25.4065 201.918 32.5805 197.292 35.4489Z" fill="#263238"/>
<path d="M199.168 26.7759C195.95 27.8241 182.318 26.4434 180.627 23.0678C181.597 23.1768 182.578 23.0532 183.49 22.7071C183.49 22.7071 180.605 21.9238 180.143 19.2808C185.248 21.89 196.029 18.4918 199.867 21.3884C203.073 23.7779 201.67 25.9644 199.168 26.7759Z" fill="#263238"/>
<path d="M200.73 25.6828C200.73 25.6828 200.544 24.3753 204.337 25.8744C201.203 25.3108 200.831 26.2519 200.831 26.2519L200.73 25.6828Z" fill="#263238"/>
<path d="M199.535 36.3056C199.177 36.7347 198.738 37.089 198.243 37.3481C197.748 37.6073 197.206 37.7663 196.65 37.8159C195.156 37.9399 194.694 36.5423 195.342 35.2799C195.906 34.1528 197.411 32.7158 198.791 33.1835C200.172 33.6513 200.414 35.263 199.535 36.3056Z" fill="#EBC0BB"/>
<path d="M157.482 178.139L164.724 180.658C164.724 180.658 171.813 152.712 174.034 138.792C174.71 134.56 176.22 128.699 178.046 122.449C180.346 114.56 183.146 106.061 185.417 99.4058C187.818 92.3953 189.616 87.4417 189.616 87.4417L173.837 85.3171C173.837 85.3171 161.827 122.134 160.475 135.873C159.089 150.131 157.482 178.139 157.482 178.139Z" fill="#407BFF"/>
<path opacity="0.2" d="M178.047 122.421C180.346 114.531 183.147 106.033 185.418 99.3776L184.004 95.7314C179.777 100.15 177.793 114.526 178.047 122.421Z" fill="black"/>
<path d="M182.358 86.4387C182.358 86.4387 181.58 125.194 182.645 138.403C183.806 152.875 194.649 182.45 194.649 182.45H202.939C202.939 182.45 197.41 155.4 195.714 141.311C193.781 125.307 197.833 88.5069 197.833 88.5069L182.358 86.4387Z" fill="#407BFF"/>
<path d="M193.661 182.631H203.416V179.717L192.512 179.525L193.661 182.631Z" fill="#263238"/>
<path d="M156.514 177.993L165.142 180.979L166.105 178.19L156.514 174.707V177.993Z" fill="#263238"/>
<path d="M191.285 31.4758C191.239 31.8365 191.008 32.1014 190.772 32.0732C190.535 32.045 190.383 31.7181 190.434 31.3575C190.484 30.9968 190.71 30.7319 190.946 30.7601C191.183 30.7883 191.335 31.1151 191.285 31.4758Z" fill="#263238"/>
<path d="M187.198 30.9236C187.153 31.2843 186.922 31.5548 186.686 31.521C186.449 31.4872 186.297 31.1716 186.342 30.8109C186.387 30.4502 186.624 30.1797 186.86 30.2135C187.097 30.2474 187.266 30.5629 187.198 30.9236Z" fill="#263238"/>
<path d="M188.472 31.2786C187.893 32.3252 187.172 33.2867 186.33 34.1358C186.553 34.3484 186.82 34.5093 187.112 34.6067C187.405 34.7041 187.715 34.7357 188.021 34.6993L188.472 31.2786Z" fill="#A02724"/>
<path d="M189.407 35.8659C189.817 35.8727 190.224 35.7957 190.602 35.6396C190.981 35.4836 191.324 35.2519 191.611 34.9586C191.629 34.9369 191.639 34.9087 191.636 34.8802C191.634 34.8517 191.621 34.8251 191.599 34.8064C191.578 34.7878 191.549 34.7785 191.521 34.7806C191.492 34.7827 191.466 34.796 191.447 34.8177C191.126 35.1385 190.733 35.3787 190.301 35.5187C189.869 35.6588 189.41 35.6947 188.962 35.6236C188.934 35.6198 188.905 35.6275 188.882 35.645C188.859 35.6624 188.845 35.6882 188.841 35.7166C188.837 35.745 188.845 35.7737 188.862 35.7964C188.88 35.8191 188.905 35.834 188.934 35.8377C189.091 35.858 189.249 35.8674 189.407 35.8659Z" fill="#263238"/>
<path d="M192.726 30.3262C192.76 30.3337 192.794 30.3337 192.828 30.3262C192.852 30.3127 192.874 30.2943 192.892 30.2722C192.91 30.2501 192.923 30.2246 192.931 30.1974C192.939 30.1701 192.941 30.1415 192.938 30.1134C192.935 30.0852 192.926 30.0579 192.912 30.0332C192.752 29.7308 192.523 29.4708 192.242 29.2748C191.962 29.0788 191.639 28.9524 191.3 28.9061C191.272 28.9046 191.244 28.9086 191.217 28.918C191.191 28.9274 191.166 28.9419 191.146 28.9607C191.125 28.9796 191.108 29.0024 191.095 29.0278C191.083 29.0532 191.076 29.0808 191.075 29.109C191.073 29.1368 191.076 29.1648 191.085 29.1914C191.093 29.2179 191.107 29.2424 191.126 29.2634C191.144 29.2845 191.167 29.3016 191.192 29.3138C191.217 29.3259 191.244 29.333 191.272 29.3344C191.538 29.3718 191.791 29.4721 192.011 29.627C192.231 29.7818 192.41 29.9867 192.535 30.2248C192.555 30.2572 192.583 30.2837 192.617 30.3015C192.65 30.3194 192.688 30.3279 192.726 30.3262Z" fill="#263238"/>
<path d="M185.626 29.2782C185.662 29.279 185.697 29.2706 185.729 29.2539C185.761 29.2371 185.787 29.2125 185.807 29.1824C185.949 28.9535 186.144 28.762 186.375 28.6238C186.607 28.4855 186.868 28.4046 187.137 28.3878C187.193 28.3863 187.247 28.3633 187.286 28.3235C187.326 28.2836 187.349 28.23 187.351 28.1736C187.351 28.1168 187.328 28.0624 187.288 28.0222C187.248 27.982 187.193 27.9595 187.137 27.9595C186.796 27.9754 186.465 28.0733 186.17 28.2451C185.876 28.4168 185.627 28.6572 185.446 28.9457C185.43 28.969 185.419 28.9952 185.413 29.0228C185.407 29.0505 185.407 29.079 185.412 29.1068C185.417 29.1345 185.428 29.161 185.443 29.1846C185.459 29.2082 185.479 29.2285 185.502 29.2444C185.54 29.2668 185.583 29.2785 185.626 29.2782Z" fill="#263238"/>
<path d="M196.384 188.841C196.783 188.829 197.18 188.775 197.567 188.677C197.587 188.671 197.604 188.659 197.618 188.644C197.631 188.628 197.64 188.609 197.644 188.589C197.647 188.569 197.645 188.548 197.638 188.528C197.63 188.509 197.617 188.493 197.601 188.48C197.432 188.379 195.978 187.483 195.476 187.736C195.421 187.766 195.374 187.809 195.341 187.863C195.309 187.916 195.291 187.978 195.29 188.04C195.28 188.146 195.295 188.252 195.334 188.35C195.373 188.448 195.436 188.535 195.516 188.604C195.77 188.778 196.076 188.861 196.384 188.841ZM197.257 188.525C196.491 188.677 195.899 188.649 195.651 188.441C195.596 188.394 195.554 188.335 195.529 188.268C195.503 188.201 195.495 188.128 195.504 188.057C195.503 188.032 195.508 188.006 195.52 187.983C195.532 187.96 195.55 187.941 195.572 187.928C195.831 187.793 196.665 188.181 197.257 188.548V188.525Z" fill="#407BFF"/>
<path d="M197.546 188.677C197.564 188.682 197.584 188.682 197.602 188.677C197.618 188.667 197.631 188.653 197.64 188.636C197.649 188.619 197.653 188.6 197.653 188.581C197.653 188.525 197.54 187.218 197.011 186.789C196.949 186.735 196.876 186.695 196.797 186.671C196.719 186.648 196.635 186.642 196.554 186.654C196.475 186.654 196.397 186.681 196.336 186.732C196.274 186.782 196.232 186.852 196.216 186.93C196.12 187.437 197.028 188.429 197.495 188.683L197.546 188.677ZM196.633 186.857C196.723 186.856 196.81 186.891 196.875 186.953C197.194 187.359 197.381 187.852 197.411 188.367C196.949 188.012 196.368 187.24 196.425 186.97C196.425 186.942 196.425 186.874 196.582 186.857H196.633Z" fill="#407BFF"/>
<path d="M157.212 184.603C157.231 184.602 157.25 184.596 157.267 184.587C157.284 184.577 157.298 184.563 157.308 184.546C157.32 184.528 157.326 184.506 157.326 184.484C157.326 184.462 157.32 184.441 157.308 184.422C157.15 184.253 155.735 182.788 155.116 182.895C155.058 182.906 155.003 182.931 154.958 182.968C154.913 183.006 154.878 183.054 154.856 183.109C154.811 183.196 154.787 183.293 154.787 183.391C154.787 183.489 154.811 183.586 154.856 183.673C155.183 184.236 156.462 184.507 157.201 184.608L157.212 184.603ZM155.172 183.104C155.533 183.104 156.344 183.78 156.908 184.338C155.91 184.169 155.217 183.887 155.037 183.56C155.006 183.504 154.99 183.441 154.99 183.377C154.99 183.313 155.006 183.25 155.037 183.194C155.042 183.172 155.054 183.152 155.071 183.137C155.088 183.122 155.11 183.112 155.132 183.109L155.172 183.104Z" fill="#407BFF"/>
<path d="M157.212 184.603H157.241C157.259 184.598 157.276 184.589 157.289 184.575C157.302 184.561 157.311 184.543 157.314 184.524C157.314 184.473 157.613 183.284 157.224 182.647C157.169 182.556 157.096 182.476 157.01 182.413C156.924 182.351 156.826 182.306 156.722 182.281C156.429 182.213 156.305 182.326 156.243 182.433C156.001 182.89 156.7 184.169 157.139 184.58C157.16 184.597 157.186 184.605 157.212 184.603ZM156.559 182.467H156.671C156.748 182.484 156.82 182.517 156.883 182.564C156.946 182.61 156.999 182.669 157.038 182.737C157.23 183.219 157.268 183.749 157.145 184.253C156.728 183.752 156.288 182.788 156.435 182.512C156.44 182.535 156.469 182.489 156.559 182.489V182.467Z" fill="#407BFF"/>
<path d="M205.339 52.3215C205.784 53.1387 206.151 53.86 206.511 54.6377C206.872 55.4154 207.221 56.1762 207.565 56.9482C208.23 58.5036 208.85 60.0872 209.397 61.699C209.943 63.3107 210.428 64.9675 210.839 66.6525L211.127 67.9318L211.363 69.2336C211.448 69.6619 211.499 70.1127 211.561 70.5579L211.645 71.2229V71.3863L211.673 71.6625C211.673 71.8766 211.673 72.0626 211.673 72.226C211.626 73.4109 211.352 74.5757 210.868 75.658C210.498 76.5273 210.067 77.3691 209.577 78.1771C208.673 79.6598 207.671 81.0812 206.579 82.4318C204.476 85.0494 202.171 87.4989 199.687 89.7579L197.162 87.5038C198.971 84.8945 200.763 82.2008 202.375 79.5352C203.168 78.2368 203.892 76.8975 204.545 75.5228C204.838 74.906 205.089 74.2695 205.294 73.618C205.446 73.1991 205.52 72.7561 205.514 72.3105C205.514 72.3387 205.514 72.3443 205.514 72.2824L205.486 72.1527L205.367 71.5892C205.288 71.2342 205.221 70.8791 205.119 70.5185L204.838 69.4364L204.516 68.3544C204.066 66.9118 203.564 65.4634 203 64.0208C202.437 62.5781 201.84 61.1467 201.208 59.7209C200.893 59.0052 200.577 58.2951 200.245 57.5907L199.281 55.5507L205.339 52.3215Z" fill="#EBC0BB"/>
<path d="M204.488 49.7349C208.528 51.2734 211.25 61.0397 211.25 61.0397L202.898 69.3801C202.898 69.3801 199.292 62.1498 197.826 56.7567C196.243 50.8789 199.59 47.8752 204.488 49.7349Z" fill="#263238"/>
<path d="M198.194 86.833L193.838 88.2701L197.783 92.5023C197.783 92.5023 201.22 90.451 200.341 88.5067L198.194 86.833Z" fill="#EBC0BB"/>
<path d="M191.719 91.4036L195.139 94.7454L197.771 92.5025L193.832 88.2703L191.719 91.4036Z" fill="#EBC0BB"/>
</svg>
