<svg width="197" height="298" viewBox="0 0 203 304" fill="none" xmlns="http://www.w3.org/2000/svg">
    <g clip-path="url(#clip0_659_1643)">
        <path d="M45.7082 7.7799C49.6935 4.23295 54.8545 1.91007 61.1912 0.811259C67.5279 -0.287554 74.2261 0.40988 81.2858 2.90356C88.3228 5.39724 94.7591 9.90067 100.595 16.4138C106.021 22.4715 109.687 28.8168 111.594 35.4495C113.497 41.583 113.671 48.1224 112.098 54.3485C110.604 60.1197 107.422 65.3141 102.96 69.2679C99.785 72.2448 95.9111 74.3741 91.6961 75.4594C87.9322 76.3968 84.0473 76.7539 80.1756 76.5184C76.4579 76.2793 70.0073 75.6444 60.824 74.6139C58.6741 74.38 56.5132 74.2603 54.3507 74.2553C52.8697 74.2455 51.3929 74.4146 49.9525 74.7591C48.8099 75.0504 47.6998 75.4568 46.639 75.9718C45.6142 76.4757 43.8806 77.4065 41.4211 78.7815C36.3654 81.8729 31.9702 81.3321 28.2353 77.1589C27.3075 76.1721 26.5844 75.0111 26.108 73.7432C25.6316 72.4752 25.4113 71.1254 25.4598 69.7718C25.5566 67.0219 27.0027 64.3944 29.7982 61.8893C35.4921 56.4333 43.1186 53.46 51.003 53.6226C55.4912 53.7724 59.969 54.1487 64.4193 54.7499C69.1505 55.3221 72.6433 55.6808 74.8979 55.8003C77.1362 55.9282 79.3813 55.7413 81.5676 55.2452C83.7486 54.762 85.7652 53.7169 87.4175 52.2135C89.0343 50.8099 90.3292 49.0738 91.2135 47.1239C92.0978 45.174 92.5508 43.0562 92.5415 40.9151C92.6098 36.3604 90.9018 32.1274 87.4175 28.2161C83.3012 23.6216 79.1138 21.2788 74.8552 21.1877C70.5966 21.0966 65.5267 22.3207 59.6455 24.8599C53.6618 27.6667 48.8936 27.0974 45.3409 23.1519C44.33 22.0681 43.5563 20.7851 43.0696 19.3852C42.5828 17.9852 42.3937 16.4991 42.5142 15.0218C42.5399 13.6632 42.8355 12.3233 43.3838 11.0801C43.9322 9.83679 44.7223 8.71498 45.7082 7.7799ZM4.42581 99.7472C2.19424 97.3227 0.948579 94.1522 0.932948 90.857C0.881708 87.4866 2.33636 84.472 5.29689 81.8132C6.51523 80.6863 7.9541 79.8244 9.52253 79.282C11.091 78.7396 12.7549 78.5284 14.4091 78.6619C16.0845 78.7632 17.7224 79.2011 19.2249 79.9494C20.7274 80.6977 22.0637 81.7411 23.154 83.0173C24.2752 84.231 25.1409 85.6577 25.6999 87.2125C26.259 88.7674 26.4998 90.4187 26.4082 92.0684C26.3166 93.7182 25.8944 95.3327 25.1667 96.8161C24.4389 98.2995 23.4205 99.6215 22.1719 100.704C19.2512 103.317 16.1199 104.433 12.7779 104.051C9.54921 103.726 6.56419 102.188 4.42581 99.7472Z"
              fill="#407BFF"/>
        <g opacity="0.5">
            <path d="M122.074 65.0407C123.273 62.1915 125.261 59.7441 127.804 57.9866C130.793 55.8574 134.282 54.5392 137.932 54.1607C142.185 53.7032 146.483 54.332 150.426 55.9883C154.151 57.3662 157.515 59.5707 160.264 62.436C162.647 64.9155 164.302 68.003 165.047 71.3603C165.734 74.4981 165.466 77.7697 164.278 80.7543C163.472 82.9435 162.127 84.8939 160.367 86.4248C158.791 87.7795 157.017 88.8854 155.106 89.7042C153.273 90.4842 150.031 91.731 145.379 93.4447C144.291 93.8437 143.228 94.3057 142.194 94.8282C141.482 95.1773 140.817 95.6133 140.212 96.1263C139.732 96.5372 139.297 96.9981 138.914 97.5012C138.547 97.988 137.941 98.8505 137.095 100.063C135.387 102.762 133.153 103.559 130.391 102.454C129.71 102.205 129.084 101.822 128.551 101.33C128.017 100.838 127.586 100.245 127.283 99.585C126.978 98.8131 126.838 97.9862 126.87 97.1569C126.902 96.3277 127.107 95.5142 127.471 94.7684C128.887 90.7891 131.823 87.5337 135.635 85.716C137.817 84.6996 140.049 83.7932 142.322 83.0003C144.722 82.1463 146.481 81.4716 147.591 80.9934C148.692 80.5155 149.721 79.886 150.648 79.1231C151.576 78.3655 152.292 77.3797 152.724 76.2622C153.161 75.2026 153.364 74.0609 153.318 72.9154C153.272 71.77 152.979 70.6481 152.459 69.6266C151.316 67.3785 149.348 65.659 146.968 64.8272C143.893 63.6145 141.331 63.4978 139.282 64.477C136.793 65.8016 134.615 67.6416 132.894 69.8743C130.696 72.6584 128.271 73.5124 125.618 72.4363C124.874 72.158 124.196 71.7281 123.627 71.1739C123.058 70.6196 122.61 69.9531 122.313 69.2167C121.998 68.5713 121.815 67.8697 121.774 67.1527C121.732 66.4358 121.834 65.7178 122.074 65.0407ZM124.405 119.013C122.755 118.388 121.397 117.17 120.596 115.597C120.186 114.771 119.964 113.863 119.946 112.94C119.929 112.017 120.116 111.102 120.494 110.26C120.801 109.425 121.28 108.663 121.899 108.023C122.518 107.383 123.264 106.88 124.089 106.545C124.916 106.192 125.807 106.01 126.706 106.01C127.606 106.01 128.497 106.192 129.324 106.545C130.152 106.857 130.909 107.332 131.551 107.942C132.192 108.552 132.704 109.284 133.057 110.096C133.41 110.907 133.596 111.782 133.605 112.666C133.613 113.551 133.444 114.429 133.107 115.247C132.812 116.124 132.327 116.925 131.686 117.592C131.045 118.259 130.265 118.777 129.401 119.107C127.783 119.708 125.999 119.674 124.405 119.013Z"
                  fill="#407BFF"/>
        </g>
        <g opacity="0.1">
            <path d="M179.513 60.0106C178.74 58.7952 178.329 57.3856 178.326 55.9456C178.297 54.2394 178.715 52.5554 179.538 51.0607C180.488 49.3198 181.867 47.8501 183.544 46.7907C185.056 45.726 186.791 45.0193 188.616 44.724C190.198 44.4676 191.82 44.6508 193.305 45.2535C194.695 45.8165 195.885 46.7833 196.721 48.029C197.348 48.9161 197.742 49.9471 197.865 51.0265C197.963 51.9873 197.917 52.9573 197.728 53.9045C197.541 54.8211 197.159 56.3925 196.584 58.6186C196.454 59.1424 196.352 59.6726 196.277 60.207C196.177 60.8649 196.23 61.5368 196.43 62.1712C196.524 62.4445 196.695 62.9057 196.951 63.5547C197.107 63.8206 197.209 64.1148 197.25 64.4203C197.292 64.7257 197.272 65.0363 197.193 65.3341C197.113 65.632 196.975 65.9111 196.787 66.1553C196.599 66.3996 196.365 66.6042 196.097 66.7572C195.541 67.1475 194.853 67.3011 194.184 67.1842C193.807 67.0991 193.452 66.9358 193.141 66.7049C192.831 66.4739 192.572 66.1805 192.382 65.8434C191.781 64.9915 191.357 64.0272 191.136 63.0081C190.959 62.1247 190.938 61.217 191.076 60.3266C191.26 59.2215 191.503 58.1269 191.802 57.0472C192.109 55.8943 192.314 55.0489 192.425 54.4852C192.532 53.9226 192.564 53.3482 192.519 52.7772C192.47 52.2201 192.279 51.6849 191.964 51.2229C191.673 50.7764 191.288 50.398 190.837 50.1136C190.386 49.8291 189.879 49.6453 189.351 49.5747C188.177 49.4148 186.987 49.7214 186.037 50.4287C185.498 50.7282 185.027 51.1364 184.653 51.6273C184.28 52.1183 184.013 52.6814 183.868 53.2811C183.72 54.5861 183.851 55.9078 184.252 57.1582C184.739 58.7381 184.423 59.891 183.321 60.634C183.019 60.8449 182.676 60.9909 182.315 61.0629C181.953 61.1349 181.581 61.1314 181.221 61.0525C180.881 61.0023 180.554 60.8842 180.261 60.7052C179.967 60.5262 179.713 60.29 179.513 60.0106ZM200.82 73.3842C200.143 73.8473 199.319 74.0448 198.506 73.9393C198.076 73.8782 197.666 73.7214 197.305 73.4805C196.945 73.2395 196.643 72.9206 196.422 72.5473C196.183 72.209 196.018 71.8248 195.935 71.419C195.853 71.0133 195.856 70.5949 195.944 70.1903C196.026 69.7795 196.191 69.3895 196.427 69.0433C196.663 68.6971 196.966 68.4018 197.319 68.1748C197.657 67.9391 198.039 67.7745 198.443 67.6908C198.847 67.6072 199.263 67.6062 199.667 67.6881C200.073 67.7629 200.459 67.9206 200.802 68.1513C201.144 68.382 201.435 68.6807 201.657 69.0288C201.914 69.3743 202.093 69.7721 202.18 70.1941C202.267 70.6161 202.26 71.0521 202.161 71.4713C201.969 72.2543 201.491 72.9369 200.82 73.3842Z"
                  fill="#407BFF"/>
        </g>
        <path d="M24.6633 297.815L18.207 296.142L22.0586 281.376L28.5148 283.05L24.6633 297.815Z" fill="#FFC3BD"/>
        <path d="M18.1386 294.434L25.3463 296.714C25.4063 296.729 25.4626 296.755 25.512 296.792C25.5614 296.829 25.6029 296.876 25.634 296.929C25.665 296.983 25.685 297.042 25.6929 297.103C25.7007 297.164 25.6961 297.226 25.6794 297.286L24.1593 302.88C24.0527 303.173 23.8369 303.414 23.5569 303.553C23.2769 303.691 22.9543 303.716 22.6563 303.623C20.1626 302.769 19.0097 302.273 15.8243 301.266C13.8686 300.651 9.15451 299.259 6.43025 298.405C3.70599 297.551 4.72225 294.989 5.90931 295.151C11.392 295.723 14.5774 295.262 16.8576 294.468C17.2691 294.315 17.7195 294.303 18.1386 294.434Z"
              fill="#263238"/>
        <path opacity="0.2" d="M28.5156 283.058L22.0594 281.385L20.0781 288.994L26.5344 290.667L28.5156 283.058Z"
              fill="black"/>
        <path d="M44.7832 132.062C44.7832 132.062 32.9638 188.23 29.8211 206.617C26.4051 226.754 18.8984 284.408 18.8984 284.408L29.8723 288.396C29.8723 288.396 47.0463 227.258 49.651 207.898C55.108 188.973 68.9343 132.062 68.9343 132.062H44.7832Z"
              fill="#407BFF"/>
        <path opacity="0.3"
              d="M59.9587 150.398C56.1243 159.604 54.7323 176.368 55.3984 186.394C58.4386 174.558 61.8119 161.039 64.4252 150.449C63.5797 147.537 62.4183 144.48 59.9587 150.398Z"
              fill="black"/>
        <path d="M29.6509 289.694L17.8828 286.295L18.3269 281.316L32.3325 285.253L29.6509 289.694Z" fill="#263238"/>
        <path d="M15.4927 294.792C16.0751 294.959 16.6732 295.065 17.2775 295.108C17.308 295.113 17.3393 295.109 17.367 295.095C17.3946 295.081 17.4171 295.059 17.4312 295.031C17.4474 295.007 17.456 294.979 17.456 294.95C17.456 294.921 17.4474 294.893 17.4312 294.869C17.269 294.664 15.8599 292.896 14.9803 292.948C14.8791 292.951 14.7807 292.981 14.694 293.033C14.6074 293.085 14.5355 293.159 14.4849 293.247C14.398 293.369 14.3451 293.513 14.3316 293.663C14.3181 293.813 14.3445 293.964 14.4081 294.101C14.6727 294.456 15.0586 294.702 15.4927 294.792ZM16.9445 294.792C15.7147 294.647 14.8863 294.348 14.6814 293.938C14.6415 293.85 14.6268 293.752 14.6389 293.655C14.6509 293.559 14.6892 293.468 14.7497 293.392C14.7736 293.348 14.808 293.311 14.8498 293.285C14.8915 293.258 14.9393 293.242 14.9888 293.238C15.45 293.221 16.3552 294.083 16.9445 294.775V294.792Z"
              fill="#407BFF"/>
        <path d="M17.2429 295.108H17.3197C17.345 295.104 17.3689 295.095 17.3897 295.08C17.4105 295.065 17.4275 295.045 17.4393 295.023C17.4393 294.946 18.2249 293.212 17.7809 292.41C17.7201 292.307 17.6386 292.218 17.5415 292.149C17.4445 292.08 17.334 292.032 17.2172 292.008C17.0888 291.971 16.9518 291.977 16.827 292.025C16.7022 292.073 16.5964 292.16 16.5255 292.273C16.1412 292.905 16.6621 294.493 17.1745 295.057C17.1912 295.081 17.2152 295.099 17.2429 295.108ZM17.2429 292.324C17.3017 292.342 17.3562 292.372 17.4032 292.411C17.4502 292.451 17.4886 292.5 17.5161 292.555C17.6706 293.26 17.5834 293.997 17.2685 294.647C16.8671 294.015 16.5597 292.837 16.8159 292.427C16.8159 292.35 16.9439 292.264 17.166 292.307L17.2429 292.324Z"
              fill="#407BFF"/>
        <path d="M53.9312 83.9569C53.359 85.3404 52.8124 86.5701 52.2232 87.8341C51.6339 89.098 51.0019 90.3363 50.3614 91.5746C49.0634 94.0426 47.697 96.4765 46.1939 98.8507C43.2033 103.785 39.5864 108.312 35.4335 112.318L35.2798 112.472C35.0619 112.668 34.821 112.837 34.5624 112.976C33.8513 113.359 33.0698 113.595 32.2652 113.668C31.8046 113.701 31.3423 113.701 30.8817 113.668C30.1926 113.623 29.5076 113.529 28.8321 113.386C27.6194 113.13 26.5434 112.814 25.4844 112.48C23.3836 111.814 21.4279 111.003 19.5064 110.183C17.5849 109.363 15.6891 108.475 13.8273 107.51C11.9656 106.545 10.138 105.58 8.32757 104.487C7.90774 104.231 7.5931 103.833 7.44022 103.365C7.28735 102.898 7.30626 102.391 7.49356 101.936C7.68085 101.481 8.02425 101.108 8.46202 100.884C8.8998 100.66 9.40323 100.599 9.88184 100.712C13.8444 101.669 17.7984 102.736 21.6927 103.684C23.6312 104.171 25.5698 104.598 27.4315 104.957C28.309 105.134 29.1957 105.263 30.0875 105.341C30.4231 105.361 30.7596 105.361 31.0952 105.341C31.2233 105.341 31.2746 105.341 31.2404 105.341C30.9368 105.349 30.6414 105.441 30.3864 105.606L29.5324 106.263C31.1847 104.435 32.7166 102.5 34.1184 100.473C35.5531 98.398 36.9109 96.2033 38.2176 93.9999C39.5242 91.7966 40.7796 89.4823 41.9666 87.1679C43.1537 84.8536 44.3322 82.4709 45.3826 80.242L45.4339 80.131C45.9378 78.9985 46.871 78.1126 48.0281 77.6682C49.1853 77.2237 50.4715 77.2572 51.604 77.7611C52.7365 78.2651 53.6224 79.1983 54.0668 80.3554C54.5112 81.5125 54.4778 82.7988 53.9739 83.9313L53.9312 83.9569Z"
              fill="#FFC3BD"/>
        <path d="M52.6147 74.9214C47.1149 75.0751 43.3402 81.0446 39.7363 88.4829C42.4988 93.2583 46.4575 97.2318 51.2226 100.012C51.2226 100.012 65.6723 74.5542 52.6147 74.9214Z"
              fill="#E0E0E0"/>
        <path d="M8.05281 104.521L3.09961 103.257L6.95969 98.2954C6.95969 98.2954 11.2297 98.9701 12.8523 102.565L11.0931 103.821C10.6663 104.149 10.1739 104.381 9.64924 104.502C9.12463 104.623 8.58014 104.629 8.05281 104.521Z"
              fill="#FFC3BD"/>
        <path d="M1.89616 98.1844L2.85263 97.3304C3.24394 96.9876 3.74355 96.7936 4.26366 96.7827C4.78377 96.7718 5.29109 96.9445 5.69646 97.2706L6.96037 98.2868L3.10029 103.249L1.5204 100.789C1.25876 100.382 1.1527 99.8951 1.22174 99.4165C1.29078 98.938 1.53027 98.5004 1.89616 98.1844Z"
              fill="#FFC3BD"/>
        <path d="M82.4532 297.047H75.698L74.084 281.999H80.8391L82.4532 297.047Z" fill="#FFC3BD"/>
        <path d="M75.1104 296.295H82.7024C82.8279 296.288 82.9512 296.331 83.0455 296.414C83.1397 296.497 83.1975 296.614 83.2063 296.739L83.5735 302.512C83.5668 302.823 83.4388 303.118 83.2169 303.335C82.995 303.552 82.6969 303.674 82.3865 303.674C79.7476 303.623 78.4837 303.477 75.1445 303.477C73.0949 303.477 67.4586 303.682 64.5977 303.682C61.7368 303.682 61.8392 300.984 63.0434 300.745C68.4321 299.643 72.036 298.131 73.9489 296.697C74.2814 296.439 74.6896 296.298 75.1104 296.295Z"
              fill="#263238"/>
        <path opacity="0.2" d="M80.8391 281.999H74.084L74.9209 289.762H81.676L80.8391 281.999Z" fill="black"/>
        <path d="M57.9863 132.062C57.9863 132.062 59.4808 188.529 60.5483 207.138C61.7439 227.514 71.8638 287.883 71.8638 287.883H84.2468C84.2468 287.883 81.5311 226.745 79.4815 206.753C80.3355 184.857 80.8992 132.045 80.8992 132.045L57.9863 132.062Z"
              fill="#407BFF"/>
        <path d="M84.743 287.883H70.7032L70.0371 283.366L85.1187 283.622L84.743 287.883Z" fill="#263238"/>
        <path d="M72.7191 297.423C73.3262 297.409 73.9301 297.332 74.521 297.192C74.5499 297.187 74.5763 297.172 74.5963 297.151C74.6163 297.129 74.6289 297.102 74.632 297.072C74.6402 297.044 74.6387 297.013 74.628 296.986C74.6172 296.958 74.5976 296.934 74.5722 296.919C74.3587 296.782 72.4458 295.518 71.6174 295.834C71.525 295.868 71.4428 295.925 71.3786 296C71.3143 296.075 71.2702 296.165 71.2502 296.261C71.1967 296.407 71.1867 296.566 71.2216 296.717C71.2565 296.869 71.3346 297.007 71.4466 297.115C71.8205 297.366 72.2718 297.475 72.7191 297.423ZM74.0855 296.978C72.8728 297.209 71.9846 297.166 71.6687 296.867C71.6035 296.796 71.5588 296.708 71.5393 296.614C71.5198 296.519 71.5261 296.421 71.5576 296.329C71.5656 296.282 71.5855 296.238 71.6154 296.201C71.6453 296.163 71.6842 296.134 71.7284 296.116C72.1725 295.945 73.2998 296.492 74.0855 296.978Z"
              fill="#407BFF"/>
        <path d="M74.4767 297.201H74.5536C74.5764 297.187 74.5959 297.168 74.6107 297.146C74.6255 297.124 74.6351 297.099 74.639 297.072C74.639 296.996 74.7927 295.125 74.1095 294.51C74.0221 294.427 73.9163 294.365 73.8007 294.329C73.685 294.294 73.5627 294.285 73.4434 294.306C73.3114 294.307 73.1837 294.353 73.0802 294.434C72.9767 294.516 72.9032 294.63 72.8712 294.758C72.7175 295.467 73.7252 296.825 74.3998 297.209L74.4767 297.201ZM73.5202 294.562C73.5835 294.56 73.6465 294.571 73.7052 294.595C73.764 294.618 73.8173 294.653 73.8618 294.698C74.2357 295.319 74.392 296.046 74.3059 296.765C73.7166 296.287 73.042 295.253 73.1445 294.792C73.1445 294.698 73.2213 294.596 73.4519 294.57L73.5202 294.562Z"
              fill="#407BFF"/>
        <path d="M47.6277 79.2683C47.992 78.1627 48.6474 77.1756 49.525 76.4107C50.4026 75.6458 51.47 75.1314 52.615 74.9215C54.2838 74.5322 55.9751 74.247 57.6792 74.0675C62.7993 73.7848 67.9311 73.7848 73.0512 74.0675C75.7328 74.187 78.4656 74.503 80.6433 74.8104H80.7201C81.2796 74.8755 81.82 75.0538 82.3084 75.3345C82.7968 75.6151 83.2229 75.9922 83.5609 76.4428C83.8989 76.8934 84.1416 77.4081 84.2742 77.9555C84.4069 78.503 84.4268 79.0717 84.3326 79.627C82.6278 88.3295 81.5122 97.1372 80.9934 105.99C80.464 118.851 81.1813 128.945 80.9251 132.046H44.7838C42.5891 100.678 45.4243 86.4163 47.6277 79.2683Z"
              fill="#E0E0E0"/>
        <path d="M75.5034 54.9293C76.1338 55.3845 76.6353 55.9957 76.9587 56.7029C77.2821 57.4101 77.4164 58.1892 77.3484 58.9638C77.2804 59.7385 77.0124 60.4823 76.5708 61.1223C76.1291 61.7624 75.5288 62.2768 74.8287 62.6153C76.289 65.0321 72.4033 69.3021 68.492 66.6205C64.5807 63.939 70.1061 52.6491 75.5034 54.9293Z"
              fill="#263238"/>
        <path d="M59.3283 52.3331C58.7917 52.349 58.2602 52.2252 57.7858 51.9739C57.3113 51.7227 56.9103 51.3525 56.6219 50.8997C56.3335 50.4469 56.1677 49.927 56.1406 49.3908C56.1135 48.8546 56.2261 48.3206 56.4674 47.841C54.6484 47.1322 54.9729 43.1611 58.2523 42.9903C61.5317 42.8195 63.2226 51.3339 59.3283 52.3331Z"
              fill="#263238"/>
        <path d="M58.2602 77.4237C58.0157 77.1993 57.8338 76.9153 57.7323 76.5994C57.6308 76.2835 57.6132 75.9466 57.6813 75.6219C57.7493 75.2971 57.9007 74.9957 58.1205 74.7471C58.3402 74.4985 58.6209 74.3114 58.9348 74.2041C62.2313 72.9914 62.8291 70.6002 62.5643 67.9955C62.4886 67.2631 62.3688 66.5359 62.2057 65.8178L67.7994 61.3514L71.9156 58.072C70.8908 62.342 69.7465 69.7804 71.9156 73.5465C72.1588 73.9406 72.2528 74.4086 72.1808 74.866C72.1087 75.3234 71.8753 75.7399 71.5228 76.0402C70.1052 77.2956 67.2016 78.9182 62.4192 78.662C60.2244 78.5509 59.0032 78.0471 58.2602 77.4237Z"
              fill="#FFC3BD"/>
        <path d="M45.7755 79.422C46.1829 78.1923 46.9008 77.0887 47.8599 76.218C48.8189 75.3472 49.9865 74.7388 51.2496 74.4517C52.8705 74.1943 54.504 74.0233 56.143 73.9393C56.3141 73.9147 56.4887 73.9331 56.6509 73.9928C56.8131 74.0525 56.958 74.1516 57.0723 74.2813C57.1867 74.4109 57.267 74.5669 57.3061 74.7353C57.3451 74.9037 57.3416 75.0792 57.2959 75.2459C54.435 85.8697 50.3529 107.126 51.6168 133.455C51.6227 133.618 51.595 133.782 51.5355 133.935C51.476 134.087 51.3859 134.226 51.2708 134.343C51.1556 134.46 51.0179 134.552 50.8659 134.613C50.714 134.675 50.551 134.705 50.3871 134.701H43.2135C42.9023 134.707 42.6008 134.593 42.3707 134.383C42.1405 134.174 41.9991 133.884 41.9752 133.574C39.8146 101.404 43.6319 85.3743 45.7755 79.422Z"
              fill="#263238"/>
        <path d="M80.4468 74.1699C78.1505 73.841 75.8388 73.63 73.5209 73.5379C73.1013 73.5074 72.6844 73.626 72.3438 73.8729C72.0032 74.1197 71.7607 74.479 71.6592 74.8872C69.0032 86.587 66.6376 112.583 66.5352 133.497C66.5385 133.657 66.5732 133.814 66.6372 133.959C66.7012 134.105 66.7934 134.237 66.9084 134.347C67.0234 134.458 67.159 134.544 67.3074 134.602C67.4558 134.66 67.6142 134.688 67.7735 134.684H80.5835C80.9008 134.691 81.2082 134.574 81.4397 134.356C81.6713 134.139 81.8084 133.84 81.8218 133.523C81.9072 129.313 81.3264 119.449 81.8218 107.203C82.2952 98.476 83.3911 89.7944 85.1011 81.2239C85.5452 78.8242 82.9832 74.5286 80.4468 74.1699Z"
              fill="#263238"/>
        <path d="M84.9478 77.8847C87.6891 82.0181 90.1828 86.16 92.5398 90.5068C93.7013 92.6845 94.8456 94.8964 95.879 97.2193C96.3914 98.3807 96.8952 99.5678 97.3649 100.823C97.8826 102.181 98.2826 103.581 98.5605 105.008C98.771 106.047 98.8171 107.114 98.6972 108.168C98.5576 109.021 98.3374 109.858 98.0396 110.67C97.5524 111.993 96.9554 113.272 96.2547 114.496C94.9977 116.714 93.597 118.848 92.0616 120.884C89.1076 124.826 85.877 128.553 82.3943 132.037C81.992 132.44 81.4554 132.682 80.8867 132.715C80.318 132.749 79.7568 132.572 79.3098 132.219C78.8628 131.866 78.5612 131.361 78.4623 130.8C78.3634 130.239 78.4741 129.661 78.7733 129.176V129.125C81.2585 125.119 83.7693 121.037 86.0409 116.989C87.1682 114.974 88.2442 112.924 89.1068 110.943C89.9693 108.962 90.6013 106.793 90.1572 106.733C89.8848 105.824 89.5539 104.934 89.1665 104.068C88.7395 103.095 88.2527 102.087 87.7403 101.088C86.6985 99.081 85.5797 97.0399 84.4098 95.033C82.0698 91.0022 79.5761 86.9371 77.108 83.0002V82.9489C76.4365 81.9093 76.2054 80.6455 76.4657 79.4355C76.7259 78.2256 77.4562 77.1685 78.4958 76.497C79.5354 75.8254 80.7992 75.5943 82.0092 75.8546C83.2192 76.1149 84.2762 76.8451 84.9478 77.8847Z"
              fill="#FFC3BD"/>
        <path d="M79.635 74.0588C85.1348 73.9563 88.0469 78.6106 91.6508 86.0148C87.5687 93.5727 79.7802 96.8435 79.7802 96.8435C79.7802 96.8435 68.8234 74.2467 79.635 74.0588Z"
              fill="#E0E0E0"/>
        <path d="M76.8168 128.954L73.6484 129.962L79.5154 134.42C79.5154 134.42 84.3149 131.926 82.8119 129.663L81.8383 129.227C80.2536 128.528 78.4681 128.431 76.8168 128.954Z"
              fill="#FFC3BD"/>
        <path d="M71.8739 133.873L75.435 137.451C75.5502 137.564 75.6874 137.651 75.8379 137.707C75.9885 137.764 76.1491 137.788 76.3097 137.779C76.4702 137.771 76.6272 137.728 76.7707 137.656C76.9141 137.583 77.0409 137.482 77.143 137.357L79.5086 134.42L73.6416 129.962L71.8141 132.464C71.6456 132.663 71.5582 132.919 71.5693 133.18C71.5804 133.441 71.6891 133.688 71.8739 133.873Z"
              fill="#FFC3BD"/>
        <path opacity="0.2"
              d="M62.2051 65.8519C62.3682 66.57 62.488 67.2972 62.5638 68.0296C64.6817 68.5676 67.6878 66.1423 67.9696 64.0841C68.0058 63.1811 67.9485 62.2768 67.7988 61.3855L62.2051 65.8519Z"
              fill="black"/>
        <path d="M75.4257 52.0085C73.9825 58.311 73.4701 62.0686 69.5929 64.8783C68.3246 65.8059 66.8331 66.3808 65.2703 66.5444C63.7075 66.708 62.1292 66.4545 60.6963 65.8096C59.2633 65.1648 58.0269 64.1516 57.113 62.8734C56.199 61.5952 55.6402 60.0975 55.4934 58.5331C54.9981 52.6234 57.4405 43.3062 64.3408 41.6495C71.2412 39.9927 76.869 45.6974 75.4257 52.0085Z"
              fill="#FFC3BD"/>
        <path d="M72.5056 57.5255C70.678 57.6194 68.7309 51.1717 72.7618 48.0631C72.1213 48.4133 70.3706 47.7728 70.678 46.5686C69.491 47.064 64.2986 46.8505 65.554 44.7411C62.9152 45.4243 57.1592 44.2799 56.5443 41.7606C55.9294 39.2413 58.9014 39.1559 59.3625 39.489C58.0559 37.6614 58.0815 34.9799 61.5488 34.0063C65.016 33.0327 70.2425 38.0457 70.2425 38.0457C69.6959 36.722 71.6174 35.6545 73.6073 36.7903C75.5971 37.9262 76.5279 41.1543 76.5279 41.1543C76.5279 40.1807 81.1737 41.4873 78.9704 45.5695C81.2506 46.4235 82.2924 47.6361 82.1473 49.7455C82.0021 51.8549 80.5588 51.9745 80.5588 51.9745C80.8643 52.7339 80.9066 53.5738 80.6791 54.3601C80.4516 55.1464 79.9673 55.8338 79.3034 56.3128C76.9379 58.2172 74.8712 55.9797 72.5056 57.5255Z"
              fill="#263238"/>
        <path d="M76.1266 58.0122C75.3233 59.1875 74.1371 60.0478 72.7703 60.4461C71.0111 60.9158 70.4133 59.3444 71.1306 57.7047C71.7797 56.2273 73.4706 54.1948 75.1274 54.451C76.7841 54.7072 77.1172 56.5433 76.1266 58.0122Z"
              fill="#FFC3BD"/>
        <path d="M64.9809 51.7523C64.8955 52.2647 64.5369 52.649 64.1867 52.6063C63.8366 52.5636 63.6145 52.1025 63.6999 51.5815C63.7853 51.0606 64.144 50.7275 64.4942 50.7275C64.8443 50.7275 65.0236 51.2314 64.9809 51.7523Z"
              fill="#263238"/>
        <path d="M58.7302 50.6166C58.6448 51.1375 58.2947 51.5218 57.9445 51.4706C57.5944 51.4194 57.3724 50.9667 57.4578 50.4458C57.5432 49.9249 57.8933 49.5918 58.2434 49.5918C58.5936 49.5918 58.8156 50.1042 58.7302 50.6166Z"
              fill="#263238"/>
        <path d="M61.1976 51.7781C60.2877 53.2809 59.1757 54.6516 57.8926 55.8517C58.2248 56.1639 58.6199 56.4017 59.0515 56.5489C59.483 56.6962 59.941 56.7496 60.3948 56.7057L61.1976 51.7781Z"
              fill="#ED847E"/>
        <path d="M61.506 59.2505C62.1271 59.3207 62.7559 59.2662 63.3557 59.0902C63.9555 58.9142 64.5141 58.6203 64.9988 58.2257C65.0271 58.1956 65.0428 58.1559 65.0428 58.1147C65.0428 58.0734 65.0271 58.0337 64.9988 58.0036C64.9679 57.9772 64.9285 57.9626 64.8878 57.9626C64.8471 57.9626 64.8077 57.9772 64.7768 58.0036C64.2438 58.4266 63.6218 58.7232 62.9577 58.8711C62.2935 59.019 61.6045 59.0144 60.9423 58.8576C60.9221 58.8526 60.9011 58.8518 60.8805 58.8551C60.86 58.8585 60.8403 58.866 60.8228 58.8771C60.8052 58.8883 60.7901 58.903 60.7783 58.9202C60.7666 58.9374 60.7585 58.9568 60.7545 58.9772C60.7495 58.9969 60.7487 59.0174 60.7521 59.0374C60.7555 59.0575 60.7631 59.0765 60.7744 59.0935C60.7857 59.1104 60.8003 59.1247 60.8175 59.1356C60.8347 59.1464 60.8539 59.1536 60.874 59.1565C61.0821 59.2033 61.2933 59.2347 61.506 59.2505Z"
              fill="#263238"/>
        <path d="M65.2367 48.1999C65.1854 48.2136 65.1384 48.24 65.1 48.2767C65.0703 48.3047 65.0466 48.3384 65.0304 48.3759C65.0142 48.4133 65.0059 48.4537 65.0059 48.4945C65.0059 48.5353 65.0142 48.5757 65.0304 48.6131C65.0466 48.6506 65.0703 48.6843 65.1 48.7123C65.4325 49.0841 65.8501 49.37 66.317 49.5455C66.784 49.7209 67.2865 49.7808 67.7816 49.72C67.8226 49.7159 67.8623 49.7034 67.8983 49.6832C67.9343 49.6631 67.9657 49.6357 67.9905 49.6028C68.0154 49.5699 68.0332 49.5322 68.0428 49.4922C68.0524 49.4521 68.0536 49.4104 68.0463 49.3698C68.0391 49.3289 68.0239 49.2897 68.0015 49.2546C67.9791 49.2196 67.95 49.1893 67.9159 49.1655C67.8818 49.1417 67.8433 49.1248 67.8027 49.1159C67.762 49.107 67.72 49.1063 67.6791 49.1136C67.2875 49.1482 66.8934 49.0887 66.5295 48.9402C66.1655 48.7916 65.8424 48.5583 65.5868 48.2596C65.5395 48.2185 65.4819 48.1912 65.4201 48.1807C65.3584 48.1701 65.2949 48.1768 65.2367 48.1999Z"
              fill="#263238"/>
        <path d="M56.963 46.654C57.01 46.675 57.0609 46.6858 57.1124 46.6858C57.1639 46.6858 57.2148 46.675 57.2619 46.654C57.6265 46.4722 58.0265 46.3726 58.4338 46.3623C58.841 46.352 59.2456 46.4312 59.6189 46.5942C59.6918 46.6355 59.7778 46.647 59.859 46.6264C59.9402 46.6057 60.0102 46.5544 60.0545 46.4832C60.0917 46.4092 60.0991 46.3237 60.0753 46.2443C60.0515 46.1649 59.9982 46.0976 59.9264 46.0562C59.4652 45.835 58.9604 45.7202 58.4489 45.7202C57.9375 45.7202 57.4326 45.835 56.9715 46.0562C56.9341 46.0725 56.9006 46.0964 56.8731 46.1265C56.8455 46.1565 56.8247 46.1921 56.8118 46.2307C56.7989 46.2694 56.7943 46.3103 56.7983 46.3509C56.8022 46.3915 56.8147 46.4307 56.8349 46.4662C56.8542 46.5419 56.8996 46.6084 56.963 46.654Z"
              fill="#263238"/>
    </g>
    <defs>
        <clipPath id="clip0_659_1643">
            <rect width="203" height="304" fill="white"/>
        </clipPath>
    </defs>
</svg>
