<svg width="217" height="200" viewBox="0 0 217 200" fill="none" xmlns="http://www.w3.org/2000/svg">
<g clip-path="url(#clip0_648_1414)">
<path d="M154.286 181.871H122.023V182.009H154.286V181.871Z" fill="#EBEBEB"/>
<path d="M191.779 181.079H181.225V181.217H191.779V181.079Z" fill="#EBEBEB"/>
<path d="M51.1275 179.413H27.373V179.55H51.1275V179.413Z" fill="#EBEBEB"/>
<path d="M24.3104 179.413H15.8184V179.55H24.3104V179.413Z" fill="#EBEBEB"/>
<path d="M74.2338 181.733H44.4238V181.871H74.2338V181.733Z" fill="#EBEBEB"/>
<path d="M90.1231 171.977H98.4336L98.4336 91.9351H90.1231L90.1231 171.977Z" fill="#F0F0F0"/>
<path d="M2.20068 174.738H96.8887V171.977H2.20068V174.738Z" fill="#F0F0F0"/>
<path d="M90.1235 91.9294H0.875V171.971H90.1235V91.9294Z" fill="#F5F5F5"/>
<path d="M87.4118 133.608H3.5918V147.903H87.4118V133.608Z" fill="#F0F0F0"/>
<path d="M87.4118 152.314H3.5918V166.608H87.4118V152.314Z" fill="#F0F0F0"/>
<path d="M10.8793 134.692H80.1133C80.493 134.692 80.8008 134.384 80.8008 134.005V133.422C80.8008 133.042 80.493 132.734 80.1133 132.734H10.8793C10.4996 132.734 10.1918 133.042 10.1918 133.422V134.005C10.1918 134.384 10.4996 134.692 10.8793 134.692Z" fill="#F5F5F5"/>
<path d="M10.8793 153.397H80.1133C80.493 153.397 80.8008 153.09 80.8008 152.71V152.127C80.8008 151.747 80.493 151.439 80.1133 151.439H10.8793C10.4996 151.439 10.1918 151.747 10.1918 152.127V152.71C10.1918 153.09 10.4996 153.397 10.8793 153.397Z" fill="#F5F5F5"/>
<path d="M87.4118 96.3459H3.5918V110.64H87.4118V96.3459Z" fill="#F0F0F0"/>
<path d="M87.4118 114.903H3.5918V129.198H87.4118V114.903Z" fill="#F0F0F0"/>
<path d="M10.8793 97.4294L80.1133 97.4294C80.493 97.4294 80.8008 97.1216 80.8008 96.7419V96.1589C80.8008 95.7792 80.493 95.4714 80.1133 95.4714L10.8793 95.4714C10.4996 95.4714 10.1918 95.7792 10.1918 96.1589V96.7419C10.1918 97.1216 10.4996 97.4294 10.8793 97.4294Z" fill="#F5F5F5"/>
<path d="M10.8793 115.987L80.1133 115.987C80.493 115.987 80.8008 115.679 80.8008 115.299V114.716C80.8008 114.336 80.493 114.029 80.1133 114.029L10.8793 114.029C10.4996 114.029 10.1918 114.336 10.1918 114.716V115.299C10.1918 115.679 10.4996 115.987 10.8793 115.987Z" fill="#F5F5F5"/>
<path d="M135.52 174.743H140.756V126.557H135.52V174.743Z" fill="#E6E6E6"/>
<path d="M134.129 174.743H137.209V126.557H134.129V174.743Z" fill="#F0F0F0"/>
<path d="M157.795 174.743H163.031V126.557H157.795V174.743Z" fill="#E6E6E6"/>
<path d="M156.816 174.743H159.896V126.557H156.816V174.743Z" fill="#F0F0F0"/>
<path d="M185.224 126.558H133.172V132.014H185.224V126.558Z" fill="#F0F0F0"/>
<path d="M203.072 118.231C200.531 119.193 196.373 125.315 192.969 126.558H181.732C178.322 125.315 174.17 119.193 171.629 118.231C176.859 117.82 182.111 117.769 187.348 118.077C192.587 117.769 197.841 117.82 203.072 118.231Z" fill="#F0F0F0"/>
<path d="M207.94 174.743H213.176V126.557H207.94V174.743Z" fill="#E6E6E6"/>
<path d="M206.959 174.743H210.039V126.557H206.959V174.743Z" fill="#F0F0F0"/>
<path d="M214.11 126.558H187.463V132.014H214.11V126.558Z" fill="#E6E6E6"/>
<path d="M185.664 174.743H190.9V126.557H185.664V174.743Z" fill="#E6E6E6"/>
<path d="M184.268 174.743H187.348V126.557H184.268V174.743Z" fill="#F0F0F0"/>
<path d="M32.0054 78.636C32.0054 84.7465 26.0654 89.6965 18.7449 89.6965C11.4244 89.6965 5.48438 84.7465 5.48438 78.636C5.48438 72.9215 10.6764 68.219 17.3424 67.636L19.4819 74.478L17.2819 78.6745L18.4699 82.5575L17.7109 84.708L19.3224 82.563L18.3764 79.197L21.2969 74.4835L20.7909 67.7075C27.1434 68.527 32.0054 73.1085 32.0054 78.636Z" fill="#E6E6E6"/>
<path d="M17.2483 83.6355H10.5548L7.92578 91.9295H11.4568L17.2483 83.6355Z" fill="#E6E6E6"/>
<path d="M19.5254 83.6355H26.2134L28.8479 91.9295H25.3169L19.5254 83.6355Z" fill="#E6E6E6"/>
<path d="M8.66797 72.9544L9.96597 66.1289L13.904 70.1604L8.66797 72.9544Z" fill="#E6E6E6"/>
<path d="M8.66895 82.596L4.16445 81.969C3.86205 81.934 3.583 81.7892 3.38025 81.5621C3.1775 81.335 3.06513 81.0414 3.06445 80.737V76.535C3.06513 76.2306 3.1775 75.937 3.38025 75.7099C3.583 75.4828 3.86205 75.338 4.16445 75.303L8.66895 74.676V82.596Z" fill="#E6E6E6"/>
<path d="M35.4306 80.0166C35.3959 80.0217 35.3607 80.0217 35.3261 80.0166C35.2597 79.9864 35.2074 79.932 35.1798 79.8645C35.1522 79.7971 35.1514 79.7216 35.1776 79.6536C35.3584 79.2692 35.384 78.8299 35.2491 78.4271C35.187 78.34 35.1042 78.2697 35.0082 78.2227C34.9122 78.1756 34.8059 78.1532 34.6991 78.1576C34.2096 78.1026 34.0501 78.3611 33.8301 78.7076C33.4121 79.3621 32.9391 79.8351 31.4266 78.9441C31.3641 78.9073 31.3187 78.8474 31.3002 78.7774C31.2816 78.7074 31.2915 78.6329 31.3276 78.5701C31.3653 78.5072 31.4262 78.4617 31.4971 78.4432C31.5681 78.4247 31.6434 78.4347 31.7071 78.4711C32.8841 79.1641 33.0656 78.8836 33.3571 78.4106C33.4742 78.1467 33.672 77.9268 33.922 77.7825C34.1721 77.6382 34.4615 77.5769 34.7486 77.6076C34.9403 77.6135 35.1275 77.6668 35.2935 77.7628C35.4596 77.8588 35.5993 77.9944 35.7001 78.1576C35.8119 78.4318 35.8663 78.7262 35.8596 79.0223C35.853 79.3185 35.7856 79.6101 35.6616 79.8791C35.638 79.9198 35.6045 79.9539 35.564 79.978C35.5236 80.002 35.4776 80.0153 35.4306 80.0166Z" fill="#E6E6E6"/>
<path d="M22.4084 56.2456L207.109 56.2456V0.426102L22.4084 0.426102V56.2456Z" fill="#E6E6E6"/>
<path d="M17.37 56.2456L205.938 56.2456V0.426102L17.37 0.426102V56.2456Z" fill="#F0F0F0"/>
<path d="M22.4067 56.251H207.108V60.244H20.0527L22.4067 56.251Z" fill="#E6E6E6"/>
<path d="M13.212 56.251H201.78L200.691 60.244H12.123L13.212 56.251Z" fill="#F0F0F0"/>
<path d="M198.887 49.1945V7.47705L24.4212 7.47705V49.1945L198.887 49.1945Z" fill="#FAFAFA"/>
<path d="M173.679 49.1944L150.068 7.48242H127.523L151.135 49.1944H173.679Z" fill="white"/>
<path d="M146.29 49.1944L122.684 7.48242H113.895L137.501 49.1944H146.29Z" fill="white"/>
<path d="M25.3164 49.1945L25.3164 7.47705H24.4199L24.4199 49.1945H25.3164Z" fill="#E6E6E6"/>
<path d="M109.616 199.581C168.511 199.581 216.256 196.794 216.256 193.355C216.256 189.917 168.511 187.129 109.616 187.129C50.7207 187.129 2.97656 189.917 2.97656 193.355C2.97656 196.794 50.7207 199.581 109.616 199.581Z" fill="#F5F5F5"/>
<path d="M194.603 113.869H85.1529C82.5404 113.869 80.5879 111.273 80.8079 108.1L86.0274 32.799C86.2474 29.6255 88.5629 27.0295 91.1699 27.0295H200.62C203.227 27.0295 205.179 29.6255 204.959 32.799L199.74 108.1C199.525 111.273 197.21 113.869 194.603 113.869Z" fill="white"/>
<g opacity="0.2">
<path d="M87.6606 113.974C87.6432 113.972 87.6263 113.967 87.6108 113.959C87.5953 113.952 87.5815 113.941 87.5703 113.927C87.5591 113.914 87.5505 113.899 87.5453 113.882C87.54 113.865 87.5381 113.848 87.5396 113.831L93.9086 26.9306C93.9147 26.9009 93.9309 26.8742 93.9545 26.8551C93.978 26.8359 94.0075 26.8254 94.0378 26.8254C94.0682 26.8254 94.0976 26.8359 94.1211 26.8551C94.1447 26.8742 94.1609 26.9009 94.1671 26.9306L87.8036 113.831C87.8043 113.85 87.8012 113.869 87.7943 113.886C87.7873 113.904 87.7768 113.92 87.7634 113.933C87.75 113.947 87.7339 113.957 87.7162 113.964C87.6985 113.971 87.6795 113.974 87.6606 113.974Z" fill="#407BFF"/>
<path d="M94.602 113.974C94.5846 113.972 94.5677 113.967 94.5522 113.959C94.5367 113.952 94.523 113.941 94.5117 113.927C94.5005 113.914 94.492 113.899 94.4867 113.882C94.4814 113.865 94.4795 113.848 94.481 113.831L100.85 26.9306C100.856 26.9009 100.872 26.8742 100.896 26.8551C100.919 26.8359 100.949 26.8254 100.979 26.8254C101.01 26.8254 101.039 26.8359 101.063 26.8551C101.086 26.8742 101.102 26.9009 101.108 26.9306L94.745 113.831C94.7457 113.85 94.7426 113.869 94.7357 113.886C94.7287 113.904 94.7182 113.92 94.7048 113.933C94.6914 113.947 94.6753 113.957 94.6576 113.964C94.6399 113.971 94.621 113.974 94.602 113.974Z" fill="#407BFF"/>
<path d="M101.543 113.974C101.526 113.972 101.509 113.967 101.494 113.959C101.478 113.951 101.464 113.941 101.453 113.927C101.442 113.914 101.433 113.899 101.428 113.882C101.423 113.865 101.421 113.848 101.422 113.831L107.786 26.9306C107.787 26.9132 107.792 26.8963 107.8 26.8808C107.808 26.8653 107.819 26.8516 107.832 26.8403C107.845 26.8291 107.861 26.8206 107.877 26.8153C107.894 26.81 107.912 26.8081 107.929 26.8096C107.963 26.8124 107.995 26.8283 108.017 26.8539C108.04 26.8796 108.051 26.913 108.05 26.9471L101.686 113.847C101.684 113.883 101.667 113.916 101.64 113.939C101.614 113.963 101.579 113.975 101.543 113.974Z" fill="#407BFF"/>
<path d="M108.483 113.974C108.465 113.972 108.449 113.967 108.433 113.959C108.418 113.951 108.404 113.941 108.393 113.927C108.381 113.914 108.373 113.899 108.368 113.882C108.362 113.865 108.36 113.848 108.362 113.831L114.725 26.9306C114.727 26.9132 114.732 26.8963 114.739 26.8808C114.747 26.8653 114.758 26.8516 114.772 26.8403C114.785 26.8291 114.8 26.8206 114.817 26.8153C114.833 26.81 114.851 26.8081 114.868 26.8096C114.902 26.8124 114.934 26.8283 114.957 26.8539C114.979 26.8796 114.991 26.913 114.989 26.9471L108.626 113.847C108.623 113.883 108.607 113.916 108.58 113.939C108.553 113.963 108.518 113.975 108.483 113.974Z" fill="#407BFF"/>
<path d="M115.424 113.974C115.407 113.972 115.39 113.967 115.374 113.959C115.359 113.951 115.345 113.941 115.334 113.927C115.323 113.914 115.314 113.899 115.309 113.882C115.304 113.865 115.302 113.848 115.303 113.831L121.667 26.9306C121.668 26.9132 121.673 26.8963 121.681 26.8808C121.689 26.8653 121.7 26.8516 121.713 26.8403C121.726 26.8291 121.742 26.8206 121.758 26.8153C121.775 26.81 121.792 26.8081 121.81 26.8096C121.844 26.8124 121.875 26.8283 121.898 26.8539C121.921 26.8796 121.932 26.913 121.931 26.9471L115.567 113.847C115.564 113.883 115.548 113.916 115.521 113.939C115.495 113.963 115.46 113.975 115.424 113.974Z" fill="#407BFF"/>
<path d="M122.366 113.974C122.348 113.972 122.331 113.967 122.316 113.959C122.3 113.951 122.287 113.941 122.275 113.927C122.264 113.914 122.256 113.899 122.25 113.882C122.245 113.865 122.243 113.848 122.245 113.831L128.608 26.9306C128.61 26.9132 128.614 26.8963 128.622 26.8808C128.63 26.8653 128.641 26.8516 128.654 26.8403C128.668 26.8291 128.683 26.8206 128.7 26.8153C128.716 26.81 128.734 26.8081 128.751 26.8096C128.785 26.8124 128.817 26.8283 128.839 26.8539C128.862 26.8796 128.874 26.913 128.872 26.9471L122.503 113.847C122.503 113.865 122.5 113.882 122.493 113.898C122.486 113.914 122.475 113.929 122.462 113.941C122.449 113.953 122.434 113.962 122.417 113.967C122.401 113.973 122.383 113.975 122.366 113.974Z" fill="#407BFF"/>
<path d="M129.307 113.974C129.29 113.972 129.273 113.967 129.257 113.959C129.242 113.951 129.228 113.941 129.217 113.927C129.206 113.914 129.197 113.899 129.192 113.882C129.186 113.865 129.185 113.848 129.186 113.831L135.55 26.9306C135.551 26.9132 135.556 26.8963 135.564 26.8808C135.572 26.8653 135.583 26.8516 135.596 26.8403C135.609 26.8291 135.625 26.8206 135.641 26.8153C135.658 26.81 135.675 26.8081 135.693 26.8096C135.727 26.8124 135.758 26.8283 135.781 26.8539C135.803 26.8796 135.815 26.913 135.814 26.9471L129.417 113.847C129.416 113.878 129.405 113.907 129.385 113.93C129.365 113.953 129.337 113.968 129.307 113.974Z" fill="#407BFF"/>
<path d="M136.248 113.974C136.231 113.972 136.214 113.967 136.199 113.959C136.183 113.951 136.169 113.941 136.158 113.927C136.147 113.914 136.138 113.899 136.133 113.882C136.128 113.865 136.126 113.848 136.127 113.831L142.491 26.9306C142.492 26.9132 142.497 26.8963 142.505 26.8808C142.513 26.8653 142.524 26.8516 142.537 26.8403C142.551 26.8291 142.566 26.8206 142.583 26.8153C142.599 26.81 142.617 26.8081 142.634 26.8096C142.668 26.8124 142.7 26.8283 142.722 26.8539C142.745 26.8796 142.756 26.913 142.755 26.9471L136.386 113.847C136.385 113.864 136.381 113.881 136.374 113.897C136.367 113.913 136.356 113.927 136.343 113.939C136.331 113.951 136.316 113.96 136.299 113.966C136.283 113.972 136.266 113.974 136.248 113.974Z" fill="#407BFF"/>
<path d="M143.166 113.974C143.149 113.972 143.132 113.967 143.117 113.959C143.101 113.951 143.087 113.941 143.076 113.927C143.065 113.914 143.056 113.899 143.051 113.882C143.046 113.865 143.044 113.848 143.045 113.831L149.409 26.9306C149.41 26.9132 149.415 26.8963 149.423 26.8808C149.431 26.8653 149.442 26.8516 149.455 26.8403C149.469 26.8291 149.484 26.8206 149.5 26.8153C149.517 26.81 149.535 26.8081 149.552 26.8096C149.586 26.8124 149.618 26.8283 149.64 26.8539C149.663 26.8796 149.674 26.913 149.673 26.9471L143.304 113.847C143.303 113.864 143.299 113.881 143.292 113.897C143.285 113.913 143.274 113.927 143.261 113.939C143.249 113.951 143.234 113.96 143.217 113.966C143.201 113.972 143.184 113.974 143.166 113.974Z" fill="#407BFF"/>
<path d="M150.123 113.974C150.106 113.972 150.089 113.967 150.074 113.959C150.058 113.951 150.044 113.941 150.033 113.927C150.022 113.914 150.013 113.899 150.008 113.882C150.003 113.865 150.001 113.848 150.002 113.831L156.366 26.9306C156.367 26.9132 156.372 26.8963 156.38 26.8808C156.388 26.8653 156.399 26.8516 156.412 26.8403C156.426 26.8291 156.441 26.8206 156.458 26.8153C156.474 26.81 156.492 26.8081 156.509 26.8096C156.543 26.8124 156.575 26.8283 156.597 26.8539C156.62 26.8796 156.631 26.913 156.63 26.9471L150.261 113.847C150.26 113.864 150.256 113.881 150.249 113.897C150.242 113.913 150.231 113.927 150.218 113.939C150.206 113.951 150.191 113.96 150.174 113.966C150.158 113.972 150.141 113.974 150.123 113.974Z" fill="#407BFF"/>
<path d="M157.064 113.973C157.029 113.971 156.996 113.954 156.972 113.927C156.948 113.901 156.936 113.866 156.938 113.83L163.307 26.9305C163.309 26.8964 163.325 26.8648 163.351 26.8422C163.377 26.8197 163.41 26.8079 163.444 26.8095C163.461 26.8102 163.478 26.8143 163.494 26.8216C163.51 26.8289 163.524 26.8392 163.536 26.852C163.548 26.8648 163.557 26.8797 163.563 26.896C163.569 26.9123 163.571 26.9296 163.571 26.947L157.202 113.847C157.201 113.864 157.197 113.881 157.189 113.897C157.182 113.913 157.172 113.927 157.159 113.939C157.146 113.95 157.131 113.96 157.115 113.966C157.099 113.972 157.081 113.974 157.064 113.973Z" fill="#407BFF"/>
<path d="M164.006 113.973C163.989 113.972 163.972 113.967 163.956 113.959C163.941 113.951 163.927 113.94 163.916 113.927C163.905 113.914 163.896 113.898 163.891 113.882C163.886 113.865 163.884 113.848 163.885 113.83L170.254 26.9305C170.257 26.8964 170.273 26.8648 170.299 26.8422C170.324 26.8197 170.358 26.8079 170.392 26.8095C170.409 26.8101 170.426 26.8143 170.441 26.8216C170.457 26.829 170.47 26.8394 170.482 26.8523C170.493 26.8651 170.502 26.8802 170.507 26.8964C170.512 26.9127 170.514 26.9299 170.513 26.947L164.149 113.847C164.149 113.865 164.144 113.882 164.137 113.898C164.129 113.915 164.118 113.929 164.105 113.941C164.091 113.953 164.076 113.962 164.059 113.967C164.042 113.973 164.024 113.975 164.006 113.973Z" fill="#407BFF"/>
<path d="M170.948 113.974C170.93 113.972 170.913 113.967 170.898 113.959C170.882 113.951 170.869 113.941 170.857 113.927C170.846 113.914 170.838 113.899 170.832 113.882C170.827 113.865 170.825 113.848 170.827 113.831L177.196 26.9305C177.192 26.9113 177.192 26.8915 177.197 26.8724C177.201 26.8534 177.21 26.8356 177.223 26.8204C177.235 26.8052 177.251 26.7929 177.268 26.7845C177.286 26.7761 177.305 26.7717 177.325 26.7717C177.345 26.7717 177.364 26.7761 177.382 26.7845C177.399 26.7929 177.415 26.8052 177.427 26.8204C177.44 26.8356 177.449 26.8534 177.453 26.8724C177.458 26.8915 177.458 26.9113 177.454 26.9305L171.091 113.831C171.092 113.85 171.09 113.869 171.083 113.887C171.077 113.905 171.066 113.922 171.053 113.935C171.039 113.949 171.022 113.959 171.004 113.966C170.986 113.973 170.967 113.975 170.948 113.974Z" fill="#407BFF"/>
<path d="M177.887 113.974C177.87 113.972 177.853 113.967 177.837 113.959C177.822 113.951 177.808 113.94 177.797 113.927C177.786 113.914 177.777 113.899 177.772 113.882C177.767 113.865 177.765 113.848 177.766 113.831L184.135 26.9305C184.131 26.9113 184.131 26.8915 184.136 26.8724C184.141 26.8534 184.15 26.8356 184.162 26.8204C184.174 26.8052 184.19 26.7929 184.208 26.7845C184.225 26.7761 184.245 26.7717 184.264 26.7717C184.284 26.7717 184.303 26.7761 184.321 26.7845C184.339 26.7929 184.354 26.8052 184.367 26.8204C184.379 26.8356 184.388 26.8534 184.393 26.8724C184.397 26.8915 184.398 26.9113 184.394 26.9305L178.03 113.831C178.031 113.85 178.028 113.868 178.021 113.886C178.014 113.904 178.003 113.92 177.99 113.933C177.977 113.947 177.96 113.957 177.943 113.964C177.925 113.971 177.906 113.974 177.887 113.974Z" fill="#407BFF"/>
<path d="M184.829 113.974C184.811 113.972 184.794 113.967 184.779 113.959C184.763 113.951 184.75 113.94 184.738 113.927C184.727 113.914 184.719 113.899 184.713 113.882C184.708 113.865 184.706 113.848 184.708 113.831L191.077 26.9305C191.073 26.9113 191.073 26.8915 191.078 26.8724C191.082 26.8534 191.091 26.8356 191.103 26.8204C191.116 26.8052 191.131 26.7929 191.149 26.7845C191.167 26.7761 191.186 26.7717 191.206 26.7717C191.225 26.7717 191.245 26.7761 191.262 26.7845C191.28 26.7929 191.296 26.8052 191.308 26.8204C191.321 26.8356 191.329 26.8534 191.334 26.8724C191.339 26.8915 191.339 26.9113 191.335 26.9305L184.966 113.847C184.963 113.882 184.948 113.914 184.922 113.937C184.897 113.961 184.863 113.974 184.829 113.974Z" fill="#407BFF"/>
<path d="M191.77 113.974C191.753 113.972 191.736 113.967 191.72 113.959C191.705 113.951 191.691 113.94 191.68 113.927C191.668 113.914 191.66 113.899 191.655 113.882C191.649 113.865 191.647 113.848 191.649 113.831L198.018 26.9305C198.014 26.9113 198.014 26.8915 198.019 26.8724C198.024 26.8534 198.032 26.8356 198.045 26.8204C198.057 26.8052 198.073 26.7929 198.091 26.7845C198.108 26.7761 198.128 26.7717 198.147 26.7717C198.167 26.7717 198.186 26.7761 198.204 26.7845C198.222 26.7929 198.237 26.8052 198.25 26.8204C198.262 26.8356 198.271 26.8534 198.275 26.8724C198.28 26.8915 198.28 26.9113 198.276 26.9305L191.913 113.831C191.914 113.85 191.911 113.868 191.904 113.886C191.897 113.904 191.886 113.92 191.873 113.933C191.859 113.947 191.843 113.957 191.826 113.964C191.808 113.971 191.789 113.974 191.77 113.974Z" fill="#407BFF"/>
</g>
<path d="M185.044 25.3851H181.964V24.8901H185.044V25.3851ZM179.605 25.3851H168.352V24.8901H179.605V25.3851Z" fill="#407BFF"/>
<path d="M195.416 114.106H85.0038C82.2813 114.106 80.2518 111.411 80.4828 108.1L85.7023 32.7991C85.9333 29.4991 88.3368 26.7876 91.0593 26.7876H201.466C204.216 26.7876 206.218 29.4826 205.987 32.7991L200.768 108.1C200.553 111.411 198.166 114.106 195.416 114.106ZM91.1748 27.2661C88.6668 27.2661 86.4613 29.7466 86.2248 32.7991L81.0163 108.1C80.8018 111.147 82.6663 113.6 85.1798 113.6H194.63C197.138 113.6 199.349 111.119 199.58 108.1L204.766 32.7991C204.981 29.7466 203.116 27.2661 200.608 27.2661H91.1748Z" fill="#407BFF"/>
<path d="M130.444 91.8711C130.983 91.9056 131.522 91.8126 132.017 91.5995C132.513 91.3864 132.951 91.0593 133.297 90.6448L171.132 47.6712L166.746 41.8878L165.293 40.4353L130.529 79.9847L108.171 50.6874C107.843 50.2255 107.421 49.8384 106.932 49.5518C106.443 49.2651 105.899 49.0854 105.336 49.0246C104.798 48.99 104.259 49.083 103.763 49.2961C103.268 49.5092 102.829 49.8363 102.484 50.2508L83.4713 72.8737L82.4869 86.7664L105.25 60.9328L127.608 90.2302C127.938 90.6887 128.361 91.0721 128.85 91.3549C129.339 91.6378 129.882 91.8137 130.444 91.8711Z" fill="#B3CAFF"/>
<path d="M122.486 90.857C121.947 90.8502 121.417 90.7162 120.939 90.4658C120.461 90.2154 120.049 89.8557 119.736 89.416L85.3008 43.6725L86.0928 32.238L86.6813 30.335L123.311 78.999L147.847 51.499C148.209 51.0635 148.66 50.7099 149.169 50.4615C149.678 50.2131 150.234 50.0755 150.8 50.058C151.34 50.0647 151.87 50.1987 152.348 50.4491C152.826 50.6995 153.238 51.0592 153.55 51.499L176.881 82.497L170.694 89.438L149.975 61.938L125.44 89.438C125.076 89.8699 124.624 90.2198 124.115 90.4644C123.606 90.709 123.051 90.8428 122.486 90.857Z" fill="#407BFF"/>
<path d="M180.759 72.5146L185.043 100.895L162.24 93.2936L180.759 72.5146Z" fill="#407BFF"/>
<path d="M179.668 31.3295L172.508 54.0483L158.282 40.0628L179.668 31.3295Z" fill="#B3CAFF"/>
<path d="M42.2514 43.7772L38.5444 51.1362C37.9174 52.3517 37.3179 53.5782 36.7239 54.7937C36.1299 56.0092 35.5634 57.2302 35.0739 58.3687C34.9584 58.6492 34.8429 58.9187 34.7604 59.1717C34.6779 59.4247 34.6119 59.6722 34.6119 59.5512C34.6119 59.3312 34.6119 59.5512 34.6119 59.6832V60.0682L34.6614 60.9262C34.7893 62.1984 34.9821 63.4632 35.2389 64.7157C35.7449 67.3227 36.4159 70.0067 37.0209 72.6687L33.9409 73.9557C32.4626 71.476 31.2038 68.872 30.1789 66.1732C29.6361 64.7637 29.1949 63.3172 28.8589 61.8447C28.7819 61.4432 28.7049 61.0472 28.6444 60.6347L28.5729 59.9747C28.5347 59.6719 28.5255 59.3662 28.5454 59.0617C28.5955 58.5036 28.6968 57.9513 28.8479 57.4117C28.9634 56.9827 29.0789 56.6087 29.1999 56.2347C29.6784 54.7607 30.2229 53.4407 30.7729 52.1152C31.3229 50.7897 31.9114 49.5027 32.4944 48.2157C33.6934 45.6527 34.9364 43.1502 36.2894 40.6587L42.2514 43.7772Z" fill="#EBC0BB"/>
<path d="M36.8165 72.0801L38.274 75.5395L33.192 76.0125C33.192 76.0125 32.2295 73.2185 33.6485 71.6125L36.8165 72.0801Z" fill="#EBC0BB"/>
<path d="M37.6636 78.8232L36.0136 79.2577C35.6985 79.3381 35.3653 79.307 35.0706 79.1697C34.7758 79.0323 34.5377 78.7972 34.3966 78.5042L33.2031 76.0072L38.2851 75.5342L38.6811 77.1237C38.771 77.4839 38.7144 77.8652 38.5237 78.1838C38.333 78.5024 38.0237 78.7323 37.6636 78.8232Z" fill="#EBC0BB"/>
<path d="M60.1145 23.9825C60.0155 24.329 60.1145 24.6645 60.34 24.7305C60.5655 24.7965 60.8295 24.5765 60.9285 24.23C61.0275 23.8835 60.9285 23.5535 60.703 23.482C60.4775 23.4105 60.2355 23.6415 60.1145 23.9825Z" fill="#263238"/>
<path d="M60.1159 24.6536C60.2195 25.8312 60.4822 26.9894 60.8969 28.0966C60.6128 28.1932 60.3111 28.2266 60.0127 28.1943C59.7144 28.162 59.4267 28.0648 59.1699 27.9096L60.1159 24.6536Z" fill="#A02724"/>
<path d="M61.8045 21.9917C61.8297 22.0238 61.8451 22.0624 61.849 22.103C61.853 22.1437 61.8453 22.1845 61.8268 22.2209C61.8083 22.2573 61.7799 22.2876 61.7447 22.3084C61.7096 22.3292 61.6693 22.3395 61.6285 22.3382C61.2988 22.3228 60.9773 22.2296 60.6905 22.0662C60.4037 21.9027 60.1597 21.6736 59.9785 21.3977C59.9501 21.3495 59.9419 21.2921 59.9559 21.2379C59.9698 21.1838 60.0046 21.1374 60.0528 21.1089C60.1009 21.0805 60.1584 21.0723 60.2125 21.0862C60.2667 21.1002 60.3131 21.135 60.3415 21.1832C60.4881 21.402 60.6848 21.5826 60.9154 21.7099C61.146 21.8372 61.4038 21.9074 61.667 21.9147C61.7205 21.9234 61.7692 21.9507 61.8045 21.9917Z" fill="#263238"/>
<path d="M48.2363 27.9207C48.6763 30.8962 48.6708 34.3172 46.8008 36.1212C46.8008 36.1212 47.7303 39.4212 53.7748 39.4212C60.4133 39.4212 56.9318 36.5282 56.9318 36.5282C54.1818 35.6702 54.1433 32.5242 54.7318 29.9997L49.4628 27.0627C49.3262 26.9883 49.1716 26.9535 49.0163 26.9622C48.8611 26.9709 48.7113 27.0228 48.5839 27.1119C48.4564 27.2011 48.3564 27.324 48.295 27.4668C48.2336 27.6097 48.2133 27.7669 48.2363 27.9207Z" fill="#EBC0BB"/>
<path d="M45.024 38.2497C44.4355 36.8472 43.891 35.1147 45.057 34.7517C46.223 34.3887 48.962 35.5327 51.8495 34.9442C54.737 34.3557 57.509 34.3942 58.4495 35.8242C58.9777 36.5291 59.223 37.4061 59.137 38.2827L45.024 38.2497Z" fill="#407BFF"/>
<path d="M61.8034 189.043C62.3534 189.043 62.9034 188.961 63.1069 188.708C63.1538 188.64 63.1788 188.559 63.1788 188.477C63.1788 188.394 63.1538 188.314 63.1069 188.246C63.0319 188.122 62.9114 188.033 62.7714 187.998C62.0289 187.8 60.4889 188.686 60.4229 188.724C60.4042 188.733 60.3891 188.749 60.3801 188.768C60.3711 188.787 60.3688 188.808 60.3734 188.829C60.3764 188.85 60.3859 188.87 60.4007 188.886C60.4155 188.901 60.4348 188.912 60.4559 188.917C60.9007 188.997 61.3515 189.039 61.8034 189.043ZM62.4964 188.18C62.564 188.171 62.6324 188.171 62.6999 188.18C62.7865 188.199 62.8617 188.253 62.9089 188.328C62.9859 188.46 62.9584 188.526 62.9089 188.559C62.7054 188.851 61.5834 188.856 60.7584 188.741C61.2948 188.44 61.8856 188.249 62.4964 188.18Z" fill="#407BFF"/>
<path d="M60.4616 188.917H60.5056C61.0556 188.675 62.0841 187.712 61.9961 187.212C61.9961 187.091 61.8916 186.948 61.6056 186.915C61.5011 186.903 61.3953 186.912 61.2949 186.944C61.1945 186.975 61.1017 187.027 61.0226 187.096C60.4726 187.558 60.3571 188.746 60.3516 188.807C60.3511 188.825 60.3549 188.844 60.3625 188.861C60.3701 188.878 60.3814 188.893 60.3956 188.906C60.4165 188.914 60.4391 188.918 60.4616 188.917ZM61.5231 187.118H61.5836C61.7761 187.118 61.7871 187.212 61.7926 187.239C61.8421 187.542 61.1326 188.295 60.5881 188.625C60.6255 188.123 60.8176 187.644 61.1381 187.256C61.244 187.162 61.3819 187.113 61.5231 187.118Z" fill="#407BFF"/>
<path d="M55.4902 188.812H59.9342L60.4072 178.522H55.9632L55.4902 188.812Z" fill="#EBC0BB"/>
<path d="M59.9787 188.301H55.1277C55.0403 188.301 54.9556 188.331 54.8876 188.386C54.8196 188.441 54.7724 188.518 54.7537 188.603L53.9287 192.552C53.908 192.648 53.9093 192.748 53.9324 192.844C53.9556 192.939 54 193.028 54.0623 193.104C54.1247 193.181 54.2034 193.242 54.2926 193.283C54.3819 193.325 54.4793 193.345 54.5777 193.344C56.3267 193.311 58.8567 193.212 61.0567 193.212C63.6252 193.212 64.1312 193.35 67.1507 193.35C68.9767 193.35 69.4552 191.507 68.6907 191.337C65.2037 190.578 64.0817 190.495 61.0567 188.647C60.7366 188.433 60.3633 188.313 59.9787 188.301Z" fill="#263238"/>
<path d="M40.6896 36.8196C34.0291 38.2441 31.5156 48.8316 31.5156 48.8316L39.0671 55.0906C41.5854 52.9556 43.369 50.0831 44.1656 46.8791C45.5406 41.3021 44.9521 35.9231 40.6896 36.8196Z" fill="#263238"/>
<path opacity="0.2" d="M42.5162 44.9487C40.2832 47.1872 38.8312 51.2627 38.6992 54.8047L39.0732 55.0907C41.5888 52.952 43.3701 50.0781 44.1662 46.8737C44.2487 46.5437 44.3147 46.2082 44.3752 45.8837L42.5162 44.9487Z" fill="black"/>
<path d="M65.2301 41.5825C66.2036 46.384 66.8801 56.24 64.5096 75.7705H40.7386C40.5406 72.2615 42.4381 55.6845 39.2646 39.1405C39.2139 38.8759 39.2167 38.6038 39.2725 38.3403C39.3284 38.0767 39.4364 37.827 39.5901 37.6057C39.7437 37.3844 39.9401 37.196 40.1675 37.0515C40.395 36.9071 40.6489 36.8095 40.9146 36.7645C42.8562 36.4468 44.8133 36.232 46.7776 36.121C50.1427 35.9284 53.516 35.9284 56.8811 36.121C57.9811 36.2255 59.0811 36.385 60.0711 36.5555C61.337 36.777 62.5066 37.3753 63.4271 38.2722C64.3475 39.169 64.9759 40.3228 65.2301 41.5825Z" fill="#263238"/>
<path opacity="0.2" d="M61.3867 51.3232L62.9652 49.3157C66.0562 50.3167 66.2157 53.3142 66.0452 57.6537C63.4162 56.9717 61.9862 54.2877 61.3867 51.3232Z" fill="black"/>
<path opacity="0.2" d="M60.4063 178.522L60.1643 183.829H55.7148L55.9623 178.522H60.4063Z" fill="black"/>
<path d="M48.9168 19.7806C47.9488 24.0926 47.1623 26.5621 48.6583 29.3781C50.9133 33.6186 56.6718 33.2556 58.8993 29.3396C60.9068 25.8141 62.1498 19.3571 58.5198 16.4256C57.7318 15.7728 56.7885 15.3346 55.7813 15.1535C54.7741 14.9725 53.7373 15.0547 52.7712 15.3922C51.8051 15.7297 50.9427 16.3111 50.2674 17.0799C49.5921 17.8488 49.1268 18.7791 48.9168 19.7806Z" fill="#EBC0BB"/>
<path d="M51.6729 30.973C46.8934 31.0445 45.5734 27.5025 45.9859 24.1145C46.3984 20.7265 43.1809 18.917 44.6879 15.8645C45.7439 13.714 47.3719 13.6645 48.6589 14.077C49.2474 11.547 53.3064 9.36903 56.0784 11.4975C58.8504 13.626 62.3594 15.5015 63.2284 14.3135C64.0974 13.1255 65.7034 19.0325 59.4444 21.326C59.7086 21.7761 59.856 22.2851 59.8733 22.8067C59.8906 23.3283 59.7772 23.846 59.5434 24.3125C59.4059 24.6205 58.0254 24.912 57.8934 25.231C56.5349 27.981 54.4559 30.929 51.6729 30.973Z" fill="#263238"/>
<path d="M48.5151 10.1611C47.1291 14.2641 49.2356 15.5401 49.2356 15.5401L48.5151 10.1611Z" fill="#263238"/>
<path d="M55.4567 23.768C55.3317 24.8594 55.5653 25.9617 56.1222 26.9085C56.8702 28.1515 57.9922 27.706 58.4047 26.463C58.7787 25.363 58.8392 23.361 57.7887 22.5415C56.7382 21.722 55.6327 22.459 55.4567 23.768Z" fill="#EBC0BB"/>
<path d="M25.3105 187.267L29.5675 188.328L32.3725 178.291L28.1155 177.229L25.3105 187.267Z" fill="#EBC0BB"/>
<path d="M31.6203 188.543C32.1703 188.642 32.7203 188.658 32.9128 188.433C32.9616 188.365 32.9878 188.283 32.9878 188.199C32.9878 188.115 32.9616 188.033 32.9128 187.965C32.8463 187.828 32.7332 187.719 32.5938 187.657C31.8678 187.327 30.3168 187.954 30.2508 187.982C30.2324 187.99 30.2175 188.004 30.2085 188.022C30.1995 188.04 30.1969 188.061 30.2013 188.081C30.2038 188.103 30.2124 188.124 30.2259 188.141C30.2395 188.158 30.2576 188.172 30.2783 188.18C30.7135 188.342 31.1627 188.463 31.6203 188.543ZM32.3298 187.795C32.4002 187.805 32.4687 187.825 32.5333 187.855C32.6182 187.891 32.6881 187.955 32.7313 188.037C32.8028 188.185 32.7753 188.246 32.7313 188.279C32.5223 188.532 31.4168 188.345 30.6028 188.086C31.1513 187.868 31.74 187.769 32.3298 187.795Z" fill="#407BFF"/>
<path d="M30.3007 188.185C30.3148 188.191 30.3305 188.191 30.3447 188.185C30.8947 188.037 31.9452 187.245 31.8737 186.722C31.8737 186.601 31.7802 186.442 31.4942 186.359C31.402 186.332 31.3051 186.326 31.2102 186.34C31.1152 186.354 31.0245 186.389 30.9442 186.442C30.3942 186.81 30.2347 188.004 30.2292 188.053C30.2272 188.072 30.2296 188.092 30.2363 188.11C30.243 188.128 30.2537 188.144 30.2677 188.158C30.2762 188.169 30.2876 188.179 30.3007 188.185ZM31.4007 186.535H31.4667C31.6537 186.585 31.6592 186.662 31.6647 186.689C31.7032 187.003 30.9772 187.641 30.4327 187.883C30.4821 187.397 30.6955 186.943 31.0377 186.596C31.1503 186.534 31.2823 186.518 31.4062 186.552L31.4007 186.535Z" fill="#407BFF"/>
<path d="M29.8158 187.476L25.0363 186.623C24.9528 186.607 24.8663 186.622 24.7932 186.666C24.7202 186.71 24.6658 186.779 24.6403 186.86L23.4578 190.66C23.4291 190.756 23.4208 190.856 23.4335 190.955C23.4462 191.054 23.4796 191.149 23.5315 191.234C23.5834 191.319 23.6526 191.392 23.7347 191.449C23.8167 191.505 23.9098 191.544 24.0078 191.562C25.7293 191.837 28.2318 192.173 30.3988 192.558C32.9343 193.003 31.0753 192.816 34.0508 193.339C35.8438 193.658 36.4928 191.898 35.7558 191.595C32.3953 190.231 32.0983 189.505 30.8058 187.993C30.5435 187.714 30.1946 187.532 29.8158 187.476Z" fill="#263238"/>
<path opacity="0.2" d="M32.3731 178.291L30.9266 183.466L26.6641 182.405L28.1106 177.229L32.3731 178.291Z" fill="black"/>
<path d="M41.7339 76.4087C40.8429 76.8047 37.8399 76.7717 36.9489 77.5912C36.0579 78.4107 39.5559 81.9912 40.3479 84.7412C41.1069 80.4732 41.7339 76.4087 41.7339 76.4087Z" fill="#407BFF"/>
<path opacity="0.6" d="M41.7339 76.4087C40.8429 76.8047 37.8399 76.7717 36.9489 77.5912C36.0579 78.4107 39.5559 81.9912 40.3479 84.7412C41.1069 80.4732 41.7339 76.4087 41.7339 76.4087Z" fill="white"/>
<path d="M56.0782 75.7705C56.0782 75.7705 50.4957 111.471 47.6577 124.138C44.5502 138.014 33.1267 181.42 33.1267 181.42L25.4102 179.473C25.4102 179.473 31.6692 144.598 34.3147 125.166C36.3497 110.239 40.7387 75.776 40.7387 75.776L56.0782 75.7705Z" fill="#407BFF"/>
<path d="M34.8158 179.831C34.8543 179.831 33.6608 182.757 33.6608 182.757L24.4648 180.414L24.8663 177.664L34.8158 179.831Z" fill="#263238"/>
<path opacity="0.3" d="M51.7166 91.5886C46.1231 92.3311 47.3166 113.589 47.4266 125.177C47.4266 125.056 47.4762 124.93 47.5092 124.809C47.5532 124.578 47.6082 124.352 47.6577 124.138C49.2307 117.114 51.6451 103.018 53.4876 91.8471C52.9025 91.7283 52.3113 91.642 51.7166 91.5886Z" fill="black"/>
<path d="M64.5158 75.7705C64.5158 75.7705 64.3728 108.996 64.0593 122.548C63.7403 136.645 61.8153 182.8 61.8153 182.8H54.2803C54.2803 182.8 51.8163 137.469 51.3048 123.626C50.7548 108.534 48.8848 75.776 48.8848 75.776L64.5158 75.7705Z" fill="#407BFF"/>
<path d="M62.8984 76.3262C63.7619 76.7772 68.1069 76.5462 68.9484 77.4262C69.7899 78.3062 64.7244 82.0242 63.7619 84.7082C63.2669 80.4732 62.8984 76.3262 62.8984 76.3262Z" fill="#407BFF"/>
<path opacity="0.6" d="M62.8984 76.3262C63.7619 76.7772 68.1069 76.5462 68.9484 77.4262C69.7899 78.3062 64.7244 82.0242 63.7619 84.7082C63.2669 80.4732 62.8984 76.3262 62.8984 76.3262Z" fill="white"/>
<path d="M63.2175 179.803C63.256 179.803 62.8325 182.927 62.8325 182.927H53.675L53.3945 180.139L63.2175 179.803Z" fill="#263238"/>
<path d="M64.5863 40.4277C65.7248 41.8357 66.8138 43.2822 67.8863 44.7617C68.9588 46.2412 69.9708 47.7702 70.9278 49.3487C71.9131 50.9386 72.8163 52.5779 73.6338 54.2602C74.5005 56.0129 75.2056 57.841 75.7403 59.7217L75.9218 60.3542L75.8723 60.7997C75.7131 62.1205 75.4482 63.4263 75.0803 64.7047C74.7503 65.9367 74.3323 67.1027 73.9033 68.2577C73.4743 69.4127 72.9848 70.5402 72.4733 71.6457C71.9618 72.7512 71.4173 73.8457 70.7903 74.9457L67.6828 73.7357L68.3813 70.3147C68.6068 69.1762 68.8433 68.0377 69.0413 66.9157C69.2393 65.7937 69.4373 64.6717 69.5913 63.5827C69.7377 62.5494 69.8185 61.5078 69.8333 60.4642L69.9653 61.5642C69.403 60.0794 68.7282 58.6398 67.9468 57.2577C67.1493 55.8167 66.2528 54.3977 65.3233 52.9842C64.3938 51.5707 63.3983 50.1737 62.3918 48.7877C61.3853 47.4017 60.3293 46.0377 59.3008 44.6352L64.5863 40.4277Z" fill="#EBC0BB"/>
<path d="M55.2639 41.9731C55.2199 48.3806 62.0839 54.7991 62.0839 54.7991L70.8344 47.4731C69.7221 44.1158 67.6631 41.1515 64.9054 38.9371C58.9104 34.0916 55.2969 37.3256 55.2639 41.9731Z" fill="#263238"/>
<path d="M71.0708 72.3276L68.4473 72.4376C66.2143 74.7916 67.3968 77.9376 67.3968 77.9376L67.7543 79.3786C67.7978 79.5553 67.8762 79.7215 67.9849 79.8674C68.0936 80.0133 68.2304 80.136 68.3872 80.2283C68.544 80.3205 68.7177 80.3805 68.8981 80.4046C69.0784 80.4287 69.2618 80.4165 69.4373 80.3686L71.7803 79.7361C72.0519 79.6629 72.2941 79.5072 72.4734 79.2904C72.6527 79.0737 72.7603 78.8066 72.7813 78.5261L72.8143 78.1191C72.9298 76.701 72.6379 75.2794 71.9728 74.0216L71.0708 72.3276Z" fill="#EBC0BB"/>
</g>
<defs>
<clipPath id="clip0_648_1414">
<rect width="216.346" height="200" fill="white"/>
</clipPath>
</defs>
</svg>
