<svg width="399" height="340" viewBox="0 0 399 340" fill="none" xmlns="http://www.w3.org/2000/svg">
<path d="M398.9 314.49H365.78V314.74H398.9V314.49Z" fill="#EBEBEB"/>
<path d="M280.22 317.21H271.53V317.46H280.22V317.21Z" fill="#EBEBEB"/>
<path d="M364.78 305.21H345.59V305.46H364.78V305.21Z" fill="#EBEBEB"/>
<path d="M44.65 306.89H1.45996V307.14H44.65V306.89Z" fill="#EBEBEB"/>
<path d="M59.8896 306.89H53.5596V307.14H59.8896V306.89Z" fill="#EBEBEB"/>
<path d="M174.15 311.11H80.4697V311.36H174.15V311.11Z" fill="#EBEBEB"/>
<path d="M338.66 21.11H59.3398V179.11H338.66V21.11Z" fill="#E0E0E0"/>
<path d="M340.11 176.36H57.89C56.9843 176.36 56.25 177.094 56.25 178V181.32C56.25 182.226 56.9843 182.96 57.89 182.96H340.11C341.016 182.96 341.75 182.226 341.75 181.32V178C341.75 177.094 341.016 176.36 340.11 176.36Z" fill="#EBEBEB"/>
<path d="M332.24 21.11H65.75V173.06H332.24V21.11Z" fill="#FAFAFA"/>
<path d="M213.67 206.13L200.5 191.64V183C200.5 182.602 200.342 182.221 200.06 181.939C199.779 181.658 199.398 181.5 199 181.5C198.602 181.5 198.22 181.658 197.939 181.939C197.658 182.221 197.5 182.602 197.5 183V191.67L184.33 206.16C182.96 207.67 185.08 210 186.45 208.5C190.13 204.44 193.813 200.387 197.5 196.34V207.21C197.5 207.608 197.658 207.989 197.939 208.271C198.22 208.552 198.602 208.71 199 208.71C199.398 208.71 199.779 208.552 200.06 208.271C200.342 207.989 200.5 207.608 200.5 207.21V196.31C204.18 200.357 207.863 204.41 211.55 208.47C212.92 210 215 207.64 213.67 206.13Z" fill="#E6E6E6"/>
<path d="M345 13.86H53.0101C50.7237 13.86 48.8701 15.7135 48.8701 18V24.22C48.8701 26.5064 50.7237 28.36 53.0101 28.36H345C347.287 28.36 349.14 26.5064 349.14 24.22V18C349.14 15.7135 347.287 13.86 345 13.86Z" fill="#F0F0F0"/>
<path d="M135.86 209.46H17.7998V250.21H135.86V209.46Z" fill="#EBEBEB"/>
<path d="M135.86 250.21H17.7998V290.96H135.86V250.21Z" fill="#EBEBEB"/>
<path d="M62.6598 250.21L77.3398 209.46H54.7398L40.0498 250.21H62.6598Z" fill="#F0F0F0"/>
<path d="M88.2899 209.46H83.3199L68.6299 250.21H73.5999L88.2899 209.46Z" fill="#F0F0F0"/>
<path d="M47.9704 290.96L62.6604 250.21H40.0504L25.3604 290.96H47.9704Z" fill="#F0F0F0"/>
<path d="M73.6004 250.21H68.6304L53.9404 290.96H58.9104L73.6004 250.21Z" fill="#F0F0F0"/>
<path d="M135.85 215.72V211.6H17.7896V215.72H135.85Z" fill="#E0E0E0"/>
<path d="M135.85 256.15V252.03H17.7896V256.15H135.85Z" fill="#E0E0E0"/>
<path d="M79.8403 235.05C80.3097 235.05 80.76 234.864 81.0919 234.532C81.4238 234.2 81.6103 233.749 81.6103 233.28C81.6103 232.811 81.4238 232.36 81.0919 232.028C80.76 231.696 80.3097 231.51 79.8403 231.51H73.8403C73.3709 231.51 72.9207 231.696 72.5887 232.028C72.2568 232.36 72.0703 232.811 72.0703 233.28C72.0703 233.749 72.2568 234.2 72.5887 234.532C72.9207 234.864 73.3709 235.05 73.8403 235.05H79.8403Z" fill="#E0E0E0"/>
<path d="M79.8403 234.42C80.3097 234.42 80.76 234.234 81.0919 233.902C81.4238 233.57 81.6103 233.119 81.6103 232.65C81.6103 232.181 81.4238 231.73 81.0919 231.398C80.76 231.066 80.3097 230.88 79.8403 230.88H73.8403C73.3709 230.88 72.9207 231.066 72.5887 231.398C72.2568 231.73 72.0703 232.181 72.0703 232.65C72.0703 233.119 72.2568 233.57 72.5887 233.902C72.9207 234.234 73.3709 234.42 73.8403 234.42H79.8403Z" fill="#F5F5F5"/>
<path d="M79.84 272.67C80.2878 272.636 80.7063 272.435 81.0117 272.106C81.317 271.776 81.4867 271.344 81.4867 270.895C81.4867 270.446 81.317 270.014 81.0117 269.684C80.7063 269.355 80.2878 269.154 79.84 269.12H73.84C73.3923 269.154 72.9738 269.355 72.6684 269.684C72.3631 270.014 72.1934 270.446 72.1934 270.895C72.1934 271.344 72.3631 271.776 72.6684 272.106C72.9738 272.435 73.3923 272.636 73.84 272.67H79.84Z" fill="#E0E0E0"/>
<path d="M79.8403 272C80.3097 272 80.76 271.813 81.0919 271.482C81.4238 271.15 81.6103 270.699 81.6103 270.23C81.6103 269.761 81.4238 269.31 81.0919 268.978C80.76 268.646 80.3097 268.46 79.8403 268.46H73.8403C73.3709 268.46 72.9207 268.646 72.5887 268.978C72.2568 269.31 72.0703 269.761 72.0703 270.23C72.0703 270.699 72.2568 271.15 72.5887 271.482C72.9207 271.813 73.3709 272 73.8403 272H79.8403Z" fill="#F5F5F5"/>
<path d="M15.7295 207.63V292.74H137.909V207.63H15.7295ZM133.789 288.63H19.8595V252.36H133.789V288.63ZM133.789 248.25H19.8595V212H133.789V248.25Z" fill="#F5F5F5"/>
<path d="M258.03 209.46H139.97V250.21H258.03V209.46Z" fill="#EBEBEB"/>
<path d="M258.03 250.21H139.97V290.96H258.03V250.21Z" fill="#EBEBEB"/>
<path d="M231.5 250.21L246.19 209.46H223.59L208.9 250.21H231.5Z" fill="#F0F0F0"/>
<path d="M257.13 209.46H252.17L237.48 250.21H242.44L257.13 209.46Z" fill="#F0F0F0"/>
<path d="M216.82 290.96L231.5 250.21H208.9L194.21 290.96H216.82Z" fill="#F0F0F0"/>
<path d="M242.44 250.21H237.48L222.79 290.96H227.76L242.44 250.21Z" fill="#F0F0F0"/>
<path d="M258.03 215.72V211.6H139.97V215.72H258.03Z" fill="#E0E0E0"/>
<path d="M258.03 256.15V252.03H139.97V256.15H258.03Z" fill="#E0E0E0"/>
<path d="M201.999 235.05C202.469 235.05 202.919 234.864 203.251 234.532C203.583 234.2 203.77 233.749 203.77 233.28C203.77 232.811 203.583 232.36 203.251 232.028C202.919 231.696 202.469 231.51 201.999 231.51H195.999C195.53 231.51 195.08 231.696 194.748 232.028C194.416 232.36 194.229 232.811 194.229 233.28C194.229 233.749 194.416 234.2 194.748 234.532C195.08 234.864 195.53 235.05 195.999 235.05H201.999Z" fill="#E0E0E0"/>
<path d="M201.999 234.42C202.469 234.42 202.919 234.234 203.251 233.902C203.583 233.57 203.77 233.119 203.77 232.65C203.77 232.181 203.583 231.73 203.251 231.398C202.919 231.066 202.469 230.88 201.999 230.88H195.999C195.53 230.88 195.08 231.066 194.748 231.398C194.416 231.73 194.229 232.181 194.229 232.65C194.229 233.119 194.416 233.57 194.748 233.902C195.08 234.234 195.53 234.42 195.999 234.42H201.999Z" fill="#F5F5F5"/>
<path d="M202 272.67C202.448 272.636 202.866 272.435 203.172 272.106C203.477 271.776 203.647 271.344 203.647 270.895C203.647 270.446 203.477 270.014 203.172 269.684C202.866 269.355 202.448 269.154 202 269.12H196C195.552 269.154 195.134 269.355 194.829 269.684C194.523 270.014 194.354 270.446 194.354 270.895C194.354 271.344 194.523 271.776 194.829 272.106C195.134 272.435 195.552 272.636 196 272.67H202Z" fill="#E0E0E0"/>
<path d="M201.999 272C202.469 272 202.919 271.813 203.251 271.482C203.583 271.15 203.77 270.699 203.77 270.23C203.77 269.761 203.583 269.31 203.251 268.978C202.919 268.646 202.469 268.46 201.999 268.46H195.999C195.53 268.46 195.08 268.646 194.748 268.978C194.416 269.31 194.229 269.761 194.229 270.23C194.229 270.699 194.416 271.15 194.748 271.482C195.08 271.813 195.53 272 195.999 272H201.999Z" fill="#F5F5F5"/>
<path d="M137.91 207.63V292.74H260.09V207.63H137.91ZM255.97 288.63H142V252.36H256L255.97 288.63ZM255.97 248.25H142V212H256L255.97 248.25Z" fill="#F5F5F5"/>
<path d="M380.21 209.46H262.15V250.21H380.21V209.46Z" fill="#EBEBEB"/>
<path d="M380.21 250.21H262.15V290.96H380.21V250.21Z" fill="#EBEBEB"/>
<path d="M336.91 250.21L351.6 209.46H328.99L314.3 250.21H336.91Z" fill="#F0F0F0"/>
<path d="M362.54 209.46H357.57L342.88 250.21H347.85L362.54 209.46Z" fill="#F0F0F0"/>
<path d="M322.22 290.96L336.91 250.21H314.3L299.61 290.96H322.22Z" fill="#F0F0F0"/>
<path d="M347.85 250.21H342.88L328.19 290.96H333.16L347.85 250.21Z" fill="#F0F0F0"/>
<path d="M380.21 215.73V211.61H262.15V215.73H380.21Z" fill="#E0E0E0"/>
<path d="M380.2 256.16V252.04H262.14V256.16H380.2Z" fill="#E0E0E0"/>
<path d="M324.2 235.05C324.669 235.05 325.119 234.864 325.451 234.532C325.783 234.2 325.97 233.749 325.97 233.28C325.97 232.811 325.783 232.36 325.451 232.028C325.119 231.696 324.669 231.51 324.2 231.51H318.2C317.73 231.51 317.28 231.696 316.948 232.028C316.616 232.36 316.43 232.811 316.43 233.28C316.43 233.749 316.616 234.2 316.948 234.532C317.28 234.864 317.73 235.05 318.2 235.05H324.2Z" fill="#E0E0E0"/>
<path d="M324.2 234.42C324.669 234.42 325.119 234.234 325.451 233.902C325.783 233.57 325.97 233.119 325.97 232.65C325.97 232.181 325.783 231.73 325.451 231.398C325.119 231.066 324.669 230.88 324.2 230.88H318.2C317.73 230.88 317.28 231.066 316.948 231.398C316.616 231.73 316.43 232.181 316.43 232.65C316.43 233.119 316.616 233.57 316.948 233.902C317.28 234.234 317.73 234.42 318.2 234.42H324.2Z" fill="#F5F5F5"/>
<path d="M324.2 272.67C324.648 272.636 325.067 272.435 325.372 272.106C325.677 271.776 325.847 271.344 325.847 270.895C325.847 270.446 325.677 270.014 325.372 269.684C325.067 269.355 324.648 269.154 324.2 269.12H318.2C317.753 269.154 317.334 269.355 317.029 269.684C316.723 270.014 316.554 270.446 316.554 270.895C316.554 271.344 316.723 271.776 317.029 272.106C317.334 272.435 317.753 272.636 318.2 272.67H324.2Z" fill="#E0E0E0"/>
<path d="M324.2 272C324.669 272 325.119 271.813 325.451 271.482C325.783 271.15 325.97 270.699 325.97 270.23C325.97 269.761 325.783 269.31 325.451 268.978C325.119 268.646 324.669 268.46 324.2 268.46H318.2C317.73 268.46 317.28 268.646 316.948 268.978C316.616 269.31 316.43 269.761 316.43 270.23C316.43 270.699 316.616 271.15 316.948 271.482C317.28 271.813 317.73 272 318.2 272H324.2Z" fill="#F5F5F5"/>
<path d="M260.09 207.63V292.74H382.27V207.63H260.09ZM378.14 288.63H264.21V252.36H378.14V288.63ZM378.14 248.25H264.21V212H378.14V248.25Z" fill="#F5F5F5"/>
<path d="M370.45 298.87H27.5498L25.7598 292.74H372.24L370.45 298.87Z" fill="#E0E0E0"/>
<path d="M194.18 339.71C301.263 339.71 388.07 334.642 388.07 328.39C388.07 322.138 301.263 317.07 194.18 317.07C87.0975 317.07 0.290039 322.138 0.290039 328.39C0.290039 334.642 87.0975 339.71 194.18 339.71Z" fill="#F5F5F5"/>
<path d="M207.749 38.34L204.069 108.59C204.011 109.474 204.137 110.361 204.438 111.194C204.739 112.027 205.209 112.79 205.818 113.433C206.427 114.076 207.163 114.586 207.979 114.932C208.795 115.277 209.673 115.45 210.559 115.44H303.429C305.273 115.421 307.042 114.703 308.378 113.432C309.714 112.161 310.518 110.431 310.629 108.59L314.319 38.34C314.376 37.4562 314.249 36.5703 313.948 35.7376C313.646 34.9049 313.177 34.1433 312.567 33.5004C311.958 32.8576 311.223 32.3472 310.408 32.0013C309.593 31.6554 308.715 31.4813 307.829 31.49H214.999C213.147 31.4992 211.368 32.2119 210.022 33.4837C208.676 34.7556 207.864 36.4916 207.749 38.34Z" fill="#407BFF"/>
<path opacity="0.5" d="M207.749 38.34L204.069 108.59C204.011 109.474 204.137 110.361 204.438 111.194C204.739 112.027 205.209 112.79 205.818 113.433C206.427 114.076 207.163 114.586 207.979 114.932C208.795 115.277 209.673 115.45 210.559 115.44H303.429C305.273 115.421 307.042 114.703 308.378 113.432C309.714 112.161 310.518 110.431 310.629 108.59L314.319 38.34C314.376 37.4562 314.249 36.5703 313.948 35.7376C313.646 34.9049 313.177 34.1433 312.567 33.5004C311.958 32.8576 311.223 32.3472 310.408 32.0013C309.593 31.6554 308.715 31.4813 307.829 31.49H214.999C213.147 31.4992 211.368 32.2119 210.022 33.4837C208.676 34.7556 207.864 36.4916 207.749 38.34Z" fill="white"/>
<path d="M310.13 31.49H307.83C308.715 31.4813 309.593 31.6554 310.408 32.0013C311.224 32.3472 311.959 32.8576 312.568 33.5004C313.177 34.1433 313.647 34.9049 313.948 35.7376C314.25 36.5703 314.376 37.4562 314.32 38.34L310.63 108.59C310.518 110.431 309.714 112.161 308.378 113.432C307.042 114.703 305.274 115.421 303.43 115.44H305.73C307.574 115.421 309.342 114.703 310.678 113.432C312.014 112.161 312.818 110.431 312.93 108.59L316.62 38.34C316.676 37.4562 316.55 36.5703 316.248 35.7376C315.947 34.9049 315.477 34.1433 314.868 33.5004C314.259 32.8576 313.524 32.3472 312.708 32.0013C311.893 31.6554 311.015 31.4813 310.13 31.49Z" fill="#407BFF"/>
<path d="M215.46 39.25L211.88 107.68H302.88L306.47 39.25H215.46ZM305.35 50.25H294.91L295.45 39.8H305.9L305.35 50.25ZM258.59 74L258.05 84.16H247.9L248.43 74H258.59ZM248.49 72.85L249.02 62.69H259.18L258.65 72.85H248.49ZM259.74 74H269.89L269.36 84.16H259.2L259.74 74ZM259.8 72.85L260.33 62.69H270.49L270 72.89L259.8 72.85ZM271.64 62.69H281.8L281.26 72.85H271.1L271.64 62.69ZM271.7 61.54L272.23 51.39H282.39L281.86 61.54H271.7ZM270.55 61.54H260.39L260.92 51.39H271.08L270.55 61.54ZM259.24 61.54H249.08L249.61 51.39H259.77L259.24 61.54ZM247.93 61.54H237.77L238.3 51.39H248.46L247.93 61.54ZM247.87 62.69L247.34 72.85H237.18L237.71 62.69H247.87ZM236 72.89H225.87L226.4 62.73H236.56L236 72.89ZM236 74L235.47 84.16H225.28L225.81 74H236ZM237.15 74H247.31L246.78 84.16H236.59L237.15 74ZM246.72 85.31L246.18 95.47H236L236.54 85.31H246.72ZM247.87 85.31H258L257.47 95.47H247.3L247.87 85.31ZM259.17 85.31H269.3L268.77 95.47H258.61L259.17 85.31ZM270.48 85.31H280.64L280.11 95.47H269.92L270.48 85.31ZM270.54 84.16L271 74H281.2L280.67 84.16H270.54ZM282.35 74H292.51L292 84.2H281.82L282.35 74ZM282.41 72.85L282.95 62.69H293.1L292.57 72.85H282.41ZM283.01 61.54L283.54 51.39H293.7L293.16 61.54H283.01ZM283.6 50.24L284.15 39.79H294.3L293.76 50.24H283.6ZM282.45 50.24H272.29L272.84 39.79H283L282.45 50.24ZM271.14 50.24H261L261.55 39.79H271.71L271.14 50.24ZM259.83 50.24H249.67L250.22 39.79H260.38L259.83 50.24ZM248.52 50.24H238.37L238.91 39.79H249.07L248.52 50.24ZM237.22 50.24H227.06L227.6 39.79H237.76L237.22 50.24ZM237.15 51.39L236.62 61.54H226.46L227 51.39H237.15ZM225.31 61.54H214.87L215.4 51.39H225.85L225.31 61.54ZM225.25 62.69L224.72 72.85H214.28L214.81 62.69H225.25ZM224.66 74L224.13 84.16H213.68L214.22 74H224.66ZM224.07 85.31L223.54 95.47H213.09L213.62 85.31H224.07ZM225.22 85.31H235.38L234.84 95.47H224.69L225.22 85.31ZM234.78 96.62L234.24 107.06H224.08L224.63 96.62H234.78ZM235.93 96.62H246.09L245.55 107.06H235.39L235.93 96.62ZM247.24 96.62H257.4L256.85 107.06H246.7L247.24 96.62ZM258.55 96.62H268.71L268.16 107.06H258L258.55 96.62ZM269.86 96.62H280L279.45 107.06H269.31L269.86 96.62ZM281.17 96.62H291.33L290.78 107.06H280.62L281.17 96.62ZM281.23 95.47L281.76 85.31H291.92L291.39 95.47H281.23ZM293.07 85.31H303.51L303 95.51H292.54L293.07 85.31ZM293.13 84.16L293.66 74H304.11L303.57 84.16H293.13ZM293.72 72.85L294.25 62.69H304.7L304.17 72.85H293.72ZM294.31 61.54L294.85 51.39H305.29L304.76 61.54H294.31ZM226.45 39.79L225.91 50.24H215.46L216.01 39.79H226.45ZM213 96.66H223.45L222.9 107.1H212.48L213 96.66ZM291.9 107.1L292.45 96.66H302.89L302.34 107.1H291.9Z" fill="#407BFF"/>
<path opacity="0.25" d="M215.46 39.25L211.88 107.68H302.88L306.47 39.25H215.46ZM305.35 50.25H294.91L295.45 39.8H305.9L305.35 50.25ZM258.59 74L258.05 84.16H247.9L248.43 74H258.59ZM248.49 72.85L249.02 62.69H259.18L258.65 72.85H248.49ZM259.74 74H269.89L269.36 84.16H259.2L259.74 74ZM259.8 72.85L260.33 62.69H270.49L270 72.89L259.8 72.85ZM271.64 62.69H281.8L281.26 72.85H271.1L271.64 62.69ZM271.7 61.54L272.23 51.39H282.39L281.86 61.54H271.7ZM270.55 61.54H260.39L260.92 51.39H271.08L270.55 61.54ZM259.24 61.54H249.08L249.61 51.39H259.77L259.24 61.54ZM247.93 61.54H237.77L238.3 51.39H248.46L247.93 61.54ZM247.87 62.69L247.34 72.85H237.18L237.71 62.69H247.87ZM236 72.89H225.87L226.4 62.73H236.56L236 72.89ZM236 74L235.47 84.16H225.28L225.81 74H236ZM237.15 74H247.31L246.78 84.16H236.59L237.15 74ZM246.72 85.31L246.18 95.47H236L236.54 85.31H246.72ZM247.87 85.31H258L257.47 95.47H247.3L247.87 85.31ZM259.17 85.31H269.3L268.77 95.47H258.61L259.17 85.31ZM270.48 85.31H280.64L280.11 95.47H269.92L270.48 85.31ZM270.54 84.16L271 74H281.2L280.67 84.16H270.54ZM282.35 74H292.51L292 84.2H281.82L282.35 74ZM282.41 72.85L282.95 62.69H293.1L292.57 72.85H282.41ZM283.01 61.54L283.54 51.39H293.7L293.16 61.54H283.01ZM283.6 50.24L284.15 39.79H294.3L293.76 50.24H283.6ZM282.45 50.24H272.29L272.84 39.79H283L282.45 50.24ZM271.14 50.24H261L261.55 39.79H271.71L271.14 50.24ZM259.83 50.24H249.67L250.22 39.79H260.38L259.83 50.24ZM248.52 50.24H238.37L238.91 39.79H249.07L248.52 50.24ZM237.22 50.24H227.06L227.6 39.79H237.76L237.22 50.24ZM237.15 51.39L236.62 61.54H226.46L227 51.39H237.15ZM225.31 61.54H214.87L215.4 51.39H225.85L225.31 61.54ZM225.25 62.69L224.72 72.85H214.28L214.81 62.69H225.25ZM224.66 74L224.13 84.16H213.68L214.22 74H224.66ZM224.07 85.31L223.54 95.47H213.09L213.62 85.31H224.07ZM225.22 85.31H235.38L234.84 95.47H224.69L225.22 85.31ZM234.78 96.62L234.24 107.06H224.08L224.63 96.62H234.78ZM235.93 96.62H246.09L245.55 107.06H235.39L235.93 96.62ZM247.24 96.62H257.4L256.85 107.06H246.7L247.24 96.62ZM258.55 96.62H268.71L268.16 107.06H258L258.55 96.62ZM269.86 96.62H280L279.45 107.06H269.31L269.86 96.62ZM281.17 96.62H291.33L290.78 107.06H280.62L281.17 96.62ZM281.23 95.47L281.76 85.31H291.92L291.39 95.47H281.23ZM293.07 85.31H303.51L303 95.51H292.54L293.07 85.31ZM293.13 84.16L293.66 74H304.11L303.57 84.16H293.13ZM293.72 72.85L294.25 62.69H304.7L304.17 72.85H293.72ZM294.31 61.54L294.85 51.39H305.29L304.76 61.54H294.31ZM226.45 39.79L225.91 50.24H215.46L216.01 39.79H226.45ZM213 96.66H223.45L222.9 107.1H212.48L213 96.66ZM291.9 107.1L292.45 96.66H302.89L302.34 107.1H291.9Z" fill="white"/>
<path opacity="0.1" d="M287.93 78.9L261 76.13L286.21 66.77L286.49 61.51C281.49 54.08 271.06 49.01 258.69 49.01C240.97 49.01 226.05 59.43 225.38 72.28C225.38 72.65 225.38 73.02 225.38 73.39C225.38 73.76 225.14 77.17 225.12 77.54C224.45 90.4 238.27 100.81 256 100.81C270.55 100.81 283.2 93.81 287.64 84.17L287.93 78.9Z" fill="black"/>
<path opacity="0.1" d="M275.939 71.61L306.359 78.23C307.337 76.1508 307.907 73.9037 308.039 71.61C308.039 70.96 308.039 70.33 308.039 69.69C308.154 69.0285 308.227 68.3606 308.259 67.69C308.44 63.8596 307.358 60.0759 305.179 56.92L276.179 67.69L275.939 71.61Z" fill="black"/>
<path d="M285.75 76.6L258.85 73.83L284.06 64.47L284.34 59.21C279.34 51.78 268.91 46.71 256.54 46.71C238.82 46.71 223.9 57.13 223.23 69.98C223.23 70.35 223.23 70.72 223.23 71.09C223.23 71.46 222.99 74.87 222.97 75.24C222.3 88.1 236.12 98.51 253.85 98.51C268.4 98.51 281.05 91.51 285.49 81.87L285.75 76.6Z" fill="#407BFF"/>
<path d="M255.32 70L284.32 59.23C279.32 51.8 268.89 46.73 256.52 46.73C238.8 46.73 223.88 57.15 223.21 70C222.54 82.85 236.36 93.27 254.08 93.27C268.64 93.27 281.29 86.27 285.73 76.62L255.32 70Z" fill="white"/>
<path d="M273.76 69.31L304.18 75.93C305.157 73.8508 305.727 71.6037 305.86 69.31C305.86 68.66 305.86 68.03 305.86 67.39C305.974 66.7285 306.047 66.0605 306.08 65.39C306.258 61.563 305.176 57.7831 303 54.63L274 65.4L273.76 69.31Z" fill="#407BFF"/>
<path d="M304.39 72C305.366 69.9208 305.933 67.6733 306.06 65.38C306.242 61.5586 305.167 57.7828 303 54.63L274 65.4L304.39 72Z" fill="white"/>
<path opacity="0.1" d="M219.589 82.89L222.289 31.49H214.999C213.154 31.5093 211.385 32.2265 210.048 33.4973C208.71 34.7682 207.903 36.4984 207.789 38.34L204.109 108.59C204.052 109.474 204.177 110.361 204.478 111.194C204.779 112.027 205.249 112.79 205.858 113.433C206.467 114.076 207.203 114.586 208.019 114.932C208.835 115.277 209.714 115.45 210.599 115.44H254.599L255.269 102.75C255.356 101.303 255.144 99.8537 254.647 98.4919C254.151 97.13 253.38 95.8846 252.382 94.8328C251.385 93.781 250.182 92.9451 248.849 92.377C247.515 91.8089 246.079 91.5206 244.629 91.53H215.239C216.515 90.4625 217.559 89.1454 218.307 87.6596C219.055 86.1738 219.492 84.5507 219.589 82.89Z" fill="black"/>
<path d="M109.42 12.37L105.73 82.63C105.673 83.5138 105.8 84.3997 106.101 85.2325C106.403 86.0652 106.873 86.8267 107.482 87.4696C108.091 88.1125 108.826 88.6228 109.641 88.9687C110.457 89.3147 111.334 89.4887 112.22 89.48H205.09C206.935 89.4608 208.704 88.7436 210.042 87.4727C211.379 86.2019 212.186 84.4716 212.3 82.63L216 12.37C216.058 11.4864 215.932 10.6002 215.631 9.7674C215.33 8.93455 214.86 8.17299 214.251 7.53058C213.641 6.88816 212.905 6.3788 212.09 6.03452C211.274 5.69024 210.395 5.51847 209.51 5.53003H116.62C114.777 5.54692 113.009 6.26227 111.672 7.53173C110.336 8.80119 109.531 10.5303 109.42 12.37Z" fill="#407BFF"/>
<path opacity="0.5" d="M109.42 12.37L105.73 82.63C105.673 83.5138 105.8 84.3997 106.101 85.2325C106.403 86.0652 106.873 86.8267 107.482 87.4696C108.091 88.1125 108.826 88.6228 109.641 88.9687C110.457 89.3147 111.334 89.4887 112.22 89.48H205.09C206.935 89.4608 208.704 88.7436 210.042 87.4727C211.379 86.2019 212.186 84.4716 212.3 82.63L216 12.37C216.058 11.4864 215.932 10.6002 215.631 9.7674C215.33 8.93455 214.86 8.17299 214.251 7.53058C213.641 6.88816 212.905 6.3788 212.09 6.03452C211.274 5.69024 210.395 5.51847 209.51 5.53003H116.62C114.777 5.54692 113.009 6.26227 111.672 7.53173C110.336 8.80119 109.531 10.5303 109.42 12.37Z" fill="white"/>
<path d="M211.789 5.53001H209.489C210.377 5.51567 211.257 5.68537 212.075 6.02842C212.894 6.37147 213.632 6.8804 214.244 7.52312C214.855 8.16583 215.327 8.92836 215.629 9.7626C215.932 10.5968 216.058 11.4846 215.999 12.37L212.319 82.63C212.206 84.4716 211.399 86.2019 210.061 87.4727C208.724 88.7436 206.954 89.4608 205.109 89.48H207.409C209.254 89.4608 211.024 88.7436 212.361 87.4727C213.699 86.2019 214.506 84.4716 214.619 82.63L218.299 12.37C218.358 11.4846 218.232 10.5968 217.929 9.7626C217.627 8.92836 217.155 8.16583 216.544 7.52312C215.932 6.8804 215.194 6.37147 214.375 6.02842C213.557 5.68537 212.677 5.51567 211.789 5.53001Z" fill="#407BFF"/>
<path d="M117.13 13.29L113.54 81.71H204.59L208.17 13.29H117.13ZM207.02 24.29H196.57L197.12 13.84H207.57L207.02 24.29ZM160.25 48.06L159.72 58.21H149.56L150.09 48.06H160.25ZM150.16 46.91L150.69 36.75H160.85L160.31 46.91H150.16ZM161.4 48.06H171.56L171 58.23H160.87L161.4 48.06ZM161.46 46.91L162 36.75H172.15L171.62 46.91H161.46ZM173.3 36.75H183.46L182.93 46.91H172.77L173.3 36.75ZM173.36 35.6L173.9 25.44H184.06L183.52 35.6H173.36ZM172.21 35.6H162.06L162.59 25.44H172.75L172.21 35.6ZM160.91 35.6H150.75L151.28 25.44H161.44L160.91 35.6ZM149.6 35.6H139.44L139.97 25.44H150.13L149.6 35.6ZM149.54 36.75L149 46.93H138.85L139.38 36.77L149.54 36.75ZM137.7 46.93H127.54L128.07 36.77H138.23L137.7 46.93ZM137.64 48.08L137.1 58.23H127L127.53 48.08H137.64ZM138.79 48.08H148.94L148.41 58.23H138.25L138.79 48.08ZM148.35 59.38L147.82 69.54H137.66L138.19 59.38H148.35ZM149.5 59.38H159.66L159.13 69.54H149L149.5 59.38ZM160.81 59.38H171L170.47 69.54H160.28L160.81 59.38ZM172.12 59.38H182.28L181.74 69.54H171.59L172.12 59.38ZM172.18 58.23L172.71 48.08H182.87L182.34 58.23H172.18ZM184 48.08H194.16L193.63 58.23H183.49L184 48.08ZM184.06 46.93L184.59 36.77H194.75L194.22 46.93H184.06ZM184.65 35.62L185.19 25.46H195.34L194.81 35.62H184.65ZM185.25 24.31L185.79 13.86H196L195.45 24.31H185.25ZM184.1 24.31H174L174.54 13.86H184.7L184.1 24.31ZM172.79 24.31H162.65L163.2 13.86H173.35L172.79 24.31ZM161.48 24.31H151.34L151.89 13.86H162.05L161.48 24.31ZM150.17 24.31H140L140.55 13.86H150.71L150.17 24.31ZM138.86 24.31H128.72L129.27 13.86H139.43L138.86 24.31ZM138.8 25.46L138.27 35.62H128.13L128.66 25.46H138.8ZM127 35.62H116.54L117.07 25.46H127.51L127 35.62ZM126.94 36.77L126.41 46.93H115.94L116.47 36.77H126.94ZM126.35 48.08L125.82 58.23H115.35L115.88 48.08H126.35ZM125.76 59.38L125.22 69.54H114.76L115.29 59.38H125.76ZM126.91 59.38H137L136.47 69.54H126.35L126.91 59.38ZM136.47 70.69L135.92 81.14H125.75L126.29 70.69H136.47ZM137.62 70.69H147.78L147.23 81.14H137.05L137.62 70.69ZM148.93 70.69H159.09L158.54 81.14H148.36L148.93 70.69ZM160.24 70.69H170.4L169.85 81.14H159.67L160.24 70.69ZM171.55 70.69H181.7L181.16 81.14H171L171.55 70.69ZM182.85 70.69H193L192.46 81.14H182.29L182.85 70.69ZM182.91 69.54L183.45 59.38H193.61L193.07 69.54H182.91ZM194.76 59.38H205.2L204.67 69.54H194.2L194.76 59.38ZM194.82 58.23L195.35 48.08H205.79L205.26 58.23H194.82ZM195.41 46.93L195.94 36.77H206.39L205.85 46.93H195.41ZM196 35.62L196.53 25.46H207L206.47 35.62H196ZM128.12 13.86L127.57 24.31H117.13L117.68 13.86H128.12ZM114.7 70.69H125.14L124.6 81.14H114.15L114.7 70.69ZM193.6 81.14L194.14 70.69H204.59L204 81.14H193.6Z" fill="#407BFF"/>
<path opacity="0.25" d="M117.13 13.29L113.54 81.71H204.59L208.17 13.29H117.13ZM207.02 24.29H196.57L197.12 13.84H207.57L207.02 24.29ZM160.25 48.06L159.72 58.21H149.56L150.09 48.06H160.25ZM150.16 46.91L150.69 36.75H160.85L160.31 46.91H150.16ZM161.4 48.06H171.56L171 58.23H160.87L161.4 48.06ZM161.46 46.91L162 36.75H172.15L171.62 46.91H161.46ZM173.3 36.75H183.46L182.93 46.91H172.77L173.3 36.75ZM173.36 35.6L173.9 25.44H184.06L183.52 35.6H173.36ZM172.21 35.6H162.06L162.59 25.44H172.75L172.21 35.6ZM160.91 35.6H150.75L151.28 25.44H161.44L160.91 35.6ZM149.6 35.6H139.44L139.97 25.44H150.13L149.6 35.6ZM149.54 36.75L149 46.93H138.85L139.38 36.77L149.54 36.75ZM137.7 46.93H127.54L128.07 36.77H138.23L137.7 46.93ZM137.64 48.08L137.1 58.23H127L127.53 48.08H137.64ZM138.79 48.08H148.94L148.41 58.23H138.25L138.79 48.08ZM148.35 59.38L147.82 69.54H137.66L138.19 59.38H148.35ZM149.5 59.38H159.66L159.13 69.54H149L149.5 59.38ZM160.81 59.38H171L170.47 69.54H160.28L160.81 59.38ZM172.12 59.38H182.28L181.74 69.54H171.59L172.12 59.38ZM172.18 58.23L172.71 48.08H182.87L182.34 58.23H172.18ZM184 48.08H194.16L193.63 58.23H183.49L184 48.08ZM184.06 46.93L184.59 36.77H194.75L194.22 46.93H184.06ZM184.65 35.62L185.19 25.46H195.34L194.81 35.62H184.65ZM185.25 24.31L185.79 13.86H196L195.45 24.31H185.25ZM184.1 24.31H174L174.54 13.86H184.7L184.1 24.31ZM172.79 24.31H162.65L163.2 13.86H173.35L172.79 24.31ZM161.48 24.31H151.34L151.89 13.86H162.05L161.48 24.31ZM150.17 24.31H140L140.55 13.86H150.71L150.17 24.31ZM138.86 24.31H128.72L129.27 13.86H139.43L138.86 24.31ZM138.8 25.46L138.27 35.62H128.13L128.66 25.46H138.8ZM127 35.62H116.54L117.07 25.46H127.51L127 35.62ZM126.94 36.77L126.41 46.93H115.94L116.47 36.77H126.94ZM126.35 48.08L125.82 58.23H115.35L115.88 48.08H126.35ZM125.76 59.38L125.22 69.54H114.76L115.29 59.38H125.76ZM126.91 59.38H137L136.47 69.54H126.35L126.91 59.38ZM136.47 70.69L135.92 81.14H125.75L126.29 70.69H136.47ZM137.62 70.69H147.78L147.23 81.14H137.05L137.62 70.69ZM148.93 70.69H159.09L158.54 81.14H148.36L148.93 70.69ZM160.24 70.69H170.4L169.85 81.14H159.67L160.24 70.69ZM171.55 70.69H181.7L181.16 81.14H171L171.55 70.69ZM182.85 70.69H193L192.46 81.14H182.29L182.85 70.69ZM182.91 69.54L183.45 59.38H193.61L193.07 69.54H182.91ZM194.76 59.38H205.2L204.67 69.54H194.2L194.76 59.38ZM194.82 58.23L195.35 48.08H205.79L205.26 58.23H194.82ZM195.41 46.93L195.94 36.77H206.39L205.85 46.93H195.41ZM196 35.62L196.53 25.46H207L206.47 35.62H196ZM128.12 13.86L127.57 24.31H117.13L117.68 13.86H128.12ZM114.7 70.69H125.14L124.6 81.14H114.15L114.7 70.69ZM193.6 81.14L194.14 70.69H204.59L204 81.14H193.6Z" fill="white"/>
<path opacity="0.1" d="M188.559 27.18L190.469 29.2L172.219 46.55L161.499 35.24L147.609 48.44L136.509 68.53L125.789 57.22L113.999 78.58L113.729 83.72H116.299L126.649 64.99L137.359 76.3L151.249 51.16L161.16 41.75L171.88 53.05L193.559 32.45L195.469 34.47L195.85 27.18H188.559Z" fill="black"/>
<path d="M188.69 24.88L190.59 26.9L172.34 44.25L161.62 32.94L147.73 46.14L136.63 66.23L125.91 54.93L114.12 76.28L113.85 81.43H116.42L126.77 62.69L137.48 74L151.37 48.86L161.28 39.44L172 50.75L193.68 30.15L195.59 32.17L195.97 24.88H188.69Z" fill="white"/>
<path d="M155.61 102.48L152.41 163.58C152.36 164.348 152.47 165.118 152.732 165.842C152.994 166.566 153.402 167.227 153.931 167.786C154.461 168.345 155.1 168.788 155.809 169.088C156.517 169.388 157.28 169.538 158.05 169.53H238.81C240.412 169.513 241.948 168.89 243.11 167.786C244.271 166.682 244.972 165.179 245.07 163.58L248.28 102.48C248.328 101.711 248.217 100.941 247.954 100.217C247.691 99.4937 247.282 98.832 246.752 98.2736C246.222 97.7152 245.582 97.2721 244.873 96.9721C244.164 96.6721 243.4 96.5216 242.63 96.53H161.88C160.277 96.547 158.739 97.1699 157.576 98.2735C156.413 99.3771 155.711 100.88 155.61 102.48Z" fill="#407BFF"/>
<path opacity="0.5" d="M155.61 102.48L152.41 163.58C152.36 164.348 152.47 165.118 152.732 165.842C152.994 166.566 153.402 167.227 153.931 167.786C154.461 168.345 155.1 168.788 155.809 169.088C156.517 169.388 157.28 169.538 158.05 169.53H238.81C240.412 169.513 241.948 168.89 243.11 167.786C244.271 166.682 244.972 165.179 245.07 163.58L248.28 102.48C248.328 101.711 248.217 100.941 247.954 100.217C247.691 99.4937 247.282 98.832 246.752 98.2736C246.222 97.7152 245.582 97.2721 244.873 96.9721C244.164 96.6721 243.4 96.5216 242.63 96.53H161.88C160.277 96.547 158.739 97.1699 157.576 98.2735C156.413 99.3771 155.711 100.88 155.61 102.48Z" fill="white"/>
<path d="M244.63 96.53H242.63C243.4 96.5216 244.163 96.6721 244.872 96.9721C245.581 97.2721 246.221 97.7152 246.751 98.2736C247.282 98.832 247.691 99.4937 247.954 100.217C248.217 100.941 248.328 101.711 248.28 102.48L245.07 163.58C244.971 165.179 244.271 166.682 243.109 167.786C241.948 168.89 240.412 169.513 238.81 169.53H240.81C242.412 169.513 243.948 168.89 245.109 167.786C246.271 166.682 246.971 165.179 247.07 163.58L250.28 102.48C250.328 101.711 250.217 100.941 249.954 100.217C249.691 99.4937 249.282 98.832 248.751 98.2736C248.221 97.7152 247.581 97.2721 246.872 96.9721C246.163 96.6721 245.4 96.5216 244.63 96.53Z" fill="#407BFF"/>
<path d="M162.32 103.28L159.2 162.78H238.37L241.48 103.28H162.32ZM240.48 112.86H231.4L231.87 103.78H241L240.48 112.86ZM199.82 133.53L199.35 142.36H190.52L190.98 133.53H199.82ZM191.03 132.53L191.5 123.7H200.33L199.87 132.53H191.03ZM200.82 133.53H209.65L209.19 142.36H200.35L200.82 133.53ZM200.87 132.53L201.33 123.7H210.16L209.7 132.53H200.87ZM211.16 123.7H220L219.53 132.53H210.7L211.16 123.7ZM211.22 122.7L211.68 113.86H220.51L220.05 122.7H211.22ZM210.22 122.7H201.38L201.85 113.86H210.68L210.22 122.7ZM200.38 122.7H191.55L192.01 113.86H200.85L200.38 122.7ZM190.55 122.7H181.72L182.18 113.86H191L190.55 122.7ZM190.5 123.7L190.03 132.53H181.2L181.66 123.7H190.5ZM180.2 132.53H171.37L171.83 123.7H180.66L180.2 132.53ZM180.2 133.53L179.74 142.36H170.9L171.37 133.53H180.2ZM181.2 133.53H190L189.54 142.36H180.71L181.2 133.53ZM189.52 143.36L189 152.2H180.17L180.63 143.36H189.52ZM190.52 143.36H199.35L198.89 152.2H190L190.52 143.36ZM200.35 143.36H209.18L208.72 152.2H199.89L200.35 143.36ZM210.18 143.36H219L218.53 152.2H209.7L210.18 143.36ZM210.24 142.36L210.7 133.53H219.53L219.07 142.36H210.24ZM220.53 133.53H229.37L228.9 142.36H220L220.53 133.53ZM220.53 132.53L221 123.7H229.83L229.37 132.53H220.53ZM221.05 122.7L221.51 113.86H230.35L229.88 122.7H221.05ZM221.57 112.86L222.04 103.78H230.87L230.4 112.86H221.57ZM220.57 112.86H211.73L212.21 103.78H221L220.57 112.86ZM210.73 112.86H201.9L202.37 103.78H211.21L210.73 112.86ZM200.9 112.86H192.07L192.54 103.78H201.37L200.9 112.86ZM191.07 112.86H182.23L182.71 103.78H191.54L191.07 112.86ZM181.23 112.86H172.4L172.87 103.78H181.71L181.23 112.86ZM181.23 113.86L180.77 122.7H171.93L172.4 113.86H181.23ZM170.93 122.7H161.8L162.26 113.86H171.35L170.93 122.7ZM170.93 123.7L170.47 132.53H161.38L161.85 123.7H170.93ZM170.42 133.53L169.95 142.36H160.87L161.33 133.53H170.42ZM169.9 143.36L169.44 152.2H160.35L160.82 143.36H169.9ZM170.9 143.36H179.73L179.27 152.2H170.44L170.9 143.36ZM179.22 153.2L178.74 162.28H169.91L170.38 153.2H179.22ZM180.22 153.2H189L188.53 162.28H179.69L180.22 153.2ZM190.05 153.2H198.88L198.41 162.28H189.58L190.05 153.2ZM199.88 153.2H208.72L208.24 162.28H199.41L199.88 153.2ZM209.72 153.2H218.55L218.08 162.28H209.24L209.72 153.2ZM219.55 153.2H228.38L227.91 162.28H219L219.55 153.2ZM219.6 152.2L220.07 143.36H228.9L228.44 152.2H219.6ZM229.9 143.36H238.98L238.52 152.2H229.44L229.9 143.36ZM229.95 142.36L230.42 133.53H239.5L239.04 142.36H229.95ZM230.47 132.53L230.93 123.7H240.01L239.55 132.53H230.47ZM230.98 122.7L231.45 113.86H240.53L240 122.7H230.98ZM171.98 103.78L171.51 112.86H162.43L162.9 103.78H171.98ZM160.2 153.2H169.28L168.81 162.28H159.73L160.2 153.2ZM228.81 162.28L229.28 153.2H238.37L237.89 162.28H228.81Z" fill="#407BFF"/>
<path opacity="0.25" d="M162.32 103.28L159.2 162.78H238.37L241.48 103.28H162.32ZM240.48 112.86H231.4L231.87 103.78H241L240.48 112.86ZM199.82 133.53L199.35 142.36H190.52L190.98 133.53H199.82ZM191.03 132.53L191.5 123.7H200.33L199.87 132.53H191.03ZM200.82 133.53H209.65L209.19 142.36H200.35L200.82 133.53ZM200.87 132.53L201.33 123.7H210.16L209.7 132.53H200.87ZM211.16 123.7H220L219.53 132.53H210.7L211.16 123.7ZM211.22 122.7L211.68 113.86H220.51L220.05 122.7H211.22ZM210.22 122.7H201.38L201.85 113.86H210.68L210.22 122.7ZM200.38 122.7H191.55L192.01 113.86H200.85L200.38 122.7ZM190.55 122.7H181.72L182.18 113.86H191L190.55 122.7ZM190.5 123.7L190.03 132.53H181.2L181.66 123.7H190.5ZM180.2 132.53H171.37L171.83 123.7H180.66L180.2 132.53ZM180.2 133.53L179.74 142.36H170.9L171.37 133.53H180.2ZM181.2 133.53H190L189.54 142.36H180.71L181.2 133.53ZM189.52 143.36L189 152.2H180.17L180.63 143.36H189.52ZM190.52 143.36H199.35L198.89 152.2H190L190.52 143.36ZM200.35 143.36H209.18L208.72 152.2H199.89L200.35 143.36ZM210.18 143.36H219L218.53 152.2H209.7L210.18 143.36ZM210.24 142.36L210.7 133.53H219.53L219.07 142.36H210.24ZM220.53 133.53H229.37L228.9 142.36H220L220.53 133.53ZM220.53 132.53L221 123.7H229.83L229.37 132.53H220.53ZM221.05 122.7L221.51 113.86H230.35L229.88 122.7H221.05ZM221.57 112.86L222.04 103.78H230.87L230.4 112.86H221.57ZM220.57 112.86H211.73L212.21 103.78H221L220.57 112.86ZM210.73 112.86H201.9L202.37 103.78H211.21L210.73 112.86ZM200.9 112.86H192.07L192.54 103.78H201.37L200.9 112.86ZM191.07 112.86H182.23L182.71 103.78H191.54L191.07 112.86ZM181.23 112.86H172.4L172.87 103.78H181.71L181.23 112.86ZM181.23 113.86L180.77 122.7H171.93L172.4 113.86H181.23ZM170.93 122.7H161.8L162.26 113.86H171.35L170.93 122.7ZM170.93 123.7L170.47 132.53H161.38L161.85 123.7H170.93ZM170.42 133.53L169.95 142.36H160.87L161.33 133.53H170.42ZM169.9 143.36L169.44 152.2H160.35L160.82 143.36H169.9ZM170.9 143.36H179.73L179.27 152.2H170.44L170.9 143.36ZM179.22 153.2L178.74 162.28H169.91L170.38 153.2H179.22ZM180.22 153.2H189L188.53 162.28H179.69L180.22 153.2ZM190.05 153.2H198.88L198.41 162.28H189.58L190.05 153.2ZM199.88 153.2H208.72L208.24 162.28H199.41L199.88 153.2ZM209.72 153.2H218.55L218.08 162.28H209.24L209.72 153.2ZM219.55 153.2H228.38L227.91 162.28H219L219.55 153.2ZM219.6 152.2L220.07 143.36H228.9L228.44 152.2H219.6ZM229.9 143.36H238.98L238.52 152.2H229.44L229.9 143.36ZM229.95 142.36L230.42 133.53H239.5L239.04 142.36H229.95ZM230.47 132.53L230.93 123.7H240.01L239.55 132.53H230.47ZM230.98 122.7L231.45 113.86H240.53L240 122.7H230.98ZM171.98 103.78L171.51 112.86H162.43L162.9 103.78H171.98ZM160.2 153.2H169.28L168.81 162.28H159.73L160.2 153.2ZM228.81 162.28L229.28 153.2H238.37L237.89 162.28H228.81Z" fill="white"/>
<g opacity="0.1">
<path d="M169.7 164.28H165.01L166.06 144.2H170.76L169.7 164.28Z" fill="black"/>
<path d="M179.99 156.45H175.29L176.75 128.7H181.44L179.99 156.45Z" fill="black"/>
<path d="M190.349 147.26H185.649L186.999 121.45H191.699L190.349 147.26Z" fill="black"/>
<path d="M200 151.45H195.31L196.75 123.95H201.44L200 151.45Z" fill="black"/>
<path d="M210.24 144.57H205.54L207.01 116.56H211.7L210.24 144.57Z" fill="black"/>
<path d="M219.82 150.08H215.13L216.63 121.45H221.32L219.82 150.08Z" fill="black"/>
<path d="M230.089 142.57H225.399L227.019 111.68H231.709L230.089 142.57Z" fill="black"/>
<path d="M240.219 137.7H235.529L237.229 105.28H241.919L240.219 137.7Z" fill="black"/>
</g>
<path d="M168.81 162.28H164.11L165.17 142.2H169.86L168.81 162.28Z" fill="white"/>
<path d="M179.089 154.45H174.399L175.849 126.7H180.549L179.089 154.45Z" fill="white"/>
<path d="M189.45 145.26H184.76L186.11 119.45H190.8L189.45 145.26Z" fill="white"/>
<path d="M199.11 149.45H194.41L195.85 121.95H200.55L199.11 149.45Z" fill="white"/>
<path d="M209.339 142.57H204.649L206.119 114.56H210.809L209.339 142.57Z" fill="white"/>
<path d="M218.929 148.08H214.229L215.729 119.45H220.429L218.929 148.08Z" fill="white"/>
<path d="M229.2 140.57H224.5L226.12 109.68H230.82L229.2 140.57Z" fill="white"/>
<path d="M239.33 135.7H234.63L236.33 103.28H241.03L239.33 135.7Z" fill="white"/>
<path d="M280.89 20.63L279.81 41.28C279.795 41.539 279.833 41.7983 279.923 42.0418C280.012 42.2854 280.151 42.5079 280.33 42.6955C280.509 42.8831 280.725 43.0318 280.964 43.1324C281.203 43.2329 281.46 43.2832 281.72 43.28H303.6C304.14 43.2738 304.658 43.0646 305.05 42.694C305.443 42.3235 305.682 41.8187 305.72 41.28L306.8 20.63C306.816 20.3715 306.779 20.1124 306.691 19.8689C306.603 19.6254 306.465 19.4028 306.287 19.215C306.108 19.0272 305.893 18.8783 305.654 18.7777C305.416 18.677 305.159 18.6267 304.9 18.63H283C282.462 18.6387 281.946 18.849 281.556 19.2193C281.165 19.5896 280.927 20.093 280.89 20.63Z" fill="#407BFF"/>
<path opacity="0.6" d="M280.89 20.63L279.81 41.28C279.795 41.539 279.833 41.7983 279.923 42.0418C280.012 42.2854 280.151 42.5079 280.33 42.6955C280.509 42.8831 280.725 43.0318 280.964 43.1324C281.203 43.2329 281.46 43.2832 281.72 43.28H303.6C304.14 43.2738 304.658 43.0646 305.05 42.694C305.443 42.3235 305.682 41.8187 305.72 41.28L306.8 20.63C306.816 20.3715 306.779 20.1124 306.691 19.8689C306.603 19.6254 306.465 19.4028 306.287 19.215C306.108 19.0272 305.893 18.8783 305.654 18.7777C305.416 18.677 305.159 18.6267 304.9 18.63H283C282.462 18.6387 281.946 18.849 281.556 19.2193C281.165 19.5896 280.927 20.093 280.89 20.63Z" fill="white"/>
<path d="M306.5 18.62H304.9C305.159 18.6167 305.415 18.667 305.654 18.7677C305.893 18.8683 306.108 19.0172 306.286 19.205C306.465 19.3928 306.603 19.6154 306.691 19.8589C306.779 20.1024 306.816 20.3615 306.8 20.62L305.72 41.27C305.682 41.8087 305.443 42.3135 305.05 42.6841C304.657 43.0546 304.14 43.2638 303.6 43.27H305.2C305.74 43.2638 306.257 43.0546 306.65 42.6841C307.043 42.3135 307.282 41.8087 307.32 41.27L308.4 20.62C308.416 20.3615 308.379 20.1024 308.291 19.8589C308.202 19.6154 308.065 19.3928 307.886 19.205C307.708 19.0172 307.493 18.8683 307.254 18.7677C307.015 18.667 306.759 18.6167 306.5 18.62Z" fill="#407BFF"/>
<path opacity="0.2" d="M306.5 18.62H304.9C305.159 18.6167 305.415 18.667 305.654 18.7677C305.893 18.8683 306.108 19.0172 306.286 19.205C306.465 19.3928 306.603 19.6154 306.691 19.8589C306.779 20.1024 306.816 20.3615 306.8 20.62L305.72 41.27C305.682 41.8087 305.443 42.3135 305.05 42.6841C304.657 43.0546 304.14 43.2638 303.6 43.27H305.2C305.74 43.2638 306.257 43.0546 306.65 42.6841C307.043 42.3135 307.282 41.8087 307.32 41.27L308.4 20.62C308.416 20.3615 308.379 20.1024 308.291 19.8589C308.202 19.6154 308.065 19.3928 307.886 19.205C307.708 19.0172 307.493 18.8683 307.254 18.7677C307.015 18.667 306.759 18.6167 306.5 18.62Z" fill="white"/>
<path d="M285.87 26.88C285.869 26.4005 285.963 25.9256 286.149 25.4834C286.335 25.0413 286.607 24.6409 286.95 24.306C287.293 23.9712 287.7 23.7087 288.147 23.5342C288.594 23.3597 289.071 23.2766 289.55 23.29C290.029 23.2737 290.506 23.3549 290.952 23.5287C291.398 23.7026 291.805 23.9654 292.146 24.3013C292.487 24.6371 292.757 25.0389 292.938 25.4823C293.119 25.9256 293.209 26.4012 293.2 26.88C293.151 27.8189 292.744 28.7032 292.062 29.3504C291.38 29.9977 290.475 30.3585 289.535 30.3585C288.595 30.3585 287.691 29.9977 287.009 29.3504C286.327 28.7032 285.919 27.8189 285.87 26.88ZM297.17 25.49L298.57 26.29L289 36.87L287.6 36.05L297.17 25.49ZM290.67 26.88C290.664 26.6583 290.593 26.4433 290.466 26.2616C290.339 26.08 290.161 25.9399 289.954 25.8586C289.748 25.7774 289.522 25.7587 289.305 25.8048C289.089 25.8509 288.89 25.9598 288.735 26.118C288.579 26.2762 288.474 26.4766 288.431 26.6943C288.389 26.912 288.412 27.1373 288.496 27.3422C288.581 27.5471 288.725 27.7226 288.908 27.8466C289.092 27.9707 289.308 28.038 289.53 28.04C289.682 28.04 289.831 28.0099 289.971 27.9514C290.111 27.8928 290.237 27.8071 290.343 27.6991C290.45 27.5911 290.533 27.4631 290.589 27.3224C290.645 27.1818 290.673 27.0314 290.67 26.88ZM293.41 35.04C293.394 34.3114 293.596 33.5945 293.989 32.9808C294.382 32.3671 294.949 31.8843 295.617 31.5939C296.286 31.3035 297.025 31.2188 297.742 31.3504C298.459 31.482 299.12 31.8241 299.642 32.333C300.164 32.842 300.522 33.4947 300.671 34.208C300.821 34.9213 300.754 35.663 300.481 36.3384C300.207 37.0139 299.738 37.5925 299.134 38.0006C298.531 38.4088 297.819 38.6279 297.09 38.63C296.608 38.6421 296.128 38.5569 295.679 38.3794C295.231 38.2019 294.822 37.9358 294.479 37.597C294.135 37.2581 293.864 36.8535 293.68 36.4073C293.496 35.9611 293.405 35.4825 293.41 35V35.04ZM298.21 35.04C298.21 34.7403 298.091 34.4529 297.879 34.241C297.667 34.0291 297.38 33.91 297.08 33.91C296.78 33.91 296.493 34.0291 296.281 34.241C296.069 34.4529 295.95 34.7403 295.95 35.04C295.943 35.1908 295.967 35.3414 296.021 35.4825C296.074 35.6237 296.156 35.7525 296.26 35.8611C296.365 35.9696 296.491 36.0557 296.63 36.114C296.77 36.1723 296.919 36.2015 297.07 36.2C297.225 36.2002 297.378 36.1689 297.521 36.1079C297.663 36.0469 297.792 35.9575 297.898 35.8452C298.005 35.7329 298.088 35.6 298.141 35.4547C298.195 35.3094 298.218 35.1547 298.21 35V35.04Z" fill="#407BFF"/>
<path d="M223.31 9.85L222.5 25.2C222.488 25.3934 222.515 25.5874 222.581 25.7696C222.647 25.9519 222.75 26.1186 222.883 26.2594C223.016 26.4002 223.177 26.5119 223.356 26.5878C223.534 26.6636 223.726 26.7018 223.92 26.7H240.2C240.603 26.6956 240.989 26.5382 241.281 26.2597C241.572 25.9813 241.747 25.6025 241.77 25.2L242.58 9.85C242.592 9.65657 242.565 9.46266 242.499 9.28038C242.433 9.0981 242.33 8.93137 242.197 8.79061C242.064 8.64985 241.903 8.53806 241.724 8.46226C241.546 8.38645 241.354 8.34823 241.16 8.35H224.88C224.477 8.35443 224.09 8.5118 223.799 8.79027C223.508 9.06875 223.333 9.44753 223.31 9.85Z" fill="#407BFF"/>
<path opacity="0.6" d="M223.31 9.85L222.5 25.2C222.488 25.3934 222.515 25.5874 222.581 25.7696C222.647 25.9519 222.75 26.1186 222.883 26.2594C223.016 26.4002 223.177 26.5119 223.356 26.5878C223.534 26.6636 223.726 26.7018 223.92 26.7H240.2C240.603 26.6956 240.989 26.5382 241.281 26.2597C241.572 25.9813 241.747 25.6025 241.77 25.2L242.58 9.85C242.592 9.65657 242.565 9.46266 242.499 9.28038C242.433 9.0981 242.33 8.93137 242.197 8.79061C242.064 8.64985 241.903 8.53806 241.724 8.46226C241.546 8.38645 241.354 8.34823 241.16 8.35H224.88C224.477 8.35443 224.09 8.5118 223.799 8.79027C223.508 9.06875 223.333 9.44753 223.31 9.85Z" fill="white"/>
<path d="M242.35 8.35H241.16C241.354 8.34823 241.546 8.38645 241.725 8.46226C241.903 8.53806 242.064 8.64985 242.197 8.79061C242.33 8.93137 242.433 9.0981 242.499 9.28038C242.565 9.46266 242.593 9.65657 242.58 9.85L241.77 25.2C241.747 25.6025 241.573 25.9813 241.281 26.2597C240.99 26.5382 240.603 26.6956 240.2 26.7H241.39C241.793 26.6956 242.18 26.5382 242.471 26.2597C242.763 25.9813 242.937 25.6025 242.96 25.2L243.77 9.85C243.783 9.65657 243.755 9.46266 243.689 9.28038C243.623 9.0981 243.52 8.93137 243.387 8.79061C243.254 8.64985 243.093 8.53806 242.915 8.46226C242.736 8.38645 242.544 8.34823 242.35 8.35Z" fill="#407BFF"/>
<path opacity="0.2" d="M242.35 8.35H241.16C241.354 8.34823 241.546 8.38645 241.725 8.46226C241.903 8.53806 242.064 8.64985 242.197 8.79061C242.33 8.93137 242.433 9.0981 242.499 9.28038C242.565 9.46266 242.593 9.65657 242.58 9.85L241.77 25.2C241.747 25.6025 241.573 25.9813 241.281 26.2597C240.99 26.5382 240.603 26.6956 240.2 26.7H241.39C241.793 26.6956 242.18 26.5382 242.471 26.2597C242.763 25.9813 242.937 25.6025 242.96 25.2L243.77 9.85C243.783 9.65657 243.755 9.46266 243.689 9.28038C243.623 9.0981 243.52 8.93137 243.387 8.79061C243.254 8.64985 243.093 8.53806 242.915 8.46226C242.736 8.38645 242.544 8.34823 242.35 8.35Z" fill="white"/>
<path d="M238.28 19.27H234.28V23.27H230.78V19.27H226.78V15.78H230.78V11.78H234.28V15.78H238.28V19.27Z" fill="#407BFF"/>
<path d="M254.74 122.18L253.94 137.54C253.929 137.733 253.958 137.925 254.024 138.107C254.091 138.288 254.194 138.453 254.327 138.593C254.46 138.732 254.62 138.843 254.798 138.919C254.976 138.994 255.167 139.032 255.36 139.03H271.64C272.041 139.026 272.426 138.87 272.717 138.593C273.009 138.317 273.185 137.941 273.21 137.54L274.02 122.18C274.032 121.987 274.005 121.793 273.939 121.61C273.873 121.428 273.77 121.261 273.637 121.121C273.503 120.98 273.343 120.868 273.164 120.792C272.986 120.716 272.794 120.678 272.6 120.68H256.32C255.916 120.684 255.528 120.841 255.235 121.12C254.942 121.398 254.765 121.777 254.74 122.18Z" fill="#407BFF"/>
<path opacity="0.6" d="M254.74 122.18L253.94 137.54C253.929 137.733 253.958 137.925 254.024 138.107C254.091 138.288 254.194 138.453 254.327 138.593C254.46 138.732 254.62 138.843 254.798 138.919C254.976 138.994 255.167 139.032 255.36 139.03H271.64C272.041 139.026 272.426 138.87 272.717 138.593C273.009 138.317 273.185 137.941 273.21 137.54L274.02 122.18C274.032 121.987 274.005 121.793 273.939 121.61C273.873 121.428 273.77 121.261 273.637 121.121C273.503 120.98 273.343 120.868 273.164 120.792C272.986 120.716 272.794 120.678 272.6 120.68H256.32C255.916 120.684 255.528 120.841 255.235 121.12C254.942 121.398 254.765 121.777 254.74 122.18Z" fill="white"/>
<path d="M273.79 120.68H272.6C272.793 120.678 272.986 120.716 273.164 120.792C273.342 120.868 273.503 120.98 273.636 121.121C273.77 121.261 273.873 121.428 273.938 121.61C274.004 121.793 274.032 121.987 274.02 122.18L273.21 137.54C273.184 137.941 273.009 138.317 272.717 138.593C272.426 138.87 272.041 139.026 271.64 139.03H272.83C273.231 139.026 273.616 138.87 273.907 138.593C274.199 138.317 274.374 137.941 274.4 137.54L275.21 122.18C275.222 121.987 275.194 121.793 275.128 121.61C275.063 121.428 274.96 121.261 274.826 121.121C274.693 120.98 274.532 120.868 274.354 120.792C274.176 120.716 273.983 120.678 273.79 120.68Z" fill="#407BFF"/>
<path opacity="0.2" d="M273.79 120.68H272.6C272.793 120.678 272.986 120.716 273.164 120.792C273.342 120.868 273.503 120.98 273.636 121.121C273.77 121.261 273.873 121.428 273.938 121.61C274.004 121.793 274.032 121.987 274.02 122.18L273.21 137.54C273.184 137.941 273.009 138.317 272.717 138.593C272.426 138.87 272.041 139.026 271.64 139.03H272.83C273.231 139.026 273.616 138.87 273.907 138.593C274.199 138.317 274.374 137.941 274.4 137.54L275.21 122.18C275.222 121.987 275.194 121.793 275.128 121.61C275.063 121.428 274.96 121.261 274.826 121.121C274.693 120.98 274.532 120.868 274.354 120.792C274.176 120.716 273.983 120.678 273.79 120.68Z" fill="white"/>
<path d="M269.12 131.6H258.83V128.11H269.12V131.6Z" fill="#407BFF"/>
<path d="M149.44 113.86L148.35 134.51C148.337 134.769 148.376 135.027 148.466 135.27C148.556 135.513 148.695 135.735 148.874 135.922C149.052 136.11 149.268 136.258 149.506 136.359C149.745 136.461 150.001 136.512 150.26 136.51H172.15C172.69 136.506 173.208 136.297 173.6 135.926C173.991 135.555 174.227 135.049 174.26 134.51L175.35 113.86C175.364 113.601 175.325 113.343 175.235 113.1C175.145 112.857 175.006 112.635 174.827 112.448C174.648 112.26 174.433 112.112 174.194 112.011C173.956 111.91 173.699 111.858 173.44 111.86H151.55C151.011 111.864 150.493 112.073 150.101 112.444C149.709 112.815 149.473 113.321 149.44 113.86Z" fill="#407BFF"/>
<path opacity="0.6" d="M149.44 113.86L148.35 134.51C148.337 134.769 148.376 135.027 148.466 135.27C148.556 135.513 148.695 135.735 148.874 135.922C149.052 136.11 149.268 136.258 149.506 136.359C149.745 136.461 150.001 136.512 150.26 136.51H172.15C172.69 136.506 173.208 136.297 173.6 135.926C173.991 135.555 174.227 135.049 174.26 134.51L175.35 113.86C175.364 113.601 175.325 113.343 175.235 113.1C175.145 112.857 175.006 112.635 174.827 112.448C174.648 112.26 174.433 112.112 174.194 112.011C173.956 111.91 173.699 111.858 173.44 111.86H151.55C151.011 111.864 150.493 112.073 150.101 112.444C149.709 112.815 149.473 113.321 149.44 113.86Z" fill="white"/>
<path d="M175 111.85H173.4C173.659 111.848 173.916 111.9 174.154 112.001C174.393 112.102 174.608 112.25 174.787 112.438C174.966 112.625 175.105 112.847 175.195 113.09C175.285 113.333 175.324 113.591 175.31 113.85L174.22 134.5C174.187 135.039 173.951 135.545 173.56 135.916C173.168 136.287 172.65 136.496 172.11 136.5H173.71C174.25 136.496 174.768 136.287 175.16 135.916C175.551 135.545 175.787 135.039 175.82 134.5L177 113.86C177.016 113.593 176.975 113.325 176.881 113.075C176.786 112.824 176.639 112.597 176.451 112.407C176.262 112.217 176.035 112.07 175.785 111.974C175.535 111.878 175.268 111.835 175 111.85Z" fill="#407BFF"/>
<path opacity="0.2" d="M175 111.85H173.4C173.659 111.848 173.916 111.9 174.154 112.001C174.393 112.102 174.608 112.25 174.787 112.438C174.966 112.625 175.105 112.847 175.195 113.09C175.285 113.333 175.324 113.591 175.31 113.85L174.22 134.5C174.187 135.039 173.951 135.545 173.56 135.916C173.168 136.287 172.65 136.496 172.11 136.5H173.71C174.25 136.496 174.768 136.287 175.16 135.916C175.551 135.545 175.787 135.039 175.82 134.5L177 113.86C177.016 113.593 176.975 113.325 176.881 113.075C176.786 112.824 176.639 112.597 176.451 112.407C176.262 112.217 176.035 112.07 175.785 111.974C175.535 111.878 175.268 111.835 175 111.85Z" fill="white"/>
<path d="M162.8 131.17V132.87H161.44V131.19C160.465 131.182 159.515 130.88 158.714 130.323C157.913 129.766 157.298 128.981 156.95 128.07L159.61 126.52C159.744 126.928 159.984 127.293 160.306 127.578C160.627 127.863 161.019 128.057 161.44 128.14V125.48C161.37 125.48 161.27 125.42 161.19 125.38C159.51 124.71 157.51 123.76 157.51 121.18C157.51 120.131 157.922 119.124 158.657 118.376C159.392 117.628 160.392 117.198 161.44 117.18V115.5H162.8V117.22C163.628 117.299 164.418 117.601 165.088 118.094C165.757 118.587 166.28 119.253 166.6 120.02L164 121.54C163.915 121.252 163.763 120.989 163.556 120.771C163.349 120.554 163.094 120.389 162.81 120.29V122.89C164.49 123.61 166.76 124.25 166.76 127.06C166.75 129.48 165.09 130.9 162.8 131.17ZM161.44 122.26V120.26C161.204 120.298 160.989 120.42 160.834 120.604C160.68 120.787 160.597 121.02 160.6 121.26C160.6 121.56 160.77 121.87 161.44 122.26ZM163.66 127.1C163.66 126.62 163.38 126.33 162.8 126.04V128.1C163.04 128.066 163.26 127.946 163.418 127.762C163.577 127.578 163.663 127.343 163.66 127.1Z" fill="#407BFF"/>
<path d="M172.429 1.53001H188.109C188.879 1.53001 188.989 0.330017 188.209 0.330017H172.529C171.759 0.330017 171.649 1.53001 172.429 1.53001Z" fill="#407BFF"/>
<path d="M193.85 1.53001H198.36C199.13 1.53001 199.24 0.330017 198.46 0.330017H194C193.22 0.330017 193.12 1.53001 193.89 1.53001H193.85Z" fill="#407BFF"/>
<path d="M224.75 174.26H209.07C208.29 174.26 208.19 175.46 208.96 175.46H224.64C225.41 175.46 225.52 174.26 224.75 174.26Z" fill="#407BFF"/>
<path d="M203.32 174.26H198.82C198.04 174.26 197.94 175.46 198.71 175.46H203.22C203.99 175.46 204.09 174.26 203.32 174.26Z" fill="#407BFF"/>
<path d="M271.26 315.44L270.17 323.74L261.21 323.27L261.79 314.11L271.26 315.44Z" fill="#FAB27B"/>
<path d="M256.7 323.62C255.54 323.62 254.34 323.36 253.96 322.86C253.853 322.715 253.795 322.54 253.795 322.36C253.795 322.18 253.853 322.005 253.96 321.86C254.124 321.607 254.378 321.425 254.67 321.35C256.24 320.96 259.47 322.89 259.67 322.97C259.71 322.994 259.741 323.03 259.759 323.074C259.777 323.117 259.781 323.165 259.77 323.21C259.762 323.254 259.74 323.294 259.708 323.324C259.675 323.355 259.634 323.374 259.59 323.38C258.636 323.551 257.669 323.631 256.7 323.62ZM255.25 321.77C255.105 321.767 254.96 321.784 254.82 321.82C254.73 321.836 254.644 321.871 254.568 321.923C254.492 321.975 254.428 322.042 254.38 322.12C254.21 322.39 254.27 322.53 254.33 322.6C254.75 323.22 257.12 323.28 258.86 323.1C257.752 322.431 256.527 321.979 255.25 321.77Z" fill="#407BFF"/>
<path d="M259.539 323.41C259.525 323.417 259.51 323.421 259.494 323.421C259.479 323.421 259.463 323.417 259.449 323.41C258.339 322.89 256.129 320.81 256.349 319.76C256.349 319.51 256.569 319.2 257.179 319.16C257.401 319.138 257.624 319.162 257.836 319.231C258.048 319.3 258.243 319.412 258.409 319.56C259.589 320.56 259.789 323.1 259.799 323.21C259.799 323.249 259.79 323.287 259.773 323.322C259.756 323.357 259.73 323.387 259.699 323.41C259.648 323.43 259.591 323.43 259.539 323.41ZM257.319 319.57H257.199C256.799 319.57 256.769 319.75 256.749 319.81C256.679 320.44 258.129 322.06 259.269 322.81C259.178 321.746 258.767 320.735 258.089 319.91C257.876 319.724 257.602 319.621 257.319 319.62V319.57Z" fill="#407BFF"/>
<path d="M260.56 322.12L270.79 322.32C270.978 322.321 271.159 322.388 271.303 322.508C271.447 322.629 271.545 322.795 271.58 322.98L273.27 331.34C273.312 331.54 273.308 331.747 273.26 331.946C273.211 332.144 273.119 332.329 272.989 332.488C272.86 332.646 272.696 332.773 272.511 332.86C272.326 332.947 272.124 332.991 271.92 332.99C268.24 332.85 264.92 332.59 260.37 332.51C254.95 332.4 256.31 333.08 249.94 333.04C246.1 333.04 245.48 328.64 247.11 328.46C254.58 327.67 255.4 325.46 258.32 322.82C258.956 322.32 259.753 322.071 260.56 322.12Z" fill="#263238"/>
<path opacity="0.2" d="M261.489 318.93H270.809L271.259 315.44L261.789 314.11L261.489 318.93Z" fill="black"/>
<path d="M263.489 248.07L259.779 313.05H273.459L284.289 248.07H263.489Z" fill="#263238"/>
<path opacity="0.3" d="M263.489 248.07L259.779 313.05H273.459L284.289 248.07H263.489Z" fill="black"/>
<path d="M274.629 312H258.149C257.812 312.634 257.674 313.356 257.755 314.07C257.835 314.784 258.129 315.457 258.599 316L274.529 316.18C274.529 316.18 275.999 315.2 274.629 312Z" fill="#407BFF"/>
<path d="M315.749 146.75L315.149 153.91L326.189 153.48L325.499 144.85L315.749 146.75Z" fill="#FAB27B"/>
<path d="M334.619 155.61C334.619 155.61 342.049 155.61 348.939 178.49C350.029 182.09 354.029 192.65 354.029 192.65L337.139 190.65L335.509 172L334.619 155.61Z" fill="#263238"/>
<path d="M284.219 149.09C283.979 148.4 278.629 149.64 272.279 151.87C265.929 154.1 260.979 156.46 261.219 157.15C261.459 157.84 266.809 156.6 273.159 154.38C279.509 152.16 284.459 149.79 284.219 149.09Z" fill="#407BFF"/>
<path d="M276.279 150.55L277.979 150.05L278.749 152.24L277.109 152.91L276.279 150.55Z" fill="#407BFF"/>
<path opacity="0.5" d="M276.279 150.55L277.979 150.05L278.749 152.24L277.109 152.91L276.279 150.55Z" fill="white"/>
<path d="M282.42 148.66C282.88 147.34 277.19 149.04 276.86 149.16C276.53 149.28 276.28 148.66 276.68 148.53C277.08 148.4 284 146.11 283.05 148.83C282.92 149.22 282.28 149.06 282.42 148.66Z" fill="#407BFF"/>
<g opacity="0.2">
<path d="M282.42 148.66C282.88 147.34 277.19 149.04 276.86 149.16C276.53 149.28 276.28 148.66 276.68 148.53C277.08 148.4 284 146.11 283.05 148.83C282.92 149.22 282.28 149.06 282.42 148.66Z" fill="black"/>
</g>
<path d="M275.379 176.83L273.059 166.54L276.349 161.03C276.632 160.558 276.755 160.007 276.699 159.46L276.499 157.6C276.458 157.2 276.509 156.797 276.649 156.42L277.079 155.31C277.268 154.818 277.3 154.279 277.169 153.769C277.038 153.258 276.752 152.801 276.349 152.46L275.719 151.93C275.406 151.661 275.032 151.472 274.629 151.382C274.226 151.291 273.807 151.301 273.409 151.41C270.969 152.1 265.919 154.19 264.619 159.85L266.619 166.71L269.219 178.94L275.379 176.83Z" fill="#FAB27B"/>
<path d="M275.51 174.58V169.86C272.054 170.536 268.96 172.44 266.8 175.22L268.25 179.85L275.51 174.58Z" fill="#407BFF"/>
<path d="M308.479 157.06C309.306 155.593 310.483 154.353 311.905 153.451C313.327 152.549 314.95 152.013 316.629 151.89C322.259 151.62 330.149 151.89 330.149 151.89L331.519 158.7L308.479 157.06Z" fill="#263238"/>
<path d="M287.399 229.23C287.399 229.23 291.209 183.48 296.399 167.96C301.589 152.44 311.399 154.34 323.399 154.61C335.399 154.88 339.459 155.7 341.099 162.24C342.739 168.78 335.379 221.6 335.379 221.6L333.719 234.67L287.399 229.23Z" fill="#263238"/>
<path opacity="0.1" d="M287.399 229.23C287.399 229.23 291.209 183.48 296.399 167.96C301.589 152.44 311.399 154.34 323.399 154.61C335.399 154.88 339.459 155.7 341.099 162.24C342.739 168.78 335.379 221.6 335.379 221.6L333.719 234.67L287.399 229.23Z" fill="white"/>
<path d="M307.77 155.23C303.56 155.23 299.05 155.9 289.03 177.4C287.17 181.4 285.43 184.63 283.23 185.11C281.03 185.59 276.78 173.4 276.78 173.4C276.78 173.4 271.61 173.04 267.25 178.85C267.25 178.85 269.61 200.27 281.14 200.27C292.67 200.27 302.72 185.57 306.22 178.12C309.72 170.67 317.47 155.28 307.77 155.23Z" fill="#263238"/>
<path opacity="0.1" d="M307.77 155.23C303.56 155.23 299.05 155.9 289.03 177.4C287.17 181.4 285.43 184.63 283.23 185.11C281.03 185.59 276.78 173.4 276.78 173.4C276.78 173.4 271.61 173.04 267.25 178.85C267.25 178.85 269.61 200.27 281.14 200.27C292.67 200.27 302.72 185.57 306.22 178.12C309.72 170.67 317.47 155.28 307.77 155.23Z" fill="#263238"/>
<path opacity="0.2" d="M315.449 150.31C316.306 150.131 317.114 149.77 317.819 149.253C318.525 148.735 319.111 148.073 319.539 147.31L318.029 146.31L315.749 146.75L315.449 150.31Z" fill="black"/>
<path d="M309.749 126.37C309.519 126.96 309.639 127.55 310.029 127.7C310.419 127.85 310.969 127.49 311.179 126.91C311.389 126.33 311.299 125.73 310.899 125.58C310.499 125.43 309.999 125.79 309.749 126.37Z" fill="#263238"/>
<path d="M310.35 128.59L305.59 132.05C306.013 132.596 306.556 133.037 307.176 133.338C307.797 133.64 308.48 133.795 309.17 133.79L310.35 128.59Z" fill="#ED893E"/>
<path d="M333.929 133C331.149 140.91 330.139 144.33 324.799 147.34C317.239 149.84 307.389 146.81 307.689 138.23C307.959 130.51 312.459 118.89 321.479 117.81C324.526 117.432 327.599 118.269 330.032 120.141C332.466 122.013 334.063 124.768 334.479 127.81C334.708 129.559 334.519 131.338 333.929 133Z" fill="#FAB27B"/>
<path d="M312.229 121.28C312.277 121.306 312.317 121.343 312.347 121.389C312.376 121.434 312.394 121.486 312.399 121.54C312.42 121.954 312.54 122.357 312.749 122.716C312.958 123.074 313.249 123.377 313.599 123.6C313.675 123.64 313.733 123.709 313.759 123.791C313.785 123.874 313.778 123.963 313.739 124.04C313.693 124.119 313.618 124.176 313.53 124.2C313.443 124.225 313.349 124.214 313.269 124.17C312.823 123.899 312.449 123.524 312.181 123.076C311.912 122.628 311.757 122.121 311.729 121.6C311.723 121.556 311.727 121.51 311.74 121.468C311.753 121.425 311.775 121.385 311.804 121.351C311.833 121.317 311.869 121.29 311.91 121.271C311.95 121.251 311.994 121.241 312.039 121.24C312.105 121.239 312.17 121.252 312.229 121.28Z" fill="#263238"/>
<path d="M315.149 133.84L312.749 131.61C314.28 129.169 315.208 126.4 315.459 123.53C315.459 123.53 308.149 115.64 314.619 114.3C314.619 114.3 315.139 105.2 321.149 110.71C321.149 110.71 326.149 103.71 327.629 111.83C327.629 111.83 331.959 110.28 329.409 114.33C329.409 114.33 338.949 114.05 335.129 118.43C335.129 118.43 346.789 128.03 336.719 135.7C336.719 135.7 340.489 137.3 339.069 138.92C337.649 140.54 335.769 137.43 335.769 137.43C335.769 137.43 338.999 144.1 331.689 144.55C331.689 144.55 331.489 148.82 325.689 147.29C325.689 147.29 324.249 145.29 320.469 146.36C320.469 146.36 321.109 139.94 315.149 133.84Z" fill="#263238"/>
<path d="M316.76 130.19C315.985 130.555 315.289 131.069 314.714 131.704C314.139 132.34 313.696 133.082 313.41 133.89C312.67 136.04 314.62 137.25 316.76 136.77C318.7 136.33 321.4 134.67 321.21 132.45C321.02 130.23 318.7 129.3 316.76 130.19Z" fill="#FAB27B"/>
<path d="M301.879 229C301.879 229 252.089 221 245.819 241C239.549 261 229.819 289.73 229.819 289.73L241.499 295.43C241.499 295.43 260.599 260.09 262.019 253.82L289.099 254.11L298.789 242.11L301.879 229Z" fill="#263238"/>
<path d="M238.719 296.2L234.909 303.66L226.619 300.22L230.229 291.78L238.719 296.2Z" fill="#FAB27B"/>
<path d="M222.26 299C221.17 298.58 220.11 298 219.93 297.35C219.89 297.183 219.903 297.007 219.968 296.848C220.032 296.688 220.145 296.553 220.29 296.46C220.405 296.367 220.538 296.298 220.68 296.257C220.823 296.216 220.972 296.203 221.12 296.22C222.74 296.37 225.12 299.27 225.25 299.4C225.274 299.437 225.286 299.481 225.286 299.525C225.286 299.569 225.274 299.613 225.25 299.65C225.224 299.689 225.188 299.72 225.145 299.739C225.103 299.759 225.056 299.766 225.01 299.76C224.073 299.586 223.153 299.331 222.26 299ZM221.51 296.76C221.373 296.713 221.233 296.679 221.09 296.66C220.998 296.644 220.904 296.648 220.814 296.673C220.724 296.697 220.641 296.74 220.57 296.8C220.32 297 220.33 297.15 220.36 297.24C220.55 297.96 222.76 298.81 224.47 299.24C223.641 298.252 222.638 297.424 221.51 296.8V296.76Z" fill="#407BFF"/>
<path d="M224.999 299.79C224.967 299.783 224.939 299.765 224.919 299.74C224.049 298.88 222.659 296.19 223.209 295.27C223.329 295.04 223.609 294.82 224.209 294.98C224.42 295.039 224.617 295.139 224.788 295.275C224.96 295.41 225.103 295.579 225.209 295.77C225.979 297.11 225.319 299.56 225.289 299.68C225.278 299.717 225.257 299.75 225.229 299.776C225.201 299.803 225.167 299.821 225.129 299.83C225.083 299.828 225.038 299.815 224.999 299.79ZM224.199 295.42L224.079 295.37C223.699 295.26 223.619 295.37 223.579 295.45C223.299 296.02 224.119 298.03 224.969 299.08C225.24 298.049 225.188 296.96 224.819 295.96C224.682 295.713 224.462 295.522 224.199 295.42Z" fill="#407BFF"/>
<path d="M226.39 298.91L235.97 302.53C236.145 302.593 236.293 302.715 236.388 302.876C236.483 303.037 236.519 303.226 236.49 303.41L235.28 311.86C235.23 312.219 235.04 312.544 234.751 312.763C234.463 312.982 234.099 313.078 233.74 313.03C233.644 313.017 233.55 312.994 233.46 312.96C230.03 311.6 227.03 310.25 222.73 308.63C217.66 306.72 218.73 307.81 212.73 305.63C209.12 304.33 210.01 299.99 211.61 300.37C218.91 302.12 220.43 300.29 224.06 298.81C224.822 298.555 225.652 298.59 226.39 298.91Z" fill="#263238"/>
<path opacity="0.2" d="M236.779 299.99L238.719 296.2L230.229 291.78L228.489 295.86L236.779 299.99Z" fill="black"/>
<path d="M243.37 295.85L228.83 288.09C228.223 288.491 227.753 289.068 227.483 289.744C227.213 290.419 227.156 291.161 227.32 291.87L241.32 299.51C241.32 299.51 243.1 299.31 243.37 295.85Z" fill="#407BFF"/>
<path d="M345.68 331.82L339.39 262.57C339.343 262.264 339.184 261.987 338.943 261.793C338.703 261.599 338.398 261.501 338.09 261.52H335.57C335.399 261.507 335.228 261.531 335.067 261.589C334.906 261.647 334.759 261.739 334.636 261.858C334.514 261.977 334.417 262.121 334.354 262.279C334.291 262.438 334.262 262.609 334.27 262.78L343.07 332.03C343.129 332.325 343.294 332.589 343.533 332.773C343.772 332.957 344.069 333.048 344.37 333.03C344.537 333.044 344.705 333.023 344.864 332.968C345.022 332.914 345.168 332.827 345.291 332.713C345.414 332.599 345.512 332.461 345.579 332.307C345.646 332.154 345.68 331.988 345.68 331.82Z" fill="#407BFF"/>
<path d="M301.79 332L310.59 262.75C310.597 262.579 310.569 262.408 310.505 262.249C310.442 262.091 310.346 261.947 310.223 261.828C310.1 261.709 309.954 261.617 309.793 261.559C309.632 261.501 309.46 261.477 309.29 261.49H306.78C306.47 261.469 306.163 261.565 305.92 261.76C305.677 261.954 305.517 262.233 305.47 262.54L299.18 331.79C299.178 331.959 299.211 332.126 299.277 332.28C299.344 332.435 299.442 332.575 299.565 332.69C299.688 332.804 299.834 332.892 299.994 332.947C300.153 333.003 300.322 333.024 300.49 333.01C300.792 333.028 301.09 332.935 301.33 332.749C301.569 332.563 301.732 332.297 301.79 332Z" fill="#407BFF"/>
<path d="M317.269 331.82L310.999 262.57C310.952 262.263 310.791 261.984 310.549 261.79C310.306 261.595 309.999 261.499 309.689 261.52H307.179C307.008 261.507 306.837 261.531 306.676 261.589C306.515 261.647 306.369 261.739 306.246 261.858C306.123 261.977 306.027 262.121 305.964 262.279C305.9 262.438 305.872 262.609 305.879 262.78L314.649 332C314.711 332.296 314.877 332.56 315.118 332.744C315.358 332.927 315.657 333.018 315.959 333C316.124 333.014 316.289 332.994 316.446 332.941C316.602 332.888 316.746 332.804 316.869 332.693C316.992 332.583 317.091 332.448 317.16 332.298C317.228 332.148 317.266 331.985 317.269 331.82Z" fill="#407BFF"/>
<path opacity="0.3" d="M317.269 331.82L310.999 262.57C310.952 262.263 310.791 261.984 310.549 261.79C310.306 261.595 309.999 261.499 309.689 261.52H307.179C307.008 261.507 306.837 261.531 306.676 261.589C306.515 261.647 306.369 261.739 306.246 261.858C306.123 261.977 306.027 262.121 305.964 262.279C305.9 262.438 305.872 262.609 305.879 262.78L314.649 332C314.711 332.296 314.877 332.56 315.118 332.744C315.358 332.927 315.657 333.018 315.959 333C316.124 333.014 316.289 332.994 316.446 332.941C316.602 332.888 316.746 332.804 316.869 332.693C316.992 332.583 317.091 332.448 317.16 332.298C317.228 332.148 317.266 331.985 317.269 331.82Z" fill="white"/>
<path d="M273.38 332L282.18 262.75C282.187 262.579 282.158 262.408 282.095 262.249C282.032 262.091 281.936 261.947 281.813 261.828C281.69 261.709 281.543 261.617 281.382 261.559C281.222 261.501 281.05 261.477 280.88 261.49H278.36C278.051 261.471 277.747 261.569 277.506 261.763C277.266 261.957 277.106 262.234 277.06 262.54L270.77 331.79C270.768 331.959 270.801 332.126 270.867 332.28C270.934 332.435 271.032 332.575 271.155 332.69C271.278 332.804 271.424 332.892 271.583 332.947C271.743 333.003 271.912 333.024 272.08 333.01C272.382 333.028 272.68 332.935 272.919 332.749C273.158 332.563 273.322 332.297 273.38 332Z" fill="#407BFF"/>
<path opacity="0.3" d="M273.38 332L282.18 262.75C282.187 262.579 282.158 262.408 282.095 262.249C282.032 262.091 281.936 261.947 281.813 261.828C281.69 261.709 281.543 261.617 281.382 261.559C281.222 261.501 281.05 261.477 280.88 261.49H278.36C278.051 261.471 277.747 261.569 277.506 261.763C277.266 261.957 277.106 262.234 277.06 262.54L270.77 331.79C270.768 331.959 270.801 332.126 270.867 332.28C270.934 332.435 271.032 332.575 271.155 332.69C271.278 332.804 271.424 332.892 271.583 332.947C271.743 333.003 271.912 333.024 272.08 333.01C272.382 333.028 272.68 332.935 272.919 332.749C273.158 332.563 273.322 332.297 273.38 332Z" fill="white"/>
<path d="M271.869 257.9H344.579V258.19C344.579 259.073 344.228 259.92 343.604 260.545C342.979 261.169 342.132 261.52 341.249 261.52H275.249C274.366 261.52 273.519 261.169 272.894 260.545C272.27 259.92 271.919 259.073 271.919 258.19V257.9H271.869Z" fill="#407BFF"/>
<path opacity="0.3" d="M271.869 257.9H344.579V258.19C344.579 259.073 344.228 259.92 343.604 260.545C342.979 261.169 342.132 261.52 341.249 261.52H275.249C274.366 261.52 273.519 261.169 272.894 260.545C272.27 259.92 271.919 259.073 271.919 258.19V257.9H271.869Z" fill="black"/>
<path d="M339.79 185.09H333.36C328.128 185.091 323.031 186.743 318.795 189.812C314.559 192.881 311.4 197.21 309.77 202.18L296.77 241.75C295.713 244.974 293.665 247.782 290.917 249.772C288.169 251.762 284.862 252.832 281.47 252.83H260.83C259.487 252.833 258.2 253.368 257.251 254.318C256.302 255.269 255.77 256.557 255.77 257.9H345.25C349.731 257.898 354.043 256.185 357.305 253.111C360.567 250.037 362.532 245.834 362.8 241.36L364.58 211.36C364.776 207.984 364.28 204.603 363.123 201.425C361.966 198.247 360.171 195.338 357.85 192.879C355.529 190.419 352.73 188.459 349.624 187.12C346.518 185.78 343.172 185.09 339.79 185.09Z" fill="#407BFF"/>
<path d="M56.2402 209.81L57.2402 223.54C57.2402 223.54 50.0402 246.6 49.2402 271.82C48.4302 296.22 48.2402 315.05 48.2402 315.05L57.1402 315.62L70.8402 228.12L73.6202 209.07L56.2402 209.81Z" fill="#FFC3BD"/>
<path d="M78.7197 51.46C78.7197 51.46 84.6397 49.2 87.6297 54.78C87.6297 54.78 80.6297 53.16 78.4297 56.49L78.7197 51.46Z" fill="#263238"/>
<path opacity="0.1" d="M78.7197 51.46C78.7197 51.46 84.6397 49.2 87.6297 54.78C87.6297 54.78 80.6297 53.16 78.4297 56.49L78.7197 51.46Z" fill="white"/>
<path d="M144.54 96.89L140.68 100.83C137.26 101.45 136.68 106.36 136.68 106.36C135.9 106.83 130.13 111.61 128.4 112.78L131.71 116.57C133.955 114.244 136.354 112.073 138.89 110.07C138.89 110.07 147.6 106.13 149.15 104.53C150.7 102.93 149.15 97.39 149.15 97.39L144.54 96.89Z" fill="#FFC3BD"/>
<path d="M133.18 107.6C127.38 111.1 118.8 116.49 118.8 116.49C114.928 111.368 110.799 106.445 106.43 101.74C103.731 98.6842 100.565 96.0751 97.0498 94.01V110.51C101.05 114.6 113.6 126.99 118.93 126.99C123.32 126.99 132.21 118.33 137.33 112.94L133.18 107.6Z" fill="#263238"/>
<path opacity="0.4" d="M106 119C103.53 113.89 100.27 103.39 100.27 103.39L98 107.49L98.86 112.31C100.71 114.16 103.25 116.61 106 119Z" fill="black"/>
<path d="M85.9297 212.86L88.4297 224.36C88.4297 224.36 85.6797 251.86 90.1797 275.86C94.6797 299.86 95.4297 314.61 95.4297 314.61L105.43 313.61L102.43 226.86L102.68 207.61L85.9297 212.86Z" fill="#FFC3BD"/>
<path d="M56.7099 100.83C57.8763 115.883 60.0377 130.842 63.1799 145.61C63.1799 145.61 47.9299 173.86 49.6799 214.61C49.6799 214.61 65.1799 220.61 106.43 214.61L101.18 145.36C101.18 145.36 102.93 100.61 98.1799 95.61C93.9699 91.18 75.6299 85.38 61.5899 92.29C60.0212 93.069 58.7197 94.2969 57.8507 95.8176C56.9817 97.3383 56.5846 99.083 56.7099 100.83Z" fill="#407BFF"/>
<path d="M76.1797 144.11C76.1797 144.11 88.4297 146.24 97.0497 144.11V149.36C97.0497 149.36 90.6397 150.29 76.1797 149.36V144.11Z" fill="#407BFF"/>
<path opacity="0.5" d="M76.1797 144.11C76.1797 144.11 88.4297 146.24 97.0497 144.11V149.36C97.0497 149.36 90.6397 150.29 76.1797 149.36V144.11Z" fill="black"/>
<path d="M84.4299 145.43C84.4494 144.841 84.6789 144.279 85.0768 143.844C85.4747 143.409 86.0149 143.131 86.5999 143.06C88.0999 142.78 92.2399 142.86 92.2999 146.06C92.3599 149.26 92.9899 151.56 89.8699 151.75C86.7499 151.94 84.3099 152.17 84.3999 149.75H90.0499L89.9999 145L84.4299 145.43Z" fill="white"/>
<path d="M69 73.07C70.62 77.7 72.74 85.82 71 90.51C70.7939 91.0562 70.7808 91.6564 70.9626 92.2112C71.1445 92.7659 71.5105 93.2418 72 93.56C75.53 96.11 81.27 98.17 85.59 97.71C91.14 97.11 89.69 93.18 88.28 91.03C87.9 90.45 87.28 89.64 86.63 89.52C81.18 88.6 80.15 84.52 80.57 80.37L69 73.07Z" fill="#FFC3BD"/>
<path opacity="0.2" d="M73.7497 76.07L80.6097 80.35C80.5197 81.3647 80.5197 82.3853 80.6097 83.4C79.2348 83.3589 77.8909 82.982 76.6952 82.3022C75.4994 81.6224 74.4882 80.6604 73.7497 79.5C72.9997 78 73.1897 76.34 73.7497 76.07Z" fill="black"/>
<path d="M66.8901 65.58C68.8901 72.7 69.7001 76.97 74.1401 79.88C80.8301 84.28 89.0301 79.03 89.1401 71.47C89.2801 64.62 85.9901 54.15 78.3001 52.8C76.6072 52.4965 74.8649 52.6308 73.2385 53.1901C71.6122 53.7494 70.1558 54.7151 69.0076 55.9955C67.8594 57.2759 67.0576 58.8286 66.6782 60.5061C66.2989 62.1835 66.3546 63.9301 66.8401 65.58H66.8901Z" fill="#FFC3BD"/>
<path d="M82.8604 64.55C83.9498 66.1936 85.2623 67.6778 86.7603 68.96C86.4194 69.3339 86.0015 69.6294 85.5354 69.8262C85.0693 70.023 84.566 70.1165 84.0603 70.1L82.8604 64.55Z" fill="#ED847E"/>
<path d="M75.7597 63C75.7013 63.0198 75.6381 63.0198 75.5797 63C75.4942 62.9607 75.4276 62.8895 75.3939 62.8017C75.3603 62.7138 75.3624 62.6163 75.3997 62.53C75.631 62.0225 75.9788 61.5768 76.415 61.2292C76.8512 60.8817 77.3634 60.6421 77.9097 60.53C78.0023 60.5184 78.0957 60.5433 78.1703 60.5992C78.2449 60.6552 78.2949 60.7379 78.3097 60.83C78.3168 60.876 78.3146 60.923 78.3032 60.9682C78.2919 61.0133 78.2717 61.0558 78.2437 61.093C78.2158 61.1303 78.1807 61.1616 78.1405 61.1851C78.1003 61.2086 78.0559 61.2239 78.0097 61.23C77.5704 61.3222 77.1595 61.5183 76.8116 61.8019C76.4636 62.0855 76.1886 62.4483 76.0097 62.86C75.9807 62.9001 75.9434 62.9334 75.9002 62.9576C75.857 62.9818 75.8091 62.9963 75.7597 63Z" fill="#263238"/>
<path d="M87.0002 59.6C86.9492 59.632 86.8903 59.6489 86.8302 59.6489C86.7701 59.6489 86.7111 59.632 86.6602 59.6C86.2844 59.373 85.8606 59.2375 85.4228 59.2045C84.9851 59.1715 84.5457 59.2419 84.1402 59.41C84.0552 59.4518 83.9572 59.4585 83.8673 59.4285C83.7775 59.3986 83.7031 59.3344 83.6602 59.25C83.6383 59.2089 83.625 59.1638 83.6212 59.1174C83.6175 59.071 83.6233 59.0244 83.6383 58.9803C83.6533 58.9362 83.6771 58.8957 83.7084 58.8613C83.7397 58.8268 83.7778 58.7992 83.8202 58.78C84.3298 58.5623 84.8838 58.4687 85.4367 58.507C85.9895 58.5452 86.5254 58.7142 87.0002 59C87.0397 59.0209 87.0746 59.0495 87.1027 59.0843C87.1309 59.119 87.1516 59.1591 87.1638 59.2021C87.1759 59.2451 87.1792 59.2902 87.1735 59.3345C87.1677 59.3788 87.153 59.4215 87.1302 59.46C87.1007 59.5178 87.0557 59.5663 87.0002 59.6Z" fill="#263238"/>
<path d="M71.2998 88.2L85.4298 97.36V89.1L87.7898 89.64C88.0331 89.6969 88.2558 89.8206 88.4325 89.9973C88.6092 90.1741 88.7329 90.3967 88.7898 90.64C89.6242 94.3704 90.0666 98.1777 90.1098 102C90.1098 102 88.9298 96.87 85.6798 98.87C85.6798 98.87 82.2098 96 79.4598 100.87C79.4598 100.87 72.7998 98 71.2998 94.5C69.7998 91 68.7998 89.11 68.7998 89.11L71.2998 88.2Z" fill="white"/>
<path d="M70.26 88.2C73.801 103.446 76.2175 118.931 77.49 134.53C79.1 157.7 79.43 164.7 70.26 163.7C61.09 162.7 53.6 161.53 54.93 158.2C56.26 154.87 61.26 147.36 60.93 143.53C60.6 139.7 57.43 109.87 57.07 105.35C56.71 100.83 53.93 91 70.26 88.2Z" fill="#263238"/>
<path opacity="0.3" d="M77.4902 134.53C77.3502 132.48 77.1702 130.43 76.9702 128.4L59.9102 133.4C60.1802 135.97 60.4202 138.28 60.6002 140.06L72.0002 137L71.8702 136.14L77.5602 135.29C77.5202 135 77.5102 134.78 77.4902 134.53Z" fill="black"/>
<path d="M86.5996 89.1C86.5996 89.1 93.9296 103.45 94.4296 126.99C94.9296 150.53 93.8896 163.06 98.2596 163.79C102.63 164.52 103.6 161.53 103.6 161.53C103.6 161.53 102.3 148.74 102.3 145.61C102.3 142.48 103.68 123.61 102.3 110.11C100.92 96.61 102.3 97.45 100.03 95.94C95.8468 93.124 91.337 90.8271 86.5996 89.1Z" fill="#263238"/>
<path opacity="0.4" d="M59.6399 130.78L64.1499 105C64.1499 105 60.4299 108.78 57.6699 111.67C58.1999 116.9 58.9999 124.35 59.6399 130.78Z" fill="black"/>
<path d="M82.5398 120.33C80.9498 120.67 72.4798 126.08 72.4798 126.08C72.4798 126.08 67.8798 127.47 65.7598 127.86L67.9998 133C69.8398 132.18 73.8298 131 73.8298 131C73.8298 131 77.2198 130.89 78.3498 130.66C78.3498 130.66 81.6198 131.56 83.5398 130.32C85.4598 129.08 86.5398 126.03 86.5398 126.03C86.5398 126.03 84.1198 120 82.5398 120.33Z" fill="#FFC3BD"/>
<path d="M67.7994 126.79C63.2794 127.63 57.6794 127.73 57.6794 126.99C57.6794 125.86 61.9694 111.69 64.2994 106.49C65.7894 103.16 70.4294 94.86 65.2994 91.95C62.5794 90.4 54.0694 91.48 50.0694 109.11C46.0694 126.74 47.9094 133.11 51.7794 135.86C55.8494 138.75 65.0394 135.33 70.0294 133.11L67.7994 126.79Z" fill="#263238"/>
<path d="M78.3401 64.73C78.4601 65.33 78.8701 65.73 79.2601 65.67C79.6501 65.61 79.8701 65.05 79.7501 64.45C79.6301 63.85 79.2201 63.45 78.8401 63.52C78.4601 63.59 78.2301 64.13 78.3401 64.73Z" fill="#263238"/>
<path d="M85.07 63.41C85.19 64 85.6 64.41 85.98 64.35C86.36 64.29 86.59 63.73 86.48 63.13C86.37 62.53 85.95 62.13 85.57 62.19C85.19 62.25 85 62.81 85.07 63.41Z" fill="#263238"/>
<path d="M85.4004 62.26L86.7504 61.57C86.7504 61.57 86.2304 62.83 85.4004 62.26Z" fill="#263238"/>
<path d="M78.6699 63.58L80.0199 62.89C80.0199 62.89 79.4999 64.15 78.6699 63.58Z" fill="#263238"/>
<path d="M82.4398 73.47C82.8621 73.4681 83.2835 73.4314 83.6998 73.36C83.7573 73.3479 83.8081 73.3142 83.8416 73.2659C83.875 73.2175 83.8887 73.1582 83.8798 73.1C83.8678 73.0444 83.8355 72.9952 83.7894 72.962C83.7432 72.9287 83.6863 72.9138 83.6298 72.92C82.7116 73.0997 81.764 73.0622 80.8628 72.8104C79.9617 72.5587 79.1319 72.0996 78.4398 71.47C78.3969 71.4285 78.3395 71.4052 78.2798 71.4052C78.2201 71.4052 78.1627 71.4285 78.1198 71.47C78.098 71.4906 78.0806 71.5154 78.0688 71.5429C78.0569 71.5704 78.0508 71.6001 78.0508 71.63C78.0508 71.66 78.0569 71.6896 78.0688 71.7171C78.0806 71.7446 78.098 71.7694 78.1198 71.79C79.2912 72.883 80.8377 73.4844 82.4398 73.47Z" fill="#263238"/>
<path d="M69.4197 72C69.4197 72 71.1297 71.17 71.0897 67.37C72.0821 65.7289 72.6282 63.8569 72.6738 61.9396C72.7194 60.0223 72.2629 58.1264 71.3497 56.44C71.3497 56.44 79.5997 55.8 81.3497 52.65C83.0997 49.5 87.4697 49.37 87.4697 49.37C87.4697 49.37 86.4697 45.62 79.0497 47.21C80.7601 46.0706 82.7555 45.4332 84.8097 45.37C84.8097 45.37 80.3197 41.21 73.6297 44.91C73.9315 44.2588 74.3772 43.6845 74.9333 43.2307C75.4893 42.7768 76.1412 42.4552 76.8397 42.29C76.8397 42.29 67.9997 40.2 60.9997 48.68C55.4997 55.34 59.9997 57.95 59.9997 57.95C59.9997 57.95 55.5197 57.26 56.4597 63.31L58.2697 60.46C58.2697 60.46 56.8297 64.3 61.0797 68.55C65.3297 72.8 69.4197 72 69.4197 72Z" fill="#263238"/>
<path d="M64.8201 73.07C65.4629 73.7285 66.2291 74.2538 67.0751 74.6158C67.921 74.9779 68.83 75.1696 69.7501 75.18C72.2201 75.18 72.7501 72.82 71.5701 70.84C70.4601 69.05 67.8401 66.9 65.6301 67.84C63.4201 68.78 63.2301 71.42 64.8201 73.07Z" fill="#FFC3BD"/>
<path d="M57.9999 313.23L47.3999 313.44C47.2062 313.443 47.0193 313.512 46.8702 313.636C46.7211 313.759 46.6186 313.93 46.5799 314.12L44.8399 322.79C44.7628 323.157 44.8341 323.54 45.0383 323.855C45.2426 324.17 45.5631 324.391 45.9299 324.47H46.2299C50.0499 324.33 53.4499 324.05 58.2299 323.96C63.8399 323.86 62.4299 324.56 69.0299 324.52C73.0299 324.52 73.6499 319.96 71.9599 319.77C64.2199 318.95 63.3699 316.64 60.3399 313.93C59.674 313.414 58.8398 313.164 57.9999 313.23Z" fill="#263238"/>
<path d="M105.62 313.23L95.0199 313.44C94.8261 313.443 94.6392 313.512 94.4901 313.636C94.341 313.759 94.2386 313.93 94.1998 314.12L92.4498 322.79C92.373 323.159 92.4456 323.543 92.6519 323.858C92.8582 324.173 93.1812 324.393 93.5498 324.47H93.8499C97.6699 324.33 101.07 324.05 105.85 323.96C111.47 323.86 110.06 324.56 116.66 324.52C120.66 324.52 121.28 319.96 119.59 319.77C111.85 318.95 111 316.64 107.97 313.93C107.3 313.413 106.463 313.164 105.62 313.23Z" fill="#263238"/>
</svg>
