<svg width="405" height="380" viewBox="0 0 405 380" fill="none" xmlns="http://www.w3.org/2000/svg">
<path d="M401.9 334.49H368.78V334.74H401.9V334.49Z" fill="#EBEBEB"/>
<path d="M283.22 337.21H274.53V337.46H283.22V337.21Z" fill="#EBEBEB"/>
<path d="M367.78 325.21H348.59V325.46H367.78V325.21Z" fill="#EBEBEB"/>
<path d="M47.65 326.89H4.45996V327.14H47.65V326.89Z" fill="#EBEBEB"/>
<path d="M62.8896 326.89H56.5596V327.14H62.8896V326.89Z" fill="#EBEBEB"/>
<path d="M177.15 331.11H83.4697V331.36H177.15V331.11Z" fill="#EBEBEB"/>
<path d="M361.3 71.4498C391.46 68.1198 413.78 57.0498 400.88 32.7898C387.76 8.11979 353.25 32.7898 353.25 32.7898C353.25 32.7898 361.15 0.789795 335 0.789795C306.29 0.789795 312.14 36.1098 312.14 36.1098C312.14 36.1098 294.07 6.78979 276.01 26.1098C261.83 41.2798 280.96 54.7798 280.96 54.7798C280.96 54.7798 246.22 48.7798 245.21 63.4398C244.2 78.0998 332.39 74.6498 361.3 71.4498Z" fill="#F5F5F5"/>
<path d="M77.2401 113.32C94.6701 111.39 107.57 105 100.11 90.97C92.5301 76.71 72.5801 90.97 72.5801 90.97C72.5801 90.97 77.1501 72.48 62.0301 72.47C45.4401 72.47 48.8201 92.89 48.8201 92.89C48.8201 92.89 38.3801 75.94 27.9401 87.12C19.7401 95.89 30.8001 103.69 30.8001 103.69C30.8001 103.69 10.7201 100.22 10.1301 108.69C9.54008 117.16 60.5301 115.17 77.2401 113.32Z" fill="#F0F0F0"/>
<path d="M172.27 53.9999C156.19 60.9999 128.64 63.2699 105.27 62.6499C82.1503 62.0399 63.0703 58.6499 63.0703 54.0399C63.0703 43.0399 91.1903 43.5399 91.1903 43.5399C91.1903 43.5399 75.7703 31.6299 90.1903 21.0399C108.35 7.66988 121.43 28.5399 121.43 28.5399C121.43 28.5399 114 3.50987 134.42 0.999875C158.86 -2.00013 152.83 27.4999 152.83 27.4999C152.83 27.4999 177.94 9.49987 185.33 35.4999C187.65 43.6799 182.11 49.6999 172.27 53.9999Z" fill="#F0F0F0"/>
<path d="M24.6296 51.4198C24.1936 51.3141 23.7659 51.177 23.3496 51.0098C22.5796 50.7098 21.5896 50.1998 20.5596 49.6998C19.7025 49.2741 18.7794 48.9968 17.8296 48.8798C17.0996 48.7998 16.6096 48.8798 16.5396 48.6898C16.4696 48.4998 16.8996 48.1498 17.7896 47.9798C18.9284 47.8298 20.086 48.0285 21.1096 48.5498C22.0686 49.0495 22.9427 49.6975 23.6996 50.4698C24.2796 50.9998 24.6296 51.4198 24.6296 51.4198Z" fill="#E6E6E6"/>
<path d="M29.1195 47.8099L28.1895 48.1699C27.6395 48.3899 26.9495 48.71 26.1895 49.05C24.6495 49.73 23.3295 50.4399 23.1095 50.1299C23.0095 49.9899 23.2195 49.6399 23.6595 49.2099C24.2417 48.6511 24.919 48.2007 25.6595 47.8799C26.4309 47.5489 27.2771 47.4315 28.1095 47.5399C28.3615 47.5701 28.6096 47.6271 28.8495 47.7099L29.1195 47.8099Z" fill="#E6E6E6"/>
<path d="M16.2997 54.1198L15.9997 53.9998L15.3197 53.6098C14.5937 53.2179 13.838 52.8835 13.0597 52.6098C11.2597 51.9598 9.64972 52.0998 9.59972 51.8298C9.54972 51.5598 9.96972 51.4998 10.6597 51.3998C11.5749 51.2911 12.5028 51.3972 13.3697 51.7098C14.2385 52.0084 15.0142 52.5289 15.6197 53.2198C15.8034 53.4239 15.9675 53.6448 16.1097 53.8798L16.2997 54.1198Z" fill="#E6E6E6"/>
<path d="M18.06 50.3998L17.42 50.7698L15.98 51.5698C14.89 52.1698 14.06 52.8698 13.85 52.6798C13.64 52.4898 13.85 52.2998 14.13 51.9298C14.5012 51.4367 14.9755 51.0306 15.52 50.7398C16.0662 50.4441 16.6789 50.2926 17.3 50.2998C17.5565 50.3005 17.8119 50.3341 18.06 50.3998Z" fill="#E6E6E6"/>
<path d="M14.8103 48.2799C14.8103 48.2799 14.2003 48.0599 13.2603 47.6699C12.3203 47.2799 11.0803 46.6699 9.70034 46.2699C8.53946 45.8764 7.31446 45.7068 6.09034 45.7699C5.15034 45.7699 4.55034 45.9999 4.47034 45.8299C4.39034 45.6599 4.88034 45.1999 5.93034 44.8299C7.30756 44.4763 8.75871 44.5389 10.1003 45.0099C11.3894 45.4681 12.5779 46.1709 13.6003 47.0799C14.0274 47.4553 14.4315 47.856 14.8103 48.2799Z" fill="#E6E6E6"/>
<path d="M18.9399 42.9999L18.5899 43.0899L17.6799 43.3599C16.7374 43.6724 15.8127 44.0363 14.9099 44.4499C12.8199 45.3899 11.4799 46.7799 11.1799 46.5599C11.0499 46.4499 11.1799 45.9399 11.7599 45.2799C12.4694 44.4222 13.3655 43.7381 14.3799 43.2799C15.3896 42.8152 16.5021 42.6189 17.6099 42.7099C17.9471 42.7359 18.2815 42.7894 18.6099 42.8699L18.9399 42.9999Z" fill="#E6E6E6"/>
<path d="M240.43 21.2898C239.671 21.1126 238.928 20.8717 238.21 20.5698C236.88 20.0498 235.21 19.1698 233.37 18.2998C231.879 17.5674 230.277 17.0875 228.63 16.8798C227.37 16.7398 226.51 16.8798 226.39 16.5498C226.27 16.2198 227.01 15.6098 228.55 15.3198C230.53 15.0521 232.545 15.4013 234.32 16.3198C235.984 17.1837 237.5 18.3078 238.81 19.6498C239.82 20.6298 240.43 21.2898 240.43 21.2898Z" fill="#E6E6E6"/>
<path d="M248.23 14.9998L246.62 15.6198C245.67 16.0098 244.46 16.5598 243.11 17.1498C240.43 18.3298 238.11 19.5698 237.77 19.0298C237.59 18.7798 237.95 18.1798 238.77 17.4298C239.799 16.4598 240.991 15.678 242.29 15.1198C243.63 14.5414 245.103 14.3375 246.55 14.5298C246.986 14.5867 247.414 14.6872 247.83 14.8298L248.23 14.9998Z" fill="#E6E6E6"/>
<path d="M226 25.9998L225.56 25.7298C225.28 25.5598 224.87 25.3198 224.38 25.0498C223.116 24.383 221.802 23.8146 220.45 23.3498C217.32 22.2298 214.53 22.4698 214.45 21.9998C214.45 21.7898 215.09 21.4298 216.3 21.2598C217.886 21.0678 219.495 21.2458 221 21.7798C222.505 22.3122 223.85 23.217 224.91 24.4098C225.223 24.7642 225.504 25.1457 225.75 25.5498L226 25.9998Z" fill="#E6E6E6"/>
<path d="M229 19.5099C229 19.5099 228.56 19.7799 227.88 20.1599L225.39 21.5598C223.5 22.5598 222.05 23.7999 221.69 23.4699C221.53 23.3199 221.69 22.8198 222.17 22.1698C222.82 21.3159 223.645 20.6102 224.59 20.0999C225.542 19.5983 226.604 19.3406 227.68 19.3499C228.124 19.3534 228.567 19.407 229 19.5099Z" fill="#E6E6E6"/>
<path d="M384.2 354.04V350H0.679688V323.62H384.2V319.16L404.88 336.22L384.2 354.04Z" fill="#407BFF"/>
<g opacity="0.2">
<path d="M384.2 354.04V350H0.679688V323.62H384.2V319.16L404.88 336.22L384.2 354.04Z" fill="black"/>
</g>
<path d="M65.7998 159.43C67.0098 163.65 68.0398 168.43 70.6498 170.7L84.5498 178.07L83.4098 181.97C83.4098 181.97 65.9198 177.2 63.4098 174.97C61.1498 172.97 58.9798 162.49 58.7598 161.67L65.7998 159.43Z" fill="#FFB87D"/>
<path d="M81.2001 177.35L84.2001 176.81C84.645 176.723 85.1038 176.739 85.542 176.855C85.9802 176.971 86.3864 177.184 86.7301 177.48L89.3601 179.76C89.515 179.922 89.6111 180.131 89.6328 180.354C89.6546 180.577 89.6008 180.801 89.4801 180.99L88.1101 183.41C88.0122 183.614 87.8435 183.775 87.6355 183.863C87.4276 183.951 87.1946 183.961 86.9801 183.89L83.6601 182.5L80.1101 180.71C80.1101 180.71 80.0001 177.56 81.2001 177.35Z" fill="#FFB87D"/>
<g opacity="0.1">
<path d="M65.7998 159.43C67.0098 163.65 68.0398 168.43 70.6498 170.7L84.5498 178.07L83.4098 181.97C83.4098 181.97 65.9198 177.2 63.4098 174.97C61.1498 172.97 58.9798 162.49 58.7598 161.67L65.7998 159.43Z" fill="black"/>
<path d="M81.2001 177.35L84.2001 176.81C84.645 176.723 85.1038 176.739 85.542 176.855C85.9802 176.971 86.3864 177.184 86.7301 177.48L89.3601 179.76C89.515 179.922 89.6111 180.131 89.6328 180.354C89.6546 180.577 89.6008 180.801 89.4801 180.99L88.1101 183.41C88.0122 183.614 87.8435 183.775 87.6355 183.863C87.4276 183.951 87.1946 183.961 86.9801 183.89L83.6601 182.5L80.1101 180.71C80.1101 180.71 80.0001 177.56 81.2001 177.35Z" fill="black"/>
</g>
<path d="M60.6593 168.24C58.8793 164.86 55.4793 152.14 59.4293 147.55C59.4293 147.55 62.4293 147.55 65.5993 153.18C66.9093 155.5 69.0793 162.35 69.9493 163.91L60.6593 168.24Z" fill="#407BFF"/>
<path opacity="0.2" d="M63.1094 167.91C63.1094 167.91 63.3094 160.29 63.4294 158.39C63.4294 158.39 67.6194 162.32 63.1094 167.91Z" fill="black"/>
<path d="M111.52 331.05H103C102.457 331.051 101.92 330.945 101.419 330.736C100.918 330.527 100.464 330.22 100.083 329.834C99.7026 329.448 99.4027 328.989 99.2012 328.485C98.9997 327.981 98.9007 327.443 98.91 326.9L100.91 199.07C100.928 198.003 100.551 196.966 99.8518 196.159C99.1522 195.353 98.1794 194.833 97.12 194.7L86 194.5L87.27 183.81L103.97 183.9C105.232 183.864 106.488 184.08 107.666 184.534C108.844 184.988 109.92 185.672 110.831 186.546C111.742 187.419 112.47 188.466 112.973 189.624C113.476 190.781 113.743 192.028 113.76 193.29L115.67 326.9C115.677 327.447 115.574 327.99 115.368 328.496C115.162 329.003 114.856 329.463 114.469 329.85C114.083 330.236 113.623 330.542 113.116 330.748C112.61 330.954 112.067 331.057 111.52 331.05Z" fill="#263238"/>
<g opacity="0.5">
<path d="M111.52 331.05H103C102.457 331.051 101.92 330.945 101.419 330.736C100.918 330.527 100.464 330.22 100.083 329.834C99.7026 329.448 99.4027 328.989 99.2012 328.485C98.9997 327.981 98.9007 327.443 98.91 326.9L100.91 199.07C100.928 198.003 100.551 196.966 99.8518 196.159C99.1522 195.353 98.1794 194.833 97.12 194.7L86 194.5L87.27 183.81L103.97 183.9C105.232 183.864 106.488 184.08 107.666 184.534C108.844 184.988 109.92 185.672 110.831 186.546C111.742 187.419 112.47 188.466 112.973 189.624C113.476 190.781 113.743 192.028 113.76 193.29L115.67 326.9C115.677 327.447 115.574 327.99 115.368 328.496C115.162 329.003 114.856 329.463 114.469 329.85C114.083 330.236 113.623 330.542 113.116 330.748C112.61 330.954 112.067 331.057 111.52 331.05Z" fill="white"/>
</g>
<path d="M81.1797 212.82C80.7605 212.78 80.3534 212.658 79.9816 212.46C79.6098 212.262 79.2807 211.993 79.0132 211.668C78.7456 211.343 78.5449 210.968 78.4224 210.565C78.3 210.162 78.2583 209.739 78.2997 209.32L82.3997 167.82C82.441 167.401 82.5645 166.993 82.7633 166.621C82.9621 166.249 83.2321 165.92 83.5581 165.653C83.884 165.386 84.2595 165.185 84.663 165.063C85.0664 164.94 85.4901 164.899 85.9097 164.94C86.3293 164.981 86.7366 165.105 87.1085 165.304C87.4803 165.502 87.8093 165.773 88.0768 166.099C88.3442 166.424 88.5448 166.8 88.6672 167.203C88.7895 167.607 88.8311 168.031 88.7897 168.45L84.6897 209.95C84.6038 210.796 84.186 211.573 83.528 212.111C82.87 212.649 82.0255 212.904 81.1797 212.82Z" fill="#263238"/>
<path opacity="0.5" d="M81.1797 212.82C80.7605 212.78 80.3534 212.658 79.9816 212.46C79.6098 212.262 79.2807 211.993 79.0132 211.668C78.7456 211.343 78.5449 210.968 78.4224 210.565C78.3 210.162 78.2583 209.739 78.2997 209.32L82.3997 167.82C82.441 167.401 82.5645 166.993 82.7633 166.621C82.9621 166.249 83.2321 165.92 83.5581 165.653C83.884 165.386 84.2595 165.185 84.663 165.063C85.0664 164.94 85.4901 164.899 85.9097 164.94C86.3293 164.981 86.7366 165.105 87.1085 165.304C87.4803 165.502 87.8093 165.773 88.0768 166.099C88.3442 166.424 88.5448 166.8 88.6672 167.203C88.7895 167.607 88.8311 168.031 88.7897 168.45L84.6897 209.95C84.6038 210.796 84.186 211.573 83.528 212.111C82.87 212.649 82.0255 212.904 81.1797 212.82Z" fill="white"/>
<path d="M82.1093 212.91L81.9293 219.86C81.9293 219.86 80.1493 222.86 78.9293 220.21C77.7093 217.56 80.1793 212.37 80.1793 212.37L82.1093 212.91Z" fill="#263238"/>
<path opacity="0.6" d="M82.1093 212.91L81.9293 219.86C81.9293 219.86 80.1493 222.86 78.9293 220.21C77.7093 217.56 80.1793 212.37 80.1793 212.37L82.1093 212.91Z" fill="white"/>
<path d="M85.1494 165.36L85.3294 158.36C85.3294 158.36 87.1094 155.36 88.3294 158C89.5494 160.64 87.0794 165.84 87.0794 165.84L85.1494 165.36Z" fill="#263238"/>
<path opacity="0.6" d="M85.1494 165.36L85.3294 158.36C85.3294 158.36 87.1094 155.36 88.3294 158C89.5494 160.64 87.0794 165.84 87.0794 165.84L85.1494 165.36Z" fill="white"/>
<path opacity="0.3" d="M87.7692 170.64C87.6892 171.082 87.4828 171.492 87.1751 171.82C86.8673 172.148 86.4713 172.379 86.0348 172.487C85.5984 172.595 85.14 172.574 84.7151 172.427C84.2902 172.28 83.9169 172.014 83.6402 171.659C83.3635 171.305 83.1951 170.878 83.1555 170.43C83.1159 169.982 83.2068 169.533 83.417 169.135C83.6273 168.738 83.948 168.41 84.3405 168.191C84.7331 167.972 85.1806 167.871 85.6292 167.9C86.2739 167.985 86.8595 168.32 87.2597 168.832C87.66 169.345 87.843 169.994 87.7692 170.64Z" fill="white"/>
<path opacity="0.3" d="M84.2099 206.17C84.1282 206.611 83.9209 207.019 83.6128 207.346C83.3047 207.672 82.909 207.902 82.4732 208.009C82.0374 208.116 81.5801 208.094 81.1561 207.947C80.7322 207.801 80.3596 207.534 80.0833 207.181C79.8069 206.827 79.6385 206.402 79.5983 205.955C79.558 205.508 79.6476 205.059 79.8564 204.662C80.0651 204.265 80.3841 203.936 80.775 203.716C81.1659 203.496 81.6121 203.393 82.0599 203.42C82.7095 203.5 83.3008 203.835 83.7039 204.35C84.107 204.866 84.289 205.52 84.2099 206.17Z" fill="white"/>
<path opacity="0.3" d="M85.1395 194.9C85.0596 195.342 84.8536 195.751 84.5464 196.079C84.2392 196.407 83.8438 196.639 83.4078 196.747C82.9719 196.855 82.5139 196.835 82.0891 196.689C81.6644 196.543 81.2908 196.277 81.0136 195.924C80.7363 195.57 80.567 195.144 80.5262 194.697C80.4854 194.25 80.5748 193.8 80.7836 193.403C80.9924 193.005 81.3117 192.676 81.703 192.455C82.0944 192.235 82.5411 192.132 82.9895 192.16C83.636 192.242 84.224 192.576 84.6264 193.089C85.0287 193.602 85.213 194.252 85.1395 194.9Z" fill="white"/>
<path opacity="0.3" d="M86.3796 183.2C86.2995 183.642 86.0932 184.052 85.7854 184.38C85.4777 184.708 85.0817 184.939 84.6452 185.047C84.2087 185.155 83.7504 185.134 83.3255 184.987C82.9006 184.84 82.5273 184.574 82.2505 184.219C81.9738 183.865 81.8055 183.438 81.7659 182.99C81.7263 182.542 81.8171 182.093 82.0274 181.695C82.2376 181.298 82.5584 180.97 82.9509 180.751C83.3434 180.532 83.791 180.431 84.2396 180.46C84.8865 180.54 85.4753 180.874 85.8765 181.387C86.2778 181.901 86.4587 182.553 86.3796 183.2Z" fill="white"/>
<path d="M33.4795 219.4L50.7195 224.4H50.7895L50.9795 224.32L54.1195 223.07L66.8395 218L66.0095 210.69C66.0144 210.664 66.0144 210.637 66.0095 210.61L64.8095 200L36.0895 199.35L34.5595 208.06L34.0195 211.06C33.8995 211.71 33.8095 212.38 33.7395 213.06L33.5295 215.36L33.4795 219.4Z" fill="#263238"/>
<path d="M82.43 330.44C81.43 324.95 80.43 316.21 80.43 316.21L74.5 323.07C74.5 323.07 76 330.78 76.7 332.93C78.46 332.39 80.67 330.82 82.43 330.44Z" fill="#FFB573"/>
<path d="M47.6895 214.85C49.2095 221.5 59.6895 270.3 59.6895 270.3C61.7795 296.4 72.8895 323.5 72.8895 323.5L82.2495 321.5C82.2495 321.5 67.7295 219.1 65.9995 210.6L53.5095 213.67L47.6895 214.85Z" fill="#263238"/>
<path opacity="0.2" d="M50.0593 226.09L55.3293 250.09C55.3293 250.09 54.1193 219.72 51.7293 217.31C49.3393 214.9 49.2693 222.47 50.0593 226.09Z" fill="black"/>
<path d="M56.5695 147.12C52.1695 146.73 51.2495 146.04 46.8295 146.12C44.5695 146.19 37.5195 145.93 35.4595 147.12C29.3695 150.63 36.0095 194.84 36.0795 199.31L64.8095 200.03C64.4995 189.84 62.4295 182.03 63.5795 169.88C65.8395 146.05 59.5895 147.5 56.5695 147.12Z" fill="#407BFF"/>
<path d="M42.7998 146.48L43.3298 147C44.0298 147.68 44.7298 148.36 45.4598 149C47.3722 150.176 49.4627 151.034 51.6498 151.54C52.9698 150.87 55.4398 150.68 56.0098 150.1C56.2483 149.514 56.3309 148.877 56.2498 148.25C56.2086 147.963 56.1172 147.685 55.9798 147.43C54.8993 147.053 53.9928 146.296 53.4298 145.3C53.3316 145.125 53.2512 144.941 53.1898 144.75C52.7575 143.077 52.8447 141.312 53.4398 139.69L45.5198 132.51C46.1998 136.54 46.6298 144.18 42.7998 146.48Z" fill="#FFB573"/>
<path opacity="0.2" d="M48.5995 137.75C48.7395 139.65 51.3895 143.46 52.9795 142.04C53.069 141.254 53.2297 140.477 53.4595 139.72L48.7695 135.47C48.5785 136.214 48.521 136.986 48.5995 137.75Z" fill="black"/>
<path d="M56.27 148.26C56.3511 148.887 56.2685 149.524 56.03 150.11C56.3041 149.834 56.5426 149.525 56.74 149.19C56.8798 148.988 56.9776 148.76 57.0274 148.519C57.0772 148.279 57.0781 148.031 57.03 147.79L56.59 147.65C56.3892 147.592 56.1922 147.522 56 147.44C56.1374 147.695 56.2288 147.973 56.27 148.26Z" fill="#FFB573"/>
<path d="M42 146.88C42 146.88 42.62 147.33 43.71 147.99C44.2 148.29 44.8 148.64 45.48 148.99C44.75 148.35 44.05 147.67 43.35 146.99L42.82 146.47C42.6831 146.558 42.5393 146.635 42.39 146.7C42.2641 146.768 42.1338 146.829 42 146.88Z" fill="#FFB573"/>
<path d="M57.4896 129.08L57.9396 131.67C57.9396 131.67 61.4896 132.31 62.1996 132.05C61.7805 131.297 61.5895 130.439 61.6496 129.58C61.9196 128.58 63.4696 128.58 63.9196 127.58C64.3696 126.58 64.4896 123.17 63.5696 122.95C62.6496 122.73 57.1596 121.77 57.1596 121.77C52.8896 123 57.4896 129.08 57.4896 129.08Z" fill="#263238"/>
<path d="M49.0497 121.56C49.718 120.768 50.5361 120.115 51.457 119.639C52.378 119.163 53.3838 118.874 54.4168 118.788C55.4497 118.701 56.4896 118.82 57.4768 119.136C58.464 119.452 59.3791 119.96 60.1697 120.63C64.8497 124.54 62.9797 132.94 60.1697 137.5C57.0997 142.57 49.5097 142.91 46.6897 137.32C44.8197 133.61 45.9397 130.4 47.3697 124.79C47.6696 123.597 48.245 122.491 49.0497 121.56Z" fill="#FFB573"/>
<path d="M49.0898 150.33L51.9298 154.67L52.4998 155.4L51.4398 183.32L55.2798 186.32L58.6898 182.38L54.1298 155.29L54.6398 154.17L56.0198 150.93L54.6698 149.19L51.3998 148.66L49.0898 150.33Z" fill="#263238"/>
<path opacity="0.9" d="M44.2898 144.2L52.6598 146.65L53.3698 144.39L57.8098 147.32L56.4698 153.5L52.6198 148.31L49.0898 154.49L41.7998 146.84L44.2898 144.2Z" fill="#407BFF"/>
<path opacity="0.9" d="M44.2898 144.2L52.6598 146.65L53.3698 144.39L57.8098 147.32L56.4698 153.5L52.6198 148.31L49.0898 154.49L41.7998 146.84L44.2898 144.2Z" fill="white"/>
<path d="M56.2399 136.74C56.5026 136.88 56.7813 136.987 57.0699 137.06C57.0896 137.065 57.11 137.065 57.13 137.062C57.1499 137.059 57.169 137.051 57.1862 137.041C57.2034 137.03 57.2183 137.016 57.2301 137C57.2419 136.983 57.2503 136.965 57.2549 136.945C57.2595 136.925 57.2602 136.905 57.2569 136.885C57.2536 136.865 57.2464 136.846 57.2357 136.829C57.225 136.811 57.2111 136.796 57.1946 136.785C57.1782 136.773 57.1596 136.764 57.1399 136.76C56.0672 136.439 55.1293 135.775 54.4699 134.87C54.4475 134.837 54.4135 134.813 54.3746 134.804C54.3357 134.795 54.2948 134.801 54.2599 134.82C54.2242 134.843 54.1989 134.878 54.1895 134.92C54.1802 134.961 54.1875 135.004 54.2099 135.04C54.7362 135.765 55.4335 136.349 56.2399 136.74Z" fill="#263238"/>
<path d="M45.7492 135.11L45.8492 131.63L49.3392 133.86C49.3392 133.86 48.3392 129.18 49.0592 127.26C49.3292 126.26 50.4792 126.17 50.9292 125.19C51.3792 124.21 51.4992 120.76 50.5892 120.54C49.6792 120.32 45.0592 119.46 45.0592 119.46C40.7892 120.69 45.7492 135.11 45.7492 135.11Z" fill="#263238"/>
<path d="M24.9993 331.69C26.8893 324.92 29.9993 316.27 29.9993 316.27L21.2693 321.27C21.2693 321.27 19.3293 328.93 19.0693 331.16C20.8593 331.27 23.2693 331.42 24.9993 331.69Z" fill="#FFB573"/>
<path d="M56.0997 206.4C56.0097 207.72 55.7097 210.4 55.2797 213.97C55.2197 214.44 55.1597 214.97 55.0897 215.44C54.7597 218.07 54.3697 221.09 53.9397 224.32C53.9397 224.52 53.8497 225.06 53.8397 225.14C51.5797 242.14 48.3797 264.45 47.8397 267.33C44.8397 283.75 30.5997 322.05 29.7497 324.4C29.7497 324.47 18.9697 322.52 18.9697 322.52C22.9097 303.08 25.2797 282.26 32.5297 267.13C32.8897 262.91 33.2697 235.78 33.5297 219.4C33.5297 217.97 33.5297 216.63 33.5297 215.4L33.7397 213.1C33.8097 212.44 33.8997 211.77 34.0197 211.1L34.5597 208.1L56.0997 206.4Z" fill="#263238"/>
<path d="M55.8494 128.33C56.1494 128.33 56.3694 128.75 56.3394 129.22C56.3094 129.69 56.0294 130.05 55.7194 130.03C55.4094 130.01 55.1994 129.61 55.2294 129.14C55.2594 128.67 55.5494 128.3 55.8494 128.33Z" fill="#263238"/>
<path d="M61.3498 128.92C61.6598 128.92 61.8998 129.31 61.8798 129.78C61.8598 130.25 61.6099 130.63 61.2999 130.62C60.9899 130.61 60.7598 130.23 60.7698 129.75C60.7798 129.27 60.9998 128.91 61.3498 128.92Z" fill="#263238"/>
<path d="M58.2598 134.7C58.6352 134.826 59.0336 134.869 59.4273 134.826C59.821 134.783 60.2006 134.655 60.5398 134.45C59.6808 133.157 59.0076 131.75 58.5398 130.27L58.2598 134.7Z" fill="#ED893E"/>
<path d="M54.4493 127.32C54.4015 127.268 54.375 127.2 54.375 127.13C54.375 127.06 54.4015 126.992 54.4493 126.94C54.7784 126.649 55.173 126.441 55.5996 126.335C56.0261 126.229 56.472 126.227 56.8993 126.33C56.9668 126.353 57.0225 126.401 57.0543 126.465C57.0861 126.529 57.0915 126.602 57.0693 126.67C57.0601 126.705 57.0439 126.738 57.0217 126.767C56.9994 126.796 56.9716 126.82 56.9398 126.837C56.9081 126.855 56.873 126.866 56.8369 126.87C56.8007 126.874 56.7641 126.871 56.7293 126.86C56.3902 126.786 56.0384 126.794 55.7028 126.882C55.3673 126.971 55.0576 127.138 54.7993 127.37C54.7615 127.387 54.7206 127.395 54.6793 127.395C54.638 127.395 54.5972 127.387 54.5593 127.37C54.519 127.363 54.4811 127.346 54.4493 127.32Z" fill="#263238"/>
<path d="M62.46 128.11C62.273 127.821 62.0209 127.58 61.7239 127.407C61.4269 127.233 61.0933 127.131 60.75 127.11C60.691 127.1 60.6369 127.071 60.5955 127.028C60.5541 126.985 60.5276 126.929 60.52 126.87C60.5143 126.835 60.5158 126.798 60.5244 126.763C60.5329 126.728 60.5483 126.696 60.5698 126.667C60.5912 126.638 60.6182 126.614 60.6491 126.595C60.6801 126.577 60.7143 126.565 60.75 126.56C61.1877 126.584 61.6132 126.713 61.9908 126.936C62.3684 127.159 62.687 127.469 62.92 127.84C62.9376 127.87 62.949 127.903 62.9535 127.938C62.9581 127.973 62.9556 128.008 62.9462 128.041C62.9369 128.075 62.9209 128.106 62.8992 128.133C62.8775 128.161 62.8506 128.183 62.82 128.2C62.8026 128.207 62.7839 128.211 62.765 128.211C62.7461 128.211 62.7274 128.207 62.71 128.2C62.6641 128.208 62.6169 128.204 62.5731 128.188C62.5293 128.172 62.4903 128.145 62.46 128.11Z" fill="#263238"/>
<path d="M27.1796 329.45C28.8896 331.23 31.1796 332.36 36.7196 333.75C37.9496 334.07 37.4196 337.36 34.3696 337.33C31.3196 337.3 26.9696 336.42 24.7796 336.23C21.2196 335.91 19.6996 335.92 16.8896 335.59C16.8171 335.605 16.7422 335.605 16.6696 335.59C16.1096 335.42 14.5996 335.51 18.4496 327.95C18.7596 327.33 19.2296 326.82 19.8596 326.95L25.5896 327.79C25.7707 327.817 25.9429 327.887 26.0922 327.993C26.2416 328.099 26.364 328.238 26.4496 328.4C26.6649 328.769 26.909 329.12 27.1796 329.45Z" fill="#263238"/>
<path d="M84.5301 328.72C86.4001 330.32 89.1101 331.62 94.8401 332.24C96.1201 332.39 95.8401 335.88 92.7001 336.3C89.5601 336.72 83.7701 336.62 81.5301 336.74C77.8701 336.94 72.1101 336.97 73.7601 333.13C73.7601 333.13 74.1301 332.74 74.6901 328.13C74.7202 327.746 74.8871 327.385 75.1605 327.114C75.4339 326.842 75.7957 326.677 76.1801 326.65H82.37C82.5664 326.649 82.7601 326.696 82.9343 326.786C83.1085 326.877 83.2581 327.009 83.37 327.17C83.7148 327.717 84.1027 328.235 84.5301 328.72Z" fill="#263238"/>
<path opacity="0.2" d="M39.1394 158.45C39.4694 158.9 46.7694 153.7 46.2594 161.96C46.0594 165.07 49.5694 161.96 48.8294 166.1L41.1894 170.45C39.7694 171.74 37.3594 164.08 36.0794 158.8C35.5594 156.65 37.7794 156.59 39.1394 158.45Z" fill="black"/>
<path d="M50.7098 160.18C53.4698 164.45 57.3198 170.78 59.7898 170.27L76.2098 169.92L78.5498 173.5C78.5498 173.5 56.9498 178.9 53.3998 176.93C50.2598 175.18 44.2798 164.41 43.7598 163.58L50.7098 160.18Z" fill="#FFB87D"/>
<path d="M75.4195 170.49L78.0395 168.19C78.8694 167.476 79.947 167.117 81.0395 167.19L85.1795 167.38C85.4282 167.379 85.6686 167.47 85.8535 167.637C86.0384 167.803 86.1546 168.033 86.1795 168.28L86.4595 171.05C86.4849 171.294 86.4194 171.54 86.2755 171.739C86.1317 171.938 85.9195 172.077 85.6795 172.13L81.4695 173.08L76.7595 173.85C76.7595 173.85 74.4195 171.38 75.4195 170.49Z" fill="#FFB87D"/>
<path d="M42.3794 168.31C39.8594 164.31 31.5194 152.66 35.8994 147.83C35.8994 147.83 41.1594 142.69 47.8994 151.75C49.8994 154.42 52.3394 160.39 53.5394 162.25L42.3794 168.31Z" fill="#407BFF"/>
<path d="M46.0798 126.28C47.6898 126.89 48.0798 129.5 47.8398 131.13C47.5698 132.94 46.1698 134.01 44.8398 132.72C43.8385 131.697 43.2509 130.34 43.1898 128.91C43.1398 127.13 44.4698 125.68 46.0798 126.28Z" fill="#FFB573"/>
<path d="M62.9295 124.06C63.2362 124.018 63.5316 123.916 63.7986 123.76C64.0656 123.603 64.2988 123.395 64.4849 123.148C64.6709 122.9 64.806 122.618 64.8823 122.318C64.9586 122.018 64.9747 121.706 64.9295 121.4C64.8969 120.768 64.7115 120.153 64.3894 119.608C64.0672 119.062 63.6177 118.604 63.0795 118.27C58.9895 116.27 56.7695 113.22 55.7895 113.08C55.4995 113.03 52.3195 114.35 45.5995 116.64C44.4795 117.02 44.2195 119.79 44.9995 120.69C45.4842 121.154 46.0914 121.47 46.7495 121.6C49.5909 122.373 52.552 122.607 55.4795 122.29C56.141 122.151 56.8258 122.168 57.4795 122.34C58.1095 122.57 59.1895 123.47 58.9695 124.11C59.4895 123.34 60.0395 122.93 60.9695 123.19C61.6437 123.431 62.2988 123.721 62.9295 124.06Z" fill="#263238"/>
<path d="M253.08 28.3301C253.08 28.3301 297.58 143.6 270.5 279.42C270.5 279.42 301.45 238.18 342.5 238.18C371.72 238.18 374.96 254.83 385.78 259.47C385.76 259.47 391.14 135.91 253.08 28.3301Z" fill="#407BFF"/>
<path opacity="0.7" d="M253.08 28.3301C253.08 28.3301 297.58 143.6 270.5 279.42C270.5 279.42 301.45 238.18 342.5 238.18C371.72 238.18 374.96 254.83 385.78 259.47C385.76 259.47 391.14 135.91 253.08 28.3301Z" fill="white"/>
<path opacity="0.1" d="M253.08 28.3301C253.08 28.3301 297.87 141.33 270.79 277.1C380.57 146.41 253.08 28.3301 253.08 28.3301Z" fill="black"/>
<path d="M385.559 258.82L274.629 277.24L258.899 279.85C257.949 280.01 259.359 282.31 260.299 282.16L386.959 261.16C387.959 261.01 386.509 258.7 385.559 258.86V258.82Z" fill="#263238"/>
<path d="M255.19 331.26H251C250.451 331.261 249.907 331.154 249.4 330.943C248.892 330.733 248.432 330.424 248.045 330.034C247.658 329.644 247.352 329.182 247.145 328.673C246.939 328.164 246.835 327.619 246.84 327.07L250.77 31.6701C250.78 31.0582 251.03 30.4747 251.466 30.0448C251.901 29.6148 252.488 29.3726 253.1 29.3701C253.714 29.37 254.303 29.6111 254.741 30.0413C255.178 30.4715 255.43 31.0565 255.44 31.6701L259.37 327.07C259.375 327.621 259.271 328.167 259.063 328.678C258.855 329.188 258.547 329.651 258.158 330.041C257.769 330.431 257.306 330.74 256.797 330.949C256.287 331.158 255.741 331.264 255.19 331.26Z" fill="#263238"/>
<path opacity="0.5" d="M255.19 331.26H251C250.451 331.261 249.907 331.154 249.4 330.943C248.892 330.733 248.432 330.424 248.045 330.034C247.658 329.644 247.352 329.182 247.145 328.673C246.939 328.164 246.835 327.619 246.84 327.07L250.77 31.6701C250.78 31.0582 251.03 30.4747 251.466 30.0448C251.901 29.6148 252.488 29.3726 253.1 29.3701C253.714 29.37 254.303 29.6111 254.741 30.0413C255.178 30.4715 255.43 31.0565 255.44 31.6701L259.37 327.07C259.375 327.621 259.271 328.167 259.063 328.678C258.855 329.188 258.547 329.651 258.158 330.041C257.769 330.431 257.306 330.74 256.797 330.949C256.287 331.158 255.741 331.264 255.19 331.26Z" fill="white"/>
<path d="M250.39 35.3102C251.98 36.2502 254.14 36.1002 255.87 35.7402C256.045 35.683 256.193 35.5633 256.285 35.404C256.378 35.2446 256.409 35.0567 256.372 34.8762C256.335 34.6956 256.232 34.5351 256.084 34.4251C255.936 34.3152 255.753 34.2636 255.57 34.2802C254.25 34.5602 252.27 34.6902 251.23 34.0702C250.4 33.5802 249.56 34.8102 250.39 35.3102Z" fill="#407BFF"/>
<path d="M183.71 316.48L187.56 330.76L194.49 329.05L190.81 313.75L183.71 316.48Z" fill="#7F3E3B"/>
<path d="M166.389 196.87C166.389 196.87 179.309 244.17 182.899 260.15C186.189 274.77 193.179 319.06 193.179 319.06L184.059 321.62C184.059 321.62 174.399 293.7 172.059 284.21C170.919 279.51 169.83 269.78 168.46 265.15C164.94 253.27 153.459 231.36 149.729 219.55C148.369 215.25 145.729 201.86 145.729 201.86L166.389 196.87Z" fill="#407BFF"/>
<path d="M181.42 319.07L182.9 323.13L195.09 319.98L194.25 315.96L181.42 319.07Z" fill="#407BFF"/>
<path opacity="0.5" d="M181.42 319.07L182.9 323.13L195.09 319.98L194.25 315.96L181.42 319.07Z" fill="white"/>
<path d="M195.36 329.24C195.326 329.241 195.293 329.231 195.266 329.211C195.238 329.191 195.219 329.163 195.21 329.13C195.191 329.102 195.181 329.069 195.181 329.035C195.181 329.001 195.191 328.968 195.21 328.94C195.3 328.85 197.38 326.94 198.55 327C198.659 327.008 198.766 327.038 198.864 327.088C198.962 327.138 199.049 327.207 199.12 327.29C199.214 327.386 199.278 327.506 199.305 327.638C199.332 327.769 199.319 327.906 199.27 328.03C198.795 328.588 198.127 328.945 197.4 329.03C196.728 329.167 196.045 329.237 195.36 329.24ZM195.83 328.9C197.11 328.8 198.83 328.42 199.02 327.9C199.02 327.83 199.02 327.72 198.92 327.53C198.876 327.477 198.821 327.434 198.759 327.404C198.697 327.375 198.629 327.36 198.56 327.36C198.457 327.341 198.352 327.341 198.25 327.36C197.353 327.715 196.531 328.238 195.83 328.9Z" fill="#407BFF"/>
<path d="M195.27 329.25C195.243 329.237 195.221 329.217 195.205 329.193C195.189 329.168 195.181 329.139 195.18 329.11C195.06 328.079 195.248 327.035 195.72 326.11C195.817 325.979 195.94 325.869 196.081 325.786C196.222 325.704 196.378 325.651 196.54 325.63C196.99 325.63 197.17 325.79 197.22 325.98C197.51 326.76 196.22 328.66 195.45 329.21C195.44 329.217 195.427 329.221 195.415 329.221C195.402 329.221 195.39 329.217 195.38 329.21C195.365 329.224 195.348 329.235 195.329 329.242C195.31 329.249 195.29 329.252 195.27 329.25ZM196.5 326C196.294 326.042 196.112 326.16 195.99 326.33C195.599 327.063 195.429 327.893 195.5 328.72C196.23 328.01 197.06 326.57 196.94 326.09C196.94 326.09 196.88 325.93 196.59 325.97H196.5V326Z" fill="#407BFF"/>
<path d="M194.46 328.16L187.16 329.75C187.021 329.784 186.897 329.863 186.808 329.975C186.719 330.088 186.671 330.227 186.67 330.37L186.5 337C186.486 337.14 186.502 337.28 186.546 337.414C186.589 337.547 186.661 337.669 186.755 337.773C186.849 337.876 186.965 337.959 187.093 338.016C187.221 338.072 187.36 338.101 187.5 338.1H187.71C190.33 337.48 192.64 336.82 195.92 336.1C199.79 335.26 198.92 335.97 203.45 335.05C206.2 334.5 206.1 331.05 204.91 331.14C199.46 331.58 198.6 329.98 196.19 328.39C195.932 328.237 195.646 328.138 195.349 328.099C195.051 328.059 194.749 328.08 194.46 328.16Z" fill="#263238"/>
<path opacity="0.2" d="M160.9 246.11C160.6 234.94 156.52 223.11 156.52 223.11L151.81 225.25C154.24 231.38 157.69 238.88 160.9 246.11Z" fill="black"/>
<path d="M121.38 309.75L116.91 323.9L123.47 326.74L128.62 311.85L121.38 309.75Z" fill="#7F3E3B"/>
<path d="M166.39 196.87C166.39 196.87 152.65 253.28 146.68 271.62C142.68 283.86 127.15 319.43 127.15 319.43L118.15 315.26C118.15 315.26 125.23 286.26 128.56 276.82C129.56 274.07 131.92 268.75 132.72 265.94C135.45 256.34 138.4 236.35 138.66 226.34C138.77 222.25 137.49 214.12 137.53 210.03C137.53 206.46 138.84 195.83 138.84 195.83L166.39 196.87Z" fill="#407BFF"/>
<path d="M117.4 312.08L116.05 316.18L128.11 321.16L129.55 317.32L117.4 312.08Z" fill="#407BFF"/>
<path opacity="0.5" d="M117.4 312.08L116.05 316.18L128.11 321.16L129.55 317.32L117.4 312.08Z" fill="white"/>
<path d="M124 328.38C123.972 328.358 123.95 328.329 123.937 328.295C123.925 328.261 123.922 328.225 123.93 328.19C123.938 328.157 123.955 328.127 123.98 328.103C124.005 328.08 124.036 328.065 124.07 328.06C124.19 328.06 126.92 327.76 127.82 328.56C127.988 328.715 128.097 328.924 128.13 329.15C128.155 329.281 128.142 329.417 128.092 329.541C128.043 329.665 127.959 329.772 127.85 329.85C127.16 329.987 126.445 329.854 125.85 329.48C125.2 329.172 124.581 328.804 124 328.38ZM124.56 328.38C125.65 329.09 127.21 329.83 127.69 329.54C127.75 329.54 127.83 329.43 127.8 329.18C127.797 329.11 127.778 329.041 127.745 328.979C127.712 328.917 127.666 328.862 127.61 328.82C127.53 328.751 127.443 328.691 127.35 328.64C126.455 328.377 125.517 328.292 124.59 328.39L124.56 328.38Z" fill="#407BFF"/>
<path d="M124 328.33C123.985 328.304 123.978 328.275 123.978 328.245C123.978 328.215 123.985 328.186 124 328.16C124 328.08 125 326.36 126.06 326.04C126.214 325.989 126.378 325.974 126.539 325.995C126.7 326.016 126.854 326.072 126.99 326.16C127.37 326.4 127.4 326.68 127.34 326.87C127.16 327.68 125.05 328.41 124.16 328.41H124.1C124.059 328.394 124.025 328.366 124 328.33ZM126.76 326.41C126.571 326.335 126.36 326.335 126.17 326.41C125.45 326.772 124.86 327.348 124.48 328.06C125.48 327.94 126.91 327.28 127.06 326.8C127.06 326.8 127.06 326.64 126.85 326.49H126.76V326.41Z" fill="#407BFF"/>
<path d="M123.88 326.93L117.12 323.68C116.994 323.621 116.852 323.608 116.718 323.645C116.584 323.681 116.467 323.765 116.39 323.88L112.66 329.22C112.495 329.447 112.422 329.727 112.455 330.005C112.489 330.284 112.626 330.539 112.84 330.72C112.894 330.765 112.955 330.802 113.02 330.83C115.47 331.96 117.7 332.83 120.73 334.32C124.31 336.05 123.21 336.07 127.39 338.16C129.91 339.42 131.69 336.53 130.68 335.86C126.05 332.86 126.21 330.98 125.12 328.17C124.87 327.621 124.429 327.18 123.88 326.93Z" fill="#263238"/>
<path d="M150.18 201.92L138.83 201.98L138.64 204.79L150.24 204.73L150.18 201.92Z" fill="#263238"/>
<path d="M166.72 201.83L160.22 201.87L160.33 204.67L167.45 204.63L166.72 201.83Z" fill="#263238"/>
<path d="M158.14 201.88L152.54 201.91L152.58 204.71L158.21 204.68L158.14 201.88Z" fill="#263238"/>
<path d="M148.19 116.25C148.19 116.25 153.11 114.63 151.57 120.25L147.84 119L148.19 116.25Z" fill="#263238"/>
<path d="M142 132.63C143.42 135.99 145.4 141.91 144.32 145.48C144.194 145.895 144.214 146.34 144.376 146.742C144.537 147.144 144.832 147.478 145.21 147.69C147.962 149.411 151.251 150.059 154.45 149.51C158.55 148.81 158.38 146.57 157.22 145.04C157.065 144.838 156.871 144.669 156.65 144.543C156.428 144.418 156.183 144.339 155.93 144.31C151.82 143.89 150.85 140.58 150.93 137.5L142 132.63Z" fill="#7F3E3B"/>
<path opacity="0.2" d="M145.67 134.63L150.98 137.49C150.97 138.243 151.02 138.995 151.13 139.74C150.105 139.778 149.086 139.565 148.162 139.118C147.238 138.672 146.438 138.007 145.83 137.18C145.16 136.13 145.26 134.86 145.67 134.63Z" fill="black"/>
<path d="M139.31 127.22C141.14 132.41 141.95 135.54 145.4 137.49C150.59 140.44 156.4 136.15 156.21 130.49C155.99 125.4 153.03 117.79 147.21 117.15C145.231 116.919 143.24 117.483 141.676 118.719C140.113 119.955 139.103 121.761 138.87 123.74C138.732 124.919 138.883 126.113 139.31 127.22Z" fill="#7F3E3B"/>
<path d="M148.1 125.54C148.23 125.97 148.55 126.26 148.83 126.18C149.11 126.1 149.25 125.69 149.12 125.25C148.99 124.81 148.67 124.54 148.39 124.62C148.11 124.7 148 125.11 148.1 125.54Z" fill="#263238"/>
<path d="M152.999 124.17C153.119 124.59 153.449 124.88 153.729 124.8C154.009 124.72 154.139 124.3 154.019 123.88C153.899 123.46 153.569 123.16 153.289 123.24C153.009 123.32 152.859 123.73 152.999 124.17Z" fill="#263238"/>
<path d="M151.16 125.7C152.05 126.868 153.097 127.908 154.27 128.79C154.031 129.094 153.727 129.34 153.382 129.513C153.036 129.686 152.657 129.781 152.27 129.79L151.16 125.7Z" fill="#630F0F"/>
<path d="M146.62 124.25C146.577 124.238 146.536 124.218 146.5 124.19C146.466 124.13 146.454 124.06 146.467 123.992C146.48 123.924 146.516 123.863 146.57 123.82C146.912 123.581 147.306 123.425 147.72 123.366C148.133 123.307 148.555 123.346 148.95 123.48C149.014 123.507 149.065 123.557 149.093 123.62C149.121 123.683 149.123 123.755 149.1 123.82C149.074 123.886 149.022 123.939 148.956 123.967C148.891 123.995 148.817 123.996 148.75 123.97C148.436 123.867 148.102 123.84 147.775 123.89C147.449 123.94 147.139 124.067 146.87 124.26C146.831 124.281 146.788 124.29 146.744 124.289C146.7 124.287 146.657 124.274 146.62 124.25Z" fill="#263238"/>
<path d="M154.18 121.62C154.164 121.661 154.137 121.697 154.101 121.723C154.066 121.75 154.024 121.766 153.98 121.77C153.653 121.798 153.338 121.903 153.06 122.077C152.781 122.251 152.549 122.488 152.38 122.77C152.346 122.832 152.29 122.878 152.224 122.9C152.157 122.923 152.084 122.919 152.02 122.89C151.989 122.875 151.961 122.854 151.939 122.828C151.916 122.803 151.898 122.773 151.887 122.74C151.876 122.708 151.871 122.673 151.874 122.639C151.876 122.604 151.885 122.571 151.9 122.54C152.108 122.181 152.397 121.875 152.745 121.648C153.092 121.42 153.488 121.277 153.9 121.23C153.933 121.224 153.967 121.226 154 121.234C154.032 121.242 154.063 121.257 154.089 121.278C154.115 121.299 154.137 121.325 154.153 121.354C154.169 121.384 154.178 121.417 154.18 121.45C154.197 121.505 154.197 121.565 154.18 121.62Z" fill="#263238"/>
<path d="M130.53 153.44L137.37 200.84L168.72 200.72L168.64 145.62C168.637 145.054 168.505 144.496 168.255 143.988C168.005 143.479 167.643 143.034 167.197 142.686C166.75 142.338 166.231 142.095 165.677 141.976C165.123 141.858 164.55 141.866 164 142L133.36 149.29C132.455 149.503 131.663 150.047 131.139 150.815C130.615 151.583 130.398 152.52 130.53 153.44Z" fill="#263238"/>
<path d="M209.1 132L215.24 127.21L218.24 121.08C218.41 120.744 218.499 120.372 218.499 119.995C218.499 119.618 218.41 119.246 218.24 118.91L217.54 117.61C217.382 117.315 217.165 117.055 216.901 116.848C216.638 116.641 216.335 116.491 216.01 116.408C215.686 116.324 215.348 116.309 215.017 116.362C214.687 116.416 214.371 116.538 214.09 116.72L212.09 118.02C211.766 118.232 211.497 118.519 211.308 118.857C211.118 119.194 211.012 119.573 211 119.96L210.86 124.96L205.21 128.58L209.1 132Z" fill="#7F3E3B"/>
<path d="M161.29 145.93C161.484 144.776 162.045 143.716 162.89 142.907C163.735 142.098 164.819 141.583 165.98 141.44C171.8 140.72 182.31 139.25 186.39 137.66C192.05 135.45 207.62 125.44 207.62 125.44L211.69 131.44C211.69 131.44 195.74 144.28 189.63 147.23C185.25 149.34 174.63 151.13 167.44 152.17C166.595 152.292 165.733 152.214 164.924 151.942C164.115 151.669 163.382 151.21 162.783 150.602C162.184 149.993 161.737 149.252 161.478 148.439C161.219 147.626 161.154 146.763 161.29 145.92V145.93Z" fill="#263238"/>
<path d="M148.8 148.71L150.95 146.65L154.23 146.86L154.94 150.53L154.77 153.11L156.31 155.18L160.54 185.75L157.87 190.62L152.64 186.82L151.6 156.67L152.09 153.79L148.72 150L148.8 148.71Z" fill="#407BFF"/>
<path d="M143.49 144.72L140.57 147.57L146.82 151.38L150.6 147.22L158.16 148.04L156.92 143.58L154.54 142.75L149.97 145.33L143.49 144.72Z" fill="#263238"/>
<path opacity="0.3" d="M143.49 144.72L140.57 147.57L146.82 151.38L150.6 147.22L158.16 148.04L156.92 143.58L154.54 142.75L149.97 145.33L143.49 144.72Z" fill="white"/>
<path d="M149 132.48C148.73 132.408 148.466 132.314 148.21 132.2C148.19 132.193 148.171 132.182 148.154 132.168C148.138 132.154 148.125 132.136 148.115 132.117C148.106 132.097 148.101 132.076 148.1 132.054C148.099 132.032 148.103 132.01 148.11 131.99C148.132 131.953 148.165 131.924 148.206 131.909C148.246 131.895 148.29 131.895 148.33 131.91C148.97 132.204 149.669 132.345 150.372 132.321C151.075 132.296 151.763 132.108 152.38 131.77C152.399 131.757 152.419 131.749 152.441 131.744C152.462 131.74 152.485 131.74 152.506 131.745C152.528 131.749 152.548 131.758 152.566 131.771C152.584 131.784 152.599 131.801 152.61 131.82C152.626 131.834 152.638 131.851 152.646 131.87C152.654 131.889 152.658 131.909 152.658 131.93C152.658 131.951 152.654 131.971 152.646 131.99C152.638 132.009 152.626 132.026 152.61 132.04C152.07 132.355 151.471 132.556 150.851 132.632C150.23 132.708 149.6 132.656 149 132.48Z" fill="#263238"/>
<path d="M140.43 131.47C140.43 131.47 144.69 131.75 140.86 125.02C141.811 123.687 142.338 122.098 142.37 120.46C142.37 120.46 154.08 116.28 151.19 112.69C148.3 109.1 145.59 113.83 145.59 113.83C145.59 113.83 141.19 111 139.94 116.71C139.94 116.71 134.85 117.98 137.08 122.6C136.559 123.474 136.36 124.503 136.519 125.507C136.678 126.512 137.184 127.43 137.95 128.1C137.95 128.1 138.16 131 140.43 131.47Z" fill="#263238"/>
<path d="M138.12 132.88C139.157 133.802 140.515 134.28 141.9 134.21C143.74 134.09 144.06 132.32 143.05 130.9C142.04 129.48 140.05 128.15 138.48 128.96C138.131 129.139 137.832 129.403 137.612 129.729C137.392 130.054 137.258 130.43 137.222 130.821C137.186 131.212 137.249 131.606 137.406 131.966C137.563 132.326 137.809 132.64 138.12 132.88Z" fill="#7F3E3B"/>
<path d="M251.64 35.0001C244.64 54.7601 216.18 115.16 215.08 118.52C214.49 120.32 214.94 119.72 213.37 120.83C192.89 135.36 173.37 151.51 153.5 166.83L142.6 175.2C141.41 175.933 140.407 176.932 139.67 178.12C137.42 182.26 136.67 188.24 135.58 192.76C134.01 199.25 132.52 205.98 132.45 212.68C132.45 216.19 132.6 222.29 137.11 223.1C141.62 223.91 143.11 218.47 143.58 215.03C145.08 203.19 142.2 190.17 139.51 178.66C139.29 177.66 137.76 178 137.99 178.98C140.33 188.98 142.29 199.58 142.29 209.91C142.29 212.54 141.41 225.77 135.77 220.73C132.23 217.57 134.16 208.6 134.77 204.67C135.855 197.964 137.365 191.334 139.29 184.82C139.82 182.98 140.29 181.05 140.96 179.25C141.43 178.01 141.14 178.41 141.44 178.05C143.12 176.05 146.13 174.45 148.2 172.87L160.74 163.24L194 137.71L207.73 127.17C210.09 125.36 213.12 123.64 215.16 121.47C217.71 118.76 245.66 56.7301 253.16 35.5301C253.211 35.3396 253.188 35.1369 253.096 34.9628C253.004 34.7886 252.849 34.6558 252.662 34.5912C252.476 34.5266 252.272 34.5349 252.092 34.6144C251.912 34.694 251.768 34.8389 251.69 35.0201L251.64 35.0001Z" fill="#407BFF"/>
<g opacity="0.3">
<path d="M251.64 35.0001C244.64 54.7601 216.18 115.16 215.08 118.52C214.49 120.32 214.94 119.72 213.37 120.83C192.89 135.36 173.37 151.51 153.5 166.83L142.6 175.2C141.41 175.933 140.407 176.932 139.67 178.12C137.42 182.26 136.67 188.24 135.58 192.76C134.01 199.25 132.52 205.98 132.45 212.68C132.45 216.19 132.6 222.29 137.11 223.1C141.62 223.91 143.11 218.47 143.58 215.03C145.08 203.19 142.2 190.17 139.51 178.66C139.29 177.66 137.76 178 137.99 178.98C140.33 188.98 142.29 199.58 142.29 209.91C142.29 212.54 141.41 225.77 135.77 220.73C132.23 217.57 134.16 208.6 134.77 204.67C135.855 197.964 137.365 191.334 139.29 184.82C139.82 182.98 140.29 181.05 140.96 179.25C141.43 178.01 141.14 178.41 141.44 178.05C143.12 176.05 146.13 174.45 148.2 172.87L160.74 163.24L194 137.71L207.73 127.17C210.09 125.36 213.12 123.64 215.16 121.47C217.71 118.76 245.66 56.7301 253.16 35.5301C253.211 35.3396 253.188 35.1369 253.096 34.9628C253.004 34.7886 252.849 34.6558 252.662 34.5912C252.476 34.5266 252.272 34.5349 252.092 34.6144C251.912 34.694 251.768 34.8389 251.69 35.0201L251.64 35.0001Z" fill="black"/>
</g>
<path d="M133.66 176.75L137.92 177.39L142 173.5L143.75 174.25C144.33 174.496 144.818 174.918 145.144 175.456C145.471 175.995 145.62 176.622 145.57 177.25C145.536 177.753 145.377 178.239 145.106 178.663C144.835 179.088 144.461 179.438 144.02 179.68L139.93 181.96C139.54 182.181 139.107 182.311 138.66 182.342C138.214 182.373 137.766 182.304 137.35 182.14L136.88 181.96L131.88 180.96L133.66 176.75Z" fill="#7F3E3B"/>
<path d="M138 152.35C137.64 151.69 137.141 151.116 136.538 150.668C135.935 150.219 135.242 149.906 134.507 149.75C133.772 149.594 133.012 149.599 132.278 149.765C131.545 149.931 130.857 150.253 130.26 150.71C122.26 156.86 107.42 169.26 109.26 175.37C111.09 181.28 133.14 182.27 133.14 182.27L136.25 175.39C136.25 175.39 124.7 174.52 123.91 171.39C123.12 168.26 131.15 162.49 136.23 159.14C137.315 158.434 138.094 157.346 138.413 156.091C138.732 154.837 138.566 153.508 137.95 152.37L138 152.35Z" fill="#263238"/>
<path d="M224.04 310.59L218.38 325.78L225.19 327.43L232.58 312.66L224.04 310.59Z" fill="#FFC3BD"/>
<path d="M226.41 327.54C226.379 327.524 226.353 327.499 226.336 327.469C226.318 327.439 226.309 327.405 226.31 327.37C226.311 327.335 226.323 327.302 226.345 327.275C226.366 327.248 226.396 327.229 226.43 327.22C226.55 327.22 229.28 326.38 230.36 326.97C230.461 327.021 230.551 327.091 230.625 327.177C230.699 327.263 230.755 327.362 230.79 327.47C230.839 327.592 230.85 327.726 230.822 327.855C230.793 327.984 230.726 328.1 230.63 328.19C229.938 328.456 229.172 328.456 228.48 328.19C227.772 328.034 227.08 327.816 226.41 327.54ZM226.99 327.44C228.24 327.9 229.99 328.31 230.41 327.93C230.47 327.93 230.54 327.8 230.41 327.57C230.393 327.502 230.362 327.438 230.316 327.384C230.271 327.33 230.214 327.288 230.15 327.26C230.052 327.209 229.948 327.172 229.84 327.15C228.883 327.069 227.92 327.167 227 327.44H226.99Z" fill="#407BFF"/>
<path d="M226.33 327.51C226.314 327.485 226.306 327.455 226.306 327.425C226.306 327.395 226.314 327.366 226.33 327.34C226.33 327.26 226.98 325.44 228.03 324.92C228.184 324.843 228.352 324.798 228.524 324.788C228.696 324.778 228.868 324.802 229.03 324.86C229.47 325.01 229.56 325.27 229.53 325.46C229.53 326.27 227.48 327.38 226.53 327.55C226.519 327.555 226.507 327.558 226.495 327.558C226.483 327.558 226.471 327.555 226.46 327.55C226.413 327.552 226.367 327.538 226.33 327.51ZM228.79 325.14C228.582 325.092 228.363 325.117 228.17 325.21C227.519 325.687 227.028 326.349 226.76 327.11C227.76 326.81 229.1 325.9 229.16 325.42C229.16 325.37 229.16 325.25 228.88 325.16H228.79V325.14Z" fill="#407BFF"/>
<path d="M225.94 326.4L218.4 324.62C218.262 324.587 218.116 324.601 217.988 324.661C217.859 324.721 217.754 324.823 217.69 324.95L214.88 330.76C214.814 330.881 214.774 331.014 214.762 331.152C214.751 331.289 214.767 331.427 214.811 331.558C214.856 331.688 214.926 331.808 215.019 331.91C215.112 332.012 215.224 332.094 215.35 332.15L215.56 332.23C218.29 332.82 220.74 333.23 224.12 334.05C228.12 335 226.98 335.23 231.66 336.41C234.48 337.12 235.76 334.03 234.6 333.58C229.27 331.58 229.1 329.8 227.44 327.34C227.073 326.853 226.539 326.518 225.94 326.4Z" fill="#263238"/>
<path d="M260.5 314.03L258.58 330.14H265.58L269.29 314.03H260.5Z" fill="#FFC3BD"/>
<path d="M260.54 181C260.54 181 268.16 197.31 275.43 194C282.7 190.69 280.75 176.18 280.75 176.18L283.53 170.57L281 163.24L275.59 164.24L276.52 166.79L275.34 169.91L276.92 176.09L273.52 187L268.12 177.3L260.54 181Z" fill="#FFC3BD"/>
<path d="M265.5 168.6L272.15 179.29L261.34 185.48L255.89 174.53C255.452 173.651 255.319 172.65 255.513 171.686C255.706 170.723 256.216 169.852 256.96 169.21L258.85 167.58C259.335 167.163 259.904 166.857 260.518 166.681C261.133 166.505 261.778 166.464 262.41 166.56C263.041 166.657 263.645 166.89 264.178 167.242C264.712 167.594 265.163 168.057 265.5 168.6Z" fill="#407BFF"/>
<path opacity="0.2" d="M261.3 175.15L260.79 184.37L261.34 185.48L265.26 183.24L264.67 173.52L261.3 175.15Z" fill="black"/>
<path d="M254.36 217.24C254.36 217.24 273.93 260.11 275.58 275.53C276.78 286.76 269.44 320.27 269.44 320.27H259.22C259.22 320.27 260.17 303.9 260.33 290.49C260.4 284.84 260.96 279.71 260.24 276.56C257.99 266.75 241.83 240.77 241.83 240.77C241.83 240.77 236.18 232.77 233.14 227.47C230.1 222.17 230.84 214.18 230.84 214.18L254.36 217.24Z" fill="#263238"/>
<path d="M257.8 319L258.27 322.51H270.45L270.98 319H257.8Z" fill="#407BFF"/>
<path opacity="0.5" d="M260.24 276.56C260.15 262.63 241.71 231.94 241.71 231.94L237.39 228.36L237.68 234.68C239.89 238.02 241.83 240.77 241.83 240.77C241.83 240.77 258 266.75 260.24 276.56Z" fill="black"/>
<path d="M240.55 215.18C240.55 215.18 253.04 260.77 250.55 275.53C248.55 287.37 230.1 319 230.1 319L221.41 315.16C221.41 315.16 227.3 299.81 231.41 286.78C233.15 281.21 235.18 276.06 235.26 272.72C235.52 260.79 224.39 238.49 222.47 226.72C221.47 220.45 224.52 214.2 224.52 214.2L240.55 215.18Z" fill="#263238"/>
<path d="M219.88 316.57L230.04 321.17L232.1 318.25L220.93 313.45L219.88 316.57Z" fill="#407BFF"/>
<path d="M257 169C253.69 166.85 253.85 164.39 255 162C255.283 161.415 255.6 160.848 255.95 160.3L252.76 154.92L250.42 150.92C249.91 155.25 248.34 162.92 244.68 164.63C246.681 167.453 249.539 169.557 252.83 170.63C258.17 172.38 257 169 257 169Z" fill="#FFC3BD"/>
<path opacity="0.2" d="M255.89 160.31C255.538 160.867 255.221 161.444 254.94 162.04C253.38 161.09 251.76 158.49 252.15 156.68C252.266 156.078 252.451 155.491 252.7 154.93L255.89 160.31Z" fill="black"/>
<path d="M248.279 147.8C249.599 153.43 250.069 156.8 253.449 159.31C254.537 160.143 255.831 160.664 257.193 160.814C258.554 160.965 259.931 160.74 261.175 160.164C262.418 159.589 263.48 158.684 264.245 157.548C265.011 156.412 265.452 155.088 265.519 153.72C265.889 148.45 263.679 140.13 257.709 138.62C256.426 138.258 255.07 138.24 253.777 138.568C252.485 138.896 251.301 139.559 250.346 140.489C249.39 141.419 248.696 142.584 248.333 143.868C247.971 145.151 247.952 146.507 248.279 147.8Z" fill="#FFC3BD"/>
<path d="M257.21 148.23C257.28 148.7 257.59 149.03 257.89 148.97C258.19 148.91 258.38 148.52 258.3 148.06C258.22 147.6 257.92 147.25 257.61 147.33C257.3 147.41 257.12 147.77 257.21 148.23Z" fill="#263238"/>
<path d="M262.46 147.53C262.53 147.99 262.84 148.33 263.14 148.26C263.44 148.19 263.63 147.82 263.55 147.35C263.47 146.88 263.17 146.55 262.86 146.62C262.55 146.69 262.38 147.06 262.46 147.53Z" fill="#263238"/>
<path d="M260.819 148C261.616 149.346 262.588 150.58 263.709 151.67C263.425 151.939 263.085 152.144 262.714 152.27C262.343 152.396 261.949 152.44 261.559 152.4L260.819 148Z" fill="#ED847E"/>
<path d="M260.15 154C259.608 154.015 259.069 153.92 258.566 153.721C258.062 153.521 257.604 153.222 257.22 152.84C257.196 152.814 257.183 152.78 257.183 152.745C257.183 152.71 257.196 152.676 257.22 152.65C257.233 152.637 257.248 152.626 257.266 152.619C257.283 152.612 257.301 152.608 257.32 152.608C257.338 152.608 257.357 152.612 257.374 152.619C257.391 152.626 257.407 152.637 257.42 152.65C257.849 153.054 258.365 153.355 258.928 153.528C259.492 153.702 260.088 153.743 260.67 153.65C260.688 153.639 260.708 153.632 260.73 153.631C260.751 153.629 260.772 153.632 260.792 153.64C260.812 153.647 260.829 153.659 260.844 153.675C260.858 153.69 260.869 153.709 260.875 153.729C260.882 153.749 260.883 153.771 260.88 153.792C260.877 153.813 260.869 153.833 260.857 153.85C260.844 153.867 260.829 153.882 260.81 153.892C260.792 153.903 260.771 153.909 260.75 153.91H260.7C260.519 153.955 260.335 153.985 260.15 154Z" fill="#263238"/>
<path d="M255.289 146.76C255.247 146.77 255.202 146.77 255.159 146.76C255.096 146.728 255.048 146.672 255.026 146.605C255.003 146.537 255.008 146.464 255.039 146.4C255.228 146.011 255.509 145.674 255.858 145.417C256.206 145.161 256.612 144.994 257.039 144.93C257.075 144.927 257.111 144.932 257.144 144.943C257.178 144.954 257.209 144.971 257.236 144.995C257.263 145.018 257.285 145.046 257.301 145.078C257.317 145.11 257.327 145.145 257.329 145.18C257.334 145.215 257.331 145.25 257.321 145.284C257.311 145.318 257.294 145.349 257.272 145.376C257.249 145.404 257.221 145.426 257.19 145.442C257.159 145.458 257.125 145.468 257.089 145.47C256.752 145.517 256.431 145.645 256.154 145.844C255.877 146.042 255.652 146.305 255.499 146.61C255.481 146.651 255.451 146.687 255.414 146.713C255.378 146.739 255.335 146.755 255.289 146.76Z" fill="#263238"/>
<path d="M264.4 145.43C264.356 145.431 264.312 145.421 264.274 145.4C264.235 145.378 264.203 145.348 264.18 145.31C263.981 145.022 263.719 144.782 263.414 144.609C263.11 144.436 262.77 144.334 262.42 144.31C262.347 144.298 262.282 144.257 262.239 144.197C262.196 144.137 262.178 144.063 262.19 143.99C262.2 143.933 262.227 143.879 262.268 143.838C262.309 143.797 262.362 143.77 262.42 143.76C262.86 143.784 263.288 143.91 263.67 144.129C264.052 144.348 264.377 144.653 264.62 145.02C264.641 145.049 264.655 145.083 264.663 145.118C264.671 145.153 264.672 145.189 264.665 145.225C264.659 145.26 264.645 145.294 264.625 145.324C264.605 145.354 264.58 145.38 264.55 145.4C264.504 145.425 264.452 145.436 264.4 145.43Z" fill="#263238"/>
<path d="M222.399 217.5L230.399 168.43C230.591 167.237 231.221 166.158 232.166 165.406C233.112 164.653 234.304 164.28 235.509 164.36L260.839 166C261.53 166.045 262.204 166.237 262.814 166.563C263.425 166.89 263.96 167.342 264.382 167.891C264.804 168.44 265.104 169.072 265.262 169.747C265.42 170.421 265.433 171.121 265.299 171.8L255.889 219.28L222.399 217.5Z" fill="#407BFF"/>
<path opacity="0.2" d="M230.39 168.43L226.39 192.91L231.5 195.63L238.36 172.05L230.62 167.51C230.513 167.808 230.436 168.116 230.39 168.43Z" fill="black"/>
<path d="M247.28 166.18L253.22 166.63L252 170.69L250.29 171.99L251.32 173.53L249.23 206.89L245.38 209.57L241.71 206.8L247.28 173.48L248.78 171.8L247.28 170.27V166.18Z" fill="#263238"/>
<path d="M244.39 163.24L249.96 165.3L255.89 164.27L258.14 165.83L254.81 171.16L250.01 166.82L243.49 169.95L241.89 164.77L244.39 163.24Z" fill="#407BFF"/>
<path opacity="0.9" d="M244.39 163.24L249.96 165.3L255.89 164.27L258.14 165.83L254.81 171.16L250.01 166.82L243.49 169.95L241.89 164.77L244.39 163.24Z" fill="white"/>
<path d="M250.85 152.6L252.48 152.11L250.85 144.58L252.48 141.31C252.48 141.31 264 140.99 263.71 134.47C263.71 134.47 262.44 136.91 260.34 136.9C260.34 136.9 262 132.29 257.75 131.78C257.75 131.78 257.37 134.78 254.75 135.17C254.75 135.17 255.63 132.45 251.75 132.17C251.75 132.17 253.97 134.85 249.16 137.98C244.35 141.11 238.95 146.56 244.29 150.98C244.29 150.98 249.45 155.09 248.95 157.72L250.85 152.6Z" fill="#263238"/>
<path d="M246.92 152.89C247.502 154.047 248.498 154.943 249.71 155.4C251.3 155.97 252.13 154.57 251.71 153C251.34 151.58 250.06 149.58 248.45 149.68C246.84 149.78 246.22 151.46 246.92 152.89Z" fill="#FFC3BD"/>
<path d="M266.799 330C266.763 329.996 266.729 329.981 266.702 329.956C266.675 329.931 266.657 329.898 266.65 329.862C266.644 329.826 266.649 329.789 266.665 329.756C266.681 329.724 266.707 329.697 266.739 329.68C266.849 329.62 269.319 328.19 270.499 328.51C270.718 328.569 270.907 328.708 271.029 328.9C271.105 329.007 271.146 329.134 271.146 329.265C271.146 329.396 271.105 329.523 271.029 329.63C270.429 330.068 269.688 330.267 268.949 330.19C268.229 330.186 267.509 330.123 266.799 330ZM267.339 329.77C268.659 329.92 270.449 329.9 270.779 329.44C270.779 329.38 270.869 329.28 270.779 329.07C270.745 329.009 270.698 328.957 270.641 328.917C270.584 328.877 270.518 328.851 270.449 328.84C270.343 328.825 270.235 328.825 270.129 328.84C269.152 328.953 268.205 329.252 267.339 329.72V329.77Z" fill="#407BFF"/>
<path d="M266.71 329.94C266.686 329.923 266.666 329.901 266.652 329.875C266.638 329.849 266.631 329.82 266.63 329.79C266.696 328.779 267.077 327.814 267.72 327.03C267.848 326.922 267.996 326.841 268.155 326.791C268.315 326.741 268.483 326.724 268.65 326.74C269.11 326.79 269.26 327.02 269.28 327.21C269.43 328.01 267.74 329.56 266.89 329.94H266.82C266.802 329.948 266.784 329.951 266.765 329.951C266.746 329.951 266.727 329.948 266.71 329.94ZM268.54 327.06C268.326 327.062 268.121 327.14 267.96 327.28C267.437 327.896 267.113 328.656 267.03 329.46C267.91 328.93 269.03 327.72 268.97 327.24C268.97 327.24 268.97 327.08 268.64 327.05L268.54 327.06Z" fill="#407BFF"/>
<path d="M266.07 329H258.32C258.179 329.003 258.042 329.052 257.932 329.141C257.821 329.23 257.743 329.352 257.71 329.49L256.35 335.8C256.315 335.933 256.307 336.072 256.328 336.207C256.348 336.343 256.397 336.474 256.47 336.59C256.543 336.706 256.64 336.806 256.753 336.884C256.867 336.961 256.995 337.014 257.13 337.04H257.35C260.14 336.98 262.63 336.81 266.1 336.8C270.2 336.8 269.17 337.27 273.99 337.31C276.9 337.31 277.41 334.03 276.18 333.88C270.53 333.2 269.94 331.5 267.75 329.49C267.268 329.129 266.671 328.955 266.07 329Z" fill="#263238"/>
<path d="M122.32 379.05H117.65C116.585 379.049 115.541 378.751 114.637 378.189C113.732 377.627 113.002 376.824 112.53 375.87C112.057 374.916 111.859 373.849 111.96 372.789C112.061 371.729 112.456 370.718 113.1 369.87L155.03 314.87C156.024 313.567 157.305 312.511 158.775 311.784C160.244 311.057 161.861 310.679 163.5 310.68H170.78C171.623 310.68 172.451 310.907 173.176 311.339C173.901 311.77 174.496 312.39 174.897 313.132C175.299 313.874 175.493 314.71 175.458 315.553C175.423 316.396 175.161 317.214 174.7 317.92L141.49 368.7C139.405 371.881 136.561 374.494 133.214 376.301C129.867 378.108 126.123 379.052 122.32 379.05Z" fill="#407BFF"/>
<path opacity="0.7" d="M122.37 379.05H117.69C116.626 379.049 115.584 378.752 114.68 378.191C113.776 377.629 113.047 376.827 112.575 375.873C112.103 374.92 111.907 373.854 112.009 372.795C112.11 371.736 112.505 370.726 113.15 369.88L155.07 314.88C156.063 313.575 157.344 312.517 158.814 311.789C160.283 311.06 161.9 310.681 163.54 310.68H170.83C171.674 310.682 172.502 310.911 173.226 311.344C173.95 311.777 174.545 312.397 174.946 313.139C175.347 313.882 175.541 314.718 175.507 315.562C175.472 316.405 175.211 317.223 174.75 317.93L141.53 368.7C139.447 371.881 136.605 374.492 133.26 376.299C129.915 378.106 126.172 379.052 122.37 379.05Z" fill="white"/>
<path d="M281.39 152.78L229.82 224C202.406 261.86 174.993 299.713 147.58 337.56L128.58 363.72C126.82 366.16 130.58 368.89 132.36 366.46L184 295.24L266.24 181.68L285.24 155.52C287 153.09 283.24 150.35 281.47 152.78H281.39Z" fill="#407BFF"/>
<g opacity="0.3">
<path d="M281.39 152.78L229.82 224C202.406 261.86 174.993 299.713 147.58 337.56L128.58 363.72C126.82 366.16 130.58 368.89 132.36 366.46L184 295.24L266.24 181.68L285.24 155.52C287 153.09 283.24 150.35 281.47 152.78H281.39Z" fill="white"/>
</g>
<path d="M225.9 175.15C225.9 175.15 218.81 186.28 222.39 195.37C225.97 204.46 243.75 198.47 243.75 198.47L246.25 199.4L251.74 197.16H254.74L254.92 191.36L249.68 189.5L243.05 193.7L229 192.14L232.65 179.91L225.9 175.15Z" fill="#FFC3BD"/>
<path d="M235.999 165C237.195 165.663 238.102 166.746 238.543 168.04C238.985 169.333 238.93 170.745 238.389 172L233.109 184.29L221.819 178.29L228.579 166.99C229.315 165.76 230.501 164.864 231.886 164.493C233.271 164.121 234.746 164.303 235.999 165Z" fill="#407BFF"/>
<path d="M71.2998 379.41C86.8398 378.48 109.9 380.17 133.57 379.5C157.24 378.83 160.66 358.56 127.85 354.96C95.0398 351.36 145.41 371.11 126.97 369.65C108.53 368.19 88.5297 331.4 72.8797 336.2C60.9797 339.85 81.8097 358.59 81.8097 358.59C81.8097 358.59 55.1898 339.77 45.3998 350.59C37.5498 359.25 70.2397 364.1 70.2397 364.1C70.2397 364.1 50.3998 361.45 45.9998 371.22C41.3698 381.33 60.6998 380.06 71.2998 379.41Z" fill="#407BFF"/>
<path opacity="0.5" d="M71.2998 379.41C86.8398 378.48 109.9 380.17 133.57 379.5C157.24 378.83 160.66 358.56 127.85 354.96C95.0398 351.36 145.41 371.11 126.97 369.65C108.53 368.19 88.5297 331.4 72.8797 336.2C60.9797 339.85 81.8097 358.59 81.8097 358.59C81.8097 358.59 55.1898 339.77 45.3998 350.59C37.5498 359.25 70.2397 364.1 70.2397 364.1C70.2397 364.1 50.3998 361.45 45.9998 371.22C41.3698 381.33 60.6998 380.06 71.2998 379.41Z" fill="white"/>
<path d="M347.08 316.12L348.16 328.67L354.89 328.28L354.39 315.23L347.08 316.12Z" fill="#CE7A63"/>
<path d="M289.59 311.61L284.43 323L290.34 326.42L296.23 314.93L289.59 311.61Z" fill="#CE7A63"/>
<path d="M333.69 210C333.69 210 349.97 253.81 352.93 269.29C355.27 281.53 355.44 319.29 355.44 319.29L346.44 320.07C346.44 320.07 344.37 301.86 342.28 286.79C341.556 281.315 340.42 275.903 338.88 270.6C335.22 258.79 321.88 238.6 317.58 227.02C316.1 223.02 314.47 210.13 314.47 210.13L333.69 210Z" fill="#263238"/>
<path d="M344.87 317.78L356.69 316.79L356.67 321.38L345.64 322.17L344.87 317.78Z" fill="#407BFF"/>
<path opacity="0.5" d="M323.81 219.91L315.87 226.55C317.72 230.14 325.56 242.33 328.18 246.55C329.09 236.41 323.81 219.91 323.81 219.91Z" fill="black"/>
<path d="M330.17 210C330.17 210 322.06 260.5 317.01 276.46C313.42 287.83 294.88 318.85 294.88 318.85L287.52 314.78C287.52 314.78 294.52 297.95 299.4 284.88C301.06 280.43 303.07 276.4 303.65 273.64C306.16 261.83 305.18 237.4 305.86 225.33C306.08 221.5 307.72 210.1 307.72 210.1L330.17 210Z" fill="#263238"/>
<path d="M287.539 311.75L285.609 315.87L295.039 321.13L297.189 317.13L287.539 311.75Z" fill="#407BFF"/>
<path d="M355.609 328.32C355.578 328.314 355.55 328.298 355.528 328.274C355.507 328.251 355.493 328.221 355.489 328.19C355.484 328.159 355.488 328.128 355.501 328.1C355.513 328.071 355.534 328.047 355.559 328.03C355.659 327.97 357.829 326.61 358.879 326.9C358.977 326.928 359.067 326.976 359.146 327.039C359.225 327.103 359.291 327.181 359.339 327.27C359.405 327.373 359.44 327.493 359.44 327.615C359.44 327.737 359.405 327.857 359.339 327.96C358.817 328.366 358.158 328.556 357.499 328.49C356.865 328.497 356.232 328.44 355.609 328.32ZM356.089 328.1C357.249 328.25 358.829 328.22 359.089 327.78C359.089 327.72 359.169 327.63 359.089 327.43C359.062 327.373 359.021 327.323 358.971 327.285C358.921 327.247 358.862 327.221 358.799 327.21C358.704 327.19 358.605 327.19 358.509 327.21C357.652 327.344 356.829 327.646 356.089 328.1Z" fill="#407BFF"/>
<path d="M355.53 328.32C355.508 328.302 355.491 328.279 355.481 328.252C355.47 328.226 355.467 328.198 355.47 328.17C355.535 327.223 355.884 326.317 356.47 325.57C356.581 325.467 356.712 325.389 356.855 325.341C356.998 325.293 357.15 325.275 357.3 325.29C357.7 325.29 357.83 325.55 357.85 325.73C357.98 326.48 356.48 327.95 355.74 328.31C355.729 328.315 355.717 328.318 355.705 328.318C355.693 328.318 355.681 328.315 355.67 328.31L355.53 328.32ZM357.16 325.59C356.971 325.589 356.788 325.66 356.65 325.79C356.178 326.384 355.889 327.104 355.82 327.86C356.59 327.36 357.58 326.21 357.54 325.76C357.54 325.76 357.54 325.6 357.24 325.58L357.16 325.59Z" fill="#407BFF"/>
<path d="M355 327.39L348.19 327.47C348.06 327.476 347.936 327.526 347.838 327.612C347.741 327.697 347.674 327.812 347.65 327.94L346.43 333.94C346.378 334.183 346.42 334.437 346.546 334.651C346.671 334.866 346.872 335.026 347.11 335.1C347.176 335.11 347.243 335.11 347.31 335.1C349.76 335.03 351.95 334.86 355.01 334.83C358.62 334.83 357.7 335.26 361.94 335.28C364.5 335.28 364.94 332.16 363.88 332.02C358.88 331.4 358.4 329.8 356.48 327.92C356.075 327.555 355.543 327.365 355 327.39Z" fill="#263238"/>
<path d="M290.819 326.67C290.796 326.647 290.779 326.618 290.771 326.587C290.762 326.555 290.761 326.522 290.769 326.49C290.781 326.461 290.8 326.436 290.825 326.417C290.849 326.397 290.878 326.385 290.909 326.38C291.019 326.38 293.519 326.25 294.319 327.04C294.465 327.192 294.553 327.39 294.569 327.6C294.586 327.72 294.567 327.843 294.516 327.953C294.464 328.063 294.382 328.156 294.279 328.22C293.899 328.41 293.119 328.15 292.429 327.77C291.86 327.453 291.321 327.085 290.819 326.67ZM291.339 326.67C292.339 327.38 293.699 328.14 294.149 327.89C294.209 327.89 294.279 327.8 294.269 327.57C294.269 327.505 294.255 327.441 294.227 327.382C294.2 327.323 294.159 327.271 294.109 327.23C294.04 327.159 293.959 327.102 293.869 327.06C293.058 326.775 292.198 326.656 291.339 326.71V326.67Z" fill="#407BFF"/>
<path d="M290.759 326.62C290.744 326.596 290.736 326.568 290.736 326.54C290.736 326.512 290.744 326.484 290.759 326.46C290.759 326.39 291.759 324.86 292.759 324.63C292.904 324.591 293.056 324.586 293.203 324.613C293.35 324.641 293.489 324.701 293.609 324.79C293.949 325.03 293.969 325.29 293.899 325.46C293.689 326.19 291.739 326.75 290.899 326.7H290.839C290.804 326.684 290.775 326.655 290.759 326.62ZM293.369 325.01C293.205 324.918 293.012 324.893 292.829 324.94C292.155 325.233 291.588 325.729 291.209 326.36C292.109 326.3 293.469 325.77 293.629 325.36C293.629 325.36 293.629 325.2 293.449 325.05H293.369V325.01Z" fill="#407BFF"/>
<path d="M290.66 325.52L284.66 322.19C284.548 322.127 284.418 322.107 284.294 322.133C284.169 322.159 284.057 322.229 283.98 322.33L280.32 327.03C280.155 327.228 280.074 327.483 280.092 327.74C280.111 327.997 280.228 328.237 280.42 328.41L280.58 328.53C282.77 329.69 284.77 330.63 287.48 332.13C290.67 333.89 289.66 333.86 293.39 335.99C295.64 337.28 297.39 334.73 296.51 334.06C292.41 331.06 292.65 329.35 291.77 326.72C291.564 326.194 291.168 325.766 290.66 325.52Z" fill="#263238"/>
<path d="M336.86 134.38C336.86 134.38 342.35 135.1 341.2 130.9C341.2 130.9 340.95 132.16 334.97 131.9C328.99 131.64 336.86 134.38 336.86 134.38Z" fill="#263238"/>
<path opacity="0.9" d="M336.86 134.38C336.86 134.38 342.35 135.1 341.2 130.9C341.2 130.9 340.95 132.16 334.97 131.9C328.99 131.64 336.86 134.38 336.86 134.38Z" fill="black"/>
<path d="M347.539 166.33L350.879 169.86C350.972 169.959 351.094 170.026 351.227 170.052C351.36 170.078 351.498 170.062 351.622 170.006C351.745 169.949 351.848 169.856 351.916 169.738C351.984 169.621 352.013 169.485 351.999 169.35L350.339 151.51L347.339 146.02C347.006 145.408 346.927 144.689 347.119 144.02L347.579 142.37C347.63 142.187 347.66 141.999 347.669 141.81C347.708 141.13 348.004 140.49 348.499 140.021C348.993 139.553 349.648 139.291 350.329 139.29C350.856 139.291 351.371 139.448 351.809 139.74L354.899 141.82C355.348 142.118 355.695 142.546 355.895 143.046C356.095 143.546 356.138 144.095 356.019 144.62L354.609 150.87C354.609 150.87 361.419 177.17 356.609 179.97C352.179 182.54 342.609 173.97 342.609 173.97L347.539 166.33Z" fill="#CE7A63"/>
<path d="M335.6 160.89C336.128 160.159 336.837 159.577 337.657 159.202C338.478 158.827 339.381 158.671 340.28 158.75C343.96 159.01 351.2 167.26 351.2 167.26L344.65 177.68C344.65 177.68 336.06 170.11 334.65 166.98C334.172 165.988 334.008 164.875 334.177 163.787C334.347 162.7 334.843 161.689 335.6 160.89Z" fill="#407BFF"/>
<path opacity="0.2" d="M341 174.25C341.26 170.1 341.41 165.57 341.41 165.57L338.27 171.51C339.11 172.45 340.06 173.39 341 174.25Z" fill="black"/>
<path d="M327.669 159.39L331.009 158.24C331.025 157.251 331.268 156.28 331.719 155.4C331.997 154.82 332.308 154.256 332.649 153.71L329.489 148.38L327.169 144.47C326.709 148.36 325.389 154.96 322.449 157.42L327.669 159.39Z" fill="#CE7A63"/>
<path opacity="0.2" d="M332.649 153.71C332.308 154.262 331.997 154.833 331.719 155.42C330.169 154.48 328.569 151.9 328.949 150.11C329.062 149.514 329.243 148.934 329.489 148.38L332.649 153.71Z" fill="black"/>
<path d="M306.449 161.26L307.009 211.69L310.009 212.15C318.186 213.381 326.532 212.818 334.469 210.5L341.999 162.4C342.088 161.951 342.078 161.489 341.97 161.044C341.861 160.6 341.657 160.185 341.371 159.827C341.085 159.47 340.725 159.18 340.315 158.976C339.906 158.773 339.456 158.662 338.999 158.65L309.659 158.14C309.243 158.131 308.828 158.204 308.441 158.357C308.053 158.509 307.699 158.737 307.401 159.027C307.102 159.318 306.864 159.665 306.701 160.048C306.537 160.431 306.452 160.843 306.449 161.26Z" fill="#407BFF"/>
<path opacity="0.2" d="M306.39 183.48C309.75 177.48 312.62 166.48 312.62 166.48L306.43 169.54L306.39 183.48Z" fill="black"/>
<path d="M325.109 141.32C326.419 146.9 326.889 150.22 330.239 152.72C331.318 153.554 332.605 154.076 333.961 154.23C335.316 154.383 336.687 154.161 337.925 153.589C339.163 153.016 340.219 152.115 340.98 150.983C341.741 149.851 342.177 148.532 342.239 147.17C342.589 141.95 340.399 133.71 334.479 132.22C333.208 131.864 331.866 131.848 330.586 132.175C329.307 132.501 328.136 133.159 327.191 134.08C326.246 135.002 325.56 136.156 325.202 137.427C324.843 138.698 324.825 140.04 325.149 141.32H325.109Z" fill="#CE7A63"/>
<path d="M334 141.74C334.07 142.2 334.39 142.53 334.68 142.47C334.97 142.41 335.16 142.02 335.09 141.57C335.02 141.12 334.7 140.77 334.4 140.84C334.1 140.91 333.87 141.29 334 141.74Z" fill="#263238"/>
<path d="M339.15 141C339.22 141.46 339.53 141.79 339.83 141.73C340.13 141.67 340.31 141.28 340.24 140.82C340.17 140.36 339.85 140.03 339.55 140.1C339.25 140.17 339.07 140.58 339.15 141Z" fill="#263238"/>
<path d="M337.529 141.49C338.323 142.821 339.287 144.041 340.399 145.12C340.117 145.387 339.781 145.59 339.413 145.716C339.046 145.842 338.656 145.887 338.269 145.85L337.529 141.49Z" fill="#BA4D3C"/>
<path d="M336.599 147.3C336.063 147.316 335.529 147.222 335.031 147.024C334.532 146.826 334.079 146.529 333.699 146.15C333.676 146.126 333.663 146.094 333.663 146.06C333.663 146.026 333.676 145.994 333.699 145.97C333.712 145.957 333.728 145.946 333.745 145.939C333.762 145.932 333.781 145.928 333.799 145.928C333.818 145.928 333.836 145.932 333.854 145.939C333.871 145.946 333.886 145.957 333.899 145.97C334.32 146.374 334.83 146.674 335.387 146.848C335.944 147.021 336.533 147.063 337.109 146.97C337.126 146.964 337.143 146.961 337.161 146.961C337.178 146.962 337.195 146.966 337.211 146.974C337.227 146.981 337.241 146.992 337.253 147.005C337.265 147.018 337.274 147.033 337.279 147.05C337.292 147.084 337.291 147.123 337.276 147.156C337.261 147.19 337.234 147.217 337.199 147.23H337.149C336.968 147.269 336.784 147.292 336.599 147.3Z" fill="#263238"/>
<path d="M332.059 140.29C332.017 140.3 331.972 140.3 331.929 140.29C331.897 140.275 331.868 140.254 331.844 140.227C331.82 140.201 331.802 140.17 331.789 140.137C331.777 140.103 331.772 140.068 331.774 140.032C331.775 139.997 331.784 139.962 331.799 139.93C331.989 139.542 332.27 139.206 332.618 138.952C332.967 138.698 333.372 138.532 333.799 138.47C333.869 138.467 333.938 138.492 333.99 138.538C334.042 138.585 334.074 138.65 334.079 138.72C334.082 138.755 334.078 138.791 334.067 138.825C334.056 138.859 334.038 138.89 334.015 138.917C333.991 138.944 333.963 138.966 333.931 138.982C333.899 138.998 333.865 139.007 333.829 139.01C333.498 139.06 333.183 139.187 332.91 139.382C332.637 139.577 332.414 139.833 332.259 140.13C332.243 140.172 332.217 140.209 332.181 140.238C332.146 140.266 332.104 140.284 332.059 140.29Z" fill="#263238"/>
<path d="M341.08 139C341.035 139.001 340.99 138.99 340.95 138.969C340.91 138.948 340.875 138.918 340.85 138.88C340.656 138.591 340.398 138.35 340.097 138.177C339.795 138.004 339.457 137.902 339.11 137.88C339.074 137.874 339.04 137.861 339.01 137.841C338.979 137.822 338.953 137.796 338.932 137.767C338.912 137.737 338.897 137.703 338.89 137.667C338.883 137.632 338.883 137.595 338.89 137.56C338.899 137.504 338.925 137.452 338.964 137.411C339.004 137.369 339.054 137.341 339.11 137.33C339.545 137.356 339.968 137.483 340.346 137.7C340.725 137.916 341.048 138.218 341.29 138.58C341.311 138.609 341.327 138.641 341.335 138.676C341.344 138.711 341.345 138.747 341.34 138.782C341.334 138.818 341.322 138.852 341.303 138.882C341.284 138.913 341.259 138.939 341.23 138.96C341.186 138.989 341.133 139.003 341.08 139Z" fill="#263238"/>
<path d="M325.01 161.22L326.75 164.7L327.27 165.46L324.54 193.26L328.19 196.49L331.83 192.76L328.91 165.46L329.49 164.36L331.06 161.21L329.81 159.39L326.58 158.67L325.01 161.22Z" fill="#263238"/>
<path d="M321.75 156.06L327.79 158.39L332.69 156.25L335.27 159.19L332.75 165.23L327.75 160.05L322.81 165.46L319.27 158.7L321.75 156.06Z" fill="#407BFF"/>
<path opacity="0.9" d="M321.75 156.06L327.79 158.39L332.69 156.25L335.27 159.19L332.75 165.23L327.75 160.05L322.81 165.46L319.27 158.7L321.75 156.06Z" fill="white"/>
<path d="M347.44 139.91H342.83V143.22H347.44V139.91Z" fill="#263238"/>
<path opacity="0.2" d="M347.44 139.91H342.83V143.22H347.44V139.91Z" fill="white"/>
<path d="M362.29 139.15H346.97V144.05H362.29V139.15Z" fill="#263238"/>
<path opacity="0.4" d="M362.29 139.15H346.97V144.05H362.29V139.15Z" fill="white"/>
<path d="M379.949 138.56H360.979V144.63H379.949V138.56Z" fill="#263238"/>
<path opacity="0.5" d="M379.949 138.56H360.979V144.63H379.949V138.56Z" fill="white"/>
<path d="M297.879 171.27C297.879 171.27 291.239 180.27 291.449 183.82C291.789 189.44 304.059 202.5 304.059 202.5L305.599 207.41C305.792 208.025 306.214 208.541 306.779 208.85L310.779 211.01C311.33 211.31 311.974 211.392 312.582 211.238C313.19 211.084 313.718 210.706 314.059 210.18L314.979 208.77C315.27 208.312 315.405 207.773 315.364 207.232C315.322 206.691 315.107 206.178 314.749 205.77L313.159 204L312.919 203.76L307.869 200.34C307.869 200.34 303.869 193.29 301.729 188.21C300.985 186.69 300.528 185.046 300.379 183.36C300.379 180.67 305.169 173.7 305.169 173.7L297.879 171.27Z" fill="#CE7A63"/>
<path d="M310.929 158.74C309.579 157.74 306.439 157.99 304.929 158.74C301.039 160.74 294.779 172.33 294.779 172.33L306.049 178.5C306.049 178.5 312.779 168.38 313.109 164.36C313.279 162.71 312.289 159.71 310.929 158.74Z" fill="#407BFF"/>
<path d="M343.81 139.5H341.85V143.73H343.81V139.5Z" fill="#407BFF"/>
<path d="M381.58 137.91H379.62V145.25H381.58V137.91Z" fill="#407BFF"/>
<path d="M326.24 146.08C326.24 146.08 328.42 144.81 328.14 140.3C328.847 139.754 329.418 139.053 329.809 138.249C330.199 137.446 330.398 136.563 330.39 135.67C330.39 135.67 341.73 133.8 339.69 129.76C337.65 125.72 329.52 124.65 329.52 124.65C329.52 124.65 332.11 128.65 324.87 132.41C317.63 136.17 324.17 145.86 324.17 145.86L326.24 146.08Z" fill="#263238"/>
<path d="M323.77 146.36C324.337 147.51 325.326 148.398 326.53 148.84C328.1 149.42 328.93 148.02 328.53 146.47C328.13 144.92 326.9 143.08 325.3 143.19C323.7 143.3 323.07 144.94 323.77 146.36Z" fill="#CE7A63"/>
<path d="M322 136.57C322 136.57 318.51 134.5 319.75 133.09C320.99 131.68 322 136.57 322 136.57Z" fill="#263238"/>
<path d="M335.149 148.81C334.718 148.489 334.356 148.085 334.084 147.621C333.813 147.157 333.638 146.643 333.569 146.11C333.577 146.08 333.595 146.054 333.619 146.036C333.644 146.017 333.674 146.007 333.704 146.007C333.735 146.007 333.765 146.017 333.789 146.036C333.814 146.054 333.831 146.08 333.839 146.11C333.924 146.689 334.139 147.24 334.468 147.724C334.797 148.207 335.232 148.609 335.739 148.9C335.755 148.908 335.768 148.92 335.779 148.933C335.79 148.947 335.798 148.963 335.802 148.979C335.807 148.996 335.808 149.014 335.806 149.031C335.804 149.048 335.798 149.065 335.789 149.08C335.781 149.097 335.769 149.111 335.755 149.123C335.741 149.135 335.724 149.144 335.706 149.148C335.688 149.153 335.669 149.154 335.651 149.151C335.632 149.148 335.615 149.141 335.599 149.13C335.453 149.043 335.303 148.937 335.149 148.81Z" fill="#263238"/>
</svg>
