<svg width="56" height="54" viewBox="0 0 56 54" fill="none" xmlns="http://www.w3.org/2000/svg">
<path d="M53 40.1613V27.7742C53 14.0918 41.8072 3 28 3C14.1929 3 3 14.0918 3 27.7742V40.1613M9.25 51C5.79822 51 3 48.2271 3 44.8065V38.6129C3 35.1922 5.79822 32.4194 9.25 32.4194C10.9759 32.4194 12.375 33.8058 12.375 35.5161V47.9032C12.375 49.6136 10.9759 51 9.25 51ZM46.75 51C45.0241 51 43.625 49.6136 43.625 47.9032V35.5161C43.625 33.8058 45.0241 32.4194 46.75 32.4194C50.2019 32.4194 53 35.1922 53 38.6129V44.8065C53 48.2271 50.2019 51 46.75 51Z" stroke="#407BFF" stroke-width="5" stroke-linecap="round"/>
</svg>
