<svg width="36" height="32" viewBox="0 0 36 32" fill="none" xmlns="http://www.w3.org/2000/svg">
<path d="M30.0006 11.8V22.3038C30.0006 23.2776 29.539 24.1938 28.7566 24.7734C22.961 29.0664 15.04 29.0664 9.24446 24.7734C8.462 24.1938 8.00052 23.2776 8.00052 22.3038V12.5M22.0006 8.00003L32.585 11.2342C33.426 11.4912 34.0006 12.2674 34.0006 13.1468V23.7144M34.0006 27.381V30M19.9826 15.3064L32.607 10.8878C34.3928 10.2628 34.3928 7.73733 32.607 7.11233L19.9826 2.69377C18.6994 2.24465 17.3016 2.24465 16.0184 2.69377L3.39398 7.11233C1.60826 7.73733 1.60826 10.2628 3.39398 10.8878L16.0184 15.3064C17.3016 15.7554 18.6994 15.7554 19.9826 15.3064Z" stroke="#407BFF" stroke-width="3" stroke-linecap="round"/>
</svg>
